M48
METRIC,LZ,000.000
;FILE_FORMAT=3:3
;TYPE=PLATED
;Layer: PTH_Through
;EasyEDA v6.5.47, 2024-09-12 04:01:22
;8c6c83d31be245b591d831e4eff4e06b,65b0a26063cb4300b6f9becee83ce362,10
;Gerber Generator version 0.2
;Holesize 1 = 0.310 mm
T01C0.310
;Holesize 2 = 0.701 mm
T02C0.701
;Holesize 3 = 0.889 mm
T03C0.889
;Holesize 4 = 0.901 mm
T04C0.901
;Holesize 5 = 0.915 mm
T05C0.915
;Holesize 6 = 1.000 mm
T06C1.000
;Holesize 7 = 1.101 mm
T07C1.101
%
G05
G90
T01
X026162Y-036703
X028894Y-027559
X023241Y-026416
X022098Y-027051
X021336Y-027813
X021082Y-028829
X074676Y-029845
X074803Y-028702
X029011Y-037719
X027051Y-032385
X029591Y-028194
T02
X079068Y-025737G85X078268Y-025737
X079068Y-032937G85X078268Y-032937
X076018Y-031762
X076018Y-026912
T03
X051816Y-038227
X057277Y-038227
X056007Y-002413
X053467Y-002413
X050927Y-002413
X048387Y-002413
X003048Y-025527
X003048Y-028067
T04
X016256Y-035571
X016256Y-030691
T05
X003048Y-030607
X075946Y-014859
X075946Y-017859
X075946Y-020859
T06
X019050Y-018288
X021590Y-018288
X024130Y-018288
X026670Y-018288
X029210Y-018288
X031750Y-018288
X031750Y-005588
X029210Y-005588
X026670Y-005588
X024130Y-005588
X021590Y-005588
X019050Y-005588
T07
X052756Y-014387
X052756Y-018887
X059258Y-014387
X059258Y-018887
X064059Y-014387
X064059Y-018887
X070561Y-014387
X070561Y-018887
M30
