G04 Layer: TopSolderMaskLayer*
G04 EasyEDA v6.5.47, 2024-09-12 04:01:22*
G04 8c6c83d31be245b591d831e4eff4e06b,65b0a26063cb4300b6f9becee83ce362,10*
G04 Gerber Generator version 0.2*
G04 Scale: 100 percent, Rotated: No, Reflected: No *
G04 Dimensions in millimeters *
G04 leading zeros omitted , absolute positions ,4 integer and 5 decimal *
%FSLAX45Y45*%
%MOMM*%

%AMMACRO1*4,1,8,-0.8085,-0.8382,-0.8382,-0.8084,-0.8382,0.8085,-0.8085,0.8382,0.8084,0.8382,0.8382,0.8085,0.8382,-0.8084,0.8084,-0.8382,-0.8085,-0.8382,0*%
%AMMACRO2*4,1,8,-0.8386,-0.8508,-0.8683,-0.821,-0.8683,0.8211,-0.8386,0.8508,0.8385,0.8508,0.8683,0.8211,0.8683,-0.821,0.8385,-0.8508,-0.8386,-0.8508,0*%
%AMMACRO3*1,1,$1,$2,$3*1,1,$1,$4,$5*20,1,$1,$2,$3,$4,$5,0*%
%AMMACRO4*4,1,8,-0.3211,-0.6508,-0.3508,-0.621,-0.3508,0.6211,-0.3211,0.6508,0.321,0.6508,0.3508,0.6211,0.3508,-0.621,0.321,-0.6508,-0.3211,-0.6508,0*%
%AMMACRO5*4,1,8,-1.6711,-1.2508,-1.7008,-1.221,-1.7008,1.2211,-1.6711,1.2508,1.671,1.2508,1.7008,1.2211,1.7008,-1.221,1.671,-1.2508,-1.6711,-1.2508,0*%
%AMMACRO6*4,1,8,-0.287,-0.5868,-0.3168,-0.557,-0.3168,0.557,-0.287,0.5868,0.287,0.5868,0.3168,0.557,0.3168,-0.557,0.287,-0.5868,-0.287,-0.5868,0*%
%AMMACRO7*4,1,8,-0.5996,-0.2958,-0.6293,-0.266,-0.6293,0.2661,-0.5996,0.2958,0.5995,0.2958,0.6293,0.2661,0.6293,-0.266,0.5995,-0.2958,-0.5996,-0.2958,0*%
%AMMACRO8*4,1,8,-0.6086,-0.2958,-0.6383,-0.266,-0.6383,0.2661,-0.6086,0.2958,0.6085,0.2958,0.6383,0.2661,0.6383,-0.266,0.6085,-0.2958,-0.6086,-0.2958,0*%
%AMMACRO9*4,1,8,-0.646,-0.2508,-0.6758,-0.221,-0.6758,0.2211,-0.646,0.2508,0.646,0.2508,0.6758,0.2211,0.6758,-0.221,0.646,-0.2508,-0.646,-0.2508,0*%
%AMMACRO10*4,1,8,-0.7095,-0.6171,-0.7393,-0.5873,-0.7393,0.5873,-0.7095,0.6171,0.7095,0.6171,0.7393,0.5873,0.7393,-0.5873,0.7095,-0.6171,-0.7095,-0.6171,0*%
%AMMACRO11*4,1,8,-0.5873,-0.7393,-0.6171,-0.7095,-0.6171,0.7095,-0.5873,0.7393,0.5873,0.7393,0.6171,0.7095,0.6171,-0.7095,0.5873,-0.7393,-0.5873,-0.7393,0*%
%AMMACRO12*4,1,8,-0.7261,-0.7258,-0.7558,-0.696,-0.7558,0.6961,-0.7261,0.7258,0.726,0.7258,0.7558,0.6961,0.7558,-0.696,0.726,-0.7258,-0.7261,-0.7258,0*%
%AMMACRO13*4,1,8,-0.6961,-0.7558,-0.7258,-0.726,-0.7258,0.7261,-0.6961,0.7558,0.696,0.7558,0.7258,0.7261,0.7258,-0.726,0.696,-0.7558,-0.6961,-0.7558,0*%
%ADD10MACRO1*%
%ADD11C,1.6764*%
%ADD12C,1.9016*%
%ADD13MACRO2*%
%ADD14O,0.5015992X1.6015970000000002*%
%ADD15MACRO3,0.37X-0.4349X-0.4349X0.4349X0.4349*%
%ADD16MACRO3,0.37X-0.4349X0.4349X0.4349X-0.4349*%
%ADD17MACRO4*%
%ADD18MACRO5*%
%ADD19MACRO6*%
%ADD20MACRO7*%
%ADD21MACRO8*%
%ADD22C,1.6256*%
%ADD23MACRO9*%
%ADD24O,2.3015956X1.4015974000000002*%
%ADD25C,1.3016*%
%ADD26MACRO10*%
%ADD27MACRO11*%
%ADD28MACRO12*%
%ADD29MACRO13*%

%LPD*%
D10*
G01*
X5181600Y-3822700D03*
G01*
X5727700Y-3822700D03*
G01*
X5600700Y-241300D03*
D11*
G01*
X5346700Y-241300D03*
G01*
X5092700Y-241300D03*
G01*
X4838700Y-241300D03*
D10*
G01*
X304800Y-2552700D03*
D11*
G01*
X304800Y-2806700D03*
G01*
X304800Y-3060700D03*
D12*
G01*
X5275579Y-1438655D03*
G01*
X5275579Y-1888744D03*
G01*
X5925820Y-1438655D03*
G01*
X5925820Y-1888744D03*
G01*
X6405879Y-1438655D03*
G01*
X6405879Y-1888744D03*
G01*
X7056120Y-1438655D03*
G01*
X7056120Y-1888744D03*
D13*
G01*
X6325260Y-3695700D03*
G01*
X6628739Y-3695700D03*
G01*
X7263739Y-3695700D03*
G01*
X6960260Y-3695700D03*
D14*
G01*
X5553963Y-2974339D03*
G01*
X5618988Y-2974339D03*
G01*
X5684011Y-2974339D03*
G01*
X5749036Y-2974339D03*
G01*
X5553963Y-2334260D03*
G01*
X5618988Y-2334260D03*
G01*
X5684011Y-2334260D03*
G01*
X5749036Y-2334260D03*
D12*
G01*
X1905000Y-1828800D03*
G01*
X2159000Y-1828800D03*
G01*
X2413000Y-1828800D03*
G01*
X2667000Y-1828800D03*
G01*
X2921000Y-1828800D03*
G01*
X3175000Y-1828800D03*
G01*
X3175000Y-558800D03*
G01*
X2921000Y-558800D03*
G01*
X2667000Y-558800D03*
G01*
X2413000Y-558800D03*
G01*
X2159000Y-558800D03*
G01*
X1905000Y-558800D03*
D15*
G01*
X2095830Y-3408070D03*
G01*
X2131187Y-3443427D03*
G01*
X2166543Y-3478758D03*
G01*
X2201900Y-3514140D03*
G01*
X2237257Y-3549472D03*
G01*
X2272614Y-3584854D03*
G01*
X2307945Y-3620185D03*
G01*
X2343327Y-3655542D03*
G01*
X2378659Y-3690899D03*
G01*
X2414041Y-3726256D03*
G01*
X2449372Y-3761613D03*
G01*
X2484729Y-3796969D03*
D16*
G01*
X2696870Y-3796969D03*
G01*
X2732227Y-3761613D03*
G01*
X2767558Y-3726256D03*
G01*
X2802940Y-3690899D03*
G01*
X2838272Y-3655542D03*
G01*
X2873654Y-3620185D03*
G01*
X2908985Y-3584854D03*
G01*
X2944342Y-3549472D03*
G01*
X2979699Y-3514140D03*
G01*
X3015056Y-3478758D03*
G01*
X3050412Y-3443427D03*
G01*
X3085769Y-3408070D03*
D15*
G01*
X3085769Y-3195955D03*
G01*
X3050412Y-3160572D03*
G01*
X3015056Y-3125241D03*
G01*
X2979699Y-3089859D03*
G01*
X2944342Y-3054527D03*
G01*
X2908985Y-3019171D03*
G01*
X2873654Y-2983814D03*
G01*
X2838272Y-2948457D03*
G01*
X2802940Y-2913100D03*
G01*
X2767558Y-2877743D03*
G01*
X2732227Y-2842386D03*
G01*
X2696870Y-2807030D03*
D16*
G01*
X2484729Y-2807030D03*
G01*
X2449372Y-2842386D03*
G01*
X2414041Y-2877743D03*
G01*
X2378659Y-2913100D03*
G01*
X2343327Y-2948457D03*
G01*
X2307945Y-2983814D03*
G01*
X2272614Y-3019171D03*
G01*
X2237257Y-3054527D03*
G01*
X2201900Y-3089859D03*
G01*
X2166543Y-3125241D03*
G01*
X2131187Y-3160572D03*
G01*
X2095830Y-3195955D03*
D17*
G01*
X6845300Y-2731769D03*
G01*
X6718300Y-2731769D03*
G01*
X6591300Y-2731769D03*
G01*
X6464300Y-2731769D03*
G01*
X6464300Y-3313430D03*
G01*
X6591300Y-3313430D03*
G01*
X6718300Y-3313430D03*
G01*
X6845300Y-3313430D03*
D18*
G01*
X6654798Y-3022600D03*
D19*
G01*
X5327395Y-3237890D03*
G01*
X5232400Y-3237890D03*
G01*
X5137404Y-3237890D03*
G01*
X5137404Y-3467709D03*
G01*
X5232400Y-3467709D03*
G01*
X5327395Y-3467709D03*
D20*
G01*
X4839766Y-3066796D03*
G01*
X4839766Y-2971800D03*
G01*
X4839766Y-2876803D03*
D21*
G01*
X4609033Y-2876803D03*
G01*
X4609033Y-3066796D03*
D22*
G01*
X7594600Y-1485900D03*
G01*
X7594600Y-1785899D03*
G01*
X7594600Y-2085898D03*
D23*
G01*
X7601811Y-2803700D03*
G01*
X7601811Y-2868698D03*
G01*
X7601811Y-2933700D03*
G01*
X7601811Y-2998701D03*
G01*
X7601811Y-3063699D03*
D24*
G01*
X7866786Y-2573705D03*
G01*
X7866786Y-3293694D03*
D25*
G01*
X7601788Y-3176193D03*
G01*
X7601788Y-2691206D03*
D12*
G01*
X1625600Y-3557092D03*
G01*
X1625600Y-3069107D03*
D26*
G01*
X7175500Y-3176595D03*
G01*
X7175500Y-3376604D03*
G01*
X6286500Y-2452695D03*
G01*
X6286500Y-2652704D03*
D27*
G01*
X6284904Y-3441700D03*
G01*
X6084895Y-3441700D03*
D26*
G01*
X6146800Y-3186104D03*
G01*
X6146800Y-2986095D03*
G01*
X2819400Y-2487604D03*
G01*
X2819400Y-2287595D03*
G01*
X3175000Y-2487604D03*
G01*
X3175000Y-2287595D03*
G01*
X3492500Y-2487604D03*
G01*
X3492500Y-2287595D03*
G01*
X3810000Y-2487604D03*
G01*
X3810000Y-2287595D03*
D27*
G01*
X6084895Y-1054100D03*
G01*
X6284904Y-1054100D03*
G01*
X6691304Y-1054100D03*
G01*
X6491295Y-1054100D03*
D28*
G01*
X3833802Y-3822700D03*
G01*
X3633797Y-3822700D03*
G01*
X3833802Y-3530600D03*
G01*
X3633797Y-3530600D03*
G01*
X3833802Y-3238500D03*
G01*
X3633797Y-3238500D03*
D29*
G01*
X3390900Y-3833802D03*
G01*
X3390900Y-3633797D03*
G01*
X3390900Y-3189297D03*
G01*
X3390900Y-3389302D03*
G01*
X1409700Y-2513002D03*
G01*
X1409700Y-2312997D03*
G01*
X1714500Y-2513002D03*
G01*
X1714500Y-2312997D03*
G01*
X2019300Y-2513002D03*
G01*
X2019300Y-2312997D03*
G01*
X7188200Y-2906702D03*
G01*
X7188200Y-2706697D03*
G01*
X5676900Y-3227397D03*
G01*
X5676900Y-3427402D03*
G01*
X4762500Y-3821102D03*
G01*
X4762500Y-3621097D03*
G01*
X5054600Y-2792402D03*
G01*
X5054600Y-2592397D03*
G01*
X4445000Y-3621097D03*
G01*
X4445000Y-3821102D03*
G01*
X4127500Y-3621097D03*
G01*
X4127500Y-3821102D03*
M02*
