G04 Layer: TopLayer*
G04 EasyEDA v6.5.47, 2024-09-12 04:01:22*
G04 8c6c83d31be245b591d831e4eff4e06b,65b0a26063cb4300b6f9becee83ce362,10*
G04 Gerber Generator version 0.2*
G04 Scale: 100 percent, Rotated: No, Reflected: No *
G04 Dimensions in millimeters *
G04 leading zeros omitted , absolute positions ,4 integer and 5 decimal *
%FSLAX45Y45*%
%MOMM*%

%AMMACRO1*1,1,$1,$2,$3*1,1,$1,$4,$5*20,1,$1,$2,$3,$4,$5,0*%
%AMMACRO2*21,1,$1,$2,0,0,$3*%
%ADD10C,0.2550*%
%ADD11C,0.4550*%
%ADD12C,0.2540*%
%ADD13R,1.6350X1.6000*%
%ADD14O,0.3999992X1.499997*%
%ADD15MACRO1,0.27X-0.4349X-0.4349X0.4349X0.4349*%
%ADD16MACRO1,0.27X-0.4349X0.4349X0.4349X-0.4349*%
%ADD17R,0.6000X1.2000*%
%ADD18R,3.3000X2.4000*%
%ADD19R,0.5320X1.0720*%
%ADD20R,1.1570X0.4900*%
%ADD21R,1.1750X0.4900*%
%ADD22R,1.2500X0.4000*%
%ADD23MACRO2,1.377X1.1325X0.0000*%
%ADD24R,1.3770X1.1325*%
%ADD25MACRO2,1.377X1.1325X90.0000*%
%ADD26MACRO2,1.377X1.1325X-90.0000*%
%ADD27MACRO2,1.35X1.41X90.0000*%
%ADD28MACRO2,1.35X1.41X0.0000*%
%ADD29R,1.3500X1.4100*%
%ADD30R,1.5748X1.5748*%
%ADD31C,1.5748*%
%ADD32C,1.8000*%
%ADD33C,1.5240*%
%ADD34O,2.1999956000000003X1.2999974*%
%ADD35C,1.2000*%
%ADD36C,0.6200*%
%ADD37C,0.0121*%

%LPD*%
G36*
X4783226Y-2826410D02*
G01*
X4779314Y-2825597D01*
X4776012Y-2823413D01*
X4773828Y-2820111D01*
X4773066Y-2816250D01*
X4773066Y-2464308D01*
X4773828Y-2460396D01*
X4776012Y-2457094D01*
X5231282Y-2001926D01*
X5234127Y-1999894D01*
X5237480Y-1998980D01*
X5240985Y-1999284D01*
X5253888Y-2002586D01*
X5268315Y-2004415D01*
X5282844Y-2004415D01*
X5297271Y-2002586D01*
X5310225Y-1999234D01*
X5313730Y-1998980D01*
X5317083Y-1999894D01*
X5319928Y-2001926D01*
X5411216Y-2093112D01*
X5418632Y-2098751D01*
X5426659Y-2102713D01*
X5435295Y-2105202D01*
X5444693Y-2106066D01*
X5547868Y-2106066D01*
X5551881Y-2106879D01*
X5555234Y-2109266D01*
X5557418Y-2112772D01*
X5557977Y-2116836D01*
X5556910Y-2120798D01*
X5553252Y-2124913D01*
X5171287Y-2506980D01*
X5162854Y-2518359D01*
X5159451Y-2520340D01*
X5155539Y-2520848D01*
X5151729Y-2519832D01*
X5148580Y-2517444D01*
X5146548Y-2514041D01*
X5145379Y-2510688D01*
X5142280Y-2505760D01*
X5138216Y-2501696D01*
X5133289Y-2498598D01*
X5127853Y-2496718D01*
X5121554Y-2496007D01*
X5094681Y-2496007D01*
X5094681Y-2550820D01*
X5148173Y-2550820D01*
X5152085Y-2551582D01*
X5155387Y-2553766D01*
X5157571Y-2557068D01*
X5158333Y-2560980D01*
X5158333Y-2623820D01*
X5157571Y-2627731D01*
X5155387Y-2631033D01*
X5152085Y-2633218D01*
X5148173Y-2633980D01*
X5094681Y-2633980D01*
X5094681Y-2685846D01*
X5093919Y-2689707D01*
X5091734Y-2693009D01*
X5088432Y-2695244D01*
X5084521Y-2696006D01*
X5024678Y-2696006D01*
X5020767Y-2695244D01*
X5017465Y-2693009D01*
X5015280Y-2689707D01*
X5014518Y-2685846D01*
X5014518Y-2633980D01*
X4961178Y-2633980D01*
X4961178Y-2662326D01*
X4961890Y-2668625D01*
X4963820Y-2674112D01*
X4966919Y-2678988D01*
X4970983Y-2683103D01*
X4975047Y-2686608D01*
X4976622Y-2690368D01*
X4976622Y-2694432D01*
X4975047Y-2698191D01*
X4970983Y-2701696D01*
X4966919Y-2705811D01*
X4963820Y-2710688D01*
X4961890Y-2716174D01*
X4961178Y-2722473D01*
X4961178Y-2733598D01*
X4960416Y-2737459D01*
X4958232Y-2740761D01*
X4954930Y-2742946D01*
X4951018Y-2743758D01*
X4922266Y-2743809D01*
X4913020Y-2745079D01*
X4904536Y-2747924D01*
X4896713Y-2752293D01*
X4889449Y-2758338D01*
X4824323Y-2823413D01*
X4821021Y-2825597D01*
X4817160Y-2826410D01*
G37*

%LPC*%
G36*
X4961178Y-2550820D02*
G01*
X5014518Y-2550820D01*
X5014518Y-2496007D01*
X4987645Y-2496007D01*
X4981346Y-2496718D01*
X4975910Y-2498598D01*
X4970983Y-2501696D01*
X4966919Y-2505760D01*
X4963820Y-2510688D01*
X4961890Y-2516124D01*
X4961178Y-2522474D01*
G37*

%LPD*%
G36*
X4931511Y-3018129D02*
G01*
X4927752Y-3017418D01*
X4924501Y-3015335D01*
X4922266Y-3012186D01*
X4921351Y-3008426D01*
X4921910Y-3004616D01*
X4922824Y-3002026D01*
X4923536Y-2995726D01*
X4923536Y-2990392D01*
X4875072Y-2990392D01*
X4875072Y-3006242D01*
X4874260Y-3010103D01*
X4872075Y-3013405D01*
X4868773Y-3015640D01*
X4864912Y-3016402D01*
X4814671Y-3016402D01*
X4810760Y-3015640D01*
X4807458Y-3013405D01*
X4805273Y-3010103D01*
X4804511Y-3006242D01*
X4804511Y-2990392D01*
X4783226Y-2990392D01*
X4779314Y-2989630D01*
X4776012Y-2987446D01*
X4773828Y-2984144D01*
X4773066Y-2980232D01*
X4773066Y-2963367D01*
X4773828Y-2959455D01*
X4776012Y-2956153D01*
X4779314Y-2953969D01*
X4783226Y-2953207D01*
X4804511Y-2953207D01*
X4804511Y-2937357D01*
X4805273Y-2933496D01*
X4807458Y-2930194D01*
X4810760Y-2927959D01*
X4814671Y-2927197D01*
X4864912Y-2927197D01*
X4868773Y-2927959D01*
X4872075Y-2930194D01*
X4874260Y-2933496D01*
X4875072Y-2937357D01*
X4875072Y-2953207D01*
X4923536Y-2953207D01*
X4923536Y-2947873D01*
X4922824Y-2941574D01*
X4920894Y-2936087D01*
X4917236Y-2930194D01*
X4916068Y-2927604D01*
X4915662Y-2923794D01*
X4916068Y-2920949D01*
X4917236Y-2918358D01*
X4920894Y-2912516D01*
X4922824Y-2907030D01*
X4923536Y-2900730D01*
X4923536Y-2866085D01*
X4924298Y-2862173D01*
X4926533Y-2858871D01*
X4941366Y-2844038D01*
X4944668Y-2841853D01*
X4948529Y-2841040D01*
X4951018Y-2841040D01*
X4954930Y-2841853D01*
X4958232Y-2844038D01*
X4960416Y-2847340D01*
X4961178Y-2851200D01*
X4961178Y-2862326D01*
X4961890Y-2868676D01*
X4963820Y-2874111D01*
X4966919Y-2879039D01*
X4970983Y-2883103D01*
X4975809Y-2886100D01*
X4978349Y-2888386D01*
X4979974Y-2891383D01*
X4980533Y-2894736D01*
X4980533Y-2972816D01*
X4979771Y-2976727D01*
X4977587Y-2980029D01*
X4942433Y-3015183D01*
X4939131Y-3017367D01*
X4935220Y-3018129D01*
G37*

%LPD*%
G36*
X2462784Y-3432657D02*
G01*
X2458872Y-3431895D01*
X2455621Y-3429711D01*
X2313635Y-3287776D01*
X2307437Y-3282645D01*
X2300732Y-3279089D01*
X2293518Y-3276904D01*
X2285492Y-3276092D01*
X2189734Y-3276092D01*
X2181656Y-3276904D01*
X2177288Y-3276396D01*
X2173579Y-3274110D01*
X2171192Y-3270503D01*
X2170480Y-3266186D01*
X2171700Y-3261969D01*
X2175662Y-3254502D01*
X2177389Y-3248863D01*
X2178862Y-3245916D01*
X2181199Y-3243580D01*
X2184146Y-3242106D01*
X2189734Y-3240430D01*
X2191562Y-3239465D01*
X2175865Y-3223768D01*
X2174087Y-3221380D01*
X2172055Y-3217570D01*
X2166823Y-3211220D01*
X2134463Y-3178810D01*
X2132939Y-3176879D01*
X2131364Y-3172815D01*
X2131060Y-3168396D01*
X2132634Y-3164230D01*
X2135886Y-3161182D01*
X2140102Y-3159760D01*
X2144522Y-3160318D01*
X2148281Y-3162706D01*
X2181809Y-3196234D01*
X2188159Y-3201466D01*
X2192070Y-3203498D01*
X2194458Y-3205276D01*
X2210054Y-3220923D01*
X2211019Y-3219094D01*
X2212746Y-3213557D01*
X2214168Y-3210560D01*
X2216556Y-3208223D01*
X2219502Y-3206800D01*
X2225090Y-3205073D01*
X2231898Y-3201466D01*
X2237841Y-3196539D01*
X2242769Y-3190595D01*
X2246376Y-3183788D01*
X2248103Y-3178149D01*
X2249576Y-3175203D01*
X2251913Y-3172866D01*
X2254859Y-3171393D01*
X2260447Y-3169716D01*
X2267254Y-3166059D01*
X2273198Y-3161182D01*
X2278126Y-3155188D01*
X2281732Y-3148380D01*
X2283460Y-3142843D01*
X2284882Y-3139846D01*
X2287219Y-3137509D01*
X2290216Y-3136087D01*
X2295804Y-3134360D01*
X2302611Y-3130753D01*
X2308555Y-3125825D01*
X2313482Y-3119882D01*
X2317089Y-3113074D01*
X2318816Y-3107486D01*
X2320290Y-3104489D01*
X2322626Y-3102152D01*
X2325573Y-3100679D01*
X2331161Y-3099003D01*
X2337968Y-3095345D01*
X2343912Y-3090468D01*
X2348839Y-3084525D01*
X2352446Y-3077718D01*
X2354173Y-3072130D01*
X2355596Y-3069183D01*
X2357932Y-3066846D01*
X2360930Y-3065373D01*
X2366518Y-3063646D01*
X2373325Y-3060039D01*
X2379268Y-3055112D01*
X2384196Y-3049168D01*
X2387803Y-3042361D01*
X2389530Y-3036773D01*
X2391003Y-3033776D01*
X2393340Y-3031439D01*
X2396286Y-3029966D01*
X2401874Y-3028289D01*
X2408682Y-3024632D01*
X2414625Y-3019755D01*
X2419553Y-3013811D01*
X2423160Y-3007004D01*
X2424836Y-3001416D01*
X2426309Y-2998470D01*
X2428646Y-2996133D01*
X2431643Y-2994660D01*
X2437231Y-2992932D01*
X2444038Y-2989326D01*
X2449982Y-2984398D01*
X2454910Y-2978454D01*
X2458516Y-2971647D01*
X2460244Y-2966059D01*
X2461717Y-2963062D01*
X2464054Y-2960725D01*
X2467000Y-2959252D01*
X2472588Y-2957576D01*
X2479395Y-2953918D01*
X2485339Y-2949041D01*
X2490266Y-2943098D01*
X2493873Y-2936290D01*
X2495550Y-2930702D01*
X2497023Y-2927756D01*
X2499360Y-2925419D01*
X2502357Y-2923946D01*
X2507945Y-2922219D01*
X2514752Y-2918612D01*
X2520696Y-2913684D01*
X2525623Y-2907741D01*
X2529230Y-2900934D01*
X2530957Y-2895346D01*
X2532380Y-2892348D01*
X2534767Y-2890012D01*
X2537714Y-2888538D01*
X2543302Y-2886862D01*
X2550109Y-2883255D01*
X2556052Y-2878328D01*
X2560980Y-2872384D01*
X2564587Y-2865577D01*
X2566822Y-2858160D01*
X2567584Y-2850489D01*
X2566822Y-2842818D01*
X2564587Y-2835452D01*
X2560980Y-2828645D01*
X2555748Y-2822295D01*
X2520899Y-2787396D01*
X2519121Y-2785008D01*
X2516835Y-2780792D01*
X2511704Y-2774543D01*
X2383790Y-2646629D01*
X2381758Y-2643733D01*
X2380843Y-2640330D01*
X2380132Y-2631998D01*
X2377744Y-2622651D01*
X2373731Y-2613863D01*
X2368346Y-2605887D01*
X2361692Y-2598928D01*
X2353919Y-2593187D01*
X2345283Y-2588818D01*
X2336088Y-2586024D01*
X2326538Y-2584754D01*
X2316886Y-2585212D01*
X2307437Y-2587244D01*
X2298496Y-2590800D01*
X2290267Y-2595880D01*
X2283053Y-2602230D01*
X2276957Y-2609748D01*
X2272284Y-2618181D01*
X2269083Y-2627274D01*
X2267458Y-2636774D01*
X2267458Y-2646426D01*
X2268829Y-2654554D01*
X2268626Y-2658922D01*
X2266594Y-2662834D01*
X2263089Y-2665476D01*
X2258822Y-2666441D01*
X2255570Y-2666441D01*
X2251608Y-2665628D01*
X2239619Y-2656687D01*
X2230983Y-2652318D01*
X2221788Y-2649524D01*
X2212238Y-2648254D01*
X2202586Y-2648712D01*
X2193137Y-2650744D01*
X2184196Y-2654300D01*
X2175967Y-2659380D01*
X2168753Y-2665730D01*
X2162657Y-2673248D01*
X2157984Y-2681681D01*
X2154783Y-2690774D01*
X2153158Y-2700274D01*
X2153158Y-2709926D01*
X2153767Y-2713532D01*
X2153666Y-2717292D01*
X2152243Y-2720746D01*
X2149652Y-2723489D01*
X2146198Y-2725064D01*
X2142439Y-2725318D01*
X2136038Y-2724454D01*
X2126386Y-2724912D01*
X2116937Y-2726944D01*
X2107996Y-2730500D01*
X2099767Y-2735580D01*
X2092553Y-2741930D01*
X2086457Y-2749448D01*
X2081784Y-2757881D01*
X2078583Y-2766974D01*
X2078126Y-2769463D01*
X2076551Y-2773476D01*
X2073452Y-2776423D01*
X2069388Y-2777845D01*
X2065121Y-2777490D01*
X2061413Y-2775407D01*
X2058873Y-2771952D01*
X2057958Y-2767787D01*
X2057958Y-2619552D01*
X2058720Y-2615692D01*
X2060956Y-2612390D01*
X2064207Y-2610205D01*
X2068118Y-2609392D01*
X2086254Y-2609392D01*
X2092553Y-2608681D01*
X2097989Y-2606802D01*
X2102916Y-2603703D01*
X2106980Y-2599639D01*
X2110079Y-2594711D01*
X2112010Y-2589276D01*
X2112721Y-2582926D01*
X2112721Y-2443073D01*
X2112010Y-2436774D01*
X2110079Y-2431288D01*
X2106980Y-2426411D01*
X2102916Y-2422296D01*
X2098852Y-2418791D01*
X2097278Y-2415032D01*
X2097278Y-2410968D01*
X2098852Y-2407208D01*
X2102916Y-2403703D01*
X2106980Y-2399588D01*
X2110079Y-2394712D01*
X2112010Y-2389225D01*
X2112721Y-2382926D01*
X2112721Y-2361793D01*
X2113483Y-2357932D01*
X2115667Y-2354630D01*
X2118969Y-2352446D01*
X2122881Y-2351633D01*
X2182622Y-2351633D01*
X2186482Y-2352446D01*
X2189784Y-2354630D01*
X2634488Y-2799283D01*
X2636672Y-2802585D01*
X2637434Y-2806496D01*
X2636672Y-2810357D01*
X2634488Y-2813659D01*
X2625852Y-2822295D01*
X2620213Y-2829102D01*
X2612644Y-2836672D01*
X2607513Y-2842920D01*
X2603957Y-2849575D01*
X2601772Y-2856788D01*
X2600960Y-2864815D01*
X2600960Y-3294481D01*
X2600198Y-3298393D01*
X2597962Y-3301695D01*
X2469946Y-3429711D01*
X2466695Y-3431895D01*
G37*

%LPD*%
G36*
X6177584Y-3475990D02*
G01*
X6173724Y-3475228D01*
X6170422Y-3472992D01*
X6168186Y-3469741D01*
X6167424Y-3465829D01*
X6167424Y-3373424D01*
X6166713Y-3367074D01*
X6164783Y-3361639D01*
X6161735Y-3356711D01*
X6157620Y-3352647D01*
X6152743Y-3349548D01*
X6147257Y-3347669D01*
X6140958Y-3346958D01*
X6028842Y-3346958D01*
X6022492Y-3347669D01*
X6017056Y-3349548D01*
X6012180Y-3352647D01*
X6008065Y-3356711D01*
X6004966Y-3361639D01*
X6003086Y-3367074D01*
X6002375Y-3373424D01*
X6002375Y-3382873D01*
X6001562Y-3386785D01*
X5999378Y-3390087D01*
X5996076Y-3392271D01*
X5992215Y-3393033D01*
X5780481Y-3393033D01*
X5776569Y-3392271D01*
X5773267Y-3390087D01*
X5771083Y-3386785D01*
X5770321Y-3382873D01*
X5770321Y-3357473D01*
X5769610Y-3351174D01*
X5767679Y-3345687D01*
X5764580Y-3340811D01*
X5760516Y-3336696D01*
X5756452Y-3333191D01*
X5754878Y-3329432D01*
X5754878Y-3325368D01*
X5756452Y-3321608D01*
X5760516Y-3318103D01*
X5764580Y-3313988D01*
X5767679Y-3309112D01*
X5769610Y-3303625D01*
X5770321Y-3297326D01*
X5770321Y-3157474D01*
X5769610Y-3151124D01*
X5767679Y-3145688D01*
X5764580Y-3140760D01*
X5760516Y-3136696D01*
X5755589Y-3133598D01*
X5750153Y-3131718D01*
X5743854Y-3131007D01*
X5735574Y-3131007D01*
X5732018Y-3130346D01*
X5728919Y-3128518D01*
X5726633Y-3125673D01*
X5725515Y-3122218D01*
X5724245Y-3113074D01*
X5721350Y-3104540D01*
X5717032Y-3096717D01*
X5710986Y-3089452D01*
X5705754Y-3084271D01*
X5703722Y-3081274D01*
X5702808Y-3077718D01*
X5703265Y-3074111D01*
X5704890Y-3070860D01*
X5707634Y-3068421D01*
X5711190Y-3066237D01*
X5714644Y-3064865D01*
X5718403Y-3064865D01*
X5721858Y-3066237D01*
X5728614Y-3070402D01*
X5736488Y-3073450D01*
X5744819Y-3075025D01*
X5753252Y-3075025D01*
X5761583Y-3073450D01*
X5769457Y-3070402D01*
X5776671Y-3065932D01*
X5782919Y-3060242D01*
X5788050Y-3053486D01*
X5791809Y-3045917D01*
X5794095Y-3037789D01*
X5794959Y-3028848D01*
X5794959Y-2991307D01*
X5795314Y-2988513D01*
X5796838Y-2983280D01*
X5797702Y-2973882D01*
X5797702Y-2930347D01*
X5798464Y-2926435D01*
X5800648Y-2923133D01*
X5803950Y-2920949D01*
X5807862Y-2920187D01*
X5811723Y-2920949D01*
X5815025Y-2923133D01*
X6049060Y-3157169D01*
X6051245Y-3160471D01*
X6052058Y-3164382D01*
X6052058Y-3242157D01*
X6052769Y-3248507D01*
X6054648Y-3253943D01*
X6057747Y-3258820D01*
X6061811Y-3262934D01*
X6066739Y-3266033D01*
X6072174Y-3267913D01*
X6078524Y-3268624D01*
X6215075Y-3268624D01*
X6221425Y-3267913D01*
X6226860Y-3266033D01*
X6231788Y-3262934D01*
X6235852Y-3258820D01*
X6238951Y-3253943D01*
X6240830Y-3248507D01*
X6241542Y-3242157D01*
X6241542Y-3130042D01*
X6240830Y-3123742D01*
X6238951Y-3118256D01*
X6235852Y-3113379D01*
X6231788Y-3109264D01*
X6226860Y-3106216D01*
X6221425Y-3104286D01*
X6215075Y-3103575D01*
X6137300Y-3103575D01*
X6133388Y-3102813D01*
X6130086Y-3100578D01*
X6109004Y-3079496D01*
X6106820Y-3076194D01*
X6106007Y-3072282D01*
X6106007Y-3020771D01*
X6054496Y-3020771D01*
X6050584Y-3020009D01*
X6047282Y-3017774D01*
X5762345Y-2732887D01*
X5754878Y-2727248D01*
X5746851Y-2723286D01*
X5738215Y-2720797D01*
X5728817Y-2719933D01*
X5704586Y-2719933D01*
X5700725Y-2719171D01*
X5697423Y-2716987D01*
X5695188Y-2713685D01*
X5694426Y-2709773D01*
X5695188Y-2705912D01*
X5697423Y-2702610D01*
X5784748Y-2615184D01*
X5790387Y-2607767D01*
X5794349Y-2599740D01*
X5796838Y-2591104D01*
X5797702Y-2581706D01*
X5797702Y-2334717D01*
X5796838Y-2325319D01*
X5795314Y-2320086D01*
X5794959Y-2317292D01*
X5794959Y-2279751D01*
X5794095Y-2270810D01*
X5791809Y-2262682D01*
X5788050Y-2255113D01*
X5782919Y-2248357D01*
X5776671Y-2242667D01*
X5769457Y-2238197D01*
X5761583Y-2235149D01*
X5753252Y-2233574D01*
X5744819Y-2233574D01*
X5736488Y-2235149D01*
X5728614Y-2238197D01*
X5721858Y-2242362D01*
X5718403Y-2243734D01*
X5714644Y-2243734D01*
X5711190Y-2242362D01*
X5704433Y-2238197D01*
X5696559Y-2235149D01*
X5688228Y-2233574D01*
X5679795Y-2233574D01*
X5671464Y-2235149D01*
X5663590Y-2238197D01*
X5656834Y-2242362D01*
X5653379Y-2243734D01*
X5649620Y-2243734D01*
X5646166Y-2242362D01*
X5639409Y-2238197D01*
X5635345Y-2236622D01*
X5635345Y-2293620D01*
X5637377Y-2296820D01*
X5638088Y-2300579D01*
X5638088Y-2367940D01*
X5637377Y-2371699D01*
X5635345Y-2374900D01*
X5635345Y-2431897D01*
X5639409Y-2430322D01*
X5646166Y-2426157D01*
X5649620Y-2424785D01*
X5653379Y-2424785D01*
X5656834Y-2426157D01*
X5663590Y-2430322D01*
X5671464Y-2433370D01*
X5679795Y-2434945D01*
X5692749Y-2435047D01*
X5696712Y-2437079D01*
X5699404Y-2440584D01*
X5700369Y-2444902D01*
X5700369Y-2557780D01*
X5699607Y-2561691D01*
X5697423Y-2564993D01*
X5608929Y-2653487D01*
X5605627Y-2655671D01*
X5601716Y-2656433D01*
X5376316Y-2656484D01*
X5367070Y-2657754D01*
X5358536Y-2660650D01*
X5350713Y-2664968D01*
X5343448Y-2671013D01*
X5272989Y-2741472D01*
X5269687Y-2743708D01*
X5265826Y-2744470D01*
X5261914Y-2743708D01*
X5258612Y-2741472D01*
X5256428Y-2738170D01*
X5255666Y-2734310D01*
X5255666Y-2564384D01*
X5256428Y-2560472D01*
X5258612Y-2557170D01*
X5490718Y-2325116D01*
X5494020Y-2322880D01*
X5497880Y-2322118D01*
X5501792Y-2322880D01*
X5505094Y-2325116D01*
X5507278Y-2328418D01*
X5508040Y-2332278D01*
X5508040Y-2388768D01*
X5508904Y-2397709D01*
X5511190Y-2405837D01*
X5514949Y-2413406D01*
X5520080Y-2420162D01*
X5526328Y-2425852D01*
X5533542Y-2430322D01*
X5541416Y-2433370D01*
X5549747Y-2434945D01*
X5558180Y-2434945D01*
X5566511Y-2433370D01*
X5574385Y-2430322D01*
X5581142Y-2426157D01*
X5584596Y-2424785D01*
X5588355Y-2424785D01*
X5591810Y-2426157D01*
X5598566Y-2430322D01*
X5602630Y-2431897D01*
X5602630Y-2374900D01*
X5600598Y-2371699D01*
X5599887Y-2367940D01*
X5599887Y-2300579D01*
X5600598Y-2296820D01*
X5602630Y-2293620D01*
X5602630Y-2234895D01*
X5598820Y-2233015D01*
X5596128Y-2229764D01*
X5594959Y-2225649D01*
X5595620Y-2221433D01*
X5597956Y-2217877D01*
X5605170Y-2210612D01*
X5608472Y-2208428D01*
X5612384Y-2207666D01*
X6042914Y-2207666D01*
X6046774Y-2208428D01*
X6050076Y-2210612D01*
X6052312Y-2213914D01*
X6053074Y-2217826D01*
X6052312Y-2221687D01*
X6050076Y-2224989D01*
X5958687Y-2316480D01*
X5953048Y-2323896D01*
X5949086Y-2331923D01*
X5946597Y-2340559D01*
X5945733Y-2349957D01*
X5945784Y-2795879D01*
X5947054Y-2805125D01*
X5949950Y-2813659D01*
X5954268Y-2821482D01*
X5960313Y-2828747D01*
X5999480Y-2867812D01*
X6006896Y-2873451D01*
X6014923Y-2877413D01*
X6023559Y-2879902D01*
X6032957Y-2880766D01*
X6262116Y-2880766D01*
X6266027Y-2881528D01*
X6269329Y-2883712D01*
X6272987Y-2887370D01*
X6275171Y-2890672D01*
X6275933Y-2894584D01*
X6275933Y-3336798D01*
X6275171Y-3340658D01*
X6272987Y-3343960D01*
X6269685Y-3346145D01*
X6265773Y-3346958D01*
X6228842Y-3346958D01*
X6222542Y-3347669D01*
X6217056Y-3349548D01*
X6212179Y-3352647D01*
X6208064Y-3356711D01*
X6205016Y-3361639D01*
X6203086Y-3367074D01*
X6202375Y-3373424D01*
X6202375Y-3451199D01*
X6201613Y-3455111D01*
X6199378Y-3458413D01*
X6184798Y-3472992D01*
X6181496Y-3475228D01*
G37*

%LPC*%
G36*
X6187592Y-3068624D02*
G01*
X6215075Y-3068624D01*
X6221425Y-3067913D01*
X6226860Y-3065983D01*
X6231788Y-3062935D01*
X6235852Y-3058820D01*
X6238951Y-3053943D01*
X6240830Y-3048457D01*
X6241542Y-3042158D01*
X6241542Y-3020771D01*
X6187592Y-3020771D01*
G37*
G36*
X6052058Y-2951429D02*
G01*
X6106007Y-2951429D01*
X6106007Y-2903575D01*
X6078524Y-2903575D01*
X6072174Y-2904286D01*
X6066739Y-2906166D01*
X6061811Y-2909265D01*
X6057747Y-2913380D01*
X6054648Y-2918256D01*
X6052769Y-2923692D01*
X6052058Y-2930042D01*
G37*
G36*
X6187592Y-2951429D02*
G01*
X6241542Y-2951429D01*
X6241542Y-2930042D01*
X6240830Y-2923692D01*
X6238951Y-2918256D01*
X6235852Y-2913380D01*
X6231788Y-2909265D01*
X6226860Y-2906166D01*
X6221425Y-2904286D01*
X6215075Y-2903575D01*
X6187592Y-2903575D01*
G37*

%LPD*%
G36*
X36068Y-3961384D02*
G01*
X32156Y-3960622D01*
X28905Y-3958386D01*
X26670Y-3955135D01*
X25908Y-3951224D01*
X25908Y-36068D01*
X26670Y-32156D01*
X28905Y-28905D01*
X32156Y-26670D01*
X36068Y-25908D01*
X7963916Y-25908D01*
X7967827Y-26670D01*
X7971078Y-28905D01*
X7973314Y-32156D01*
X7974075Y-36068D01*
X7974075Y-2487168D01*
X7973212Y-2491181D01*
X7970875Y-2494584D01*
X7967319Y-2496718D01*
X7963204Y-2497277D01*
X7959242Y-2496159D01*
X7948015Y-2490368D01*
X7936331Y-2486202D01*
X7924190Y-2483662D01*
X7911439Y-2482799D01*
X7822133Y-2482799D01*
X7809433Y-2483662D01*
X7797292Y-2486202D01*
X7785608Y-2490368D01*
X7774584Y-2496058D01*
X7764424Y-2503220D01*
X7755381Y-2511653D01*
X7747558Y-2521305D01*
X7741107Y-2531872D01*
X7736179Y-2543251D01*
X7732826Y-2555240D01*
X7731150Y-2567482D01*
X7731150Y-2579928D01*
X7732826Y-2592222D01*
X7736179Y-2604160D01*
X7741107Y-2615539D01*
X7747558Y-2626106D01*
X7755381Y-2635758D01*
X7764424Y-2644190D01*
X7774584Y-2651353D01*
X7785608Y-2657043D01*
X7797292Y-2661208D01*
X7809433Y-2663748D01*
X7822133Y-2664612D01*
X7911439Y-2664612D01*
X7924190Y-2663748D01*
X7936331Y-2661208D01*
X7948015Y-2657043D01*
X7959242Y-2651252D01*
X7963204Y-2650134D01*
X7967319Y-2650693D01*
X7970875Y-2652826D01*
X7973212Y-2656230D01*
X7974075Y-2660294D01*
X7974075Y-3207105D01*
X7973212Y-3211169D01*
X7970875Y-3214573D01*
X7967319Y-3216706D01*
X7963204Y-3217265D01*
X7959242Y-3216148D01*
X7948015Y-3210356D01*
X7936331Y-3206191D01*
X7924190Y-3203651D01*
X7911439Y-3202787D01*
X7822133Y-3202787D01*
X7809433Y-3203651D01*
X7797292Y-3206191D01*
X7785608Y-3210356D01*
X7774584Y-3216046D01*
X7764424Y-3223209D01*
X7755381Y-3231642D01*
X7747558Y-3241294D01*
X7741107Y-3251860D01*
X7736179Y-3263239D01*
X7732826Y-3275177D01*
X7731150Y-3287471D01*
X7731150Y-3299917D01*
X7732826Y-3312160D01*
X7736179Y-3324148D01*
X7741107Y-3335528D01*
X7747558Y-3346094D01*
X7755381Y-3355746D01*
X7764424Y-3364179D01*
X7774584Y-3371342D01*
X7785608Y-3377031D01*
X7797292Y-3381197D01*
X7809433Y-3383737D01*
X7822133Y-3384600D01*
X7911439Y-3384600D01*
X7924190Y-3383737D01*
X7936331Y-3381197D01*
X7948015Y-3377031D01*
X7959242Y-3371240D01*
X7963204Y-3370122D01*
X7967319Y-3370681D01*
X7970875Y-3372815D01*
X7973212Y-3376218D01*
X7974075Y-3380232D01*
X7974075Y-3951224D01*
X7973314Y-3955135D01*
X7971078Y-3958386D01*
X7967827Y-3960622D01*
X7963916Y-3961384D01*
X5964224Y-3961384D01*
X5960262Y-3960571D01*
X5956909Y-3958234D01*
X5954725Y-3954779D01*
X5954166Y-3949446D01*
X5954166Y-3845458D01*
X5954928Y-3841597D01*
X5957112Y-3838295D01*
X6205982Y-3589426D01*
X6209487Y-3587140D01*
X6213652Y-3586479D01*
X6214262Y-3585870D01*
X6214922Y-3581704D01*
X6217259Y-3578148D01*
X6255969Y-3539439D01*
X6259271Y-3537254D01*
X6263182Y-3536442D01*
X6340957Y-3536442D01*
X6347307Y-3535730D01*
X6352743Y-3533851D01*
X6357620Y-3530752D01*
X6361734Y-3526688D01*
X6364833Y-3521760D01*
X6366713Y-3516325D01*
X6367424Y-3509975D01*
X6367424Y-3500526D01*
X6368237Y-3496614D01*
X6370421Y-3493312D01*
X6373723Y-3491128D01*
X6377584Y-3490366D01*
X6436614Y-3490366D01*
X6440474Y-3491128D01*
X6443776Y-3493312D01*
X6446012Y-3496614D01*
X6446774Y-3500526D01*
X6446012Y-3504387D01*
X6443776Y-3507689D01*
X6364681Y-3586835D01*
X6361379Y-3589020D01*
X6357467Y-3589782D01*
X6244082Y-3589782D01*
X6237732Y-3590493D01*
X6232296Y-3592423D01*
X6229807Y-3593947D01*
X6225895Y-3595420D01*
X6223050Y-3595217D01*
X6223203Y-3598062D01*
X6221780Y-3602024D01*
X6220206Y-3604463D01*
X6218326Y-3609949D01*
X6217615Y-3616248D01*
X6217615Y-3775151D01*
X6218326Y-3781450D01*
X6220206Y-3786936D01*
X6223304Y-3791813D01*
X6227368Y-3795928D01*
X6232296Y-3798976D01*
X6237732Y-3800906D01*
X6244082Y-3801618D01*
X6406438Y-3801618D01*
X6412738Y-3800906D01*
X6418224Y-3798976D01*
X6423101Y-3795928D01*
X6427216Y-3791813D01*
X6430264Y-3786936D01*
X6432194Y-3781450D01*
X6432905Y-3775151D01*
X6432905Y-3660394D01*
X6433667Y-3656533D01*
X6435902Y-3653231D01*
X6627012Y-3462020D01*
X6632651Y-3454603D01*
X6636613Y-3446576D01*
X6639102Y-3437940D01*
X6639966Y-3428542D01*
X6639966Y-3394913D01*
X6640372Y-3392119D01*
X6641490Y-3389528D01*
X6644589Y-3384651D01*
X6645198Y-3382873D01*
X6647332Y-3379317D01*
X6650736Y-3376879D01*
X6654800Y-3376066D01*
X6658864Y-3376879D01*
X6662267Y-3379317D01*
X6664401Y-3382873D01*
X6665010Y-3384651D01*
X6668109Y-3389528D01*
X6669227Y-3392119D01*
X6669633Y-3394913D01*
X6669684Y-3468979D01*
X6670954Y-3478225D01*
X6673850Y-3486759D01*
X6678168Y-3494582D01*
X6684213Y-3501847D01*
X6736080Y-3553612D01*
X6743496Y-3559251D01*
X6751523Y-3563213D01*
X6760159Y-3565702D01*
X6769557Y-3566566D01*
X7125716Y-3566566D01*
X7129627Y-3567328D01*
X7132929Y-3569512D01*
X7156551Y-3593185D01*
X7158685Y-3596284D01*
X7159548Y-3599992D01*
X7158990Y-3603751D01*
X7156805Y-3609949D01*
X7156094Y-3616248D01*
X7156094Y-3775151D01*
X7156805Y-3781450D01*
X7158380Y-3785920D01*
X7158939Y-3789730D01*
X7158024Y-3793490D01*
X7155789Y-3796639D01*
X7152538Y-3798722D01*
X7148779Y-3799433D01*
X7075220Y-3799433D01*
X7071461Y-3798722D01*
X7068210Y-3796639D01*
X7065975Y-3793490D01*
X7065060Y-3789730D01*
X7065619Y-3785920D01*
X7067194Y-3781450D01*
X7067905Y-3775151D01*
X7067905Y-3616248D01*
X7067194Y-3609949D01*
X7065264Y-3604463D01*
X7062216Y-3599586D01*
X7058101Y-3595471D01*
X7053224Y-3592423D01*
X7047738Y-3590493D01*
X7041438Y-3589782D01*
X6879081Y-3589782D01*
X6872731Y-3590493D01*
X6867296Y-3592423D01*
X6862368Y-3595471D01*
X6858304Y-3599586D01*
X6855206Y-3604463D01*
X6853326Y-3609949D01*
X6852615Y-3616248D01*
X6852615Y-3636873D01*
X6851802Y-3640785D01*
X6849618Y-3644087D01*
X6846316Y-3646271D01*
X6842455Y-3647033D01*
X6746544Y-3647033D01*
X6742684Y-3646271D01*
X6739381Y-3644087D01*
X6737197Y-3640785D01*
X6736384Y-3636873D01*
X6736384Y-3616248D01*
X6735673Y-3609949D01*
X6733794Y-3604463D01*
X6730695Y-3599586D01*
X6726631Y-3595471D01*
X6721703Y-3592423D01*
X6716268Y-3590493D01*
X6709918Y-3589782D01*
X6547561Y-3589782D01*
X6541262Y-3590493D01*
X6535775Y-3592423D01*
X6530898Y-3595471D01*
X6526784Y-3599586D01*
X6523735Y-3604463D01*
X6521805Y-3609949D01*
X6521094Y-3616248D01*
X6521094Y-3775151D01*
X6521805Y-3781450D01*
X6523735Y-3786936D01*
X6526784Y-3791813D01*
X6530898Y-3795928D01*
X6535775Y-3798976D01*
X6541262Y-3800906D01*
X6547561Y-3801618D01*
X6709918Y-3801618D01*
X6716268Y-3800906D01*
X6721703Y-3798976D01*
X6726631Y-3795928D01*
X6730695Y-3791813D01*
X6733794Y-3786936D01*
X6735673Y-3781450D01*
X6736384Y-3775151D01*
X6736384Y-3754526D01*
X6737197Y-3750614D01*
X6739381Y-3747312D01*
X6742684Y-3745128D01*
X6746544Y-3744366D01*
X6842455Y-3744366D01*
X6846316Y-3745128D01*
X6849618Y-3747312D01*
X6851802Y-3750614D01*
X6852615Y-3754526D01*
X6852615Y-3775151D01*
X6853326Y-3781450D01*
X6855206Y-3786936D01*
X6858304Y-3791813D01*
X6862368Y-3795928D01*
X6867296Y-3798976D01*
X6872731Y-3800906D01*
X6879081Y-3801618D01*
X6900976Y-3801618D01*
X6904837Y-3802379D01*
X6908139Y-3804615D01*
X6910374Y-3807917D01*
X6911136Y-3811828D01*
X6910933Y-3847592D01*
X6911187Y-3852621D01*
X6911746Y-3856786D01*
X6912813Y-3861460D01*
X6914134Y-3865422D01*
X6916064Y-3869791D01*
X6918096Y-3873500D01*
X6920788Y-3877411D01*
X6923481Y-3880662D01*
X6926834Y-3884066D01*
X6930085Y-3886758D01*
X6933996Y-3889451D01*
X6937654Y-3891534D01*
X6942074Y-3893464D01*
X6946036Y-3894836D01*
X6950709Y-3895902D01*
X6954824Y-3896512D01*
X6959853Y-3896766D01*
X7454646Y-3896766D01*
X7459370Y-3896563D01*
X7463840Y-3895902D01*
X7468209Y-3894886D01*
X7472476Y-3893464D01*
X7476591Y-3891635D01*
X7480503Y-3889451D01*
X7484211Y-3886911D01*
X7487666Y-3884066D01*
X7490866Y-3880865D01*
X7493711Y-3877411D01*
X7496251Y-3873703D01*
X7498435Y-3869791D01*
X7500264Y-3865676D01*
X7501686Y-3861409D01*
X7502702Y-3857040D01*
X7503363Y-3852570D01*
X7503566Y-3847846D01*
X7503515Y-3554120D01*
X7502245Y-3544874D01*
X7499350Y-3536340D01*
X7495031Y-3528517D01*
X7488986Y-3521252D01*
X7308545Y-3340862D01*
X7301077Y-3335274D01*
X7293051Y-3331260D01*
X7284364Y-3328771D01*
X7279131Y-3328212D01*
X7275830Y-3327298D01*
X7273036Y-3325317D01*
X7271054Y-3322523D01*
X7270089Y-3319272D01*
X7269530Y-3314242D01*
X7267651Y-3308756D01*
X7264552Y-3303879D01*
X7260488Y-3299764D01*
X7255560Y-3296716D01*
X7250125Y-3294786D01*
X7243775Y-3294075D01*
X7107224Y-3294075D01*
X7100874Y-3294786D01*
X7095439Y-3296716D01*
X7090511Y-3299764D01*
X7086447Y-3303879D01*
X7083348Y-3308756D01*
X7081469Y-3314242D01*
X7080758Y-3320542D01*
X7080758Y-3432657D01*
X7081469Y-3439007D01*
X7083348Y-3444443D01*
X7086447Y-3449320D01*
X7088987Y-3451910D01*
X7091222Y-3455212D01*
X7091984Y-3459073D01*
X7091222Y-3462985D01*
X7088987Y-3466287D01*
X7085685Y-3468471D01*
X7081824Y-3469233D01*
X6793484Y-3469233D01*
X6789572Y-3468471D01*
X6786270Y-3466287D01*
X6769912Y-3449929D01*
X6767728Y-3446627D01*
X6766966Y-3442715D01*
X6766966Y-3394913D01*
X6767372Y-3392119D01*
X6768490Y-3389528D01*
X6771589Y-3384651D01*
X6772198Y-3382873D01*
X6774332Y-3379317D01*
X6777736Y-3376879D01*
X6781800Y-3376066D01*
X6785864Y-3376879D01*
X6789267Y-3379317D01*
X6791401Y-3382873D01*
X6792010Y-3384651D01*
X6795109Y-3389528D01*
X6799173Y-3393643D01*
X6804101Y-3396691D01*
X6809536Y-3398621D01*
X6815886Y-3399332D01*
X6874713Y-3399332D01*
X6881063Y-3398621D01*
X6886498Y-3396691D01*
X6891426Y-3393643D01*
X6895490Y-3389528D01*
X6898589Y-3384651D01*
X6900519Y-3379165D01*
X6901230Y-3372865D01*
X6901230Y-3369513D01*
X6901840Y-3366008D01*
X6903618Y-3362909D01*
X6906412Y-3360674D01*
X6918299Y-3356610D01*
X6926122Y-3352292D01*
X6933387Y-3346246D01*
X7051446Y-3228136D01*
X7054748Y-3225952D01*
X7058659Y-3225190D01*
X7070801Y-3225190D01*
X7074458Y-3225850D01*
X7077608Y-3227781D01*
X7079843Y-3230676D01*
X7080910Y-3234182D01*
X7081469Y-3238957D01*
X7083348Y-3244443D01*
X7086447Y-3249320D01*
X7090511Y-3253435D01*
X7095439Y-3256483D01*
X7100874Y-3258413D01*
X7107224Y-3259124D01*
X7243775Y-3259124D01*
X7250125Y-3258413D01*
X7255560Y-3256483D01*
X7260488Y-3253435D01*
X7264552Y-3249320D01*
X7267651Y-3244443D01*
X7269530Y-3238957D01*
X7270242Y-3232658D01*
X7270242Y-3154883D01*
X7271054Y-3150971D01*
X7273239Y-3147669D01*
X7305598Y-3115310D01*
X7308900Y-3113125D01*
X7312761Y-3112363D01*
X7522311Y-3112363D01*
X7526629Y-3113328D01*
X7530134Y-3116072D01*
X7532166Y-3120085D01*
X7532268Y-3124555D01*
X7530439Y-3128619D01*
X7529525Y-3129788D01*
X7523683Y-3140506D01*
X7519416Y-3151987D01*
X7516774Y-3163976D01*
X7515910Y-3176219D01*
X7516774Y-3188411D01*
X7519416Y-3200400D01*
X7523683Y-3211880D01*
X7529525Y-3222650D01*
X7536891Y-3232454D01*
X7545578Y-3241090D01*
X7555382Y-3248456D01*
X7566101Y-3254298D01*
X7577581Y-3258616D01*
X7589570Y-3261207D01*
X7601813Y-3262071D01*
X7614005Y-3261207D01*
X7625994Y-3258616D01*
X7637475Y-3254298D01*
X7648244Y-3248456D01*
X7658049Y-3241090D01*
X7666685Y-3232454D01*
X7674051Y-3222650D01*
X7679944Y-3211880D01*
X7684211Y-3200400D01*
X7686802Y-3188411D01*
X7687665Y-3176219D01*
X7686802Y-3163976D01*
X7684211Y-3151987D01*
X7679944Y-3140506D01*
X7674051Y-3129788D01*
X7669123Y-3123234D01*
X7667498Y-3119831D01*
X7667193Y-3116021D01*
X7668259Y-3112414D01*
X7670647Y-3109417D01*
X7675524Y-3106978D01*
X7680401Y-3103880D01*
X7684516Y-3099816D01*
X7687564Y-3094888D01*
X7689494Y-3089452D01*
X7690205Y-3083153D01*
X7690205Y-3044291D01*
X7689494Y-3037941D01*
X7688325Y-3034538D01*
X7687716Y-3031185D01*
X7688325Y-3027832D01*
X7689494Y-3024428D01*
X7690205Y-3018129D01*
X7690205Y-2979267D01*
X7689494Y-2972968D01*
X7688325Y-2969564D01*
X7687716Y-2966212D01*
X7688325Y-2962859D01*
X7689494Y-2959455D01*
X7690205Y-2953105D01*
X7690205Y-2914294D01*
X7689494Y-2907944D01*
X7688325Y-2904540D01*
X7687716Y-2901188D01*
X7688325Y-2897835D01*
X7689494Y-2894431D01*
X7690205Y-2888132D01*
X7690205Y-2849270D01*
X7689494Y-2842971D01*
X7688325Y-2839567D01*
X7687716Y-2836214D01*
X7688325Y-2832862D01*
X7689494Y-2829458D01*
X7690205Y-2823108D01*
X7690205Y-2820060D01*
X7636205Y-2820060D01*
X7632953Y-2822092D01*
X7629245Y-2822803D01*
X7574381Y-2822803D01*
X7570622Y-2822092D01*
X7567422Y-2820060D01*
X7509103Y-2820060D01*
X7506766Y-2819755D01*
X7501483Y-2817418D01*
X7492288Y-2814624D01*
X7482738Y-2813354D01*
X7473086Y-2813812D01*
X7463637Y-2815844D01*
X7454696Y-2819400D01*
X7446467Y-2824480D01*
X7439253Y-2830830D01*
X7433157Y-2838348D01*
X7428484Y-2846781D01*
X7425283Y-2855874D01*
X7423658Y-2865374D01*
X7423658Y-2875026D01*
X7425283Y-2884525D01*
X7428484Y-2893618D01*
X7433157Y-2902051D01*
X7439253Y-2909570D01*
X7446568Y-2916021D01*
X7449058Y-2919272D01*
X7450023Y-2923286D01*
X7449312Y-2927350D01*
X7447076Y-2930804D01*
X7443622Y-2933039D01*
X7441996Y-2933700D01*
X7433767Y-2938780D01*
X7426553Y-2945130D01*
X7420457Y-2952648D01*
X7415784Y-2961081D01*
X7412583Y-2970174D01*
X7410958Y-2979674D01*
X7410958Y-2989326D01*
X7412583Y-2998825D01*
X7413498Y-3001467D01*
X7414056Y-3005328D01*
X7413193Y-3009036D01*
X7410958Y-3012236D01*
X7407706Y-3014319D01*
X7403947Y-3015030D01*
X7286396Y-3015081D01*
X7278776Y-3015996D01*
X7274610Y-3015589D01*
X7270953Y-3013557D01*
X7269124Y-3011627D01*
X7268870Y-3015538D01*
X7267143Y-3019044D01*
X7264196Y-3021634D01*
X7261047Y-3023514D01*
X7253528Y-3029762D01*
X7250175Y-3031591D01*
X7246416Y-3032099D01*
X7242708Y-3031134D01*
X7239609Y-3028899D01*
X7237577Y-3025698D01*
X7236866Y-3021939D01*
X7236866Y-3013252D01*
X7237628Y-3009392D01*
X7239812Y-3006090D01*
X7243114Y-3003905D01*
X7247026Y-3003092D01*
X7255154Y-3003092D01*
X7257897Y-3002788D01*
X7261809Y-3003143D01*
X7265314Y-3004921D01*
X7267854Y-3007868D01*
X7267448Y-3006191D01*
X7268159Y-3002076D01*
X7270496Y-2998622D01*
X7275931Y-2993288D01*
X7278979Y-2988411D01*
X7280909Y-2982976D01*
X7281621Y-2976626D01*
X7281621Y-2836773D01*
X7280909Y-2830474D01*
X7278979Y-2824988D01*
X7275880Y-2820111D01*
X7271816Y-2815996D01*
X7267752Y-2812491D01*
X7266178Y-2808732D01*
X7266178Y-2804668D01*
X7267752Y-2800908D01*
X7271816Y-2797403D01*
X7275880Y-2793288D01*
X7278979Y-2788412D01*
X7280909Y-2782925D01*
X7281621Y-2776626D01*
X7281621Y-2748280D01*
X7228281Y-2748280D01*
X7228281Y-2800146D01*
X7227519Y-2804007D01*
X7225334Y-2807309D01*
X7222032Y-2809544D01*
X7218121Y-2810306D01*
X7158278Y-2810306D01*
X7154367Y-2809544D01*
X7151065Y-2807309D01*
X7148880Y-2804007D01*
X7148118Y-2800146D01*
X7148118Y-2748280D01*
X7094778Y-2748280D01*
X7094778Y-2776626D01*
X7095490Y-2782925D01*
X7097420Y-2788412D01*
X7100519Y-2793288D01*
X7104583Y-2797403D01*
X7108647Y-2800908D01*
X7110222Y-2804668D01*
X7110222Y-2808732D01*
X7108647Y-2812491D01*
X7104583Y-2815996D01*
X7100519Y-2820111D01*
X7097420Y-2824988D01*
X7095490Y-2830474D01*
X7094778Y-2836773D01*
X7094778Y-2976626D01*
X7095490Y-2982976D01*
X7097420Y-2988411D01*
X7100519Y-2993339D01*
X7104583Y-2997403D01*
X7109510Y-3000502D01*
X7114946Y-3002381D01*
X7121245Y-3003092D01*
X7129373Y-3003092D01*
X7133285Y-3003905D01*
X7136587Y-3006090D01*
X7138771Y-3009392D01*
X7139533Y-3013252D01*
X7139533Y-3083915D01*
X7138771Y-3087776D01*
X7136587Y-3091078D01*
X7133285Y-3093262D01*
X7129373Y-3094075D01*
X7107224Y-3094075D01*
X7100874Y-3094786D01*
X7095439Y-3096666D01*
X7090511Y-3099765D01*
X7086447Y-3103880D01*
X7083348Y-3108756D01*
X7081469Y-3114192D01*
X7080910Y-3118866D01*
X7079843Y-3122371D01*
X7077608Y-3125266D01*
X7074458Y-3127197D01*
X7070852Y-3127857D01*
X7032396Y-3127908D01*
X7023150Y-3129178D01*
X7014616Y-3132074D01*
X7006793Y-3136392D01*
X6999528Y-3142437D01*
X6922770Y-3219246D01*
X6919061Y-3221583D01*
X6914692Y-3222142D01*
X6910476Y-3220821D01*
X6907225Y-3217824D01*
X6905548Y-3213760D01*
X6906666Y-3199942D01*
X6906666Y-2857754D01*
X6906463Y-2853029D01*
X6905802Y-2848559D01*
X6904786Y-2844190D01*
X6903364Y-2839923D01*
X6901535Y-2835808D01*
X6899351Y-2831896D01*
X6896862Y-2828239D01*
X6892950Y-2823718D01*
X6891070Y-2820416D01*
X6890512Y-2816707D01*
X6891375Y-2812999D01*
X6893509Y-2809900D01*
X6895490Y-2807868D01*
X6898589Y-2802991D01*
X6900519Y-2797505D01*
X6901230Y-2791206D01*
X6901230Y-2672334D01*
X6900519Y-2666034D01*
X6898589Y-2660548D01*
X6895490Y-2655671D01*
X6891426Y-2651556D01*
X6886498Y-2648508D01*
X6881063Y-2646578D01*
X6874713Y-2645867D01*
X6815886Y-2645867D01*
X6809536Y-2646578D01*
X6804101Y-2648508D01*
X6799173Y-2651556D01*
X6795109Y-2655671D01*
X6792010Y-2660548D01*
X6791401Y-2662326D01*
X6789267Y-2665882D01*
X6785864Y-2668320D01*
X6781800Y-2669133D01*
X6777736Y-2668320D01*
X6774332Y-2665882D01*
X6772198Y-2662326D01*
X6771589Y-2660548D01*
X6768490Y-2655671D01*
X6767372Y-2653080D01*
X6766966Y-2650286D01*
X6766915Y-2627020D01*
X6765645Y-2617774D01*
X6762750Y-2609240D01*
X6758431Y-2601417D01*
X6752386Y-2594152D01*
X6575145Y-2416962D01*
X6567678Y-2411374D01*
X6559651Y-2407361D01*
X6551015Y-2404922D01*
X6541617Y-2404059D01*
X6391148Y-2404059D01*
X6387541Y-2403398D01*
X6384391Y-2401468D01*
X6382156Y-2398522D01*
X6381089Y-2395016D01*
X6380530Y-2390292D01*
X6378651Y-2384856D01*
X6375552Y-2379980D01*
X6371488Y-2375865D01*
X6366560Y-2372766D01*
X6361125Y-2370886D01*
X6354775Y-2370175D01*
X6218224Y-2370175D01*
X6211874Y-2370886D01*
X6206439Y-2372766D01*
X6201511Y-2375865D01*
X6197447Y-2379980D01*
X6194348Y-2384856D01*
X6192469Y-2390292D01*
X6191758Y-2396642D01*
X6191758Y-2508758D01*
X6192469Y-2515057D01*
X6194348Y-2520543D01*
X6197447Y-2525420D01*
X6201511Y-2529535D01*
X6206439Y-2532583D01*
X6211874Y-2534513D01*
X6218224Y-2535224D01*
X6354775Y-2535224D01*
X6361125Y-2534513D01*
X6366560Y-2532583D01*
X6371488Y-2529535D01*
X6375552Y-2525420D01*
X6378651Y-2520543D01*
X6380530Y-2515057D01*
X6381089Y-2510383D01*
X6382156Y-2506878D01*
X6384391Y-2503932D01*
X6387541Y-2502001D01*
X6391148Y-2501341D01*
X6517741Y-2501341D01*
X6521602Y-2502154D01*
X6524904Y-2504338D01*
X6665518Y-2644902D01*
X6667500Y-2647696D01*
X6668414Y-2650947D01*
X6668211Y-2654350D01*
X6666941Y-2657500D01*
X6665010Y-2660548D01*
X6664401Y-2662326D01*
X6662267Y-2665882D01*
X6658864Y-2668320D01*
X6654800Y-2669133D01*
X6650736Y-2668320D01*
X6647332Y-2665882D01*
X6645198Y-2662326D01*
X6644589Y-2660548D01*
X6641490Y-2655671D01*
X6637426Y-2651556D01*
X6632498Y-2648508D01*
X6627063Y-2646578D01*
X6620713Y-2645867D01*
X6612636Y-2645867D01*
X6612636Y-2695397D01*
X6652209Y-2695397D01*
X6656120Y-2696210D01*
X6659422Y-2698394D01*
X6661607Y-2701696D01*
X6662369Y-2705557D01*
X6662369Y-2757982D01*
X6661607Y-2761843D01*
X6659422Y-2765145D01*
X6656120Y-2767330D01*
X6652209Y-2768142D01*
X6612636Y-2768142D01*
X6612636Y-2798673D01*
X6611874Y-2802585D01*
X6609689Y-2805887D01*
X6606387Y-2808071D01*
X6602475Y-2808833D01*
X6580124Y-2808833D01*
X6576212Y-2808071D01*
X6572910Y-2805887D01*
X6570725Y-2802585D01*
X6569964Y-2798673D01*
X6569964Y-2768142D01*
X6530390Y-2768142D01*
X6526479Y-2767330D01*
X6523177Y-2765145D01*
X6520992Y-2761843D01*
X6520230Y-2757982D01*
X6520230Y-2705557D01*
X6520992Y-2701696D01*
X6523177Y-2698394D01*
X6526479Y-2696210D01*
X6530390Y-2695397D01*
X6569964Y-2695397D01*
X6569964Y-2645867D01*
X6561886Y-2645867D01*
X6555536Y-2646578D01*
X6550101Y-2648508D01*
X6545173Y-2651556D01*
X6541109Y-2655671D01*
X6538010Y-2660548D01*
X6537401Y-2662326D01*
X6535267Y-2665882D01*
X6531864Y-2668320D01*
X6527800Y-2669133D01*
X6523735Y-2668320D01*
X6520332Y-2665882D01*
X6518198Y-2662326D01*
X6517589Y-2660548D01*
X6514490Y-2655671D01*
X6510426Y-2651556D01*
X6505498Y-2648508D01*
X6500063Y-2646578D01*
X6493713Y-2645867D01*
X6434886Y-2645867D01*
X6428536Y-2646578D01*
X6423101Y-2648508D01*
X6418173Y-2651556D01*
X6414109Y-2655671D01*
X6411010Y-2660548D01*
X6409080Y-2666034D01*
X6408369Y-2672334D01*
X6408369Y-2791206D01*
X6409080Y-2797505D01*
X6411010Y-2802991D01*
X6414109Y-2807868D01*
X6415227Y-2810459D01*
X6415633Y-2813253D01*
X6415633Y-2857246D01*
X6415836Y-2861970D01*
X6416497Y-2866440D01*
X6417513Y-2870809D01*
X6418935Y-2875076D01*
X6420764Y-2879191D01*
X6422948Y-2883103D01*
X6425488Y-2886811D01*
X6428333Y-2890266D01*
X6431534Y-2893466D01*
X6434988Y-2896311D01*
X6438696Y-2898851D01*
X6442608Y-2901035D01*
X6446723Y-2902864D01*
X6450990Y-2904286D01*
X6456019Y-2905455D01*
X6460083Y-2907436D01*
X6462877Y-2910941D01*
X6463893Y-2915361D01*
X6463893Y-3142030D01*
X6464604Y-3148330D01*
X6466535Y-3153816D01*
X6469583Y-3158693D01*
X6473698Y-3162808D01*
X6478574Y-3165906D01*
X6484061Y-3167786D01*
X6490360Y-3168497D01*
X6797903Y-3168497D01*
X6802272Y-3169513D01*
X6805777Y-3172256D01*
X6807758Y-3176219D01*
X6807860Y-3180689D01*
X6806031Y-3184753D01*
X6803948Y-3187496D01*
X6799986Y-3195523D01*
X6797497Y-3204159D01*
X6796633Y-3213557D01*
X6796633Y-3231946D01*
X6796227Y-3234740D01*
X6795109Y-3237331D01*
X6792010Y-3242208D01*
X6791401Y-3243986D01*
X6789267Y-3247542D01*
X6785864Y-3249980D01*
X6781800Y-3250793D01*
X6777736Y-3249980D01*
X6774332Y-3247542D01*
X6772198Y-3243986D01*
X6771589Y-3242208D01*
X6768490Y-3237331D01*
X6764426Y-3233216D01*
X6759498Y-3230168D01*
X6754063Y-3228238D01*
X6747713Y-3227527D01*
X6688886Y-3227527D01*
X6682536Y-3228238D01*
X6677101Y-3230168D01*
X6672173Y-3233216D01*
X6668109Y-3237331D01*
X6665010Y-3242208D01*
X6664401Y-3243986D01*
X6662267Y-3247542D01*
X6658864Y-3249980D01*
X6654800Y-3250793D01*
X6650736Y-3249980D01*
X6647332Y-3247542D01*
X6645198Y-3243986D01*
X6644589Y-3242208D01*
X6641490Y-3237331D01*
X6637426Y-3233216D01*
X6632498Y-3230168D01*
X6627063Y-3228238D01*
X6620713Y-3227527D01*
X6561886Y-3227527D01*
X6555536Y-3228238D01*
X6550101Y-3230168D01*
X6545173Y-3233216D01*
X6541109Y-3237331D01*
X6538010Y-3242208D01*
X6537401Y-3243986D01*
X6535267Y-3247542D01*
X6531864Y-3249980D01*
X6527800Y-3250793D01*
X6523735Y-3249980D01*
X6520332Y-3247542D01*
X6518198Y-3243986D01*
X6517589Y-3242208D01*
X6514490Y-3237331D01*
X6510426Y-3233216D01*
X6505498Y-3230168D01*
X6500063Y-3228238D01*
X6493713Y-3227527D01*
X6434886Y-3227527D01*
X6428536Y-3228238D01*
X6423101Y-3230168D01*
X6418173Y-3233216D01*
X6414109Y-3237331D01*
X6411010Y-3242208D01*
X6409080Y-3247694D01*
X6408369Y-3253994D01*
X6408369Y-3372865D01*
X6409791Y-3383330D01*
X6408877Y-3387090D01*
X6406642Y-3390239D01*
X6403441Y-3392322D01*
X6399631Y-3393033D01*
X6383426Y-3393033D01*
X6379514Y-3392271D01*
X6376212Y-3390087D01*
X6374028Y-3386785D01*
X6373266Y-3382873D01*
X6373215Y-2868320D01*
X6371945Y-2859074D01*
X6369050Y-2850540D01*
X6364732Y-2842717D01*
X6358686Y-2835452D01*
X6319520Y-2796387D01*
X6312103Y-2790748D01*
X6304076Y-2786786D01*
X6295440Y-2784297D01*
X6286042Y-2783433D01*
X6056884Y-2783433D01*
X6052972Y-2782671D01*
X6049670Y-2780487D01*
X6046012Y-2776829D01*
X6043828Y-2773527D01*
X6043066Y-2769616D01*
X6043066Y-2373884D01*
X6043828Y-2369972D01*
X6046012Y-2366670D01*
X6113170Y-2299512D01*
X6116472Y-2297328D01*
X6120384Y-2296566D01*
X7139279Y-2296515D01*
X7148525Y-2295245D01*
X7157059Y-2292350D01*
X7164882Y-2288032D01*
X7172147Y-2281986D01*
X7565542Y-1888591D01*
X7568234Y-1886661D01*
X7571435Y-1885696D01*
X7574737Y-1885797D01*
X7580985Y-1887067D01*
X7594600Y-1887982D01*
X7608214Y-1887067D01*
X7621574Y-1884375D01*
X7634478Y-1879904D01*
X7646619Y-1873757D01*
X7657846Y-1866036D01*
X7668006Y-1856892D01*
X7676794Y-1846478D01*
X7684109Y-1834946D01*
X7689850Y-1822602D01*
X7693914Y-1809546D01*
X7696149Y-1796135D01*
X7696606Y-1782470D01*
X7695285Y-1768906D01*
X7692085Y-1755648D01*
X7687208Y-1742948D01*
X7680655Y-1730959D01*
X7672578Y-1719986D01*
X7663078Y-1710182D01*
X7652359Y-1701749D01*
X7640624Y-1694789D01*
X7628077Y-1689455D01*
X7614920Y-1685848D01*
X7602524Y-1684172D01*
X7598308Y-1682648D01*
X7595209Y-1679397D01*
X7593736Y-1675180D01*
X7594295Y-1670710D01*
X7596682Y-1666951D01*
X7630312Y-1633220D01*
X7635951Y-1625803D01*
X7639913Y-1617776D01*
X7642402Y-1609140D01*
X7643266Y-1599742D01*
X7643266Y-1581404D01*
X7643774Y-1578152D01*
X7645298Y-1575257D01*
X7647686Y-1573022D01*
X7657846Y-1566011D01*
X7668006Y-1556867D01*
X7676794Y-1546453D01*
X7684109Y-1534972D01*
X7689850Y-1522577D01*
X7693914Y-1509572D01*
X7696149Y-1496110D01*
X7696606Y-1482496D01*
X7695285Y-1468932D01*
X7692085Y-1455674D01*
X7687208Y-1442923D01*
X7680655Y-1430985D01*
X7672578Y-1420012D01*
X7663078Y-1410208D01*
X7652359Y-1401724D01*
X7640624Y-1394764D01*
X7628077Y-1389481D01*
X7614920Y-1385874D01*
X7601407Y-1384046D01*
X7587792Y-1384046D01*
X7574280Y-1385874D01*
X7561122Y-1389481D01*
X7548575Y-1394764D01*
X7536840Y-1401724D01*
X7526121Y-1410208D01*
X7516622Y-1420012D01*
X7508544Y-1430985D01*
X7501991Y-1442923D01*
X7497114Y-1455674D01*
X7493914Y-1468932D01*
X7492593Y-1482496D01*
X7493050Y-1496110D01*
X7495286Y-1509572D01*
X7499350Y-1522577D01*
X7505090Y-1534972D01*
X7512405Y-1546453D01*
X7521194Y-1556867D01*
X7531353Y-1566011D01*
X7538212Y-1570736D01*
X7541259Y-1573987D01*
X7542580Y-1578203D01*
X7542022Y-1582572D01*
X7539685Y-1586331D01*
X7177735Y-1948230D01*
X7174382Y-1950466D01*
X7170420Y-1951228D01*
X7166457Y-1950364D01*
X7163155Y-1948078D01*
X7161022Y-1944624D01*
X7160412Y-1940661D01*
X7161377Y-1936750D01*
X7163866Y-1931416D01*
X7168388Y-1917547D01*
X7171080Y-1903272D01*
X7171994Y-1888743D01*
X7171080Y-1874215D01*
X7168388Y-1859940D01*
X7163866Y-1846072D01*
X7157669Y-1832914D01*
X7149896Y-1820621D01*
X7140600Y-1809394D01*
X7129983Y-1799437D01*
X7118197Y-1790903D01*
X7105446Y-1783892D01*
X7091934Y-1778507D01*
X7077811Y-1774901D01*
X7063384Y-1773072D01*
X7048855Y-1773072D01*
X7034428Y-1774901D01*
X7020306Y-1778507D01*
X7006793Y-1783892D01*
X6994042Y-1790903D01*
X6982256Y-1799437D01*
X6971639Y-1809394D01*
X6962343Y-1820621D01*
X6954570Y-1832914D01*
X6948373Y-1846072D01*
X6943852Y-1859940D01*
X6941159Y-1874215D01*
X6940245Y-1888743D01*
X6941159Y-1903272D01*
X6943852Y-1917547D01*
X6948373Y-1931416D01*
X6954570Y-1944573D01*
X6962343Y-1956866D01*
X6971639Y-1968093D01*
X6982256Y-1978050D01*
X6994042Y-1986584D01*
X7006793Y-1993595D01*
X7020306Y-1998980D01*
X7034428Y-2002586D01*
X7048855Y-2004415D01*
X7063384Y-2004415D01*
X7077811Y-2002586D01*
X7091934Y-1998980D01*
X7104430Y-1994001D01*
X7108291Y-1993290D01*
X7112152Y-1994103D01*
X7115403Y-1996338D01*
X7117588Y-1999640D01*
X7118299Y-2003501D01*
X7117537Y-2007362D01*
X7115352Y-2010664D01*
X7018629Y-2107387D01*
X7015327Y-2109571D01*
X7011416Y-2110333D01*
X6390132Y-2110333D01*
X6386118Y-2109520D01*
X6382766Y-2107133D01*
X6380581Y-2103628D01*
X6380022Y-2099564D01*
X6381089Y-2095601D01*
X6384747Y-2091486D01*
X6441592Y-2034539D01*
X6447231Y-2027123D01*
X6451193Y-2019096D01*
X6453682Y-2010359D01*
X6454495Y-2003552D01*
X6454546Y-1999843D01*
X6455206Y-1996338D01*
X6457035Y-1993290D01*
X6459829Y-1991106D01*
X6467957Y-1986584D01*
X6479743Y-1978050D01*
X6490360Y-1968093D01*
X6499656Y-1956866D01*
X6507429Y-1944573D01*
X6513626Y-1931416D01*
X6518148Y-1917547D01*
X6520840Y-1903272D01*
X6521754Y-1888743D01*
X6520840Y-1874215D01*
X6518148Y-1859940D01*
X6513626Y-1846072D01*
X6507429Y-1832914D01*
X6499656Y-1820621D01*
X6490360Y-1809394D01*
X6479743Y-1799437D01*
X6467957Y-1790903D01*
X6455206Y-1783892D01*
X6441694Y-1778507D01*
X6427571Y-1774901D01*
X6413144Y-1773072D01*
X6398615Y-1773072D01*
X6384188Y-1774901D01*
X6370066Y-1778507D01*
X6356553Y-1783892D01*
X6343802Y-1790903D01*
X6332016Y-1799437D01*
X6321399Y-1809394D01*
X6312103Y-1820621D01*
X6304330Y-1832914D01*
X6298133Y-1846072D01*
X6293612Y-1859940D01*
X6290919Y-1874215D01*
X6290005Y-1888743D01*
X6290919Y-1903272D01*
X6293612Y-1917547D01*
X6298133Y-1931416D01*
X6304330Y-1944573D01*
X6312103Y-1956866D01*
X6321399Y-1968093D01*
X6332016Y-1978050D01*
X6338925Y-1983079D01*
X6341821Y-1986330D01*
X6343091Y-1990496D01*
X6342481Y-1994814D01*
X6340144Y-1998472D01*
X6332829Y-2005787D01*
X6329527Y-2007971D01*
X6325616Y-2008733D01*
X5987186Y-2008733D01*
X5982868Y-2007768D01*
X5979363Y-2005075D01*
X5977331Y-2001113D01*
X5977229Y-1996693D01*
X5978956Y-1992630D01*
X5982309Y-1989683D01*
X5987897Y-1986584D01*
X5999683Y-1978050D01*
X6010300Y-1968093D01*
X6019596Y-1956866D01*
X6027369Y-1944573D01*
X6033566Y-1931416D01*
X6038088Y-1917547D01*
X6040780Y-1903272D01*
X6041694Y-1888743D01*
X6040780Y-1874215D01*
X6038088Y-1859940D01*
X6033566Y-1846072D01*
X6027369Y-1832914D01*
X6019596Y-1820621D01*
X6010300Y-1809394D01*
X5999683Y-1799437D01*
X5987897Y-1790903D01*
X5975146Y-1783892D01*
X5961634Y-1778507D01*
X5947511Y-1774901D01*
X5933084Y-1773072D01*
X5918555Y-1773072D01*
X5904128Y-1774901D01*
X5890006Y-1778507D01*
X5876493Y-1783892D01*
X5863742Y-1790903D01*
X5851956Y-1799437D01*
X5841339Y-1809394D01*
X5832043Y-1820621D01*
X5824270Y-1832914D01*
X5818073Y-1846072D01*
X5813552Y-1859940D01*
X5810859Y-1874215D01*
X5809945Y-1888743D01*
X5810859Y-1903272D01*
X5813552Y-1917547D01*
X5818073Y-1931416D01*
X5824270Y-1944573D01*
X5832043Y-1956866D01*
X5841339Y-1968093D01*
X5851956Y-1978050D01*
X5863742Y-1986584D01*
X5869330Y-1989683D01*
X5872683Y-1992630D01*
X5874410Y-1996693D01*
X5874308Y-2001113D01*
X5872276Y-2005075D01*
X5868771Y-2007768D01*
X5864453Y-2008733D01*
X5468620Y-2008733D01*
X5464708Y-2007971D01*
X5461406Y-2005787D01*
X5388660Y-1932990D01*
X5386527Y-1929942D01*
X5385663Y-1926336D01*
X5386171Y-1922678D01*
X5387848Y-1917547D01*
X5390540Y-1903272D01*
X5391454Y-1888743D01*
X5390540Y-1874215D01*
X5387848Y-1859940D01*
X5383326Y-1846072D01*
X5377129Y-1832914D01*
X5369356Y-1820621D01*
X5360060Y-1809394D01*
X5349443Y-1799437D01*
X5337657Y-1790903D01*
X5324906Y-1783892D01*
X5311394Y-1778507D01*
X5297271Y-1774901D01*
X5282844Y-1773072D01*
X5268315Y-1773072D01*
X5253888Y-1774901D01*
X5239766Y-1778507D01*
X5226253Y-1783892D01*
X5213502Y-1790903D01*
X5201716Y-1799437D01*
X5191099Y-1809394D01*
X5181803Y-1820621D01*
X5174030Y-1832914D01*
X5167833Y-1846072D01*
X5163312Y-1859940D01*
X5160619Y-1874215D01*
X5159705Y-1888743D01*
X5160619Y-1903272D01*
X5163312Y-1917547D01*
X5164988Y-1922729D01*
X5165496Y-1926386D01*
X5164632Y-1929993D01*
X5162550Y-1933041D01*
X4688687Y-2406904D01*
X4683048Y-2414320D01*
X4679086Y-2422347D01*
X4676597Y-2430983D01*
X4675733Y-2440432D01*
X4675733Y-2730957D01*
X4674971Y-2734868D01*
X4672736Y-2738170D01*
X4669485Y-2740355D01*
X4665573Y-2741117D01*
X4421632Y-2741117D01*
X4413605Y-2741930D01*
X4406341Y-2744114D01*
X4399686Y-2747670D01*
X4393387Y-2752801D01*
X4100525Y-3045714D01*
X4095394Y-3051962D01*
X4091838Y-3058617D01*
X4089654Y-3065881D01*
X4088892Y-3073400D01*
X4089654Y-3080918D01*
X4091838Y-3088182D01*
X4095394Y-3094837D01*
X4100220Y-3100679D01*
X4106062Y-3105505D01*
X4112717Y-3109061D01*
X4119981Y-3111246D01*
X4127500Y-3112008D01*
X4135018Y-3111246D01*
X4142282Y-3109061D01*
X4148937Y-3105505D01*
X4155186Y-3100374D01*
X4434179Y-2821432D01*
X4437430Y-2819196D01*
X4441342Y-2818434D01*
X4460849Y-2818434D01*
X4464812Y-2819247D01*
X4468164Y-2821533D01*
X4470349Y-2824988D01*
X4470958Y-2829001D01*
X4469993Y-2832963D01*
X4467555Y-2836214D01*
X4455617Y-2842768D01*
X4448352Y-2848813D01*
X4409287Y-2887980D01*
X4403648Y-2895396D01*
X4399686Y-2903423D01*
X4397197Y-2912059D01*
X4396333Y-2921457D01*
X4396333Y-3514547D01*
X4395571Y-3518408D01*
X4393387Y-3521710D01*
X4390085Y-3523894D01*
X4386173Y-3524707D01*
X4378045Y-3524707D01*
X4371746Y-3525418D01*
X4366310Y-3527298D01*
X4361383Y-3530396D01*
X4357319Y-3534460D01*
X4354220Y-3539388D01*
X4352290Y-3544824D01*
X4351578Y-3551174D01*
X4351578Y-3691026D01*
X4352290Y-3697325D01*
X4354220Y-3702812D01*
X4357319Y-3707688D01*
X4361383Y-3711803D01*
X4365447Y-3715308D01*
X4367022Y-3719068D01*
X4367022Y-3723132D01*
X4365447Y-3726891D01*
X4361383Y-3730396D01*
X4357319Y-3734511D01*
X4354220Y-3739387D01*
X4352290Y-3744874D01*
X4351578Y-3751173D01*
X4351578Y-3779520D01*
X4404918Y-3779520D01*
X4404918Y-3727653D01*
X4405680Y-3723792D01*
X4407865Y-3720490D01*
X4411167Y-3718255D01*
X4415078Y-3717493D01*
X4474921Y-3717493D01*
X4478832Y-3718255D01*
X4482134Y-3720490D01*
X4484319Y-3723792D01*
X4485081Y-3727653D01*
X4485081Y-3779520D01*
X4538421Y-3779520D01*
X4538421Y-3751173D01*
X4537710Y-3744874D01*
X4535779Y-3739387D01*
X4532680Y-3734511D01*
X4528616Y-3730396D01*
X4524552Y-3726891D01*
X4522978Y-3723132D01*
X4522978Y-3719068D01*
X4524552Y-3715308D01*
X4528616Y-3711803D01*
X4532680Y-3707688D01*
X4535779Y-3702812D01*
X4537710Y-3697325D01*
X4538421Y-3691026D01*
X4538421Y-3551174D01*
X4537710Y-3544824D01*
X4535779Y-3539388D01*
X4532680Y-3534460D01*
X4528616Y-3530396D01*
X4523689Y-3527298D01*
X4518253Y-3525418D01*
X4511954Y-3524707D01*
X4503826Y-3524707D01*
X4499914Y-3523894D01*
X4496612Y-3521710D01*
X4494428Y-3518408D01*
X4493666Y-3514547D01*
X4493666Y-2945384D01*
X4494428Y-2941472D01*
X4496612Y-2938170D01*
X4500270Y-2934512D01*
X4503572Y-2932328D01*
X4507484Y-2931566D01*
X4604816Y-2931515D01*
X4614113Y-2930194D01*
X4621784Y-2927705D01*
X4624933Y-2927197D01*
X4665573Y-2927197D01*
X4669485Y-2927959D01*
X4672787Y-2930194D01*
X4674971Y-2933496D01*
X4675733Y-2937357D01*
X4675733Y-3006242D01*
X4674971Y-3010103D01*
X4672787Y-3013405D01*
X4669485Y-3015640D01*
X4665573Y-3016402D01*
X4550867Y-3016402D01*
X4544517Y-3017113D01*
X4539081Y-3018993D01*
X4534154Y-3022092D01*
X4530090Y-3026206D01*
X4526991Y-3031083D01*
X4525060Y-3036570D01*
X4524349Y-3042869D01*
X4524349Y-3090722D01*
X4525060Y-3097072D01*
X4526991Y-3102508D01*
X4530090Y-3107436D01*
X4534154Y-3111500D01*
X4539081Y-3114598D01*
X4544517Y-3116478D01*
X4550867Y-3117189D01*
X4667199Y-3117189D01*
X4673549Y-3116478D01*
X4678984Y-3114598D01*
X4683912Y-3111500D01*
X4686147Y-3109264D01*
X4689957Y-3106877D01*
X4694428Y-3106318D01*
X4698695Y-3107791D01*
X4702708Y-3110331D01*
X4711090Y-3113532D01*
X4719929Y-3115208D01*
X4728870Y-3115208D01*
X4737709Y-3113532D01*
X4746091Y-3110331D01*
X4750663Y-3107436D01*
X4754930Y-3106013D01*
X4759401Y-3106521D01*
X4763211Y-3108909D01*
X4765802Y-3111500D01*
X4770729Y-3114598D01*
X4776165Y-3116478D01*
X4782515Y-3117189D01*
X4897069Y-3117189D01*
X4903368Y-3116478D01*
X4908092Y-3115462D01*
X4961483Y-3115411D01*
X4970729Y-3114141D01*
X4979263Y-3111246D01*
X4987086Y-3106928D01*
X4994351Y-3100882D01*
X5064912Y-3030220D01*
X5070551Y-3022803D01*
X5076799Y-3009798D01*
X5080050Y-3007156D01*
X5084013Y-3006090D01*
X5088077Y-3006648D01*
X5091633Y-3008782D01*
X5094020Y-3012186D01*
X5094833Y-3016199D01*
X5094833Y-3159709D01*
X5094071Y-3163620D01*
X5091887Y-3166922D01*
X5090617Y-3168192D01*
X5087518Y-3173069D01*
X5085588Y-3178556D01*
X5084876Y-3184855D01*
X5084876Y-3290925D01*
X5085588Y-3297275D01*
X5087518Y-3302711D01*
X5090617Y-3307638D01*
X5094681Y-3311702D01*
X5099608Y-3314801D01*
X5105044Y-3316681D01*
X5111394Y-3317392D01*
X5163413Y-3317392D01*
X5169763Y-3316681D01*
X5175199Y-3314801D01*
X5179517Y-3312109D01*
X5183022Y-3310737D01*
X5186781Y-3310737D01*
X5190286Y-3312109D01*
X5194604Y-3314801D01*
X5200040Y-3316681D01*
X5206390Y-3317392D01*
X5258409Y-3317392D01*
X5264759Y-3316681D01*
X5270195Y-3314801D01*
X5274513Y-3312109D01*
X5278018Y-3310737D01*
X5281777Y-3310737D01*
X5285282Y-3312109D01*
X5289600Y-3314801D01*
X5295036Y-3316681D01*
X5301386Y-3317392D01*
X5353405Y-3317392D01*
X5359755Y-3316681D01*
X5365191Y-3314801D01*
X5370118Y-3311702D01*
X5374182Y-3307638D01*
X5377281Y-3302711D01*
X5379212Y-3297275D01*
X5379923Y-3290925D01*
X5379923Y-3184855D01*
X5379212Y-3178606D01*
X5376672Y-3171698D01*
X5376062Y-3168192D01*
X5376062Y-3040888D01*
X5376824Y-3036976D01*
X5379008Y-3033674D01*
X5490718Y-2922016D01*
X5494020Y-2919780D01*
X5497880Y-2919018D01*
X5501792Y-2919780D01*
X5505094Y-2922016D01*
X5507278Y-2925318D01*
X5508040Y-2929178D01*
X5508040Y-3028848D01*
X5508904Y-3037789D01*
X5511190Y-3045917D01*
X5514949Y-3053486D01*
X5520080Y-3060242D01*
X5526328Y-3065932D01*
X5533542Y-3070402D01*
X5541416Y-3073450D01*
X5549747Y-3075025D01*
X5558180Y-3075025D01*
X5561431Y-3074416D01*
X5565038Y-3074365D01*
X5568442Y-3075635D01*
X5571185Y-3077972D01*
X5572912Y-3081172D01*
X5574538Y-3085947D01*
X5578856Y-3093770D01*
X5584901Y-3101035D01*
X5601055Y-3117189D01*
X5603138Y-3120186D01*
X5604002Y-3123692D01*
X5603595Y-3127298D01*
X5601919Y-3130550D01*
X5599226Y-3132988D01*
X5593283Y-3136696D01*
X5589219Y-3140760D01*
X5586120Y-3145688D01*
X5584190Y-3151124D01*
X5583478Y-3157474D01*
X5583478Y-3167126D01*
X5582716Y-3171037D01*
X5580481Y-3174339D01*
X5577128Y-3176524D01*
X5573217Y-3177286D01*
X5562396Y-3177133D01*
X5553100Y-3178098D01*
X5544515Y-3180689D01*
X5536539Y-3184753D01*
X5529427Y-3190240D01*
X5523128Y-3197301D01*
X5381294Y-3389833D01*
X5378551Y-3392373D01*
X5374995Y-3393744D01*
X5371236Y-3393795D01*
X5367731Y-3392373D01*
X5365191Y-3390798D01*
X5359755Y-3388918D01*
X5353405Y-3388207D01*
X5301386Y-3388207D01*
X5295036Y-3388918D01*
X5289600Y-3390798D01*
X5285282Y-3393490D01*
X5281777Y-3394862D01*
X5278018Y-3394862D01*
X5274513Y-3393490D01*
X5270195Y-3390798D01*
X5264759Y-3388918D01*
X5258409Y-3388207D01*
X5206390Y-3388207D01*
X5200040Y-3388918D01*
X5194604Y-3390798D01*
X5190286Y-3393490D01*
X5186781Y-3394862D01*
X5183022Y-3394862D01*
X5179517Y-3393490D01*
X5175199Y-3390798D01*
X5169763Y-3388918D01*
X5163413Y-3388207D01*
X5111394Y-3388207D01*
X5105044Y-3388918D01*
X5099608Y-3390798D01*
X5094681Y-3393897D01*
X5090617Y-3397961D01*
X5087518Y-3402888D01*
X5085588Y-3408324D01*
X5084876Y-3414674D01*
X5084876Y-3520744D01*
X5085588Y-3527044D01*
X5087518Y-3532530D01*
X5090617Y-3537407D01*
X5094681Y-3541522D01*
X5099608Y-3544570D01*
X5105044Y-3546500D01*
X5111394Y-3547211D01*
X5163413Y-3547211D01*
X5174081Y-3545738D01*
X5177840Y-3546652D01*
X5180990Y-3548887D01*
X5183073Y-3552088D01*
X5183784Y-3555847D01*
X5183784Y-3557981D01*
X5185054Y-3567125D01*
X5187950Y-3575659D01*
X5192268Y-3583482D01*
X5198313Y-3590747D01*
X5250180Y-3642512D01*
X5257596Y-3648151D01*
X5265623Y-3652113D01*
X5274259Y-3654602D01*
X5283657Y-3655466D01*
X5602579Y-3655415D01*
X5611825Y-3654145D01*
X5620359Y-3651250D01*
X5628182Y-3646932D01*
X5635447Y-3640886D01*
X5712612Y-3563620D01*
X5718251Y-3556203D01*
X5722213Y-3548176D01*
X5724702Y-3539439D01*
X5725464Y-3532835D01*
X5726531Y-3529279D01*
X5728817Y-3526383D01*
X5731967Y-3524453D01*
X5735574Y-3523792D01*
X5743854Y-3523792D01*
X5750153Y-3523081D01*
X5755589Y-3521201D01*
X5760516Y-3518103D01*
X5764580Y-3514039D01*
X5767679Y-3509111D01*
X5769610Y-3503676D01*
X5770067Y-3499358D01*
X5771134Y-3495852D01*
X5773420Y-3492957D01*
X5776569Y-3491026D01*
X5780176Y-3490366D01*
X5992215Y-3490366D01*
X5996076Y-3491128D01*
X5999378Y-3493312D01*
X6001562Y-3496614D01*
X6002375Y-3500526D01*
X6002375Y-3509975D01*
X6003086Y-3516325D01*
X6004966Y-3521760D01*
X6008065Y-3526688D01*
X6012180Y-3530752D01*
X6017056Y-3533851D01*
X6022492Y-3535730D01*
X6028842Y-3536442D01*
X6096812Y-3536442D01*
X6100673Y-3537254D01*
X6103975Y-3539439D01*
X6106210Y-3542741D01*
X6106972Y-3546601D01*
X6106210Y-3550513D01*
X6103975Y-3553815D01*
X5869787Y-3788054D01*
X5864148Y-3795522D01*
X5860186Y-3803548D01*
X5857697Y-3812184D01*
X5856833Y-3821582D01*
X5856833Y-3890873D01*
X5856071Y-3894785D01*
X5853887Y-3898087D01*
X5850585Y-3900271D01*
X5846673Y-3901033D01*
X5842508Y-3901033D01*
X5838596Y-3900271D01*
X5835345Y-3898087D01*
X5833110Y-3894785D01*
X5832348Y-3890873D01*
X5832348Y-3744518D01*
X5831636Y-3738219D01*
X5829706Y-3732733D01*
X5826658Y-3727856D01*
X5822543Y-3723741D01*
X5817666Y-3720693D01*
X5812180Y-3718763D01*
X5805881Y-3718051D01*
X5649518Y-3718051D01*
X5643219Y-3718763D01*
X5637733Y-3720693D01*
X5632856Y-3723741D01*
X5628741Y-3727856D01*
X5625693Y-3732733D01*
X5623763Y-3738219D01*
X5623052Y-3744518D01*
X5623052Y-3890873D01*
X5622290Y-3894785D01*
X5620054Y-3898087D01*
X5616803Y-3900271D01*
X5612892Y-3901033D01*
X5320284Y-3901033D01*
X5316372Y-3900271D01*
X5313070Y-3898087D01*
X5289245Y-3874211D01*
X5287010Y-3870909D01*
X5286248Y-3867048D01*
X5286248Y-3744518D01*
X5285536Y-3738219D01*
X5283606Y-3732733D01*
X5280558Y-3727856D01*
X5276443Y-3723741D01*
X5271566Y-3720693D01*
X5266080Y-3718763D01*
X5259781Y-3718051D01*
X5103418Y-3718051D01*
X5097119Y-3718763D01*
X5091633Y-3720693D01*
X5086756Y-3723741D01*
X5082641Y-3727856D01*
X5079593Y-3732733D01*
X5077663Y-3738219D01*
X5076952Y-3744518D01*
X5076952Y-3763467D01*
X5076190Y-3767378D01*
X5073954Y-3770680D01*
X5070652Y-3772865D01*
X5066741Y-3773627D01*
X4866030Y-3772915D01*
X4862169Y-3772103D01*
X4858867Y-3769918D01*
X4856683Y-3766616D01*
X4855921Y-3762756D01*
X4855921Y-3751173D01*
X4855210Y-3744874D01*
X4853279Y-3739387D01*
X4850180Y-3734511D01*
X4846116Y-3730396D01*
X4842052Y-3726891D01*
X4840478Y-3723132D01*
X4840478Y-3719068D01*
X4842052Y-3715308D01*
X4846116Y-3711803D01*
X4850180Y-3707688D01*
X4853279Y-3702812D01*
X4855210Y-3697325D01*
X4855921Y-3691026D01*
X4855921Y-3662679D01*
X4802581Y-3662679D01*
X4802581Y-3714546D01*
X4801819Y-3718407D01*
X4799634Y-3721709D01*
X4796332Y-3723944D01*
X4792421Y-3724706D01*
X4732578Y-3724706D01*
X4728667Y-3723944D01*
X4725365Y-3721709D01*
X4723180Y-3718407D01*
X4722418Y-3714546D01*
X4722418Y-3662679D01*
X4669078Y-3662679D01*
X4669078Y-3691026D01*
X4669790Y-3697325D01*
X4671720Y-3702812D01*
X4674819Y-3707688D01*
X4678883Y-3711803D01*
X4682947Y-3715308D01*
X4684522Y-3719068D01*
X4684522Y-3723132D01*
X4682947Y-3726891D01*
X4678883Y-3730396D01*
X4674819Y-3734511D01*
X4671720Y-3739387D01*
X4669790Y-3744874D01*
X4669078Y-3751173D01*
X4669078Y-3891026D01*
X4669790Y-3897376D01*
X4671720Y-3902811D01*
X4674819Y-3907739D01*
X4678883Y-3911803D01*
X4683810Y-3914901D01*
X4689246Y-3916781D01*
X4695545Y-3917492D01*
X4829454Y-3917492D01*
X4835753Y-3916781D01*
X4841189Y-3914901D01*
X4846116Y-3911803D01*
X4850180Y-3907739D01*
X4853279Y-3902811D01*
X4855210Y-3897376D01*
X4855921Y-3891026D01*
X4855921Y-3880358D01*
X4856683Y-3876497D01*
X4858918Y-3873195D01*
X4862220Y-3870960D01*
X4866081Y-3870198D01*
X5066842Y-3870960D01*
X5070703Y-3871722D01*
X5074005Y-3873906D01*
X5076190Y-3877208D01*
X5076952Y-3881120D01*
X5076952Y-3900881D01*
X5077663Y-3907180D01*
X5079593Y-3912666D01*
X5082641Y-3917543D01*
X5086756Y-3921658D01*
X5091633Y-3924706D01*
X5097119Y-3926636D01*
X5103418Y-3927348D01*
X5200548Y-3927348D01*
X5204409Y-3928110D01*
X5207711Y-3930345D01*
X5221427Y-3944061D01*
X5223611Y-3947312D01*
X5224424Y-3951224D01*
X5223611Y-3955135D01*
X5221427Y-3958386D01*
X5218125Y-3960622D01*
X5214264Y-3961384D01*
X3891076Y-3961384D01*
X3887419Y-3960672D01*
X3884269Y-3958742D01*
X3881983Y-3955745D01*
X3880967Y-3952138D01*
X3882440Y-3938117D01*
X3882440Y-3926281D01*
X3883253Y-3922369D01*
X3885437Y-3919067D01*
X3888740Y-3916883D01*
X3892600Y-3916121D01*
X3903726Y-3916121D01*
X3910076Y-3915410D01*
X3915511Y-3913479D01*
X3920439Y-3910380D01*
X3924503Y-3906316D01*
X3927601Y-3901389D01*
X3929481Y-3895953D01*
X3930192Y-3889654D01*
X3930192Y-3755745D01*
X3929481Y-3749446D01*
X3927601Y-3744010D01*
X3924503Y-3739083D01*
X3920439Y-3735019D01*
X3915511Y-3731920D01*
X3910076Y-3729990D01*
X3903726Y-3729278D01*
X3892600Y-3729278D01*
X3888740Y-3728516D01*
X3885437Y-3726332D01*
X3883253Y-3723030D01*
X3882440Y-3719118D01*
X3882440Y-3634181D01*
X3883253Y-3630269D01*
X3885437Y-3626967D01*
X3888740Y-3624783D01*
X3892600Y-3624021D01*
X3903726Y-3624021D01*
X3910076Y-3623310D01*
X3915511Y-3621379D01*
X3920439Y-3618280D01*
X3924503Y-3614216D01*
X3927601Y-3609289D01*
X3929481Y-3603853D01*
X3930192Y-3597554D01*
X3930192Y-3589426D01*
X3931005Y-3585514D01*
X3933190Y-3582212D01*
X3936492Y-3580028D01*
X3940352Y-3579266D01*
X4012641Y-3579266D01*
X4016501Y-3580028D01*
X4019804Y-3582212D01*
X4031132Y-3593541D01*
X4033316Y-3596843D01*
X4034078Y-3600704D01*
X4034078Y-3691026D01*
X4034790Y-3697325D01*
X4036720Y-3702812D01*
X4039819Y-3707688D01*
X4043883Y-3711803D01*
X4047947Y-3715308D01*
X4049522Y-3719068D01*
X4049522Y-3723132D01*
X4047947Y-3726891D01*
X4043883Y-3730396D01*
X4039819Y-3734511D01*
X4036720Y-3739387D01*
X4034790Y-3744874D01*
X4034078Y-3751173D01*
X4034078Y-3779520D01*
X4087418Y-3779520D01*
X4087418Y-3727653D01*
X4088180Y-3723792D01*
X4090365Y-3720490D01*
X4093667Y-3718255D01*
X4097578Y-3717493D01*
X4157421Y-3717493D01*
X4161332Y-3718255D01*
X4164634Y-3720490D01*
X4166819Y-3723792D01*
X4167581Y-3727653D01*
X4167581Y-3779520D01*
X4220921Y-3779520D01*
X4220921Y-3751173D01*
X4220210Y-3744874D01*
X4218279Y-3739387D01*
X4215180Y-3734511D01*
X4211116Y-3730396D01*
X4207052Y-3726891D01*
X4205478Y-3723132D01*
X4205478Y-3719068D01*
X4207052Y-3715308D01*
X4211116Y-3711803D01*
X4215180Y-3707688D01*
X4218279Y-3702812D01*
X4220210Y-3697325D01*
X4220921Y-3691026D01*
X4220921Y-3551174D01*
X4220210Y-3544824D01*
X4218279Y-3539388D01*
X4215180Y-3534460D01*
X4211116Y-3530396D01*
X4206189Y-3527298D01*
X4200753Y-3525418D01*
X4194454Y-3524707D01*
X4104132Y-3524707D01*
X4100220Y-3523894D01*
X4096918Y-3521710D01*
X4070045Y-3494887D01*
X4062577Y-3489248D01*
X4054551Y-3485286D01*
X4045915Y-3482797D01*
X4036517Y-3481933D01*
X3940352Y-3481933D01*
X3936492Y-3481171D01*
X3933190Y-3478987D01*
X3931005Y-3475685D01*
X3930192Y-3471773D01*
X3930192Y-3463645D01*
X3929481Y-3457346D01*
X3927601Y-3451910D01*
X3924503Y-3446983D01*
X3920439Y-3442919D01*
X3915511Y-3439820D01*
X3910076Y-3437890D01*
X3903726Y-3437178D01*
X3892600Y-3437178D01*
X3888740Y-3436416D01*
X3885437Y-3434232D01*
X3883253Y-3430930D01*
X3882440Y-3427018D01*
X3882440Y-3342081D01*
X3883253Y-3338169D01*
X3885437Y-3334867D01*
X3888740Y-3332683D01*
X3892600Y-3331921D01*
X3903726Y-3331921D01*
X3910076Y-3331210D01*
X3915511Y-3329279D01*
X3920439Y-3326180D01*
X3924503Y-3322116D01*
X3927601Y-3317189D01*
X3929481Y-3311753D01*
X3930192Y-3305454D01*
X3930192Y-3171545D01*
X3929481Y-3165246D01*
X3927601Y-3159810D01*
X3924503Y-3154883D01*
X3920439Y-3150819D01*
X3915511Y-3147720D01*
X3910076Y-3145790D01*
X3903726Y-3145078D01*
X3813403Y-3145078D01*
X3809542Y-3144316D01*
X3806240Y-3142132D01*
X3714445Y-3050387D01*
X3706977Y-3044748D01*
X3698951Y-3040786D01*
X3690315Y-3038297D01*
X3680917Y-3037433D01*
X3414420Y-3037484D01*
X3405174Y-3038754D01*
X3396640Y-3041650D01*
X3388817Y-3045968D01*
X3381552Y-3052013D01*
X3355086Y-3078530D01*
X3350818Y-3083966D01*
X3348583Y-3087827D01*
X3346348Y-3090519D01*
X3343300Y-3092297D01*
X3339795Y-3092907D01*
X3323945Y-3092907D01*
X3317646Y-3093618D01*
X3312210Y-3095498D01*
X3307283Y-3098596D01*
X3303219Y-3102660D01*
X3300120Y-3107588D01*
X3298190Y-3113024D01*
X3297478Y-3119374D01*
X3297478Y-3259226D01*
X3298190Y-3265525D01*
X3300120Y-3271012D01*
X3303219Y-3275888D01*
X3307283Y-3280003D01*
X3311347Y-3283508D01*
X3312922Y-3287268D01*
X3312922Y-3291332D01*
X3311347Y-3295091D01*
X3307283Y-3298596D01*
X3303219Y-3302711D01*
X3300120Y-3307587D01*
X3298190Y-3313074D01*
X3297478Y-3319373D01*
X3297478Y-3347720D01*
X3350818Y-3347720D01*
X3350818Y-3295853D01*
X3351580Y-3291992D01*
X3353765Y-3288690D01*
X3357067Y-3286455D01*
X3360978Y-3285693D01*
X3420821Y-3285693D01*
X3424732Y-3286455D01*
X3428034Y-3288690D01*
X3430219Y-3291992D01*
X3430981Y-3295853D01*
X3430981Y-3347720D01*
X3484321Y-3347720D01*
X3484321Y-3319373D01*
X3483610Y-3313074D01*
X3481679Y-3307587D01*
X3478580Y-3302711D01*
X3474516Y-3298596D01*
X3470452Y-3295091D01*
X3468878Y-3291332D01*
X3468878Y-3287268D01*
X3470452Y-3283508D01*
X3474516Y-3280003D01*
X3478580Y-3275888D01*
X3481679Y-3271012D01*
X3483610Y-3265525D01*
X3484321Y-3259226D01*
X3484321Y-3144926D01*
X3485083Y-3141014D01*
X3487267Y-3137712D01*
X3490569Y-3135528D01*
X3494481Y-3134766D01*
X3538677Y-3134766D01*
X3542588Y-3135528D01*
X3545890Y-3137712D01*
X3548075Y-3141014D01*
X3548837Y-3144926D01*
X3548075Y-3148787D01*
X3545890Y-3152089D01*
X3543096Y-3154883D01*
X3539998Y-3159810D01*
X3538118Y-3165246D01*
X3537407Y-3171545D01*
X3537407Y-3198418D01*
X3592220Y-3198418D01*
X3592220Y-3144926D01*
X3592982Y-3141014D01*
X3595166Y-3137712D01*
X3598468Y-3135528D01*
X3602380Y-3134766D01*
X3657041Y-3134766D01*
X3660901Y-3135528D01*
X3664204Y-3137712D01*
X3672433Y-3145942D01*
X3674618Y-3149244D01*
X3675379Y-3153105D01*
X3675379Y-3198418D01*
X3720693Y-3198418D01*
X3724554Y-3199180D01*
X3727856Y-3201365D01*
X3734409Y-3207918D01*
X3736644Y-3211220D01*
X3737406Y-3215132D01*
X3737406Y-3268421D01*
X3736644Y-3272332D01*
X3734409Y-3275634D01*
X3731107Y-3277819D01*
X3727246Y-3278581D01*
X3675379Y-3278581D01*
X3675379Y-3331921D01*
X3703726Y-3331921D01*
X3710025Y-3331210D01*
X3715512Y-3329279D01*
X3720388Y-3326180D01*
X3724503Y-3322116D01*
X3728008Y-3318052D01*
X3731768Y-3316478D01*
X3735832Y-3316478D01*
X3739591Y-3318052D01*
X3743096Y-3322116D01*
X3747211Y-3326180D01*
X3752087Y-3329279D01*
X3757574Y-3331210D01*
X3763873Y-3331921D01*
X3774998Y-3331921D01*
X3778859Y-3332683D01*
X3782161Y-3334867D01*
X3784346Y-3338169D01*
X3785158Y-3342081D01*
X3785158Y-3427018D01*
X3784346Y-3430930D01*
X3782161Y-3434232D01*
X3778859Y-3436416D01*
X3774998Y-3437178D01*
X3763873Y-3437178D01*
X3757574Y-3437890D01*
X3752087Y-3439820D01*
X3747211Y-3442919D01*
X3743096Y-3446983D01*
X3739591Y-3451047D01*
X3735832Y-3452622D01*
X3731768Y-3452622D01*
X3728008Y-3451047D01*
X3724503Y-3446983D01*
X3720388Y-3442919D01*
X3715512Y-3439820D01*
X3710025Y-3437890D01*
X3703726Y-3437178D01*
X3675379Y-3437178D01*
X3675379Y-3490518D01*
X3727246Y-3490518D01*
X3731107Y-3491280D01*
X3734409Y-3493465D01*
X3736644Y-3496767D01*
X3737406Y-3500678D01*
X3737406Y-3560521D01*
X3736644Y-3564432D01*
X3734409Y-3567734D01*
X3731107Y-3569919D01*
X3727246Y-3570681D01*
X3675379Y-3570681D01*
X3675379Y-3624021D01*
X3703726Y-3624021D01*
X3710025Y-3623310D01*
X3715512Y-3621379D01*
X3720388Y-3618280D01*
X3724503Y-3614216D01*
X3728008Y-3610152D01*
X3731768Y-3608578D01*
X3735832Y-3608578D01*
X3739591Y-3610152D01*
X3743096Y-3614216D01*
X3747211Y-3618280D01*
X3752087Y-3621379D01*
X3757574Y-3623310D01*
X3763873Y-3624021D01*
X3774998Y-3624021D01*
X3778859Y-3624783D01*
X3782161Y-3626967D01*
X3784346Y-3630269D01*
X3785158Y-3634181D01*
X3785158Y-3719118D01*
X3784346Y-3723030D01*
X3782161Y-3726332D01*
X3778859Y-3728516D01*
X3774998Y-3729278D01*
X3763873Y-3729278D01*
X3757574Y-3729990D01*
X3752087Y-3731920D01*
X3747211Y-3735019D01*
X3743096Y-3739083D01*
X3739591Y-3743147D01*
X3735832Y-3744722D01*
X3731768Y-3744722D01*
X3728008Y-3743147D01*
X3724503Y-3739083D01*
X3720388Y-3735019D01*
X3715512Y-3731920D01*
X3710025Y-3729990D01*
X3703726Y-3729278D01*
X3675379Y-3729278D01*
X3675379Y-3782618D01*
X3727246Y-3782618D01*
X3731107Y-3783380D01*
X3734409Y-3785565D01*
X3736644Y-3788867D01*
X3737406Y-3792778D01*
X3737406Y-3852621D01*
X3736644Y-3856532D01*
X3734409Y-3859834D01*
X3731107Y-3862019D01*
X3727246Y-3862781D01*
X3675379Y-3862781D01*
X3675379Y-3890873D01*
X3674618Y-3894785D01*
X3672433Y-3898087D01*
X3669131Y-3900271D01*
X3665220Y-3901033D01*
X3602380Y-3901033D01*
X3598468Y-3900271D01*
X3595166Y-3898087D01*
X3592982Y-3894785D01*
X3592220Y-3890873D01*
X3592220Y-3862781D01*
X3537407Y-3862781D01*
X3537407Y-3889756D01*
X3537000Y-3893972D01*
X3534867Y-3897629D01*
X3531463Y-3900170D01*
X3527298Y-3901033D01*
X3494481Y-3901033D01*
X3490569Y-3900271D01*
X3487267Y-3898087D01*
X3485083Y-3894785D01*
X3484321Y-3890873D01*
X3484321Y-3763873D01*
X3483610Y-3757574D01*
X3481679Y-3752087D01*
X3478580Y-3747211D01*
X3474516Y-3743096D01*
X3470452Y-3739591D01*
X3468878Y-3735832D01*
X3468878Y-3731768D01*
X3470452Y-3728008D01*
X3474516Y-3724503D01*
X3478580Y-3720388D01*
X3481679Y-3715512D01*
X3483610Y-3710025D01*
X3484321Y-3703726D01*
X3484321Y-3675379D01*
X3430981Y-3675379D01*
X3430981Y-3727246D01*
X3430219Y-3731107D01*
X3428034Y-3734409D01*
X3424732Y-3736644D01*
X3420821Y-3737406D01*
X3360978Y-3737406D01*
X3357067Y-3736644D01*
X3353765Y-3734409D01*
X3351580Y-3731107D01*
X3350818Y-3727246D01*
X3350818Y-3675379D01*
X3300018Y-3675379D01*
X3296107Y-3674618D01*
X3292856Y-3672433D01*
X3290620Y-3669131D01*
X3289858Y-3665220D01*
X3289858Y-3602380D01*
X3290620Y-3598468D01*
X3292856Y-3595166D01*
X3296107Y-3592982D01*
X3300018Y-3592220D01*
X3350818Y-3592220D01*
X3350818Y-3537407D01*
X3323945Y-3537407D01*
X3317646Y-3538118D01*
X3312210Y-3539998D01*
X3307283Y-3543096D01*
X3303219Y-3547160D01*
X3301746Y-3549497D01*
X3298799Y-3552545D01*
X3294887Y-3554120D01*
X3290671Y-3553968D01*
X3286912Y-3552088D01*
X3284169Y-3548887D01*
X3283305Y-3547262D01*
X3278174Y-3541014D01*
X3118358Y-3381197D01*
X3112109Y-3376066D01*
X3107842Y-3373780D01*
X3105454Y-3372002D01*
X3070504Y-3337051D01*
X3063646Y-3331362D01*
X3027730Y-3295446D01*
X3025495Y-3291992D01*
X3024784Y-3287928D01*
X3025749Y-3283915D01*
X3028238Y-3280664D01*
X3031794Y-3278632D01*
X3035909Y-3278174D01*
X3042310Y-3278784D01*
X3049981Y-3278022D01*
X3057347Y-3275787D01*
X3064154Y-3272180D01*
X3070504Y-3266948D01*
X3156762Y-3180689D01*
X3162198Y-3174136D01*
X3576929Y-2759456D01*
X3580231Y-2757220D01*
X3584092Y-2756458D01*
X3733292Y-2756458D01*
X3741318Y-2755646D01*
X3748582Y-2753461D01*
X3755237Y-2749905D01*
X3761486Y-2744774D01*
X3836974Y-2669286D01*
X3842105Y-2663037D01*
X3845661Y-2656382D01*
X3847846Y-2649118D01*
X3848658Y-2641092D01*
X3848658Y-2580284D01*
X3849420Y-2576423D01*
X3851656Y-2573121D01*
X3854907Y-2570937D01*
X3858818Y-2570124D01*
X3878275Y-2570124D01*
X3884625Y-2569413D01*
X3890060Y-2567533D01*
X3894988Y-2564434D01*
X3899052Y-2560320D01*
X3902151Y-2555443D01*
X3904030Y-2550007D01*
X3904742Y-2543657D01*
X3904742Y-2431542D01*
X3904030Y-2425242D01*
X3902151Y-2419756D01*
X3899052Y-2414879D01*
X3894988Y-2410764D01*
X3890060Y-2407716D01*
X3884625Y-2405786D01*
X3878275Y-2405075D01*
X3741724Y-2405075D01*
X3735374Y-2405786D01*
X3729939Y-2407716D01*
X3725011Y-2410764D01*
X3720947Y-2414879D01*
X3717848Y-2419756D01*
X3715969Y-2425242D01*
X3715258Y-2431542D01*
X3715258Y-2543657D01*
X3715969Y-2550007D01*
X3717848Y-2555443D01*
X3720947Y-2560320D01*
X3725011Y-2564434D01*
X3729939Y-2567533D01*
X3735374Y-2569413D01*
X3741724Y-2570124D01*
X3761181Y-2570124D01*
X3765092Y-2570937D01*
X3768344Y-2573121D01*
X3770579Y-2576423D01*
X3771341Y-2580284D01*
X3771341Y-2621381D01*
X3770579Y-2625242D01*
X3768344Y-2628544D01*
X3720744Y-2676144D01*
X3717442Y-2678379D01*
X3713581Y-2679141D01*
X3564382Y-2679141D01*
X3556355Y-2679954D01*
X3549091Y-2682138D01*
X3546094Y-2683713D01*
X3542131Y-2684881D01*
X3537965Y-2684373D01*
X3534410Y-2682240D01*
X3532022Y-2678836D01*
X3531158Y-2674772D01*
X3531158Y-2580284D01*
X3531920Y-2576423D01*
X3534156Y-2573121D01*
X3537407Y-2570937D01*
X3541318Y-2570124D01*
X3560775Y-2570124D01*
X3567125Y-2569413D01*
X3572560Y-2567533D01*
X3577488Y-2564434D01*
X3581552Y-2560320D01*
X3584651Y-2555443D01*
X3586530Y-2550007D01*
X3587242Y-2543657D01*
X3587242Y-2431542D01*
X3586530Y-2425242D01*
X3584651Y-2419756D01*
X3581552Y-2414879D01*
X3577488Y-2410764D01*
X3572560Y-2407716D01*
X3567125Y-2405786D01*
X3560775Y-2405075D01*
X3424224Y-2405075D01*
X3417874Y-2405786D01*
X3412439Y-2407716D01*
X3407511Y-2410764D01*
X3403447Y-2414879D01*
X3400348Y-2419756D01*
X3398469Y-2425242D01*
X3397758Y-2431542D01*
X3397758Y-2543657D01*
X3398469Y-2550007D01*
X3400348Y-2555443D01*
X3403447Y-2560320D01*
X3407511Y-2564434D01*
X3412439Y-2567533D01*
X3417874Y-2569413D01*
X3424224Y-2570124D01*
X3443681Y-2570124D01*
X3447592Y-2570937D01*
X3450844Y-2573121D01*
X3453079Y-2576423D01*
X3453841Y-2580284D01*
X3453841Y-2698242D01*
X3453079Y-2702153D01*
X3450844Y-2705455D01*
X3230981Y-2925318D01*
X3227730Y-2927502D01*
X3223818Y-2928315D01*
X3219907Y-2927502D01*
X3216656Y-2925318D01*
X3214420Y-2922016D01*
X3213658Y-2918155D01*
X3213658Y-2580284D01*
X3214420Y-2576423D01*
X3216656Y-2573121D01*
X3219907Y-2570937D01*
X3223818Y-2570124D01*
X3243275Y-2570124D01*
X3249625Y-2569413D01*
X3255060Y-2567533D01*
X3259988Y-2564434D01*
X3264052Y-2560320D01*
X3267151Y-2555443D01*
X3269030Y-2550007D01*
X3269742Y-2543657D01*
X3269742Y-2431542D01*
X3269030Y-2425242D01*
X3267151Y-2419756D01*
X3264052Y-2414879D01*
X3259988Y-2410764D01*
X3255060Y-2407716D01*
X3249625Y-2405786D01*
X3243275Y-2405075D01*
X3106724Y-2405075D01*
X3100374Y-2405786D01*
X3094939Y-2407716D01*
X3090011Y-2410764D01*
X3085947Y-2414879D01*
X3082848Y-2419756D01*
X3080969Y-2425242D01*
X3080258Y-2431542D01*
X3080258Y-2543657D01*
X3080969Y-2550007D01*
X3082848Y-2555443D01*
X3085947Y-2560320D01*
X3090011Y-2564434D01*
X3094939Y-2567533D01*
X3100374Y-2569413D01*
X3106724Y-2570124D01*
X3126181Y-2570124D01*
X3130092Y-2570937D01*
X3133344Y-2573121D01*
X3135579Y-2576423D01*
X3136341Y-2580284D01*
X3136341Y-2766263D01*
X3135528Y-2770276D01*
X3133140Y-2773680D01*
X3129584Y-2775813D01*
X3125520Y-2776423D01*
X3121558Y-2775305D01*
X3118307Y-2772714D01*
X3113074Y-2766314D01*
X2913634Y-2566873D01*
X2911500Y-2563723D01*
X2910687Y-2560066D01*
X2911246Y-2556306D01*
X2913430Y-2550007D01*
X2914142Y-2543657D01*
X2914142Y-2431542D01*
X2913430Y-2425242D01*
X2911551Y-2419756D01*
X2908452Y-2414879D01*
X2904388Y-2410764D01*
X2899460Y-2407716D01*
X2894025Y-2405786D01*
X2887675Y-2405075D01*
X2751124Y-2405075D01*
X2744774Y-2405786D01*
X2739339Y-2407716D01*
X2734411Y-2410764D01*
X2730347Y-2414879D01*
X2727248Y-2419756D01*
X2725369Y-2425242D01*
X2724658Y-2431542D01*
X2724658Y-2543657D01*
X2725369Y-2550007D01*
X2727248Y-2555443D01*
X2730347Y-2560320D01*
X2734411Y-2564434D01*
X2739339Y-2567533D01*
X2744774Y-2569413D01*
X2751124Y-2570124D01*
X2803347Y-2570124D01*
X2807258Y-2570937D01*
X2810560Y-2573121D01*
X2926283Y-2688844D01*
X2928518Y-2692247D01*
X2929229Y-2696260D01*
X2928366Y-2700223D01*
X2925978Y-2703525D01*
X2922473Y-2705608D01*
X2918460Y-2706166D01*
X2914497Y-2705100D01*
X2910586Y-2703118D01*
X2901391Y-2700324D01*
X2891840Y-2699054D01*
X2882188Y-2699512D01*
X2872740Y-2701544D01*
X2863799Y-2705100D01*
X2855569Y-2710180D01*
X2848356Y-2716530D01*
X2842260Y-2724048D01*
X2837586Y-2732481D01*
X2834386Y-2741574D01*
X2832760Y-2751074D01*
X2832760Y-2753664D01*
X2831947Y-2757576D01*
X2829763Y-2760878D01*
X2789123Y-2801518D01*
X2782824Y-2806750D01*
X2696210Y-2893364D01*
X2693162Y-2895447D01*
X2689555Y-2896311D01*
X2685897Y-2895854D01*
X2681986Y-2893568D01*
X2679293Y-2890266D01*
X2678176Y-2886202D01*
X2678836Y-2881985D01*
X2681173Y-2878429D01*
X2767838Y-2791764D01*
X2773070Y-2785414D01*
X2775051Y-2781655D01*
X2776829Y-2779268D01*
X2792577Y-2763520D01*
X2790748Y-2762554D01*
X2785160Y-2760878D01*
X2782214Y-2759405D01*
X2779877Y-2757068D01*
X2778404Y-2754071D01*
X2776677Y-2748483D01*
X2773070Y-2741676D01*
X2768142Y-2735732D01*
X2762199Y-2730804D01*
X2755392Y-2727198D01*
X2748026Y-2724962D01*
X2740355Y-2724200D01*
X2732633Y-2724962D01*
X2725267Y-2727198D01*
X2718460Y-2730804D01*
X2712110Y-2736037D01*
X2703525Y-2744622D01*
X2700223Y-2746857D01*
X2696311Y-2747619D01*
X2692450Y-2746857D01*
X2689148Y-2744622D01*
X2230526Y-2286000D01*
X2224278Y-2280920D01*
X2217623Y-2277313D01*
X2210358Y-2275128D01*
X2202332Y-2274366D01*
X2122881Y-2274366D01*
X2118969Y-2273554D01*
X2115667Y-2271369D01*
X2113483Y-2268067D01*
X2112721Y-2264206D01*
X2112721Y-2243074D01*
X2112010Y-2236724D01*
X2110079Y-2231288D01*
X2106980Y-2226360D01*
X2102916Y-2222296D01*
X2097989Y-2219198D01*
X2092553Y-2217318D01*
X2086254Y-2216607D01*
X1952345Y-2216607D01*
X1946046Y-2217318D01*
X1940610Y-2219198D01*
X1935683Y-2222296D01*
X1931619Y-2226360D01*
X1928520Y-2231288D01*
X1926589Y-2236724D01*
X1925878Y-2243074D01*
X1925878Y-2283307D01*
X1925370Y-2286558D01*
X1923846Y-2289454D01*
X1921205Y-2292908D01*
X1826412Y-2445258D01*
X1823516Y-2448306D01*
X1819706Y-2449880D01*
X1815541Y-2449830D01*
X1811731Y-2448102D01*
X1808988Y-2445004D01*
X1807667Y-2441041D01*
X1807210Y-2436774D01*
X1805279Y-2431288D01*
X1802180Y-2426411D01*
X1798116Y-2422296D01*
X1794052Y-2418791D01*
X1792478Y-2415032D01*
X1792478Y-2410968D01*
X1794052Y-2407208D01*
X1798116Y-2403703D01*
X1802180Y-2399588D01*
X1805279Y-2394712D01*
X1807210Y-2389225D01*
X1807921Y-2382926D01*
X1807921Y-2354580D01*
X1754581Y-2354580D01*
X1754581Y-2406446D01*
X1753819Y-2410307D01*
X1751634Y-2413609D01*
X1748332Y-2415844D01*
X1744421Y-2416606D01*
X1684578Y-2416606D01*
X1680667Y-2415844D01*
X1677365Y-2413609D01*
X1675180Y-2410307D01*
X1674418Y-2406446D01*
X1674418Y-2354580D01*
X1621078Y-2354580D01*
X1621078Y-2382926D01*
X1621790Y-2389225D01*
X1623720Y-2394712D01*
X1626819Y-2399588D01*
X1630883Y-2403703D01*
X1634947Y-2407208D01*
X1636522Y-2410968D01*
X1636522Y-2415032D01*
X1634947Y-2418791D01*
X1630883Y-2422296D01*
X1626819Y-2426411D01*
X1623720Y-2431288D01*
X1621790Y-2436774D01*
X1621078Y-2443073D01*
X1621078Y-2464206D01*
X1620316Y-2468067D01*
X1618132Y-2471369D01*
X1614830Y-2473553D01*
X1610918Y-2474366D01*
X1513281Y-2474366D01*
X1509369Y-2473553D01*
X1506067Y-2471369D01*
X1503883Y-2468067D01*
X1503121Y-2464206D01*
X1503121Y-2443073D01*
X1502410Y-2436774D01*
X1500479Y-2431288D01*
X1497380Y-2426411D01*
X1493316Y-2422296D01*
X1489252Y-2418791D01*
X1487678Y-2415032D01*
X1487678Y-2410968D01*
X1489252Y-2407208D01*
X1493316Y-2403703D01*
X1497380Y-2399588D01*
X1500479Y-2394712D01*
X1502410Y-2389225D01*
X1503121Y-2382926D01*
X1503121Y-2354580D01*
X1449781Y-2354580D01*
X1449781Y-2406446D01*
X1449019Y-2410307D01*
X1446834Y-2413609D01*
X1443532Y-2415844D01*
X1439621Y-2416606D01*
X1379778Y-2416606D01*
X1375867Y-2415844D01*
X1372565Y-2413609D01*
X1370380Y-2410307D01*
X1369618Y-2406446D01*
X1369618Y-2354580D01*
X1316278Y-2354580D01*
X1316278Y-2382926D01*
X1316990Y-2389225D01*
X1318920Y-2394712D01*
X1322019Y-2399588D01*
X1326083Y-2403703D01*
X1330147Y-2407208D01*
X1331722Y-2410968D01*
X1331722Y-2415032D01*
X1330147Y-2418791D01*
X1326083Y-2422296D01*
X1322019Y-2426411D01*
X1318920Y-2431288D01*
X1316990Y-2436774D01*
X1316278Y-2443073D01*
X1316278Y-2503881D01*
X1315516Y-2507792D01*
X1313332Y-2511044D01*
X1310030Y-2513279D01*
X1306118Y-2514041D01*
X419608Y-2514041D01*
X415696Y-2513279D01*
X412445Y-2511044D01*
X410209Y-2507792D01*
X409448Y-2503881D01*
X409448Y-2474518D01*
X408736Y-2468219D01*
X406806Y-2462733D01*
X403758Y-2457856D01*
X399643Y-2453741D01*
X394766Y-2450693D01*
X389280Y-2448763D01*
X382981Y-2448052D01*
X226618Y-2448052D01*
X220319Y-2448763D01*
X214833Y-2450693D01*
X209956Y-2453741D01*
X205841Y-2457856D01*
X202793Y-2462733D01*
X200863Y-2468219D01*
X200152Y-2474518D01*
X200152Y-2630881D01*
X200863Y-2637180D01*
X202793Y-2642666D01*
X205841Y-2647543D01*
X209956Y-2651658D01*
X214833Y-2654706D01*
X220319Y-2656636D01*
X226618Y-2657348D01*
X382981Y-2657348D01*
X389280Y-2656636D01*
X394766Y-2654706D01*
X399643Y-2651658D01*
X403758Y-2647543D01*
X406806Y-2642666D01*
X408736Y-2637180D01*
X409448Y-2630881D01*
X409448Y-2601518D01*
X410209Y-2597607D01*
X412445Y-2594356D01*
X415696Y-2592120D01*
X419608Y-2591358D01*
X1311198Y-2591358D01*
X1314551Y-2591917D01*
X1317548Y-2593594D01*
X1319784Y-2596134D01*
X1322019Y-2599639D01*
X1326083Y-2603703D01*
X1331010Y-2606802D01*
X1336446Y-2608681D01*
X1342745Y-2609392D01*
X1476654Y-2609392D01*
X1482953Y-2608681D01*
X1488389Y-2606802D01*
X1493316Y-2603703D01*
X1497380Y-2599639D01*
X1500479Y-2594711D01*
X1502410Y-2589276D01*
X1503121Y-2582926D01*
X1503121Y-2561793D01*
X1503883Y-2557932D01*
X1506067Y-2554630D01*
X1509369Y-2552446D01*
X1513281Y-2551633D01*
X1610918Y-2551633D01*
X1614830Y-2552446D01*
X1618132Y-2554630D01*
X1620316Y-2557932D01*
X1621078Y-2561793D01*
X1621078Y-2582926D01*
X1621790Y-2589276D01*
X1623720Y-2594711D01*
X1626819Y-2599639D01*
X1630883Y-2603703D01*
X1635810Y-2606802D01*
X1641246Y-2608681D01*
X1647545Y-2609392D01*
X1781454Y-2609392D01*
X1787753Y-2608681D01*
X1793189Y-2606802D01*
X1798116Y-2603703D01*
X1802180Y-2599639D01*
X1805279Y-2594711D01*
X1807210Y-2589276D01*
X1807921Y-2582926D01*
X1807921Y-2563266D01*
X1808683Y-2559354D01*
X1810918Y-2556052D01*
X1814220Y-2553868D01*
X1818182Y-2553106D01*
X1829765Y-2553208D01*
X1837537Y-2552192D01*
X1844700Y-2549753D01*
X1851304Y-2545994D01*
X1856993Y-2541016D01*
X1861870Y-2534615D01*
X1907082Y-2461920D01*
X1910130Y-2458821D01*
X1914194Y-2457246D01*
X1918512Y-2457500D01*
X1922322Y-2459583D01*
X1924964Y-2463038D01*
X1925878Y-2467305D01*
X1925878Y-2582926D01*
X1926589Y-2589276D01*
X1928520Y-2594711D01*
X1931619Y-2599639D01*
X1935683Y-2603703D01*
X1940610Y-2606802D01*
X1946046Y-2608681D01*
X1952345Y-2609392D01*
X1970481Y-2609392D01*
X1974392Y-2610205D01*
X1977643Y-2612390D01*
X1979879Y-2615692D01*
X1980641Y-2619552D01*
X1980641Y-3110992D01*
X1981454Y-3119018D01*
X1983638Y-3126282D01*
X1987194Y-3132937D01*
X1992325Y-3139186D01*
X2012137Y-3158998D01*
X2013661Y-3160979D01*
X2014677Y-3163265D01*
X2015998Y-3167532D01*
X2019604Y-3174339D01*
X2024837Y-3180689D01*
X2111095Y-3266948D01*
X2117445Y-3272180D01*
X2124252Y-3275787D01*
X2131618Y-3278022D01*
X2139340Y-3278784D01*
X2145690Y-3278174D01*
X2149805Y-3278581D01*
X2153361Y-3280613D01*
X2155850Y-3283915D01*
X2156815Y-3287928D01*
X2156155Y-3291992D01*
X2153869Y-3295446D01*
X2118055Y-3331260D01*
X2111095Y-3337051D01*
X2024837Y-3423310D01*
X2019604Y-3429660D01*
X2015998Y-3436467D01*
X2013762Y-3443833D01*
X2013000Y-3451555D01*
X2013762Y-3459226D01*
X2015998Y-3466592D01*
X2019604Y-3473399D01*
X2024532Y-3479342D01*
X2030475Y-3484270D01*
X2037283Y-3487877D01*
X2042871Y-3489604D01*
X2045868Y-3491077D01*
X2048205Y-3493414D01*
X2049678Y-3496360D01*
X2051354Y-3501948D01*
X2055012Y-3508756D01*
X2059889Y-3514750D01*
X2065832Y-3519627D01*
X2072639Y-3523284D01*
X2078228Y-3524961D01*
X2081174Y-3526434D01*
X2083511Y-3528771D01*
X2084984Y-3531717D01*
X2086711Y-3537305D01*
X2090318Y-3544112D01*
X2095246Y-3550056D01*
X2101189Y-3554984D01*
X2107996Y-3558590D01*
X2113584Y-3560318D01*
X2116582Y-3561791D01*
X2118918Y-3564128D01*
X2120341Y-3567074D01*
X2122068Y-3572662D01*
X2125268Y-3578656D01*
X2126437Y-3582619D01*
X2125878Y-3586784D01*
X2123744Y-3590340D01*
X2120341Y-3592728D01*
X2116277Y-3593592D01*
X1836318Y-3593592D01*
X1832406Y-3592829D01*
X1829104Y-3590594D01*
X1819605Y-3581095D01*
X1817370Y-3577793D01*
X1816607Y-3573881D01*
X1816607Y-3221990D01*
X1815795Y-3213963D01*
X1813610Y-3206750D01*
X1810054Y-3200044D01*
X1804924Y-3193846D01*
X1734921Y-3123793D01*
X1732737Y-3120542D01*
X1731924Y-3116732D01*
X1732635Y-3112871D01*
X1735836Y-3104896D01*
X1739442Y-3090824D01*
X1741271Y-3076397D01*
X1741271Y-3061817D01*
X1739442Y-3047390D01*
X1735836Y-3033268D01*
X1730451Y-3019755D01*
X1723440Y-3007004D01*
X1714906Y-2995218D01*
X1704949Y-2984601D01*
X1693722Y-2975356D01*
X1681429Y-2967532D01*
X1668272Y-2961335D01*
X1654403Y-2956864D01*
X1640128Y-2954121D01*
X1625600Y-2953207D01*
X1611071Y-2954121D01*
X1596796Y-2956864D01*
X1582928Y-2961335D01*
X1569770Y-2967532D01*
X1557477Y-2975356D01*
X1546250Y-2984601D01*
X1536293Y-2995218D01*
X1527759Y-3007004D01*
X1520748Y-3019755D01*
X1515364Y-3033268D01*
X1511757Y-3047390D01*
X1509928Y-3061817D01*
X1509928Y-3076397D01*
X1511757Y-3090824D01*
X1515364Y-3104896D01*
X1520748Y-3118459D01*
X1527759Y-3131210D01*
X1536293Y-3142945D01*
X1546250Y-3153562D01*
X1557477Y-3162858D01*
X1569770Y-3170631D01*
X1582928Y-3176828D01*
X1596796Y-3181350D01*
X1611071Y-3184093D01*
X1625600Y-3185007D01*
X1640128Y-3184093D01*
X1654403Y-3181350D01*
X1668272Y-3176828D01*
X1672945Y-3175558D01*
X1677009Y-3176270D01*
X1680464Y-3178556D01*
X1736394Y-3234486D01*
X1738630Y-3237788D01*
X1739392Y-3241700D01*
X1739392Y-3485692D01*
X1738528Y-3489807D01*
X1736039Y-3493211D01*
X1732381Y-3495344D01*
X1728165Y-3495801D01*
X1724152Y-3494481D01*
X1721002Y-3491636D01*
X1714906Y-3483203D01*
X1704949Y-3472637D01*
X1693722Y-3463340D01*
X1681429Y-3455568D01*
X1668272Y-3449370D01*
X1654403Y-3444849D01*
X1640128Y-3442106D01*
X1625600Y-3441192D01*
X1611071Y-3442106D01*
X1596796Y-3444849D01*
X1582928Y-3449370D01*
X1569770Y-3455568D01*
X1557477Y-3463340D01*
X1546250Y-3472637D01*
X1536293Y-3483203D01*
X1527759Y-3494989D01*
X1520748Y-3507740D01*
X1515364Y-3521303D01*
X1511757Y-3535375D01*
X1509928Y-3549802D01*
X1509928Y-3564382D01*
X1511757Y-3578809D01*
X1515364Y-3592931D01*
X1520748Y-3606444D01*
X1527759Y-3619195D01*
X1536293Y-3630980D01*
X1546250Y-3641598D01*
X1557477Y-3650843D01*
X1569770Y-3658666D01*
X1582928Y-3664864D01*
X1596796Y-3669334D01*
X1611071Y-3672078D01*
X1625600Y-3672992D01*
X1640128Y-3672078D01*
X1654403Y-3669334D01*
X1668272Y-3664864D01*
X1672945Y-3663543D01*
X1677009Y-3664254D01*
X1680464Y-3666540D01*
X1736547Y-3722624D01*
X1742795Y-3727754D01*
X1749450Y-3731310D01*
X1756664Y-3733495D01*
X1764690Y-3734308D01*
X2161286Y-3734308D01*
X2169312Y-3733495D01*
X2176526Y-3731310D01*
X2183180Y-3727754D01*
X2189429Y-3722624D01*
X2221484Y-3690620D01*
X2224989Y-3688283D01*
X2229154Y-3687622D01*
X2233218Y-3688689D01*
X2242616Y-3696411D01*
X2249424Y-3700018D01*
X2255012Y-3701745D01*
X2257958Y-3703167D01*
X2260295Y-3705555D01*
X2261768Y-3708501D01*
X2263495Y-3714089D01*
X2264460Y-3715918D01*
X2280158Y-3700170D01*
X2282545Y-3698392D01*
X2286355Y-3696411D01*
X2292705Y-3691178D01*
X2378964Y-3604920D01*
X2384196Y-3598570D01*
X2386177Y-3594811D01*
X2387955Y-3592372D01*
X2403703Y-3576675D01*
X2401874Y-3575710D01*
X2396286Y-3573983D01*
X2393289Y-3572560D01*
X2390952Y-3570173D01*
X2389530Y-3567226D01*
X2387803Y-3561638D01*
X2384196Y-3554831D01*
X2379268Y-3548837D01*
X2373325Y-3543960D01*
X2366518Y-3540353D01*
X2360930Y-3538626D01*
X2357983Y-3537153D01*
X2355646Y-3534816D01*
X2354173Y-3531870D01*
X2352446Y-3526282D01*
X2348839Y-3519474D01*
X2343962Y-3513531D01*
X2337968Y-3508654D01*
X2331161Y-3504996D01*
X2325573Y-3503269D01*
X2322626Y-3501847D01*
X2320239Y-3499510D01*
X2318816Y-3496513D01*
X2317089Y-3490925D01*
X2313482Y-3484118D01*
X2308555Y-3478174D01*
X2302611Y-3473246D01*
X2295804Y-3469640D01*
X2290216Y-3467912D01*
X2287270Y-3466490D01*
X2284933Y-3464102D01*
X2283460Y-3461156D01*
X2281783Y-3455568D01*
X2278126Y-3448761D01*
X2273249Y-3442817D01*
X2267254Y-3437940D01*
X2260447Y-3434283D01*
X2254859Y-3432606D01*
X2251913Y-3431133D01*
X2249525Y-3428796D01*
X2248103Y-3425799D01*
X2246376Y-3420211D01*
X2242769Y-3413404D01*
X2237841Y-3407460D01*
X2231898Y-3402533D01*
X2225090Y-3398926D01*
X2219502Y-3397199D01*
X2216556Y-3395776D01*
X2214219Y-3393389D01*
X2212746Y-3390442D01*
X2211070Y-3384854D01*
X2207412Y-3378047D01*
X2201875Y-3371342D01*
X2200605Y-3369310D01*
X2199487Y-3365652D01*
X2199538Y-3361131D01*
X2201519Y-3357118D01*
X2205024Y-3354324D01*
X2209444Y-3353308D01*
X2265781Y-3353308D01*
X2269693Y-3354070D01*
X2272995Y-3356305D01*
X2421178Y-3504488D01*
X2423414Y-3507790D01*
X2424176Y-3511702D01*
X2424176Y-3570681D01*
X2423312Y-3574745D01*
X2422652Y-3575710D01*
X2423414Y-3576828D01*
X2424176Y-3580688D01*
X2424176Y-3586581D01*
X2423414Y-3590493D01*
X2421178Y-3593795D01*
X2400757Y-3614216D01*
X2393950Y-3619906D01*
X2307691Y-3706164D01*
X2302459Y-3712514D01*
X2300376Y-3716426D01*
X2298598Y-3718814D01*
X2282952Y-3734409D01*
X2284780Y-3735374D01*
X2290368Y-3737101D01*
X2293315Y-3738575D01*
X2295652Y-3740912D01*
X2297125Y-3743858D01*
X2298801Y-3749446D01*
X2302459Y-3756253D01*
X2307336Y-3762197D01*
X2312009Y-3766007D01*
X2314600Y-3769258D01*
X2315718Y-3773220D01*
X2315108Y-3777284D01*
X2312974Y-3780840D01*
X2309622Y-3783228D01*
X2305558Y-3784041D01*
X1404518Y-3784041D01*
X1400657Y-3783279D01*
X1397355Y-3781044D01*
X649986Y-3033725D01*
X643737Y-3028594D01*
X637082Y-3025038D01*
X629818Y-3022854D01*
X621792Y-3022041D01*
X408482Y-3022041D01*
X404774Y-3021330D01*
X401574Y-3019348D01*
X399338Y-3016351D01*
X395427Y-3008376D01*
X387807Y-2996996D01*
X378764Y-2986735D01*
X368503Y-2977692D01*
X357124Y-2970072D01*
X344830Y-2964027D01*
X331876Y-2959658D01*
X318465Y-2956966D01*
X304800Y-2956052D01*
X291134Y-2956966D01*
X277723Y-2959658D01*
X264769Y-2964027D01*
X252475Y-2970072D01*
X241096Y-2977692D01*
X230835Y-2986735D01*
X221792Y-2996996D01*
X214172Y-3008376D01*
X208127Y-3020669D01*
X203758Y-3033623D01*
X201066Y-3047034D01*
X200152Y-3060700D01*
X201066Y-3074365D01*
X203758Y-3087776D01*
X208127Y-3100730D01*
X214172Y-3113024D01*
X221792Y-3124403D01*
X230835Y-3134664D01*
X241096Y-3143707D01*
X252475Y-3151327D01*
X264769Y-3157372D01*
X277723Y-3161741D01*
X291134Y-3164433D01*
X304800Y-3165348D01*
X318465Y-3164433D01*
X331876Y-3161741D01*
X344830Y-3157372D01*
X357124Y-3151327D01*
X368503Y-3143707D01*
X378764Y-3134664D01*
X387807Y-3124403D01*
X395427Y-3113024D01*
X399338Y-3105048D01*
X401574Y-3102051D01*
X404774Y-3100070D01*
X408482Y-3099358D01*
X602081Y-3099358D01*
X605942Y-3100120D01*
X609244Y-3102356D01*
X1356614Y-3849674D01*
X1362862Y-3854805D01*
X1369517Y-3858361D01*
X1376781Y-3860546D01*
X1384808Y-3861358D01*
X2387600Y-3861358D01*
X2395626Y-3860546D01*
X2398318Y-3859733D01*
X2402281Y-3859377D01*
X2406040Y-3860495D01*
X2409139Y-3863035D01*
X2413457Y-3868267D01*
X2419400Y-3873195D01*
X2426208Y-3876801D01*
X2433574Y-3879037D01*
X2441244Y-3879799D01*
X2448966Y-3879037D01*
X2456332Y-3876801D01*
X2463139Y-3873195D01*
X2469489Y-3867962D01*
X2555748Y-3781704D01*
X2561082Y-3775303D01*
X2597353Y-3739032D01*
X2600807Y-3736797D01*
X2604871Y-3736086D01*
X2608884Y-3737051D01*
X2612136Y-3739540D01*
X2614168Y-3743096D01*
X2614625Y-3747211D01*
X2614015Y-3753510D01*
X2614777Y-3761181D01*
X2617012Y-3768547D01*
X2620619Y-3775354D01*
X2625852Y-3781704D01*
X2712110Y-3867962D01*
X2718562Y-3873296D01*
X2746654Y-3901440D01*
X2748432Y-3903827D01*
X2751937Y-3910380D01*
X2756763Y-3916273D01*
X2762605Y-3921048D01*
X2769260Y-3924604D01*
X2776524Y-3926840D01*
X2784043Y-3927551D01*
X2791561Y-3926840D01*
X2798826Y-3924604D01*
X2805480Y-3921048D01*
X2811729Y-3915918D01*
X2896006Y-3831691D01*
X2899460Y-3829405D01*
X2913075Y-3827475D01*
X2922320Y-3824681D01*
X2930906Y-3820312D01*
X2938678Y-3814572D01*
X2945384Y-3807612D01*
X2950768Y-3799636D01*
X2954731Y-3790848D01*
X2957169Y-3781501D01*
X2957982Y-3771900D01*
X2957169Y-3762298D01*
X2954731Y-3752951D01*
X2950768Y-3744163D01*
X2945384Y-3736187D01*
X2938678Y-3729228D01*
X2930906Y-3723487D01*
X2925064Y-3720490D01*
X2921914Y-3718051D01*
X2919933Y-3714546D01*
X2919476Y-3710533D01*
X2920644Y-3706723D01*
X2923133Y-3703624D01*
X2926689Y-3701694D01*
X2932176Y-3700018D01*
X2938983Y-3696411D01*
X2944926Y-3691483D01*
X2949854Y-3685540D01*
X2953461Y-3678732D01*
X2955188Y-3673195D01*
X2956610Y-3670198D01*
X2958998Y-3667861D01*
X2961944Y-3666388D01*
X2967532Y-3664712D01*
X2974340Y-3661054D01*
X2980283Y-3656177D01*
X2985211Y-3650183D01*
X2988818Y-3643376D01*
X2990545Y-3637787D01*
X2992018Y-3634841D01*
X2994355Y-3632504D01*
X2997301Y-3631031D01*
X3002889Y-3629304D01*
X3009696Y-3625697D01*
X3015640Y-3620820D01*
X3020568Y-3614826D01*
X3024174Y-3608019D01*
X3025902Y-3602482D01*
X3027324Y-3599484D01*
X3029661Y-3597148D01*
X3032658Y-3595674D01*
X3038246Y-3593998D01*
X3045053Y-3590340D01*
X3050997Y-3585464D01*
X3055924Y-3579520D01*
X3059531Y-3572713D01*
X3061258Y-3567074D01*
X3062732Y-3564128D01*
X3065068Y-3561791D01*
X3068015Y-3560318D01*
X3073603Y-3558641D01*
X3080410Y-3554984D01*
X3086354Y-3550107D01*
X3091281Y-3544112D01*
X3094888Y-3537305D01*
X3096615Y-3531768D01*
X3098038Y-3528771D01*
X3100374Y-3526434D01*
X3103372Y-3524961D01*
X3108960Y-3523284D01*
X3110788Y-3522319D01*
X3095091Y-3506673D01*
X3093364Y-3504285D01*
X3091281Y-3500374D01*
X3086049Y-3494024D01*
X2999790Y-3407765D01*
X2993440Y-3402533D01*
X2989529Y-3400501D01*
X2987141Y-3398723D01*
X2971546Y-3383076D01*
X2970580Y-3384905D01*
X2968853Y-3390442D01*
X2967431Y-3393440D01*
X2965043Y-3395776D01*
X2962097Y-3397199D01*
X2956509Y-3398926D01*
X2949702Y-3402533D01*
X2943758Y-3407460D01*
X2938830Y-3413404D01*
X2935224Y-3420211D01*
X2933496Y-3425850D01*
X2932023Y-3428796D01*
X2929686Y-3431133D01*
X2926740Y-3432606D01*
X2921152Y-3434283D01*
X2914345Y-3437940D01*
X2908401Y-3442817D01*
X2903474Y-3448812D01*
X2899867Y-3455619D01*
X2898140Y-3461156D01*
X2896717Y-3464153D01*
X2894380Y-3466490D01*
X2891383Y-3467912D01*
X2885795Y-3469640D01*
X2878988Y-3473246D01*
X2873044Y-3478174D01*
X2868117Y-3484118D01*
X2864510Y-3490925D01*
X2862783Y-3496513D01*
X2861310Y-3499510D01*
X2858973Y-3501847D01*
X2856026Y-3503320D01*
X2850438Y-3504996D01*
X2843631Y-3508654D01*
X2837688Y-3513531D01*
X2832760Y-3519474D01*
X2829153Y-3526282D01*
X2827426Y-3531870D01*
X2826004Y-3534816D01*
X2823667Y-3537153D01*
X2820670Y-3538626D01*
X2815082Y-3540353D01*
X2808274Y-3543960D01*
X2802331Y-3548887D01*
X2797403Y-3554831D01*
X2793796Y-3561638D01*
X2792069Y-3567226D01*
X2790596Y-3570224D01*
X2788259Y-3572560D01*
X2785313Y-3574034D01*
X2779725Y-3575710D01*
X2772918Y-3579368D01*
X2766974Y-3584244D01*
X2762046Y-3590188D01*
X2758440Y-3596995D01*
X2756763Y-3602583D01*
X2755290Y-3605529D01*
X2752953Y-3607866D01*
X2749956Y-3609340D01*
X2744368Y-3611067D01*
X2737561Y-3614674D01*
X2731617Y-3619601D01*
X2726690Y-3625545D01*
X2723083Y-3632352D01*
X2721356Y-3637940D01*
X2719882Y-3640937D01*
X2717546Y-3643274D01*
X2714599Y-3644747D01*
X2709011Y-3646424D01*
X2702204Y-3650081D01*
X2696260Y-3654958D01*
X2691333Y-3660901D01*
X2688234Y-3665067D01*
X2684678Y-3666947D01*
X2680614Y-3667251D01*
X2676804Y-3665982D01*
X2673756Y-3663340D01*
X2672029Y-3659733D01*
X2669844Y-3651351D01*
X2665831Y-3642563D01*
X2660446Y-3634587D01*
X2653792Y-3627628D01*
X2646019Y-3621887D01*
X2637383Y-3617518D01*
X2628188Y-3614724D01*
X2618638Y-3613454D01*
X2608986Y-3613912D01*
X2599537Y-3615944D01*
X2590596Y-3619500D01*
X2582367Y-3624579D01*
X2575153Y-3630929D01*
X2569057Y-3638448D01*
X2564384Y-3646881D01*
X2561183Y-3655974D01*
X2559659Y-3664712D01*
X2558694Y-3667709D01*
X2556814Y-3670198D01*
X2535834Y-3691178D01*
X2532329Y-3693464D01*
X2528163Y-3694125D01*
X2524099Y-3693058D01*
X2514752Y-3685387D01*
X2507945Y-3681729D01*
X2502357Y-3680053D01*
X2499410Y-3678580D01*
X2497023Y-3676243D01*
X2495600Y-3673297D01*
X2493873Y-3667709D01*
X2490266Y-3660901D01*
X2482545Y-3651504D01*
X2481478Y-3647440D01*
X2482138Y-3643274D01*
X2484424Y-3639769D01*
X2489708Y-3634435D01*
X2494838Y-3628237D01*
X2498394Y-3621532D01*
X2500579Y-3614318D01*
X2501392Y-3606292D01*
X2501392Y-3511702D01*
X2502154Y-3507790D01*
X2504389Y-3504488D01*
X2652572Y-3356305D01*
X2655874Y-3354070D01*
X2659786Y-3353308D01*
X2972155Y-3353308D01*
X2976067Y-3354070D01*
X2979369Y-3356305D01*
X3009392Y-3386328D01*
X3014776Y-3392779D01*
X3101035Y-3479037D01*
X3107385Y-3484270D01*
X3111195Y-3486302D01*
X3113582Y-3488080D01*
X3133953Y-3508451D01*
X3136696Y-3509467D01*
X3139033Y-3511245D01*
X3209544Y-3581755D01*
X3211779Y-3585057D01*
X3212541Y-3588918D01*
X3212541Y-3784092D01*
X3213354Y-3792118D01*
X3215538Y-3799382D01*
X3219094Y-3806037D01*
X3224225Y-3812286D01*
X3272790Y-3860850D01*
X3279038Y-3865981D01*
X3285693Y-3869537D01*
X3290265Y-3870960D01*
X3294024Y-3873042D01*
X3296564Y-3876446D01*
X3297478Y-3880662D01*
X3297478Y-3903726D01*
X3298190Y-3910076D01*
X3300120Y-3915511D01*
X3303219Y-3920439D01*
X3307283Y-3924503D01*
X3312210Y-3927601D01*
X3317646Y-3929481D01*
X3323945Y-3930192D01*
X3332226Y-3930192D01*
X3335782Y-3930853D01*
X3338880Y-3932682D01*
X3341166Y-3935526D01*
X3342284Y-3938981D01*
X3344011Y-3951884D01*
X3343097Y-3955592D01*
X3340862Y-3958640D01*
X3337610Y-3960672D01*
X3333902Y-3961384D01*
G37*

%LPC*%
G36*
X7764272Y-3937508D02*
G01*
X7782610Y-3936085D01*
X7800644Y-3932834D01*
X7818272Y-3927703D01*
X7835290Y-3920744D01*
X7851495Y-3912108D01*
X7866735Y-3901897D01*
X7880858Y-3890111D01*
X7893659Y-3876954D01*
X7905089Y-3862578D01*
X7914944Y-3847084D01*
X7923174Y-3830624D01*
X7929625Y-3813454D01*
X7934299Y-3795674D01*
X7937144Y-3777538D01*
X7938058Y-3759200D01*
X7937144Y-3740861D01*
X7934299Y-3722725D01*
X7929625Y-3704945D01*
X7923174Y-3687775D01*
X7914944Y-3671315D01*
X7905089Y-3655822D01*
X7893659Y-3641445D01*
X7880858Y-3628288D01*
X7866735Y-3616502D01*
X7851495Y-3606241D01*
X7835290Y-3597605D01*
X7818272Y-3590696D01*
X7800644Y-3585565D01*
X7782610Y-3582263D01*
X7764272Y-3580841D01*
X7745933Y-3581349D01*
X7727696Y-3583686D01*
X7709814Y-3587902D01*
X7692491Y-3593947D01*
X7675829Y-3601720D01*
X7660081Y-3611168D01*
X7645400Y-3622192D01*
X7631938Y-3634689D01*
X7619796Y-3648456D01*
X7609179Y-3663442D01*
X7600137Y-3679444D01*
X7592771Y-3696258D01*
X7587183Y-3713784D01*
X7583424Y-3731717D01*
X7581544Y-3750005D01*
X7581544Y-3768394D01*
X7583424Y-3786632D01*
X7587183Y-3804615D01*
X7592771Y-3822141D01*
X7600137Y-3838956D01*
X7609179Y-3854958D01*
X7619796Y-3869893D01*
X7631938Y-3883710D01*
X7645400Y-3896156D01*
X7660081Y-3907180D01*
X7675829Y-3916679D01*
X7692491Y-3924452D01*
X7709814Y-3930497D01*
X7727696Y-3934714D01*
X7745933Y-3937050D01*
G37*
G36*
X258571Y-3923842D02*
G01*
X276758Y-3922420D01*
X294741Y-3919169D01*
X312267Y-3914038D01*
X329184Y-3907180D01*
X345338Y-3898595D01*
X360476Y-3888384D01*
X374497Y-3876700D01*
X387248Y-3863594D01*
X398576Y-3849268D01*
X408381Y-3833876D01*
X416559Y-3817518D01*
X423011Y-3800449D01*
X427634Y-3782771D01*
X430479Y-3764737D01*
X431393Y-3746500D01*
X430479Y-3728262D01*
X427634Y-3710228D01*
X423011Y-3692550D01*
X416559Y-3675481D01*
X408381Y-3659124D01*
X398576Y-3643731D01*
X387248Y-3629406D01*
X374497Y-3616299D01*
X360476Y-3604615D01*
X345338Y-3594404D01*
X329184Y-3585819D01*
X312267Y-3578961D01*
X294741Y-3573830D01*
X276758Y-3570579D01*
X258571Y-3569157D01*
X240334Y-3569614D01*
X222199Y-3572001D01*
X204419Y-3576167D01*
X187147Y-3582162D01*
X170637Y-3589934D01*
X154990Y-3599332D01*
X140360Y-3610305D01*
X126949Y-3622700D01*
X114909Y-3636416D01*
X104343Y-3651300D01*
X95300Y-3667201D01*
X87985Y-3683914D01*
X82448Y-3701338D01*
X78740Y-3719220D01*
X76860Y-3737356D01*
X76860Y-3755644D01*
X78740Y-3773779D01*
X82448Y-3791661D01*
X87985Y-3809085D01*
X95300Y-3825798D01*
X104343Y-3841699D01*
X114909Y-3856583D01*
X126949Y-3870299D01*
X140360Y-3882694D01*
X154990Y-3893667D01*
X170637Y-3903065D01*
X187147Y-3910837D01*
X204419Y-3916832D01*
X222199Y-3920998D01*
X240334Y-3923385D01*
G37*
G36*
X4060545Y-3917492D02*
G01*
X4087418Y-3917492D01*
X4087418Y-3862679D01*
X4034078Y-3862679D01*
X4034078Y-3891026D01*
X4034790Y-3897376D01*
X4036720Y-3902811D01*
X4039819Y-3907739D01*
X4043883Y-3911803D01*
X4048810Y-3914901D01*
X4054246Y-3916781D01*
G37*
G36*
X4485081Y-3917492D02*
G01*
X4511954Y-3917492D01*
X4518253Y-3916781D01*
X4523689Y-3914901D01*
X4528616Y-3911803D01*
X4532680Y-3907739D01*
X4535779Y-3902811D01*
X4537710Y-3897376D01*
X4538421Y-3891026D01*
X4538421Y-3862679D01*
X4485081Y-3862679D01*
G37*
G36*
X4378045Y-3917492D02*
G01*
X4404918Y-3917492D01*
X4404918Y-3862679D01*
X4351578Y-3862679D01*
X4351578Y-3891026D01*
X4352290Y-3897376D01*
X4354220Y-3902811D01*
X4357319Y-3907739D01*
X4361383Y-3911803D01*
X4366310Y-3914901D01*
X4371746Y-3916781D01*
G37*
G36*
X4167581Y-3917492D02*
G01*
X4194454Y-3917492D01*
X4200753Y-3916781D01*
X4206189Y-3914901D01*
X4211116Y-3911803D01*
X4215180Y-3907739D01*
X4218279Y-3902811D01*
X4220210Y-3897376D01*
X4220921Y-3891026D01*
X4220921Y-3862679D01*
X4167581Y-3862679D01*
G37*
G36*
X3537407Y-3782618D02*
G01*
X3592220Y-3782618D01*
X3592220Y-3729278D01*
X3563874Y-3729278D01*
X3557524Y-3729990D01*
X3552088Y-3731920D01*
X3547160Y-3735019D01*
X3543096Y-3739083D01*
X3539998Y-3744010D01*
X3538118Y-3749446D01*
X3537407Y-3755745D01*
G37*
G36*
X3563874Y-3624021D02*
G01*
X3592220Y-3624021D01*
X3592220Y-3570681D01*
X3537407Y-3570681D01*
X3537407Y-3597554D01*
X3538118Y-3603853D01*
X3539998Y-3609289D01*
X3543096Y-3614216D01*
X3547160Y-3618280D01*
X3552088Y-3621379D01*
X3557524Y-3623310D01*
G37*
G36*
X3430981Y-3592220D02*
G01*
X3484321Y-3592220D01*
X3484321Y-3563874D01*
X3483610Y-3557524D01*
X3481679Y-3552088D01*
X3478580Y-3547160D01*
X3474516Y-3543096D01*
X3469589Y-3539998D01*
X3464153Y-3538118D01*
X3457854Y-3537407D01*
X3430981Y-3537407D01*
G37*
G36*
X4802581Y-3579520D02*
G01*
X4855921Y-3579520D01*
X4855921Y-3551174D01*
X4855210Y-3544824D01*
X4853279Y-3539388D01*
X4850180Y-3534460D01*
X4846116Y-3530396D01*
X4841189Y-3527298D01*
X4835753Y-3525418D01*
X4829454Y-3524707D01*
X4802581Y-3524707D01*
G37*
G36*
X4669078Y-3579520D02*
G01*
X4722418Y-3579520D01*
X4722418Y-3524707D01*
X4695545Y-3524707D01*
X4689246Y-3525418D01*
X4683810Y-3527298D01*
X4678883Y-3530396D01*
X4674819Y-3534460D01*
X4671720Y-3539388D01*
X4669790Y-3544824D01*
X4669078Y-3551174D01*
G37*
G36*
X3537407Y-3490518D02*
G01*
X3592220Y-3490518D01*
X3592220Y-3437178D01*
X3563874Y-3437178D01*
X3557524Y-3437890D01*
X3552088Y-3439820D01*
X3547160Y-3442919D01*
X3543096Y-3446983D01*
X3539998Y-3451910D01*
X3538118Y-3457346D01*
X3537407Y-3463645D01*
G37*
G36*
X3323945Y-3485692D02*
G01*
X3350818Y-3485692D01*
X3350818Y-3430879D01*
X3297478Y-3430879D01*
X3297478Y-3459226D01*
X3298190Y-3465576D01*
X3300120Y-3471011D01*
X3303219Y-3475939D01*
X3307283Y-3480003D01*
X3312210Y-3483101D01*
X3317646Y-3484981D01*
G37*
G36*
X3430981Y-3485692D02*
G01*
X3457854Y-3485692D01*
X3464153Y-3484981D01*
X3469589Y-3483101D01*
X3474516Y-3480003D01*
X3478580Y-3475939D01*
X3481679Y-3471011D01*
X3483610Y-3465576D01*
X3484321Y-3459226D01*
X3484321Y-3430879D01*
X3430981Y-3430879D01*
G37*
G36*
X3563874Y-3331921D02*
G01*
X3592220Y-3331921D01*
X3592220Y-3278581D01*
X3537407Y-3278581D01*
X3537407Y-3305454D01*
X3538118Y-3311753D01*
X3539998Y-3317189D01*
X3543096Y-3322116D01*
X3547160Y-3326180D01*
X3552088Y-3329279D01*
X3557524Y-3331210D01*
G37*
G36*
X259079Y-2900578D02*
G01*
X259079Y-2852420D01*
X210921Y-2852420D01*
X214172Y-2859024D01*
X221792Y-2870403D01*
X230835Y-2880664D01*
X241096Y-2889707D01*
X252475Y-2897327D01*
G37*
G36*
X350520Y-2900578D02*
G01*
X357124Y-2897327D01*
X368503Y-2889707D01*
X378764Y-2880664D01*
X387807Y-2870403D01*
X395427Y-2859024D01*
X398678Y-2852420D01*
X350520Y-2852420D01*
G37*
G36*
X7513370Y-2787345D02*
G01*
X7564221Y-2787345D01*
X7564221Y-2783230D01*
X7565186Y-2778861D01*
X7567980Y-2775305D01*
X7572044Y-2773324D01*
X7576566Y-2773324D01*
X7589621Y-2776220D01*
X7601813Y-2777083D01*
X7614005Y-2776220D01*
X7627061Y-2773324D01*
X7631531Y-2773324D01*
X7635595Y-2775305D01*
X7638389Y-2778861D01*
X7639405Y-2783230D01*
X7639405Y-2787345D01*
X7690205Y-2787345D01*
X7690205Y-2784246D01*
X7689494Y-2777947D01*
X7687564Y-2772511D01*
X7684516Y-2767584D01*
X7680401Y-2763520D01*
X7675524Y-2760421D01*
X7670647Y-2757982D01*
X7668259Y-2754985D01*
X7667193Y-2751378D01*
X7667498Y-2747568D01*
X7669123Y-2744165D01*
X7674051Y-2737612D01*
X7679944Y-2726893D01*
X7684211Y-2715412D01*
X7686802Y-2703423D01*
X7687665Y-2691180D01*
X7686802Y-2678988D01*
X7684211Y-2667000D01*
X7679944Y-2655519D01*
X7674051Y-2644749D01*
X7666685Y-2634945D01*
X7658049Y-2626309D01*
X7648244Y-2618943D01*
X7637475Y-2613101D01*
X7625994Y-2608783D01*
X7614005Y-2606192D01*
X7601813Y-2605328D01*
X7589570Y-2606192D01*
X7577581Y-2608783D01*
X7566101Y-2613101D01*
X7555382Y-2618943D01*
X7545578Y-2626309D01*
X7536891Y-2634945D01*
X7529525Y-2644749D01*
X7523683Y-2655519D01*
X7519416Y-2667000D01*
X7516774Y-2678988D01*
X7515910Y-2691180D01*
X7516774Y-2703423D01*
X7519416Y-2715412D01*
X7523683Y-2726893D01*
X7529525Y-2737612D01*
X7534452Y-2744165D01*
X7536129Y-2747568D01*
X7536434Y-2751378D01*
X7535316Y-2754985D01*
X7532979Y-2757982D01*
X7528102Y-2760421D01*
X7523175Y-2763520D01*
X7519111Y-2767584D01*
X7516012Y-2772511D01*
X7514081Y-2777947D01*
X7513370Y-2784246D01*
G37*
G36*
X350520Y-2760980D02*
G01*
X398678Y-2760980D01*
X395427Y-2754376D01*
X387807Y-2742996D01*
X378764Y-2732735D01*
X368503Y-2723692D01*
X357124Y-2716072D01*
X350520Y-2712821D01*
G37*
G36*
X210921Y-2760980D02*
G01*
X259079Y-2760980D01*
X259079Y-2712821D01*
X252475Y-2716072D01*
X241096Y-2723692D01*
X230835Y-2732735D01*
X221792Y-2742996D01*
X214172Y-2754376D01*
G37*
G36*
X6218224Y-2735224D02*
G01*
X6245707Y-2735224D01*
X6245707Y-2687370D01*
X6191758Y-2687370D01*
X6191758Y-2708757D01*
X6192469Y-2715107D01*
X6194348Y-2720543D01*
X6197447Y-2725420D01*
X6201511Y-2729534D01*
X6206439Y-2732633D01*
X6211874Y-2734513D01*
G37*
G36*
X6327292Y-2735224D02*
G01*
X6354775Y-2735224D01*
X6361125Y-2734513D01*
X6366560Y-2732633D01*
X6371488Y-2729534D01*
X6375552Y-2725420D01*
X6378651Y-2720543D01*
X6380530Y-2715107D01*
X6381242Y-2708757D01*
X6381242Y-2687370D01*
X6327292Y-2687370D01*
G37*
G36*
X7094778Y-2665120D02*
G01*
X7148118Y-2665120D01*
X7148118Y-2610307D01*
X7121245Y-2610307D01*
X7114946Y-2611018D01*
X7109510Y-2612898D01*
X7104583Y-2615996D01*
X7100519Y-2620060D01*
X7097420Y-2624988D01*
X7095490Y-2630424D01*
X7094778Y-2636774D01*
G37*
G36*
X7228281Y-2665120D02*
G01*
X7281621Y-2665120D01*
X7281621Y-2636774D01*
X7280909Y-2630424D01*
X7278979Y-2624988D01*
X7275880Y-2620060D01*
X7271816Y-2615996D01*
X7266889Y-2612898D01*
X7261453Y-2611018D01*
X7255154Y-2610307D01*
X7228281Y-2610307D01*
G37*
G36*
X6191758Y-2618028D02*
G01*
X6245707Y-2618028D01*
X6245707Y-2570175D01*
X6218224Y-2570175D01*
X6211874Y-2570886D01*
X6206439Y-2572816D01*
X6201511Y-2575864D01*
X6197447Y-2579979D01*
X6194348Y-2584856D01*
X6192469Y-2590342D01*
X6191758Y-2596642D01*
G37*
G36*
X6327292Y-2618028D02*
G01*
X6381242Y-2618028D01*
X6381242Y-2596642D01*
X6380530Y-2590342D01*
X6378651Y-2584856D01*
X6375552Y-2579979D01*
X6371488Y-2575864D01*
X6366560Y-2572816D01*
X6361125Y-2570886D01*
X6354775Y-2570175D01*
X6327292Y-2570175D01*
G37*
G36*
X2751124Y-2370124D02*
G01*
X2887675Y-2370124D01*
X2894025Y-2369413D01*
X2899460Y-2367483D01*
X2904388Y-2364435D01*
X2908452Y-2360320D01*
X2911551Y-2355443D01*
X2913430Y-2349957D01*
X2914142Y-2343658D01*
X2914142Y-2251710D01*
X2914954Y-2247849D01*
X2917139Y-2244547D01*
X3163874Y-1997811D01*
X3169005Y-1991563D01*
X3172561Y-1984857D01*
X3174746Y-1977643D01*
X3175558Y-1969617D01*
X3175558Y-1954275D01*
X3176219Y-1950669D01*
X3178098Y-1947570D01*
X3180943Y-1945284D01*
X3184448Y-1944166D01*
X3196691Y-1942642D01*
X3210814Y-1939036D01*
X3224326Y-1933651D01*
X3235604Y-1927453D01*
X3239566Y-1926234D01*
X3243732Y-1926742D01*
X3247339Y-1928875D01*
X3249777Y-1932279D01*
X3250641Y-1936394D01*
X3250641Y-2153056D01*
X3249879Y-2156968D01*
X3247644Y-2160270D01*
X3205835Y-2202078D01*
X3202533Y-2204262D01*
X3198672Y-2205075D01*
X3106724Y-2205075D01*
X3100374Y-2205786D01*
X3094939Y-2207666D01*
X3090011Y-2210765D01*
X3085947Y-2214880D01*
X3082848Y-2219756D01*
X3080969Y-2225192D01*
X3080258Y-2231542D01*
X3080258Y-2343658D01*
X3080969Y-2349957D01*
X3082848Y-2355443D01*
X3085947Y-2360320D01*
X3090011Y-2364435D01*
X3094939Y-2367483D01*
X3100374Y-2369413D01*
X3106724Y-2370124D01*
X3243275Y-2370124D01*
X3249625Y-2369413D01*
X3255060Y-2367483D01*
X3259988Y-2364435D01*
X3264052Y-2360320D01*
X3267151Y-2355443D01*
X3269030Y-2349957D01*
X3269742Y-2343658D01*
X3269742Y-2251710D01*
X3270554Y-2247849D01*
X3272739Y-2244547D01*
X3316274Y-2201011D01*
X3321405Y-2194763D01*
X3324961Y-2188057D01*
X3327146Y-2180844D01*
X3327958Y-2172817D01*
X3327958Y-1092708D01*
X3327146Y-1084681D01*
X3324961Y-1077417D01*
X3321405Y-1070762D01*
X3316274Y-1064514D01*
X2940761Y-688949D01*
X2938424Y-685393D01*
X2937764Y-681228D01*
X2938881Y-677113D01*
X2941574Y-673862D01*
X2945384Y-671931D01*
X2956814Y-669036D01*
X2970326Y-663651D01*
X2983077Y-656640D01*
X2994863Y-648106D01*
X3005480Y-638149D01*
X3014776Y-626922D01*
X3022549Y-614629D01*
X3028746Y-601472D01*
X3033268Y-587603D01*
X3035960Y-573328D01*
X3036874Y-558800D01*
X3035960Y-544271D01*
X3033268Y-529996D01*
X3028746Y-516128D01*
X3022549Y-502970D01*
X3014776Y-490677D01*
X3005480Y-479450D01*
X2994863Y-469493D01*
X2983077Y-460959D01*
X2970326Y-453948D01*
X2956814Y-448564D01*
X2942691Y-444957D01*
X2928264Y-443128D01*
X2913735Y-443128D01*
X2899308Y-444957D01*
X2885186Y-448564D01*
X2871673Y-453948D01*
X2858922Y-460959D01*
X2847136Y-469493D01*
X2836519Y-479450D01*
X2827223Y-490677D01*
X2819450Y-502970D01*
X2813253Y-516128D01*
X2808732Y-529996D01*
X2806039Y-544271D01*
X2805125Y-558800D01*
X2806039Y-573328D01*
X2808732Y-587603D01*
X2813253Y-601472D01*
X2819450Y-614629D01*
X2827223Y-626922D01*
X2836519Y-638149D01*
X2841040Y-642366D01*
X2843428Y-645718D01*
X2844241Y-649782D01*
X2844241Y-685292D01*
X2845054Y-693318D01*
X2847238Y-700582D01*
X2850794Y-707237D01*
X2855925Y-713486D01*
X3247644Y-1105255D01*
X3249879Y-1108557D01*
X3250641Y-1112418D01*
X3250641Y-1721205D01*
X3249777Y-1725320D01*
X3247339Y-1728724D01*
X3243732Y-1730857D01*
X3239566Y-1731365D01*
X3235604Y-1730146D01*
X3224326Y-1723948D01*
X3210814Y-1718564D01*
X3196691Y-1714957D01*
X3182264Y-1713128D01*
X3167735Y-1713128D01*
X3153308Y-1714957D01*
X3139186Y-1718564D01*
X3125673Y-1723948D01*
X3112922Y-1730959D01*
X3101136Y-1739493D01*
X3090519Y-1749450D01*
X3081223Y-1760677D01*
X3073450Y-1772970D01*
X3067253Y-1786128D01*
X3062732Y-1799996D01*
X3060039Y-1814271D01*
X3059125Y-1828800D01*
X3060039Y-1843328D01*
X3062732Y-1857603D01*
X3067253Y-1871472D01*
X3073450Y-1884629D01*
X3081223Y-1896922D01*
X3090519Y-1908149D01*
X3095040Y-1912366D01*
X3097428Y-1915718D01*
X3098241Y-1919782D01*
X3098241Y-1949856D01*
X3097479Y-1953768D01*
X3095244Y-1957070D01*
X2850235Y-2202078D01*
X2846933Y-2204262D01*
X2843072Y-2205075D01*
X2751124Y-2205075D01*
X2744774Y-2205786D01*
X2739339Y-2207666D01*
X2734411Y-2210765D01*
X2730347Y-2214880D01*
X2727248Y-2219756D01*
X2725369Y-2225192D01*
X2724658Y-2231542D01*
X2724658Y-2343658D01*
X2725369Y-2349957D01*
X2727248Y-2355443D01*
X2730347Y-2360320D01*
X2734411Y-2364435D01*
X2739339Y-2367483D01*
X2744774Y-2369413D01*
G37*
G36*
X3424224Y-2370124D02*
G01*
X3560775Y-2370124D01*
X3567125Y-2369413D01*
X3572560Y-2367483D01*
X3577488Y-2364435D01*
X3581552Y-2360320D01*
X3584651Y-2355443D01*
X3586530Y-2349957D01*
X3587242Y-2343658D01*
X3587242Y-2231542D01*
X3586530Y-2225192D01*
X3584651Y-2219756D01*
X3581552Y-2214880D01*
X3577488Y-2210765D01*
X3572560Y-2207666D01*
X3567125Y-2205786D01*
X3560775Y-2205075D01*
X3541318Y-2205075D01*
X3537407Y-2204262D01*
X3534156Y-2202078D01*
X3531920Y-2198776D01*
X3531158Y-2194915D01*
X3531158Y-572008D01*
X3530346Y-563981D01*
X3528161Y-556717D01*
X3524605Y-550062D01*
X3519474Y-543814D01*
X3311093Y-335381D01*
X3308858Y-332130D01*
X3308096Y-328218D01*
X3308858Y-324307D01*
X3311093Y-321056D01*
X3314344Y-318820D01*
X3319881Y-318058D01*
X3323742Y-318820D01*
X3327044Y-321056D01*
X3552444Y-546455D01*
X3554679Y-549757D01*
X3555441Y-553618D01*
X3555441Y-1929892D01*
X3556254Y-1937918D01*
X3558438Y-1945182D01*
X3561994Y-1951837D01*
X3567125Y-1958086D01*
X3768344Y-2159355D01*
X3770579Y-2162657D01*
X3771341Y-2166518D01*
X3771341Y-2194915D01*
X3770579Y-2198776D01*
X3768344Y-2202078D01*
X3765092Y-2204262D01*
X3761181Y-2205075D01*
X3741724Y-2205075D01*
X3735374Y-2205786D01*
X3729939Y-2207666D01*
X3725011Y-2210765D01*
X3720947Y-2214880D01*
X3717848Y-2219756D01*
X3715969Y-2225192D01*
X3715258Y-2231542D01*
X3715258Y-2343658D01*
X3715969Y-2349957D01*
X3717848Y-2355443D01*
X3720947Y-2360320D01*
X3725011Y-2364435D01*
X3729939Y-2367483D01*
X3735374Y-2369413D01*
X3741724Y-2370124D01*
X3878275Y-2370124D01*
X3884625Y-2369413D01*
X3890060Y-2367483D01*
X3894988Y-2364435D01*
X3899052Y-2360320D01*
X3902151Y-2355443D01*
X3904030Y-2349957D01*
X3904742Y-2343658D01*
X3904742Y-2231542D01*
X3904030Y-2225192D01*
X3902151Y-2219756D01*
X3899052Y-2214880D01*
X3894988Y-2210765D01*
X3890060Y-2207666D01*
X3884625Y-2205786D01*
X3878275Y-2205075D01*
X3858818Y-2205075D01*
X3854907Y-2204262D01*
X3851656Y-2202078D01*
X3849420Y-2198776D01*
X3848658Y-2194915D01*
X3848658Y-2146808D01*
X3847846Y-2138781D01*
X3845661Y-2131517D01*
X3842105Y-2124862D01*
X3836974Y-2118614D01*
X3635756Y-1917344D01*
X3633520Y-1914042D01*
X3632758Y-1910181D01*
X3632758Y-533908D01*
X3631946Y-525881D01*
X3629761Y-518617D01*
X3626205Y-511962D01*
X3621074Y-505714D01*
X3367786Y-252425D01*
X3361537Y-247294D01*
X3354882Y-243738D01*
X3347618Y-241554D01*
X3339592Y-240741D01*
X2070607Y-240741D01*
X2062581Y-241554D01*
X2055317Y-243738D01*
X2048662Y-247294D01*
X2042414Y-252425D01*
X1839925Y-454914D01*
X1834845Y-461111D01*
X1830628Y-469188D01*
X1828596Y-471881D01*
X1820519Y-479450D01*
X1811223Y-490677D01*
X1803450Y-502970D01*
X1797253Y-516128D01*
X1792732Y-529996D01*
X1790039Y-544271D01*
X1789125Y-558800D01*
X1790039Y-573328D01*
X1792732Y-587603D01*
X1797253Y-601472D01*
X1803450Y-614629D01*
X1811223Y-626922D01*
X1820519Y-638149D01*
X1831136Y-648106D01*
X1842922Y-656640D01*
X1855673Y-663651D01*
X1869186Y-669036D01*
X1883308Y-672642D01*
X1897735Y-674471D01*
X1912264Y-674471D01*
X1926691Y-672642D01*
X1940814Y-669036D01*
X1954326Y-663651D01*
X1967077Y-656640D01*
X1978863Y-648106D01*
X1989480Y-638149D01*
X1998776Y-626922D01*
X2006549Y-614629D01*
X2012746Y-601472D01*
X2017268Y-587603D01*
X2019960Y-573328D01*
X2020874Y-558800D01*
X2019960Y-544271D01*
X2017268Y-529996D01*
X2012746Y-516128D01*
X2006549Y-502970D01*
X1998776Y-490677D01*
X1989480Y-479450D01*
X1978863Y-469493D01*
X1967077Y-460959D01*
X1963521Y-458978D01*
X1960676Y-456641D01*
X1958797Y-453339D01*
X1958289Y-449630D01*
X1959152Y-446024D01*
X1961235Y-442925D01*
X2083155Y-321056D01*
X2086457Y-318820D01*
X2090318Y-318058D01*
X2612644Y-318058D01*
X2616555Y-318820D01*
X2619806Y-321056D01*
X2622042Y-324307D01*
X2622804Y-328218D01*
X2622042Y-332130D01*
X2619806Y-335381D01*
X2601925Y-353314D01*
X2596794Y-359562D01*
X2593238Y-366217D01*
X2591054Y-373481D01*
X2590241Y-381508D01*
X2590241Y-467817D01*
X2589428Y-471881D01*
X2587040Y-475234D01*
X2582519Y-479450D01*
X2573223Y-490677D01*
X2565450Y-502970D01*
X2559253Y-516128D01*
X2554732Y-529996D01*
X2552039Y-544271D01*
X2551125Y-558800D01*
X2552039Y-573328D01*
X2554732Y-587603D01*
X2559253Y-601472D01*
X2565450Y-614629D01*
X2573223Y-626922D01*
X2582519Y-638149D01*
X2593136Y-648106D01*
X2604922Y-656640D01*
X2617673Y-663651D01*
X2631186Y-669036D01*
X2645308Y-672642D01*
X2659735Y-674471D01*
X2674264Y-674471D01*
X2688691Y-672642D01*
X2702814Y-669036D01*
X2716326Y-663651D01*
X2729077Y-656640D01*
X2740863Y-648106D01*
X2751480Y-638149D01*
X2760776Y-626922D01*
X2768549Y-614629D01*
X2774746Y-601472D01*
X2779268Y-587603D01*
X2781960Y-573328D01*
X2782874Y-558800D01*
X2781960Y-544271D01*
X2779268Y-529996D01*
X2774746Y-516128D01*
X2768549Y-502970D01*
X2760776Y-490677D01*
X2751480Y-479450D01*
X2740863Y-469493D01*
X2729077Y-460959D01*
X2716326Y-453948D01*
X2702814Y-448564D01*
X2688691Y-444957D01*
X2676448Y-443433D01*
X2672943Y-442315D01*
X2670098Y-440029D01*
X2668219Y-436930D01*
X2667558Y-433324D01*
X2667558Y-401218D01*
X2668320Y-397357D01*
X2670556Y-394055D01*
X2680055Y-384556D01*
X2683357Y-382320D01*
X2687218Y-381558D01*
X3243681Y-381558D01*
X3247542Y-382320D01*
X3250844Y-384556D01*
X3450844Y-584555D01*
X3453079Y-587857D01*
X3453841Y-591718D01*
X3453841Y-2194915D01*
X3453079Y-2198776D01*
X3450844Y-2202078D01*
X3447592Y-2204262D01*
X3443681Y-2205075D01*
X3424224Y-2205075D01*
X3417874Y-2205786D01*
X3412439Y-2207666D01*
X3407511Y-2210765D01*
X3403447Y-2214880D01*
X3400348Y-2219756D01*
X3398469Y-2225192D01*
X3397758Y-2231542D01*
X3397758Y-2343658D01*
X3398469Y-2349957D01*
X3400348Y-2355443D01*
X3403447Y-2360320D01*
X3407511Y-2364435D01*
X3412439Y-2367483D01*
X3417874Y-2369413D01*
G37*
G36*
X1621078Y-2271420D02*
G01*
X1674418Y-2271420D01*
X1674418Y-2216607D01*
X1647545Y-2216607D01*
X1641246Y-2217318D01*
X1635810Y-2219198D01*
X1630883Y-2222296D01*
X1626819Y-2226360D01*
X1623720Y-2231288D01*
X1621790Y-2236724D01*
X1621078Y-2243074D01*
G37*
G36*
X1316278Y-2271420D02*
G01*
X1369618Y-2271420D01*
X1369618Y-2216607D01*
X1342745Y-2216607D01*
X1336446Y-2217318D01*
X1331010Y-2219198D01*
X1326083Y-2222296D01*
X1322019Y-2226360D01*
X1318920Y-2231288D01*
X1316990Y-2236724D01*
X1316278Y-2243074D01*
G37*
G36*
X1449781Y-2271420D02*
G01*
X1503121Y-2271420D01*
X1503121Y-2243074D01*
X1502410Y-2236724D01*
X1500479Y-2231288D01*
X1497380Y-2226360D01*
X1493316Y-2222296D01*
X1488389Y-2219198D01*
X1482953Y-2217318D01*
X1476654Y-2216607D01*
X1449781Y-2216607D01*
G37*
G36*
X1754581Y-2271420D02*
G01*
X1807921Y-2271420D01*
X1807921Y-2243074D01*
X1807210Y-2236724D01*
X1805279Y-2231288D01*
X1802180Y-2226360D01*
X1798116Y-2222296D01*
X1793189Y-2219198D01*
X1787753Y-2217318D01*
X1781454Y-2216607D01*
X1754581Y-2216607D01*
G37*
G36*
X7594600Y-2188006D02*
G01*
X7608214Y-2187092D01*
X7621574Y-2184349D01*
X7634478Y-2179878D01*
X7646619Y-2173732D01*
X7657846Y-2166010D01*
X7668006Y-2156866D01*
X7676794Y-2146452D01*
X7684109Y-2134971D01*
X7689850Y-2122576D01*
X7693914Y-2109571D01*
X7696149Y-2096109D01*
X7696606Y-2082495D01*
X7695285Y-2068931D01*
X7692085Y-2055672D01*
X7687208Y-2042922D01*
X7680655Y-2030984D01*
X7672578Y-2020011D01*
X7663078Y-2010206D01*
X7652359Y-2001723D01*
X7640624Y-1994763D01*
X7628077Y-1989480D01*
X7614920Y-1985873D01*
X7601407Y-1984044D01*
X7587792Y-1984044D01*
X7574280Y-1985873D01*
X7561122Y-1989480D01*
X7548575Y-1994763D01*
X7536840Y-2001723D01*
X7526121Y-2010206D01*
X7516622Y-2020011D01*
X7508544Y-2030984D01*
X7501991Y-2042922D01*
X7497114Y-2055672D01*
X7493914Y-2068931D01*
X7492593Y-2082495D01*
X7493050Y-2096109D01*
X7495286Y-2109571D01*
X7499350Y-2122576D01*
X7505090Y-2134971D01*
X7512405Y-2146452D01*
X7521194Y-2156866D01*
X7531353Y-2166010D01*
X7542580Y-2173732D01*
X7554722Y-2179878D01*
X7567625Y-2184349D01*
X7580985Y-2187092D01*
G37*
G36*
X1897735Y-1944471D02*
G01*
X1912264Y-1944471D01*
X1926691Y-1942642D01*
X1940814Y-1939036D01*
X1954326Y-1933651D01*
X1967077Y-1926640D01*
X1978863Y-1918106D01*
X1989480Y-1908149D01*
X1998776Y-1896922D01*
X2006549Y-1884629D01*
X2012746Y-1871472D01*
X2017268Y-1857603D01*
X2019960Y-1843328D01*
X2020874Y-1828800D01*
X2019960Y-1814271D01*
X2017268Y-1799996D01*
X2012746Y-1786128D01*
X2006549Y-1772970D01*
X1998776Y-1760677D01*
X1989480Y-1749450D01*
X1978863Y-1739493D01*
X1967077Y-1730959D01*
X1954326Y-1723948D01*
X1940814Y-1718564D01*
X1926691Y-1714957D01*
X1912264Y-1713128D01*
X1897735Y-1713128D01*
X1883308Y-1714957D01*
X1869186Y-1718564D01*
X1855673Y-1723948D01*
X1842922Y-1730959D01*
X1831136Y-1739493D01*
X1820519Y-1749450D01*
X1811223Y-1760677D01*
X1803450Y-1772970D01*
X1797253Y-1786128D01*
X1792732Y-1799996D01*
X1790039Y-1814271D01*
X1789125Y-1828800D01*
X1790039Y-1843328D01*
X1792732Y-1857603D01*
X1797253Y-1871472D01*
X1803450Y-1884629D01*
X1811223Y-1896922D01*
X1820519Y-1908149D01*
X1831136Y-1918106D01*
X1842922Y-1926640D01*
X1855673Y-1933651D01*
X1869186Y-1939036D01*
X1883308Y-1942642D01*
G37*
G36*
X2659735Y-1944471D02*
G01*
X2674264Y-1944471D01*
X2688691Y-1942642D01*
X2702814Y-1939036D01*
X2716326Y-1933651D01*
X2729077Y-1926640D01*
X2740863Y-1918106D01*
X2751480Y-1908149D01*
X2760776Y-1896922D01*
X2768549Y-1884629D01*
X2774746Y-1871472D01*
X2779268Y-1857603D01*
X2781960Y-1843328D01*
X2782874Y-1828800D01*
X2781960Y-1814271D01*
X2779268Y-1799996D01*
X2774746Y-1786128D01*
X2768549Y-1772970D01*
X2760776Y-1760677D01*
X2751480Y-1749450D01*
X2740863Y-1739493D01*
X2729077Y-1730959D01*
X2716326Y-1723948D01*
X2702814Y-1718564D01*
X2688691Y-1714957D01*
X2674264Y-1713128D01*
X2659735Y-1713128D01*
X2645308Y-1714957D01*
X2631186Y-1718564D01*
X2617673Y-1723948D01*
X2604922Y-1730959D01*
X2593136Y-1739493D01*
X2582519Y-1749450D01*
X2573223Y-1760677D01*
X2565450Y-1772970D01*
X2559253Y-1786128D01*
X2554732Y-1799996D01*
X2552039Y-1814271D01*
X2551125Y-1828800D01*
X2552039Y-1843328D01*
X2554732Y-1857603D01*
X2559253Y-1871472D01*
X2565450Y-1884629D01*
X2573223Y-1896922D01*
X2582519Y-1908149D01*
X2593136Y-1918106D01*
X2604922Y-1926640D01*
X2617673Y-1933651D01*
X2631186Y-1939036D01*
X2645308Y-1942642D01*
G37*
G36*
X2913735Y-1944471D02*
G01*
X2928264Y-1944471D01*
X2942691Y-1942642D01*
X2956814Y-1939036D01*
X2970326Y-1933651D01*
X2983077Y-1926640D01*
X2994863Y-1918106D01*
X3005480Y-1908149D01*
X3014776Y-1896922D01*
X3022549Y-1884629D01*
X3028746Y-1871472D01*
X3033268Y-1857603D01*
X3035960Y-1843328D01*
X3036874Y-1828800D01*
X3035960Y-1814271D01*
X3033268Y-1799996D01*
X3028746Y-1786128D01*
X3022549Y-1772970D01*
X3014776Y-1760677D01*
X3005480Y-1749450D01*
X2994863Y-1739493D01*
X2983077Y-1730959D01*
X2970326Y-1723948D01*
X2956814Y-1718564D01*
X2942691Y-1714957D01*
X2928264Y-1713128D01*
X2913735Y-1713128D01*
X2899308Y-1714957D01*
X2885186Y-1718564D01*
X2871673Y-1723948D01*
X2858922Y-1730959D01*
X2847136Y-1739493D01*
X2836519Y-1749450D01*
X2827223Y-1760677D01*
X2819450Y-1772970D01*
X2813253Y-1786128D01*
X2808732Y-1799996D01*
X2806039Y-1814271D01*
X2805125Y-1828800D01*
X2806039Y-1843328D01*
X2808732Y-1857603D01*
X2813253Y-1871472D01*
X2819450Y-1884629D01*
X2827223Y-1896922D01*
X2836519Y-1908149D01*
X2847136Y-1918106D01*
X2858922Y-1926640D01*
X2871673Y-1933651D01*
X2885186Y-1939036D01*
X2899308Y-1942642D01*
G37*
G36*
X2151735Y-1944471D02*
G01*
X2166264Y-1944471D01*
X2180691Y-1942642D01*
X2194814Y-1939036D01*
X2208326Y-1933651D01*
X2221077Y-1926640D01*
X2232863Y-1918106D01*
X2243480Y-1908149D01*
X2252776Y-1896922D01*
X2260549Y-1884629D01*
X2266746Y-1871472D01*
X2271268Y-1857603D01*
X2273960Y-1843328D01*
X2274874Y-1828800D01*
X2273960Y-1814271D01*
X2271268Y-1799996D01*
X2266746Y-1786128D01*
X2260549Y-1772970D01*
X2252776Y-1760677D01*
X2243480Y-1749450D01*
X2232863Y-1739493D01*
X2221077Y-1730959D01*
X2208326Y-1723948D01*
X2194814Y-1718564D01*
X2180691Y-1714957D01*
X2166264Y-1713128D01*
X2151735Y-1713128D01*
X2137308Y-1714957D01*
X2123186Y-1718564D01*
X2109673Y-1723948D01*
X2096922Y-1730959D01*
X2085136Y-1739493D01*
X2074519Y-1749450D01*
X2065223Y-1760677D01*
X2057450Y-1772970D01*
X2051253Y-1786128D01*
X2046732Y-1799996D01*
X2044039Y-1814271D01*
X2043125Y-1828800D01*
X2044039Y-1843328D01*
X2046732Y-1857603D01*
X2051253Y-1871472D01*
X2057450Y-1884629D01*
X2065223Y-1896922D01*
X2074519Y-1908149D01*
X2085136Y-1918106D01*
X2096922Y-1926640D01*
X2109673Y-1933651D01*
X2123186Y-1939036D01*
X2137308Y-1942642D01*
G37*
G36*
X2405735Y-1944471D02*
G01*
X2420264Y-1944471D01*
X2434691Y-1942642D01*
X2448814Y-1939036D01*
X2462326Y-1933651D01*
X2475077Y-1926640D01*
X2486863Y-1918106D01*
X2497480Y-1908149D01*
X2506776Y-1896922D01*
X2514549Y-1884629D01*
X2520746Y-1871472D01*
X2525268Y-1857603D01*
X2527960Y-1843328D01*
X2528874Y-1828800D01*
X2527960Y-1814271D01*
X2525268Y-1799996D01*
X2520746Y-1786128D01*
X2514549Y-1772970D01*
X2506776Y-1760677D01*
X2497480Y-1749450D01*
X2486863Y-1739493D01*
X2475077Y-1730959D01*
X2462326Y-1723948D01*
X2448814Y-1718564D01*
X2434691Y-1714957D01*
X2420264Y-1713128D01*
X2405735Y-1713128D01*
X2391308Y-1714957D01*
X2377186Y-1718564D01*
X2363673Y-1723948D01*
X2350922Y-1730959D01*
X2339136Y-1739493D01*
X2328519Y-1749450D01*
X2319223Y-1760677D01*
X2311450Y-1772970D01*
X2305253Y-1786128D01*
X2300732Y-1799996D01*
X2298039Y-1814271D01*
X2297125Y-1828800D01*
X2298039Y-1843328D01*
X2300732Y-1857603D01*
X2305253Y-1871472D01*
X2311450Y-1884629D01*
X2319223Y-1896922D01*
X2328519Y-1908149D01*
X2339136Y-1918106D01*
X2350922Y-1926640D01*
X2363673Y-1933651D01*
X2377186Y-1939036D01*
X2391308Y-1942642D01*
G37*
G36*
X5268315Y-1554327D02*
G01*
X5282844Y-1554327D01*
X5297271Y-1552498D01*
X5311394Y-1548892D01*
X5324906Y-1543507D01*
X5337657Y-1536496D01*
X5349443Y-1527962D01*
X5360060Y-1518005D01*
X5369356Y-1506778D01*
X5377129Y-1494485D01*
X5383326Y-1481328D01*
X5387848Y-1467459D01*
X5390540Y-1453184D01*
X5391454Y-1438656D01*
X5390540Y-1424127D01*
X5387848Y-1409852D01*
X5383326Y-1395984D01*
X5377129Y-1382826D01*
X5369356Y-1370533D01*
X5360060Y-1359306D01*
X5349443Y-1349349D01*
X5337657Y-1340815D01*
X5324906Y-1333804D01*
X5311394Y-1328420D01*
X5297271Y-1324813D01*
X5282844Y-1322984D01*
X5268315Y-1322984D01*
X5253888Y-1324813D01*
X5239766Y-1328420D01*
X5226253Y-1333804D01*
X5213502Y-1340815D01*
X5201716Y-1349349D01*
X5191099Y-1359306D01*
X5181803Y-1370533D01*
X5174030Y-1382826D01*
X5167833Y-1395984D01*
X5163312Y-1409852D01*
X5160619Y-1424127D01*
X5159705Y-1438656D01*
X5160619Y-1453184D01*
X5163312Y-1467459D01*
X5167833Y-1481328D01*
X5174030Y-1494485D01*
X5181803Y-1506778D01*
X5191099Y-1518005D01*
X5201716Y-1527962D01*
X5213502Y-1536496D01*
X5226253Y-1543507D01*
X5239766Y-1548892D01*
X5253888Y-1552498D01*
G37*
G36*
X6398615Y-1554327D02*
G01*
X6413144Y-1554327D01*
X6427571Y-1552498D01*
X6441694Y-1548892D01*
X6455206Y-1543507D01*
X6467957Y-1536496D01*
X6479743Y-1527962D01*
X6490360Y-1518005D01*
X6499656Y-1506778D01*
X6507429Y-1494485D01*
X6513626Y-1481328D01*
X6518148Y-1467459D01*
X6520840Y-1453184D01*
X6521754Y-1438656D01*
X6520840Y-1424127D01*
X6518148Y-1409852D01*
X6513626Y-1395984D01*
X6507429Y-1382826D01*
X6499656Y-1370533D01*
X6490360Y-1359306D01*
X6479743Y-1349349D01*
X6467957Y-1340815D01*
X6455206Y-1333804D01*
X6441694Y-1328420D01*
X6427571Y-1324813D01*
X6413144Y-1322984D01*
X6398615Y-1322984D01*
X6384188Y-1324813D01*
X6370066Y-1328420D01*
X6356553Y-1333804D01*
X6343802Y-1340815D01*
X6332016Y-1349349D01*
X6321399Y-1359306D01*
X6312103Y-1370533D01*
X6304330Y-1382826D01*
X6298133Y-1395984D01*
X6293612Y-1409852D01*
X6290919Y-1424127D01*
X6290005Y-1438656D01*
X6290919Y-1453184D01*
X6293612Y-1467459D01*
X6298133Y-1481328D01*
X6304330Y-1494485D01*
X6312103Y-1506778D01*
X6321399Y-1518005D01*
X6332016Y-1527962D01*
X6343802Y-1536496D01*
X6356553Y-1543507D01*
X6370066Y-1548892D01*
X6384188Y-1552498D01*
G37*
G36*
X5918555Y-1554327D02*
G01*
X5933084Y-1554327D01*
X5947511Y-1552498D01*
X5961634Y-1548892D01*
X5975146Y-1543507D01*
X5987897Y-1536496D01*
X5999683Y-1527962D01*
X6010300Y-1518005D01*
X6019596Y-1506778D01*
X6027369Y-1494485D01*
X6033566Y-1481328D01*
X6038088Y-1467459D01*
X6040780Y-1453184D01*
X6041694Y-1438656D01*
X6040780Y-1424127D01*
X6038088Y-1409852D01*
X6033566Y-1395984D01*
X6027369Y-1382826D01*
X6019596Y-1370533D01*
X6010300Y-1359306D01*
X5999683Y-1349349D01*
X5987897Y-1340815D01*
X5975146Y-1333804D01*
X5970828Y-1332077D01*
X5967476Y-1329893D01*
X5965240Y-1326591D01*
X5964428Y-1322628D01*
X5964428Y-1117498D01*
X5965190Y-1113586D01*
X5967425Y-1110284D01*
X5982004Y-1095705D01*
X5985306Y-1093470D01*
X5989218Y-1092708D01*
X5992215Y-1092708D01*
X5996076Y-1093470D01*
X5999378Y-1095705D01*
X6001562Y-1098956D01*
X6002375Y-1102868D01*
X6002375Y-1122375D01*
X6003086Y-1128725D01*
X6004966Y-1134160D01*
X6008065Y-1139088D01*
X6012180Y-1143152D01*
X6017056Y-1146251D01*
X6022492Y-1148130D01*
X6028842Y-1148842D01*
X6140958Y-1148842D01*
X6147257Y-1148130D01*
X6152743Y-1146251D01*
X6157620Y-1143152D01*
X6161735Y-1139088D01*
X6164783Y-1134160D01*
X6166713Y-1128725D01*
X6167424Y-1122375D01*
X6167424Y-985824D01*
X6166713Y-979474D01*
X6164783Y-974039D01*
X6161735Y-969111D01*
X6157620Y-965047D01*
X6152743Y-961948D01*
X6147257Y-960069D01*
X6140958Y-959358D01*
X6028842Y-959358D01*
X6022492Y-960069D01*
X6017056Y-961948D01*
X6012180Y-965047D01*
X6008065Y-969111D01*
X6004966Y-974039D01*
X6003086Y-979474D01*
X6002375Y-985824D01*
X6002375Y-1005332D01*
X6001562Y-1009243D01*
X5999378Y-1012494D01*
X5996076Y-1014730D01*
X5992215Y-1015492D01*
X5969508Y-1015492D01*
X5961481Y-1016304D01*
X5954268Y-1018489D01*
X5947562Y-1022045D01*
X5941364Y-1027176D01*
X5898896Y-1069644D01*
X5893765Y-1075842D01*
X5890209Y-1082548D01*
X5888024Y-1089761D01*
X5887212Y-1097788D01*
X5887212Y-1322628D01*
X5886399Y-1326591D01*
X5884164Y-1329893D01*
X5880811Y-1332077D01*
X5876493Y-1333804D01*
X5863742Y-1340815D01*
X5851956Y-1349349D01*
X5841339Y-1359306D01*
X5832043Y-1370533D01*
X5824270Y-1382826D01*
X5818073Y-1395984D01*
X5813552Y-1409852D01*
X5810859Y-1424127D01*
X5809945Y-1438656D01*
X5810859Y-1453184D01*
X5813552Y-1467459D01*
X5818073Y-1481328D01*
X5824270Y-1494485D01*
X5832043Y-1506778D01*
X5841339Y-1518005D01*
X5851956Y-1527962D01*
X5863742Y-1536496D01*
X5876493Y-1543507D01*
X5890006Y-1548892D01*
X5904128Y-1552498D01*
G37*
G36*
X7048855Y-1554327D02*
G01*
X7063384Y-1554327D01*
X7077811Y-1552498D01*
X7091934Y-1548892D01*
X7105446Y-1543507D01*
X7118197Y-1536496D01*
X7129983Y-1527962D01*
X7140600Y-1518005D01*
X7149896Y-1506778D01*
X7157669Y-1494485D01*
X7163866Y-1481328D01*
X7168388Y-1467459D01*
X7171080Y-1453184D01*
X7171994Y-1438656D01*
X7171080Y-1424127D01*
X7168388Y-1409852D01*
X7163866Y-1395984D01*
X7157669Y-1382826D01*
X7149896Y-1370533D01*
X7140600Y-1359306D01*
X7129983Y-1349349D01*
X7118197Y-1340815D01*
X7105446Y-1333804D01*
X7101128Y-1332077D01*
X7097775Y-1329893D01*
X7095540Y-1326591D01*
X7094728Y-1322628D01*
X7094728Y-1227836D01*
X7093915Y-1219809D01*
X7091730Y-1212596D01*
X7088174Y-1205890D01*
X7083044Y-1199692D01*
X6910527Y-1027176D01*
X6904329Y-1022045D01*
X6897624Y-1018489D01*
X6890410Y-1016304D01*
X6882384Y-1015492D01*
X6783984Y-1015492D01*
X6780123Y-1014730D01*
X6776821Y-1012494D01*
X6774637Y-1009243D01*
X6773824Y-1005332D01*
X6773824Y-985824D01*
X6773113Y-979474D01*
X6771233Y-974039D01*
X6768134Y-969111D01*
X6764020Y-965047D01*
X6759143Y-961948D01*
X6753707Y-960069D01*
X6747357Y-959358D01*
X6635242Y-959358D01*
X6628942Y-960069D01*
X6623456Y-961948D01*
X6618579Y-965047D01*
X6614464Y-969111D01*
X6611416Y-974039D01*
X6609486Y-979474D01*
X6608775Y-985824D01*
X6608775Y-1122375D01*
X6609486Y-1128725D01*
X6611416Y-1134160D01*
X6614464Y-1139088D01*
X6618579Y-1143152D01*
X6623456Y-1146251D01*
X6628942Y-1148130D01*
X6635242Y-1148842D01*
X6747357Y-1148842D01*
X6753707Y-1148130D01*
X6759143Y-1146251D01*
X6764020Y-1143152D01*
X6768134Y-1139088D01*
X6771233Y-1134160D01*
X6773113Y-1128725D01*
X6773824Y-1122375D01*
X6773824Y-1102868D01*
X6774637Y-1098956D01*
X6776821Y-1095705D01*
X6780123Y-1093470D01*
X6783984Y-1092708D01*
X6862673Y-1092708D01*
X6866585Y-1093470D01*
X6869887Y-1095705D01*
X7014514Y-1240332D01*
X7016750Y-1243634D01*
X7017512Y-1247546D01*
X7017512Y-1322628D01*
X7016699Y-1326591D01*
X7014464Y-1329893D01*
X7011111Y-1332077D01*
X7006793Y-1333804D01*
X6994042Y-1340815D01*
X6982256Y-1349349D01*
X6971639Y-1359306D01*
X6962343Y-1370533D01*
X6954570Y-1382826D01*
X6948373Y-1395984D01*
X6943852Y-1409852D01*
X6941159Y-1424127D01*
X6940245Y-1438656D01*
X6941159Y-1453184D01*
X6943852Y-1467459D01*
X6948373Y-1481328D01*
X6954570Y-1494485D01*
X6962343Y-1506778D01*
X6971639Y-1518005D01*
X6982256Y-1527962D01*
X6994042Y-1536496D01*
X7006793Y-1543507D01*
X7020306Y-1548892D01*
X7034428Y-1552498D01*
G37*
G36*
X6435242Y-1148842D02*
G01*
X6456629Y-1148842D01*
X6456629Y-1094892D01*
X6408775Y-1094892D01*
X6408775Y-1122375D01*
X6409486Y-1128725D01*
X6411366Y-1134160D01*
X6414465Y-1139088D01*
X6418580Y-1143152D01*
X6423456Y-1146251D01*
X6428892Y-1148130D01*
G37*
G36*
X6319570Y-1148842D02*
G01*
X6340957Y-1148842D01*
X6347307Y-1148130D01*
X6352743Y-1146251D01*
X6357620Y-1143152D01*
X6361734Y-1139088D01*
X6364833Y-1134160D01*
X6366713Y-1128725D01*
X6367424Y-1122375D01*
X6367424Y-1094892D01*
X6319570Y-1094892D01*
G37*
G36*
X6228842Y-1148842D02*
G01*
X6250228Y-1148842D01*
X6250228Y-1094892D01*
X6202375Y-1094892D01*
X6202375Y-1122375D01*
X6203086Y-1128725D01*
X6205016Y-1134160D01*
X6208064Y-1139088D01*
X6212179Y-1143152D01*
X6217056Y-1146251D01*
X6222542Y-1148130D01*
G37*
G36*
X6525971Y-1148842D02*
G01*
X6547357Y-1148842D01*
X6553657Y-1148130D01*
X6559143Y-1146251D01*
X6564020Y-1143152D01*
X6568135Y-1139088D01*
X6571183Y-1134160D01*
X6573113Y-1128725D01*
X6573824Y-1122375D01*
X6573824Y-1094892D01*
X6525971Y-1094892D01*
G37*
G36*
X6408775Y-1013307D02*
G01*
X6456629Y-1013307D01*
X6456629Y-959358D01*
X6435242Y-959358D01*
X6428892Y-960069D01*
X6423456Y-961948D01*
X6418580Y-965047D01*
X6414465Y-969111D01*
X6411366Y-974039D01*
X6409486Y-979474D01*
X6408775Y-985824D01*
G37*
G36*
X6319570Y-1013307D02*
G01*
X6367424Y-1013307D01*
X6367424Y-985824D01*
X6366713Y-979474D01*
X6364833Y-974039D01*
X6361734Y-969111D01*
X6357620Y-965047D01*
X6352743Y-961948D01*
X6347307Y-960069D01*
X6340957Y-959358D01*
X6319570Y-959358D01*
G37*
G36*
X6525971Y-1013307D02*
G01*
X6573824Y-1013307D01*
X6573824Y-985824D01*
X6573113Y-979474D01*
X6571183Y-974039D01*
X6568135Y-969111D01*
X6564020Y-965047D01*
X6559143Y-961948D01*
X6553657Y-960069D01*
X6547357Y-959358D01*
X6525971Y-959358D01*
G37*
G36*
X6202375Y-1013307D02*
G01*
X6250228Y-1013307D01*
X6250228Y-959358D01*
X6228842Y-959358D01*
X6222542Y-960069D01*
X6217056Y-961948D01*
X6212179Y-965047D01*
X6208064Y-969111D01*
X6205016Y-974039D01*
X6203086Y-979474D01*
X6202375Y-985824D01*
G37*
G36*
X2151735Y-674471D02*
G01*
X2166264Y-674471D01*
X2180691Y-672642D01*
X2194814Y-669036D01*
X2208326Y-663651D01*
X2221077Y-656640D01*
X2232863Y-648106D01*
X2243480Y-638149D01*
X2252776Y-626922D01*
X2260549Y-614629D01*
X2266746Y-601472D01*
X2271268Y-587603D01*
X2273960Y-573328D01*
X2274874Y-558800D01*
X2273960Y-544271D01*
X2271268Y-529996D01*
X2266746Y-516128D01*
X2260549Y-502970D01*
X2252776Y-490677D01*
X2243480Y-479450D01*
X2232863Y-469493D01*
X2221077Y-460959D01*
X2208326Y-453948D01*
X2194814Y-448564D01*
X2180691Y-444957D01*
X2166264Y-443128D01*
X2151735Y-443128D01*
X2137308Y-444957D01*
X2123186Y-448564D01*
X2109673Y-453948D01*
X2096922Y-460959D01*
X2085136Y-469493D01*
X2074519Y-479450D01*
X2065223Y-490677D01*
X2057450Y-502970D01*
X2051253Y-516128D01*
X2046732Y-529996D01*
X2044039Y-544271D01*
X2043125Y-558800D01*
X2044039Y-573328D01*
X2046732Y-587603D01*
X2051253Y-601472D01*
X2057450Y-614629D01*
X2065223Y-626922D01*
X2074519Y-638149D01*
X2085136Y-648106D01*
X2096922Y-656640D01*
X2109673Y-663651D01*
X2123186Y-669036D01*
X2137308Y-672642D01*
G37*
G36*
X2405735Y-674471D02*
G01*
X2420264Y-674471D01*
X2434691Y-672642D01*
X2448814Y-669036D01*
X2462326Y-663651D01*
X2475077Y-656640D01*
X2486863Y-648106D01*
X2497480Y-638149D01*
X2506776Y-626922D01*
X2514549Y-614629D01*
X2520746Y-601472D01*
X2525268Y-587603D01*
X2527960Y-573328D01*
X2528874Y-558800D01*
X2527960Y-544271D01*
X2525268Y-529996D01*
X2520746Y-516128D01*
X2514549Y-502970D01*
X2506776Y-490677D01*
X2497480Y-479450D01*
X2486863Y-469493D01*
X2475077Y-460959D01*
X2462326Y-453948D01*
X2448814Y-448564D01*
X2434691Y-444957D01*
X2420264Y-443128D01*
X2405735Y-443128D01*
X2391308Y-444957D01*
X2377186Y-448564D01*
X2363673Y-453948D01*
X2350922Y-460959D01*
X2339136Y-469493D01*
X2328519Y-479450D01*
X2319223Y-490677D01*
X2311450Y-502970D01*
X2305253Y-516128D01*
X2300732Y-529996D01*
X2298039Y-544271D01*
X2297125Y-558800D01*
X2298039Y-573328D01*
X2300732Y-587603D01*
X2305253Y-601472D01*
X2311450Y-614629D01*
X2319223Y-626922D01*
X2328519Y-638149D01*
X2339136Y-648106D01*
X2350922Y-656640D01*
X2363673Y-663651D01*
X2377186Y-669036D01*
X2391308Y-672642D01*
G37*
G36*
X3167735Y-674471D02*
G01*
X3182264Y-674471D01*
X3196691Y-672642D01*
X3210814Y-669036D01*
X3224326Y-663651D01*
X3237077Y-656640D01*
X3248863Y-648106D01*
X3259480Y-638149D01*
X3268776Y-626922D01*
X3276549Y-614629D01*
X3282746Y-601472D01*
X3287268Y-587603D01*
X3289960Y-573328D01*
X3290874Y-558800D01*
X3289960Y-544271D01*
X3287268Y-529996D01*
X3282746Y-516128D01*
X3276549Y-502970D01*
X3268776Y-490677D01*
X3259480Y-479450D01*
X3248863Y-469493D01*
X3237077Y-460959D01*
X3224326Y-453948D01*
X3210814Y-448564D01*
X3196691Y-444957D01*
X3182264Y-443128D01*
X3167735Y-443128D01*
X3153308Y-444957D01*
X3139186Y-448564D01*
X3125673Y-453948D01*
X3112922Y-460959D01*
X3101136Y-469493D01*
X3090519Y-479450D01*
X3081223Y-490677D01*
X3073450Y-502970D01*
X3067253Y-516128D01*
X3062732Y-529996D01*
X3060039Y-544271D01*
X3059125Y-558800D01*
X3060039Y-573328D01*
X3062732Y-587603D01*
X3067253Y-601472D01*
X3073450Y-614629D01*
X3081223Y-626922D01*
X3090519Y-638149D01*
X3101136Y-648106D01*
X3112922Y-656640D01*
X3125673Y-663651D01*
X3139186Y-669036D01*
X3153308Y-672642D01*
G37*
G36*
X7751572Y-432358D02*
G01*
X7769910Y-430936D01*
X7787944Y-427634D01*
X7805572Y-422503D01*
X7822590Y-415594D01*
X7838795Y-406958D01*
X7854035Y-396697D01*
X7868158Y-384911D01*
X7880959Y-371754D01*
X7892389Y-357378D01*
X7902244Y-341884D01*
X7910474Y-325424D01*
X7916925Y-308254D01*
X7921599Y-290474D01*
X7924444Y-272338D01*
X7925358Y-254000D01*
X7924444Y-235661D01*
X7921599Y-217525D01*
X7916925Y-199745D01*
X7910474Y-182575D01*
X7902244Y-166116D01*
X7892389Y-150622D01*
X7880959Y-136245D01*
X7868158Y-123088D01*
X7854035Y-111302D01*
X7838795Y-101041D01*
X7822590Y-92405D01*
X7805572Y-85496D01*
X7787944Y-80365D01*
X7769910Y-77063D01*
X7751572Y-75641D01*
X7733233Y-76149D01*
X7714996Y-78486D01*
X7697114Y-82702D01*
X7679791Y-88747D01*
X7663129Y-96520D01*
X7647381Y-105968D01*
X7632700Y-116992D01*
X7619238Y-129489D01*
X7607096Y-143306D01*
X7596479Y-158242D01*
X7587437Y-174244D01*
X7580071Y-191058D01*
X7574483Y-208584D01*
X7570724Y-226567D01*
X7568844Y-244805D01*
X7568844Y-263194D01*
X7570724Y-281432D01*
X7574483Y-299415D01*
X7580071Y-316941D01*
X7587437Y-333756D01*
X7596479Y-349758D01*
X7607096Y-364693D01*
X7619238Y-378510D01*
X7632700Y-391007D01*
X7647381Y-402031D01*
X7663129Y-411480D01*
X7679791Y-419252D01*
X7697114Y-425297D01*
X7714996Y-429514D01*
X7733233Y-431850D01*
G37*
G36*
X258571Y-431342D02*
G01*
X276758Y-429920D01*
X294741Y-426669D01*
X312267Y-421538D01*
X329184Y-414680D01*
X345338Y-406095D01*
X360476Y-395884D01*
X374497Y-384200D01*
X387248Y-371094D01*
X398576Y-356768D01*
X408381Y-341376D01*
X416559Y-325018D01*
X423011Y-307949D01*
X427634Y-290271D01*
X430479Y-272237D01*
X431393Y-254000D01*
X430479Y-235762D01*
X427634Y-217728D01*
X423011Y-200050D01*
X416559Y-182981D01*
X408381Y-166624D01*
X398576Y-151231D01*
X387248Y-136906D01*
X374497Y-123799D01*
X360476Y-112115D01*
X345338Y-101904D01*
X329184Y-93319D01*
X312267Y-86461D01*
X294741Y-81330D01*
X276758Y-78079D01*
X258571Y-76657D01*
X240334Y-77114D01*
X222199Y-79502D01*
X204419Y-83667D01*
X187147Y-89662D01*
X170637Y-97434D01*
X154990Y-106832D01*
X140360Y-117805D01*
X126949Y-130200D01*
X114909Y-143916D01*
X104343Y-158800D01*
X95300Y-174701D01*
X87985Y-191414D01*
X82448Y-208838D01*
X78740Y-226720D01*
X76860Y-244856D01*
X76860Y-263144D01*
X78740Y-281279D01*
X82448Y-299161D01*
X87985Y-316585D01*
X95300Y-333298D01*
X104343Y-349199D01*
X114909Y-364083D01*
X126949Y-377799D01*
X140360Y-390194D01*
X154990Y-401167D01*
X170637Y-410565D01*
X187147Y-418338D01*
X204419Y-424332D01*
X222199Y-428498D01*
X240334Y-430885D01*
G37*
G36*
X5092700Y-345948D02*
G01*
X5106365Y-345033D01*
X5119776Y-342341D01*
X5132730Y-337972D01*
X5145024Y-331927D01*
X5156403Y-324307D01*
X5166664Y-315264D01*
X5175707Y-305003D01*
X5183327Y-293624D01*
X5189372Y-281330D01*
X5193741Y-268376D01*
X5196433Y-254965D01*
X5197348Y-241300D01*
X5196433Y-227634D01*
X5193741Y-214223D01*
X5189372Y-201269D01*
X5183327Y-188976D01*
X5175707Y-177596D01*
X5166664Y-167335D01*
X5156403Y-158292D01*
X5145024Y-150672D01*
X5132730Y-144627D01*
X5119776Y-140258D01*
X5106365Y-137566D01*
X5092700Y-136652D01*
X5079034Y-137566D01*
X5065623Y-140258D01*
X5052669Y-144627D01*
X5040376Y-150672D01*
X5028996Y-158292D01*
X5018735Y-167335D01*
X5009692Y-177596D01*
X5002072Y-188976D01*
X4996027Y-201269D01*
X4991658Y-214223D01*
X4988966Y-227634D01*
X4988052Y-241300D01*
X4988966Y-254965D01*
X4991658Y-268376D01*
X4996027Y-281330D01*
X5002072Y-293624D01*
X5009692Y-305003D01*
X5018735Y-315264D01*
X5028996Y-324307D01*
X5040376Y-331927D01*
X5052669Y-337972D01*
X5065623Y-342341D01*
X5079034Y-345033D01*
G37*
G36*
X5346700Y-345948D02*
G01*
X5360365Y-345033D01*
X5373776Y-342341D01*
X5386730Y-337972D01*
X5399024Y-331927D01*
X5410403Y-324307D01*
X5420664Y-315264D01*
X5429707Y-305003D01*
X5437327Y-293624D01*
X5443372Y-281330D01*
X5447741Y-268376D01*
X5450433Y-254965D01*
X5451348Y-241300D01*
X5450433Y-227634D01*
X5447741Y-214223D01*
X5443372Y-201269D01*
X5437327Y-188976D01*
X5429707Y-177596D01*
X5420664Y-167335D01*
X5410403Y-158292D01*
X5399024Y-150672D01*
X5386730Y-144627D01*
X5373776Y-140258D01*
X5360365Y-137566D01*
X5346700Y-136652D01*
X5333034Y-137566D01*
X5319623Y-140258D01*
X5306669Y-144627D01*
X5294376Y-150672D01*
X5282996Y-158292D01*
X5272735Y-167335D01*
X5263692Y-177596D01*
X5256072Y-188976D01*
X5250027Y-201269D01*
X5245658Y-214223D01*
X5242966Y-227634D01*
X5242052Y-241300D01*
X5242966Y-254965D01*
X5245658Y-268376D01*
X5250027Y-281330D01*
X5256072Y-293624D01*
X5263692Y-305003D01*
X5272735Y-315264D01*
X5282996Y-324307D01*
X5294376Y-331927D01*
X5306669Y-337972D01*
X5319623Y-342341D01*
X5333034Y-345033D01*
G37*
G36*
X5522518Y-345948D02*
G01*
X5678881Y-345948D01*
X5685180Y-345236D01*
X5690666Y-343306D01*
X5695543Y-340258D01*
X5699658Y-336143D01*
X5702706Y-331266D01*
X5704636Y-325780D01*
X5705348Y-319481D01*
X5705348Y-163118D01*
X5704636Y-156819D01*
X5702706Y-151333D01*
X5699658Y-146456D01*
X5695543Y-142341D01*
X5690666Y-139293D01*
X5685180Y-137363D01*
X5678881Y-136652D01*
X5522518Y-136652D01*
X5516219Y-137363D01*
X5510733Y-139293D01*
X5505856Y-142341D01*
X5501741Y-146456D01*
X5498693Y-151333D01*
X5496763Y-156819D01*
X5496052Y-163118D01*
X5496052Y-319481D01*
X5496763Y-325780D01*
X5498693Y-331266D01*
X5501741Y-336143D01*
X5505856Y-340258D01*
X5510733Y-343306D01*
X5516219Y-345236D01*
G37*
G36*
X4884420Y-335178D02*
G01*
X4891024Y-331927D01*
X4902403Y-324307D01*
X4912664Y-315264D01*
X4921707Y-305003D01*
X4929327Y-293624D01*
X4932578Y-287020D01*
X4884420Y-287020D01*
G37*
G36*
X4792980Y-335178D02*
G01*
X4792980Y-287020D01*
X4744821Y-287020D01*
X4748072Y-293624D01*
X4755692Y-305003D01*
X4764735Y-315264D01*
X4774996Y-324307D01*
X4786376Y-331927D01*
G37*
G36*
X4744821Y-195580D02*
G01*
X4792980Y-195580D01*
X4792980Y-147421D01*
X4786376Y-150672D01*
X4774996Y-158292D01*
X4764735Y-167335D01*
X4755692Y-177596D01*
X4748072Y-188976D01*
G37*
G36*
X4884420Y-195580D02*
G01*
X4932578Y-195580D01*
X4929327Y-188976D01*
X4921707Y-177596D01*
X4912664Y-167335D01*
X4902403Y-158292D01*
X4891024Y-150672D01*
X4884420Y-147421D01*
G37*

%LPD*%
D10*
X3175000Y-2287600D02*
G01*
X3289300Y-2173300D01*
X3289300Y-1092200D01*
X2882900Y-685800D01*
X2882900Y-558800D01*
X3492500Y-2287600D02*
G01*
X3492500Y-571500D01*
X3263900Y-342900D01*
X2667000Y-342900D01*
X2628900Y-381000D01*
X2628900Y-558800D01*
X3810000Y-2287600D02*
G01*
X3810000Y-2146300D01*
X3594100Y-1930400D01*
X3594100Y-533400D01*
X3340100Y-279400D01*
X2070100Y-279400D01*
X1866900Y-482600D01*
X1866900Y-558800D01*
D11*
X7175500Y-3176523D02*
G01*
X7034275Y-3176523D01*
X6898640Y-3312160D01*
X6845300Y-3312160D01*
X6960356Y-3695700D02*
G01*
X6959600Y-3848100D01*
X7454900Y-3848100D01*
X7454900Y-3556000D01*
X7275499Y-3376599D01*
X7175500Y-3376599D01*
X7263739Y-3695700D02*
G01*
X7263739Y-3631539D01*
X7150100Y-3517900D01*
X6869249Y-3517900D01*
X6769100Y-3517900D01*
X6718300Y-3467100D01*
X6718300Y-3313429D01*
D10*
X7601813Y-2998698D02*
G01*
X7467600Y-2998698D01*
X7467600Y-2984500D01*
D11*
X7601818Y-3063694D02*
G01*
X7288405Y-3063694D01*
X7175500Y-3176600D01*
X6365750Y-3441700D02*
G01*
X6324600Y-3441700D01*
X6324600Y-2870200D01*
X6286500Y-2832100D01*
X6032500Y-2832100D01*
X5994400Y-2794000D01*
X5994400Y-2349500D01*
X6096000Y-2247900D01*
X7137400Y-2247900D01*
X7594600Y-1790700D01*
X7594600Y-1785899D01*
X7594600Y-1485900D02*
G01*
X7594600Y-1600200D01*
X7035800Y-2159000D01*
X5588000Y-2159000D01*
X5207000Y-2540000D01*
X5207000Y-2781300D01*
X5195826Y-2792473D01*
X5054600Y-2792473D01*
D10*
X7480300Y-2870200D02*
G01*
X7543800Y-2933700D01*
X7601813Y-2933700D01*
X1409700Y-2512999D02*
G01*
X1369999Y-2552700D01*
X304800Y-2552700D01*
X2449327Y-3761488D02*
G01*
X2388108Y-3822700D01*
X1384300Y-3822700D01*
X622300Y-3060700D01*
X304800Y-3060700D01*
D12*
X2696870Y-2807030D02*
G01*
X2639568Y-2864332D01*
X2639568Y-3314700D01*
D10*
X4724389Y-2779793D02*
G01*
X4421124Y-2779776D01*
X4127500Y-3073400D01*
X4421090Y-2779793D01*
D11*
X5275590Y-1888797D02*
G01*
X4724400Y-2439923D01*
X4724400Y-3066795D01*
X4724389Y-2439969D01*
X5137404Y-3237992D02*
G01*
X5143500Y-3231895D01*
X5143500Y-2939795D01*
X5378195Y-2705100D01*
X5626100Y-2705100D01*
X5749036Y-2582163D01*
X5749036Y-2334260D01*
D12*
X5925814Y-1173479D02*
G01*
X5925814Y-1438653D01*
D11*
X7175500Y-3176600D02*
G01*
X7188200Y-3163900D01*
X7188200Y-2906699D01*
X6464300Y-2731770D02*
G01*
X6464300Y-2857500D01*
X6858000Y-2857500D01*
X6858000Y-3200400D01*
X6845300Y-3213100D01*
X6845300Y-3313429D01*
X6284899Y-3441700D02*
G01*
X5905500Y-3821099D01*
X5905500Y-3949700D01*
X5295900Y-3949700D01*
X5181600Y-3835400D01*
X5181600Y-3822700D01*
X5232400Y-3467607D02*
G01*
X5232400Y-3556000D01*
X5283200Y-3606800D01*
X5600700Y-3606800D01*
X5676900Y-3530600D01*
X5676900Y-3427476D01*
X5676900Y-3427399D02*
G01*
X5691200Y-3441700D01*
X6084900Y-3441700D01*
X5327395Y-3467607D02*
G01*
X5384800Y-3467100D01*
X5562600Y-3225800D01*
X5676900Y-3227323D01*
X6718300Y-2731770D02*
G01*
X6718300Y-2628900D01*
X6542100Y-2452700D01*
X6286500Y-2452700D01*
X5327395Y-3237992D02*
G01*
X5327395Y-3016504D01*
X5511800Y-2832100D01*
X5689600Y-2832100D01*
X5749036Y-2891536D01*
X5749036Y-2974339D01*
X4839766Y-2876804D02*
G01*
X4924170Y-2792399D01*
X5054600Y-2792399D01*
X5054600Y-2792476D02*
G01*
X5029200Y-2792476D01*
X5029200Y-2997200D01*
X4959604Y-3066795D01*
X4839715Y-3066795D01*
X4609033Y-2876804D02*
G01*
X4602937Y-2882900D01*
X4483100Y-2882900D01*
X4445000Y-2921000D01*
X4445000Y-3621100D01*
X4762500Y-3821176D02*
G01*
X5181600Y-3822700D01*
X5618988Y-2974339D02*
G01*
X5618988Y-3066287D01*
X5676900Y-3124200D01*
X5676900Y-3227323D01*
X6628742Y-3695700D02*
G01*
X6960260Y-3695700D01*
X6325260Y-3695700D02*
G01*
X6325260Y-3695039D01*
X6591300Y-3429000D01*
X6591300Y-3313429D01*
X6464300Y-3313429D02*
G01*
X6464300Y-3416300D01*
X6438900Y-3441700D01*
X6284899Y-3441700D01*
X6146800Y-3186099D02*
G01*
X5729300Y-2768600D01*
X5435600Y-2768600D01*
X5232400Y-2971800D01*
X5232400Y-3237992D01*
D12*
X2095754Y-3408171D02*
G01*
X2189225Y-3314700D01*
X2286000Y-3314700D01*
X2462784Y-3491484D01*
X2462784Y-3606800D01*
X2378709Y-3690873D01*
X2462784Y-3491484D02*
G01*
X2639568Y-3314700D01*
X2992374Y-3314700D01*
X3085845Y-3408171D01*
X1625597Y-3557089D02*
G01*
X1764207Y-3695700D01*
X2161768Y-3695700D01*
X2272614Y-3584854D01*
X1625600Y-3069081D02*
G01*
X1778000Y-3221481D01*
X1778000Y-3594100D01*
X1816100Y-3632200D01*
X2154427Y-3632200D01*
X2237231Y-3549395D01*
D11*
X5275579Y-1888744D02*
G01*
X5444236Y-2057400D01*
X6350000Y-2057400D01*
X6405885Y-2001520D01*
X6405885Y-1888746D01*
D12*
X5925820Y-1438655D02*
G01*
X5925820Y-1097279D01*
X5969000Y-1054100D01*
X6084824Y-1054100D01*
X7056120Y-1438655D02*
G01*
X7056120Y-1227328D01*
X6882891Y-1054100D01*
X6691375Y-1054100D01*
D10*
X2979699Y-3089859D02*
G01*
X3086100Y-2983458D01*
X3086100Y-2794000D01*
X2819400Y-2527300D01*
X2819400Y-2487599D01*
X3015056Y-3125241D02*
G01*
X3175000Y-2965297D01*
X3175000Y-2487599D01*
X3050413Y-3160572D02*
G01*
X3492500Y-2718485D01*
X3492500Y-2487599D01*
X2819400Y-2287600D02*
G01*
X3136900Y-1970100D01*
X3136900Y-1828800D01*
X3085845Y-3195828D02*
G01*
X3563874Y-2717800D01*
X3733800Y-2717800D01*
X3810000Y-2641600D01*
X3810000Y-2487676D01*
D11*
X4127500Y-3621100D02*
G01*
X4036999Y-3530600D01*
X3833799Y-3530600D01*
X3833799Y-3822700D02*
G01*
X3833799Y-3530600D01*
X3833799Y-3530600D02*
G01*
X3833799Y-3238500D01*
X3833799Y-3238500D02*
G01*
X3681399Y-3086100D01*
X3416300Y-3086100D01*
X3390900Y-3111500D01*
X3390900Y-3189300D01*
X3390900Y-3833799D02*
G01*
X3390900Y-3937000D01*
X3403600Y-3949700D01*
X3822700Y-3949700D01*
X3833799Y-3938600D01*
X3833799Y-3822700D01*
D10*
X3390900Y-3833876D02*
G01*
X3300475Y-3833876D01*
X3251200Y-3784600D01*
X3251200Y-3568700D01*
X3090672Y-3408171D01*
X3085845Y-3408171D01*
X2484734Y-2807027D02*
G01*
X2484734Y-2802234D01*
X2324100Y-2641600D01*
X2374900Y-2692400D01*
X2767558Y-2877743D02*
G01*
X2889402Y-2755900D01*
X2895600Y-2755900D01*
X2019300Y-2512999D02*
G01*
X2019300Y-3111500D01*
X2095835Y-3188027D01*
X2095835Y-3195954D01*
X2019300Y-2313000D02*
G01*
X2202835Y-2313000D01*
X2696865Y-2807027D01*
X2019300Y-2312923D02*
G01*
X1954275Y-2312923D01*
X1828800Y-2514600D01*
X1714500Y-2513076D01*
X1714500Y-2512999D02*
G01*
X1409700Y-2512999D01*
X2449372Y-2842387D02*
G01*
X2312085Y-2705100D01*
X2209800Y-2705100D01*
X2414041Y-2877746D02*
G01*
X2317595Y-2781300D01*
X2133600Y-2781300D01*
X2343322Y-2948459D02*
G01*
X2277765Y-2882900D01*
X2108200Y-2882900D01*
X2784050Y-3888950D02*
G01*
X2901101Y-3771900D01*
X2908300Y-3771900D01*
X2696870Y-3796969D02*
G01*
X2784050Y-3884150D01*
X2784050Y-3888950D01*
X2705100Y-3238500D02*
G01*
X2755900Y-3187700D01*
X2755900Y-3030829D01*
X2838272Y-2948457D01*
X2484729Y-3796969D02*
G01*
X2611399Y-3670300D01*
X2616200Y-3670300D01*
X2959100Y-2819400D02*
G01*
X2896641Y-2819400D01*
X2802940Y-2913100D01*
D13*
G01*
X6325260Y-3695700D03*
G01*
X6628739Y-3695700D03*
G01*
X7263739Y-3695700D03*
G01*
X6960260Y-3695700D03*
D14*
G01*
X5553963Y-2974339D03*
G01*
X5618988Y-2974339D03*
G01*
X5684011Y-2974339D03*
G01*
X5749036Y-2974339D03*
G01*
X5553963Y-2334260D03*
G01*
X5618988Y-2334260D03*
G01*
X5684011Y-2334260D03*
G01*
X5749036Y-2334260D03*
D15*
G01*
X2095830Y-3408070D03*
G01*
X2131187Y-3443427D03*
G01*
X2166543Y-3478758D03*
G01*
X2201900Y-3514140D03*
G01*
X2237257Y-3549472D03*
G01*
X2272614Y-3584854D03*
G01*
X2307945Y-3620185D03*
G01*
X2343327Y-3655542D03*
G01*
X2378659Y-3690899D03*
G01*
X2414041Y-3726256D03*
G01*
X2449372Y-3761613D03*
G01*
X2484729Y-3796969D03*
D16*
G01*
X2696870Y-3796969D03*
G01*
X2732227Y-3761613D03*
G01*
X2767558Y-3726256D03*
G01*
X2802940Y-3690899D03*
G01*
X2838272Y-3655542D03*
G01*
X2873654Y-3620185D03*
G01*
X2908985Y-3584854D03*
G01*
X2944342Y-3549472D03*
G01*
X2979699Y-3514140D03*
G01*
X3015056Y-3478758D03*
G01*
X3050412Y-3443427D03*
G01*
X3085769Y-3408070D03*
D15*
G01*
X3085769Y-3195955D03*
G01*
X3050412Y-3160572D03*
G01*
X3015056Y-3125241D03*
G01*
X2979699Y-3089859D03*
G01*
X2944342Y-3054527D03*
G01*
X2908985Y-3019171D03*
G01*
X2873654Y-2983814D03*
G01*
X2838272Y-2948457D03*
G01*
X2802940Y-2913100D03*
G01*
X2767558Y-2877743D03*
G01*
X2732227Y-2842386D03*
G01*
X2696870Y-2807030D03*
D16*
G01*
X2484729Y-2807030D03*
G01*
X2449372Y-2842386D03*
G01*
X2414041Y-2877743D03*
G01*
X2378659Y-2913100D03*
G01*
X2343327Y-2948457D03*
G01*
X2307945Y-2983814D03*
G01*
X2272614Y-3019171D03*
G01*
X2237257Y-3054527D03*
G01*
X2201900Y-3089859D03*
G01*
X2166543Y-3125241D03*
G01*
X2131187Y-3160572D03*
G01*
X2095830Y-3195955D03*
D17*
G01*
X6845300Y-2731770D03*
G01*
X6718300Y-2731770D03*
G01*
X6591300Y-2731770D03*
G01*
X6464300Y-2731770D03*
G01*
X6464300Y-3313429D03*
G01*
X6591300Y-3313429D03*
G01*
X6718300Y-3313429D03*
G01*
X6845300Y-3313429D03*
D18*
G01*
X6654800Y-3022600D03*
D19*
G01*
X5327395Y-3237890D03*
G01*
X5232400Y-3237890D03*
G01*
X5137404Y-3237890D03*
G01*
X5137404Y-3467709D03*
G01*
X5232400Y-3467709D03*
G01*
X5327395Y-3467709D03*
D20*
G01*
X4839766Y-3066795D03*
G01*
X4839766Y-2971800D03*
G01*
X4839766Y-2876804D03*
D21*
G01*
X4609033Y-2876804D03*
G01*
X4609033Y-3066795D03*
D22*
G01*
X7601813Y-2803702D03*
G01*
X7601813Y-2868701D03*
G01*
X7601813Y-2933700D03*
G01*
X7601813Y-2998698D03*
G01*
X7601813Y-3063697D03*
D23*
G01*
X7175500Y-3176595D03*
D24*
G01*
X7175500Y-3376599D03*
D23*
G01*
X6286500Y-2452695D03*
D24*
G01*
X6286500Y-2652699D03*
D25*
G01*
X6284904Y-3441700D03*
G01*
X6084895Y-3441700D03*
D23*
G01*
X6146800Y-3186104D03*
D24*
G01*
X6146800Y-2986100D03*
D23*
G01*
X2819400Y-2487604D03*
D24*
G01*
X2819400Y-2287600D03*
D23*
G01*
X3175000Y-2487604D03*
D24*
G01*
X3175000Y-2287600D03*
D23*
G01*
X3492500Y-2487604D03*
D24*
G01*
X3492500Y-2287600D03*
D23*
G01*
X3810000Y-2487604D03*
D24*
G01*
X3810000Y-2287600D03*
D26*
G01*
X6084895Y-1054100D03*
G01*
X6284904Y-1054100D03*
D25*
G01*
X6691304Y-1054100D03*
G01*
X6491295Y-1054100D03*
D27*
G01*
X3833802Y-3822700D03*
G01*
X3633797Y-3822700D03*
G01*
X3833802Y-3530600D03*
G01*
X3633797Y-3530600D03*
G01*
X3833802Y-3238500D03*
G01*
X3633797Y-3238500D03*
D28*
G01*
X3390900Y-3833802D03*
D29*
G01*
X3390900Y-3633800D03*
D28*
G01*
X3390900Y-3189297D03*
D29*
G01*
X3390900Y-3389299D03*
D28*
G01*
X1409700Y-2513002D03*
D29*
G01*
X1409700Y-2313000D03*
D28*
G01*
X1714500Y-2513002D03*
D29*
G01*
X1714500Y-2313000D03*
D28*
G01*
X2019300Y-2513002D03*
D29*
G01*
X2019300Y-2313000D03*
D28*
G01*
X7188200Y-2906702D03*
D29*
G01*
X7188200Y-2706700D03*
D28*
G01*
X5676900Y-3227397D03*
D29*
G01*
X5676900Y-3427399D03*
D28*
G01*
X4762500Y-3821102D03*
D29*
G01*
X4762500Y-3621100D03*
D28*
G01*
X5054600Y-2792402D03*
D29*
G01*
X5054600Y-2592400D03*
D28*
G01*
X4445000Y-3621097D03*
D29*
G01*
X4445000Y-3821099D03*
D28*
G01*
X4127500Y-3621097D03*
D29*
G01*
X4127500Y-3821099D03*
D30*
G01*
X5181600Y-3822700D03*
G01*
X5727700Y-3822700D03*
G01*
X5600700Y-241300D03*
D31*
G01*
X5346700Y-241300D03*
G01*
X5092700Y-241300D03*
G01*
X4838700Y-241300D03*
D30*
G01*
X304800Y-2552700D03*
D31*
G01*
X304800Y-2806700D03*
G01*
X304800Y-3060700D03*
D32*
G01*
X5275579Y-1438655D03*
G01*
X5275579Y-1888744D03*
G01*
X5925820Y-1438655D03*
G01*
X5925820Y-1888744D03*
G01*
X6405879Y-1438655D03*
G01*
X6405879Y-1888744D03*
G01*
X7056120Y-1438655D03*
G01*
X7056120Y-1888744D03*
G01*
X1905000Y-1828800D03*
G01*
X2159000Y-1828800D03*
G01*
X2413000Y-1828800D03*
G01*
X2667000Y-1828800D03*
G01*
X2921000Y-1828800D03*
G01*
X3175000Y-1828800D03*
G01*
X3175000Y-558800D03*
G01*
X2921000Y-558800D03*
G01*
X2667000Y-558800D03*
G01*
X2413000Y-558800D03*
G01*
X2159000Y-558800D03*
G01*
X1905000Y-558800D03*
D33*
G01*
X7594600Y-1485900D03*
G01*
X7594600Y-1785899D03*
G01*
X7594600Y-2085898D03*
D34*
G01*
X7866786Y-2573705D03*
G01*
X7866786Y-3293694D03*
D35*
G01*
X7601788Y-3176193D03*
G01*
X7601788Y-2691206D03*
D32*
G01*
X1625600Y-3557092D03*
G01*
X1625600Y-3069107D03*
D36*
G01*
X2616200Y-3670300D03*
G01*
X2889402Y-2755900D03*
G01*
X2324100Y-2641600D03*
G01*
X2209800Y-2705100D03*
G01*
X2133600Y-2781300D03*
G01*
X2108200Y-2882900D03*
G01*
X7467600Y-2984500D03*
G01*
X7480300Y-2870200D03*
G01*
X2901111Y-3771900D03*
G01*
X2705100Y-3238500D03*
G01*
X2959100Y-2819400D03*
M02*
