G04 Layer: BottomLayer*
G04 EasyEDA v6.5.47, 2024-09-12 04:01:22*
G04 8c6c83d31be245b591d831e4eff4e06b,65b0a26063cb4300b6f9becee83ce362,10*
G04 Gerber Generator version 0.2*
G04 Scale: 100 percent, Rotated: No, Reflected: No *
G04 Dimensions in millimeters *
G04 leading zeros omitted , absolute positions ,4 integer and 5 decimal *
%FSLAX45Y45*%
%MOMM*%

%AMMACRO1*21,1,$1,$2,0,0,$3*%
%ADD10C,0.4550*%
%ADD11C,0.2550*%
%ADD12C,0.2540*%
%ADD13R,1.3770X1.1325*%
%ADD14MACRO1,1.377X1.1325X0.0000*%
%ADD15R,1.3500X1.4100*%
%ADD16MACRO1,1.35X1.41X0.0000*%
%ADD17MACRO1,1.35X1.41X-90.0000*%
%ADD18MACRO1,1.35X1.41X90.0000*%
%ADD19O,1.9709892X0.6020054*%
%ADD20R,1.5748X1.5748*%
%ADD21C,1.5748*%
%ADD22C,1.8000*%
%ADD23C,1.5240*%
%ADD24O,2.1999956000000003X1.2999974*%
%ADD25C,1.2000*%
%ADD26C,0.6200*%
%ADD27C,0.0120*%

%LPD*%
G36*
X36068Y-3961384D02*
G01*
X32156Y-3960622D01*
X28905Y-3958386D01*
X26670Y-3955135D01*
X25908Y-3951224D01*
X25908Y-36068D01*
X26670Y-32156D01*
X28905Y-28905D01*
X32156Y-26670D01*
X36068Y-25908D01*
X7963916Y-25908D01*
X7967827Y-26670D01*
X7971078Y-28905D01*
X7973314Y-32156D01*
X7974075Y-36068D01*
X7974075Y-2487168D01*
X7973212Y-2491181D01*
X7970875Y-2494584D01*
X7967319Y-2496718D01*
X7963204Y-2497277D01*
X7959242Y-2496159D01*
X7948015Y-2490368D01*
X7936331Y-2486202D01*
X7924190Y-2483662D01*
X7911439Y-2482799D01*
X7822133Y-2482799D01*
X7809433Y-2483662D01*
X7797292Y-2486202D01*
X7785608Y-2490368D01*
X7774584Y-2496058D01*
X7764424Y-2503220D01*
X7755381Y-2511653D01*
X7747558Y-2521305D01*
X7741107Y-2531872D01*
X7736179Y-2543251D01*
X7732826Y-2555240D01*
X7731150Y-2567482D01*
X7731150Y-2579928D01*
X7732826Y-2592222D01*
X7736179Y-2604160D01*
X7741107Y-2615539D01*
X7747558Y-2626106D01*
X7755381Y-2635758D01*
X7764424Y-2644190D01*
X7774584Y-2651353D01*
X7785608Y-2657043D01*
X7797292Y-2661208D01*
X7809433Y-2663748D01*
X7822133Y-2664612D01*
X7911439Y-2664612D01*
X7924190Y-2663748D01*
X7936331Y-2661208D01*
X7948015Y-2657043D01*
X7959242Y-2651252D01*
X7963204Y-2650134D01*
X7967319Y-2650693D01*
X7970875Y-2652826D01*
X7973212Y-2656230D01*
X7974075Y-2660294D01*
X7974075Y-3207105D01*
X7973212Y-3211169D01*
X7970875Y-3214573D01*
X7967319Y-3216706D01*
X7963204Y-3217265D01*
X7959242Y-3216148D01*
X7948015Y-3210356D01*
X7936331Y-3206191D01*
X7924190Y-3203651D01*
X7911439Y-3202787D01*
X7822133Y-3202787D01*
X7809433Y-3203651D01*
X7797292Y-3206191D01*
X7785608Y-3210356D01*
X7774584Y-3216046D01*
X7764424Y-3223209D01*
X7755381Y-3231642D01*
X7747558Y-3241294D01*
X7741107Y-3251860D01*
X7736179Y-3263239D01*
X7732826Y-3275177D01*
X7731150Y-3287471D01*
X7731150Y-3299917D01*
X7732826Y-3312160D01*
X7736179Y-3324148D01*
X7741107Y-3335528D01*
X7747558Y-3346094D01*
X7755381Y-3355746D01*
X7764424Y-3364179D01*
X7774584Y-3371342D01*
X7785608Y-3377031D01*
X7797292Y-3381197D01*
X7809433Y-3383737D01*
X7822133Y-3384600D01*
X7911439Y-3384600D01*
X7924190Y-3383737D01*
X7936331Y-3381197D01*
X7948015Y-3377031D01*
X7959242Y-3371240D01*
X7963204Y-3370122D01*
X7967319Y-3370681D01*
X7970875Y-3372815D01*
X7973212Y-3376218D01*
X7974075Y-3380232D01*
X7974075Y-3951224D01*
X7973314Y-3955135D01*
X7971078Y-3958386D01*
X7967827Y-3960622D01*
X7963916Y-3961384D01*
X3166313Y-3961384D01*
X3162401Y-3960622D01*
X3159150Y-3958386D01*
X3156915Y-3955135D01*
X3156153Y-3951224D01*
X3156915Y-3947312D01*
X3159150Y-3944061D01*
X4077055Y-3026156D01*
X4080357Y-3023920D01*
X4084218Y-3023158D01*
X6930898Y-3023158D01*
X6934758Y-3023920D01*
X6938060Y-3026156D01*
X6940245Y-3029407D01*
X6941058Y-3033318D01*
X6941058Y-3051657D01*
X6941769Y-3058007D01*
X6943648Y-3063443D01*
X6946747Y-3068320D01*
X6950811Y-3072434D01*
X6955739Y-3075533D01*
X6961174Y-3077413D01*
X6967524Y-3078124D01*
X7104075Y-3078124D01*
X7110425Y-3077413D01*
X7115860Y-3075533D01*
X7120788Y-3072434D01*
X7124852Y-3068320D01*
X7127951Y-3063443D01*
X7129830Y-3058007D01*
X7130542Y-3051657D01*
X7130542Y-3033318D01*
X7131354Y-3029407D01*
X7133539Y-3026156D01*
X7136841Y-3023920D01*
X7140702Y-3023158D01*
X7421930Y-3023158D01*
X7425486Y-3023819D01*
X7428636Y-3025698D01*
X7433767Y-3030220D01*
X7441996Y-3035300D01*
X7450937Y-3038856D01*
X7460386Y-3040888D01*
X7470038Y-3041345D01*
X7479588Y-3040075D01*
X7488783Y-3037281D01*
X7497419Y-3032912D01*
X7505192Y-3027172D01*
X7511846Y-3020212D01*
X7517231Y-3012236D01*
X7521244Y-3003448D01*
X7523632Y-2994101D01*
X7524496Y-2984500D01*
X7523632Y-2974898D01*
X7521244Y-2965551D01*
X7517231Y-2956763D01*
X7511846Y-2948787D01*
X7505192Y-2941828D01*
X7501788Y-2939338D01*
X7499045Y-2936240D01*
X7497775Y-2932379D01*
X7498130Y-2928264D01*
X7500061Y-2924657D01*
X7503261Y-2922066D01*
X7510119Y-2918612D01*
X7517892Y-2912872D01*
X7524546Y-2905912D01*
X7529931Y-2897936D01*
X7533944Y-2889148D01*
X7536332Y-2879801D01*
X7537196Y-2870200D01*
X7536332Y-2860598D01*
X7533944Y-2851251D01*
X7529931Y-2842463D01*
X7524546Y-2834487D01*
X7517892Y-2827528D01*
X7510119Y-2821787D01*
X7501483Y-2817418D01*
X7492288Y-2814624D01*
X7482738Y-2813354D01*
X7473086Y-2813812D01*
X7463637Y-2815844D01*
X7454696Y-2819400D01*
X7446467Y-2824480D01*
X7441336Y-2829001D01*
X7438186Y-2830880D01*
X7434630Y-2831541D01*
X7417308Y-2831541D01*
X7409281Y-2832354D01*
X7402017Y-2834538D01*
X7395362Y-2838094D01*
X7389114Y-2843225D01*
X7352944Y-2879344D01*
X7349642Y-2881579D01*
X7345781Y-2882341D01*
X7134453Y-2882341D01*
X7130237Y-2881426D01*
X7126782Y-2878886D01*
X7124700Y-2875127D01*
X7124344Y-2870809D01*
X7125817Y-2866796D01*
X7127951Y-2863443D01*
X7129830Y-2857957D01*
X7130542Y-2851658D01*
X7130542Y-2739542D01*
X7129830Y-2733192D01*
X7127951Y-2727756D01*
X7124852Y-2722880D01*
X7120788Y-2718765D01*
X7115860Y-2715666D01*
X7110425Y-2713786D01*
X7104075Y-2713075D01*
X7012127Y-2713075D01*
X7008266Y-2712262D01*
X7004964Y-2710078D01*
X6447536Y-2152650D01*
X6445300Y-2149348D01*
X6444538Y-2145436D01*
X6444538Y-2004720D01*
X6445351Y-2000808D01*
X6447586Y-1997456D01*
X6450939Y-1995271D01*
X6455206Y-1993595D01*
X6467957Y-1986584D01*
X6479743Y-1978050D01*
X6490360Y-1968093D01*
X6499656Y-1956866D01*
X6507429Y-1944573D01*
X6513880Y-1930806D01*
X6516522Y-1927402D01*
X6519824Y-1924862D01*
X6527393Y-1920849D01*
X6533642Y-1915718D01*
X6667855Y-1781556D01*
X6671157Y-1779320D01*
X6675018Y-1778558D01*
X6979716Y-1778558D01*
X6983882Y-1779422D01*
X6987286Y-1781911D01*
X6989419Y-1785569D01*
X6989825Y-1789785D01*
X6988556Y-1793798D01*
X6985711Y-1796948D01*
X6982256Y-1799437D01*
X6971639Y-1809394D01*
X6962343Y-1820621D01*
X6954570Y-1832914D01*
X6948373Y-1846072D01*
X6943852Y-1859940D01*
X6941159Y-1874215D01*
X6940245Y-1888743D01*
X6941159Y-1903272D01*
X6943852Y-1917547D01*
X6948373Y-1931416D01*
X6954570Y-1944573D01*
X6962343Y-1956866D01*
X6971639Y-1968093D01*
X6982256Y-1978050D01*
X6994042Y-1986584D01*
X7006793Y-1993595D01*
X7020306Y-1998980D01*
X7034428Y-2002586D01*
X7048855Y-2004415D01*
X7063384Y-2004415D01*
X7077811Y-2002586D01*
X7091934Y-1998980D01*
X7105446Y-1993595D01*
X7118197Y-1986584D01*
X7129983Y-1978050D01*
X7140600Y-1968093D01*
X7149896Y-1956866D01*
X7157669Y-1944573D01*
X7163866Y-1931416D01*
X7168388Y-1917547D01*
X7171080Y-1903272D01*
X7171994Y-1888743D01*
X7171080Y-1874215D01*
X7168388Y-1859940D01*
X7163866Y-1846072D01*
X7157669Y-1832914D01*
X7149896Y-1820621D01*
X7140600Y-1809394D01*
X7129983Y-1799437D01*
X7126528Y-1796948D01*
X7123684Y-1793798D01*
X7122414Y-1789785D01*
X7122820Y-1785569D01*
X7124953Y-1781911D01*
X7128357Y-1779422D01*
X7132523Y-1778558D01*
X7136892Y-1778558D01*
X7144918Y-1777746D01*
X7152182Y-1775561D01*
X7158837Y-1772005D01*
X7165086Y-1766874D01*
X7265974Y-1665986D01*
X7271105Y-1659737D01*
X7274661Y-1653082D01*
X7276846Y-1645818D01*
X7277658Y-1637792D01*
X7277658Y-1067308D01*
X7276846Y-1059281D01*
X7274661Y-1052017D01*
X7271105Y-1045362D01*
X7265974Y-1039114D01*
X7152386Y-925525D01*
X7146137Y-920394D01*
X7139482Y-916838D01*
X7132218Y-914653D01*
X7124192Y-913841D01*
X6332118Y-913841D01*
X6328257Y-913079D01*
X6324955Y-910894D01*
X5708345Y-294284D01*
X5706110Y-290982D01*
X5705348Y-287070D01*
X5705348Y-163118D01*
X5704636Y-156819D01*
X5702706Y-151333D01*
X5699658Y-146456D01*
X5695543Y-142341D01*
X5690666Y-139293D01*
X5685180Y-137363D01*
X5678881Y-136652D01*
X5522518Y-136652D01*
X5516219Y-137363D01*
X5510733Y-139293D01*
X5505856Y-142341D01*
X5501741Y-146456D01*
X5498693Y-151333D01*
X5496763Y-156819D01*
X5496052Y-163118D01*
X5496052Y-319481D01*
X5496763Y-325780D01*
X5498693Y-331266D01*
X5501741Y-336143D01*
X5505856Y-340258D01*
X5510733Y-343306D01*
X5516219Y-345236D01*
X5522518Y-345948D01*
X5646470Y-345948D01*
X5650331Y-346710D01*
X5653633Y-348945D01*
X6461963Y-1157274D01*
X6468211Y-1162405D01*
X6474866Y-1165961D01*
X6482130Y-1168146D01*
X6487312Y-1168654D01*
X6490919Y-1169720D01*
X6493865Y-1171956D01*
X6495796Y-1175105D01*
X6496507Y-1178763D01*
X6496507Y-1197254D01*
X6497218Y-1203553D01*
X6499098Y-1208989D01*
X6502196Y-1213916D01*
X6506260Y-1217980D01*
X6511188Y-1221079D01*
X6516624Y-1223010D01*
X6522974Y-1223721D01*
X6662826Y-1223721D01*
X6669125Y-1223010D01*
X6674612Y-1221079D01*
X6679488Y-1217980D01*
X6683603Y-1213916D01*
X6687108Y-1209852D01*
X6690868Y-1208278D01*
X6694931Y-1208278D01*
X6698691Y-1209852D01*
X6702196Y-1213916D01*
X6706311Y-1217980D01*
X6711188Y-1221079D01*
X6716674Y-1223010D01*
X6722973Y-1223721D01*
X6751320Y-1223721D01*
X6751320Y-1170381D01*
X6699453Y-1170381D01*
X6695592Y-1169619D01*
X6692290Y-1167434D01*
X6690055Y-1164132D01*
X6689293Y-1160221D01*
X6689293Y-1100378D01*
X6690055Y-1096467D01*
X6692290Y-1093165D01*
X6695592Y-1090980D01*
X6699453Y-1090218D01*
X6751320Y-1090218D01*
X6751320Y-1036878D01*
X6722973Y-1036878D01*
X6716674Y-1037590D01*
X6711188Y-1039520D01*
X6706311Y-1042619D01*
X6702196Y-1046683D01*
X6698691Y-1050747D01*
X6694931Y-1052322D01*
X6690868Y-1052322D01*
X6687108Y-1050747D01*
X6683603Y-1046683D01*
X6679488Y-1042619D01*
X6674612Y-1039520D01*
X6669125Y-1037590D01*
X6662826Y-1036878D01*
X6522974Y-1036878D01*
X6516624Y-1037590D01*
X6511188Y-1039520D01*
X6506260Y-1042619D01*
X6502196Y-1046683D01*
X6499098Y-1051610D01*
X6497218Y-1057046D01*
X6496913Y-1059535D01*
X6495796Y-1063193D01*
X6493459Y-1066139D01*
X6490157Y-1068019D01*
X6486448Y-1068578D01*
X6482740Y-1067714D01*
X6479641Y-1065580D01*
X6422542Y-1008481D01*
X6420358Y-1005230D01*
X6419545Y-1001318D01*
X6420358Y-997407D01*
X6422542Y-994156D01*
X6425844Y-991920D01*
X6429705Y-991158D01*
X7104481Y-991158D01*
X7108342Y-991920D01*
X7111644Y-994156D01*
X7197344Y-1079855D01*
X7199579Y-1083157D01*
X7200341Y-1087018D01*
X7200341Y-1618081D01*
X7199579Y-1621942D01*
X7197344Y-1625244D01*
X7124344Y-1698243D01*
X7121042Y-1700479D01*
X7117181Y-1701241D01*
X6655308Y-1701241D01*
X6647281Y-1702054D01*
X6640017Y-1704238D01*
X6633362Y-1707794D01*
X6627114Y-1712925D01*
X6516268Y-1823770D01*
X6512458Y-1826158D01*
X6507988Y-1826666D01*
X6503720Y-1825193D01*
X6500520Y-1821992D01*
X6499656Y-1820621D01*
X6490360Y-1809394D01*
X6479743Y-1799437D01*
X6467957Y-1790903D01*
X6455206Y-1783892D01*
X6441694Y-1778507D01*
X6427571Y-1774901D01*
X6413144Y-1773072D01*
X6398615Y-1773072D01*
X6384188Y-1774901D01*
X6370066Y-1778507D01*
X6356553Y-1783892D01*
X6343802Y-1790903D01*
X6332016Y-1799437D01*
X6321399Y-1809394D01*
X6312103Y-1820621D01*
X6304330Y-1832914D01*
X6298133Y-1846072D01*
X6293612Y-1859940D01*
X6290919Y-1874215D01*
X6290005Y-1888743D01*
X6290919Y-1903272D01*
X6293612Y-1917547D01*
X6298133Y-1931416D01*
X6304330Y-1944573D01*
X6312103Y-1956866D01*
X6321399Y-1968093D01*
X6332016Y-1978050D01*
X6343802Y-1986584D01*
X6356553Y-1993595D01*
X6360820Y-1995271D01*
X6364173Y-1997456D01*
X6366408Y-2000808D01*
X6367221Y-2004720D01*
X6367221Y-2165197D01*
X6368034Y-2173224D01*
X6370218Y-2180437D01*
X6373774Y-2187143D01*
X6378905Y-2193391D01*
X6938060Y-2752547D01*
X6940245Y-2755849D01*
X6941058Y-2759710D01*
X6941058Y-2851658D01*
X6941769Y-2857957D01*
X6943648Y-2863443D01*
X6946747Y-2868320D01*
X6950811Y-2872435D01*
X6955739Y-2875483D01*
X6961174Y-2877413D01*
X6967524Y-2878124D01*
X6999782Y-2878124D01*
X7003542Y-2878836D01*
X7006742Y-2880868D01*
X7008977Y-2883966D01*
X7009942Y-2887624D01*
X7009485Y-2891383D01*
X7007656Y-2894736D01*
X7003745Y-2899511D01*
X6999528Y-2907588D01*
X6997293Y-2910484D01*
X6994144Y-2912414D01*
X6990537Y-2913075D01*
X6967524Y-2913075D01*
X6961174Y-2913786D01*
X6955739Y-2915716D01*
X6950811Y-2918764D01*
X6946747Y-2922879D01*
X6943648Y-2927756D01*
X6941769Y-2933242D01*
X6941362Y-2936798D01*
X6940296Y-2940354D01*
X6938009Y-2943250D01*
X6934860Y-2945180D01*
X6931253Y-2945841D01*
X3834231Y-2945841D01*
X3830320Y-2945079D01*
X3827018Y-2942844D01*
X3824782Y-2939491D01*
X3824071Y-2935579D01*
X3824884Y-2931668D01*
X3827170Y-2928366D01*
X5194300Y-1603603D01*
X5197551Y-1601520D01*
X5201361Y-1600758D01*
X5714492Y-1600758D01*
X5722518Y-1599946D01*
X5729782Y-1597761D01*
X5736437Y-1594205D01*
X5742686Y-1589074D01*
X5820664Y-1510487D01*
X5824169Y-1508150D01*
X5828334Y-1507490D01*
X5832398Y-1508556D01*
X5835700Y-1511147D01*
X5841339Y-1518005D01*
X5851956Y-1527962D01*
X5863742Y-1536496D01*
X5876493Y-1543507D01*
X5890006Y-1548892D01*
X5904128Y-1552498D01*
X5918555Y-1554327D01*
X5933084Y-1554327D01*
X5947511Y-1552498D01*
X5961634Y-1548892D01*
X5975146Y-1543507D01*
X5987897Y-1536496D01*
X5999683Y-1527962D01*
X6010300Y-1518005D01*
X6019596Y-1506778D01*
X6027369Y-1494485D01*
X6033566Y-1481328D01*
X6038088Y-1467459D01*
X6040780Y-1453184D01*
X6041694Y-1438656D01*
X6040780Y-1424127D01*
X6038088Y-1409852D01*
X6033566Y-1395984D01*
X6027369Y-1382826D01*
X6019596Y-1370533D01*
X6010300Y-1359306D01*
X6002121Y-1351635D01*
X5999784Y-1348333D01*
X5998870Y-1344422D01*
X5999581Y-1340459D01*
X6001816Y-1337106D01*
X6005118Y-1334871D01*
X6009030Y-1334058D01*
X6322669Y-1334058D01*
X6326581Y-1334871D01*
X6329883Y-1337106D01*
X6332118Y-1340459D01*
X6332829Y-1344422D01*
X6331915Y-1348333D01*
X6329578Y-1351635D01*
X6321399Y-1359306D01*
X6312103Y-1370533D01*
X6304330Y-1382826D01*
X6298133Y-1395984D01*
X6293612Y-1409852D01*
X6290919Y-1424127D01*
X6290005Y-1438656D01*
X6290919Y-1453184D01*
X6293612Y-1467459D01*
X6298133Y-1481328D01*
X6304330Y-1494485D01*
X6312103Y-1506778D01*
X6321399Y-1518005D01*
X6332016Y-1527962D01*
X6343802Y-1536496D01*
X6356553Y-1543507D01*
X6370066Y-1548892D01*
X6384188Y-1552498D01*
X6398615Y-1554327D01*
X6413144Y-1554327D01*
X6427571Y-1552498D01*
X6441694Y-1548892D01*
X6455206Y-1543507D01*
X6467957Y-1536496D01*
X6479743Y-1527962D01*
X6490360Y-1518005D01*
X6499656Y-1506778D01*
X6507429Y-1494485D01*
X6513626Y-1481328D01*
X6518148Y-1467459D01*
X6520840Y-1453184D01*
X6521754Y-1438656D01*
X6520840Y-1424127D01*
X6518148Y-1409852D01*
X6513626Y-1395984D01*
X6507429Y-1382826D01*
X6499656Y-1370533D01*
X6490360Y-1359306D01*
X6482181Y-1351635D01*
X6479844Y-1348333D01*
X6478930Y-1344422D01*
X6479641Y-1340459D01*
X6481876Y-1337106D01*
X6485178Y-1334871D01*
X6489090Y-1334058D01*
X6972909Y-1334058D01*
X6976821Y-1334871D01*
X6980123Y-1337106D01*
X6982358Y-1340459D01*
X6983069Y-1344422D01*
X6982155Y-1348333D01*
X6979818Y-1351635D01*
X6971639Y-1359306D01*
X6962343Y-1370533D01*
X6954570Y-1382826D01*
X6948373Y-1395984D01*
X6943852Y-1409852D01*
X6941159Y-1424127D01*
X6940245Y-1438656D01*
X6941159Y-1453184D01*
X6943852Y-1467459D01*
X6948373Y-1481328D01*
X6954570Y-1494485D01*
X6962343Y-1506778D01*
X6971639Y-1518005D01*
X6982256Y-1527962D01*
X6994042Y-1536496D01*
X7006793Y-1543507D01*
X7020306Y-1548892D01*
X7034428Y-1552498D01*
X7048855Y-1554327D01*
X7063384Y-1554327D01*
X7077811Y-1552498D01*
X7091934Y-1548892D01*
X7105446Y-1543507D01*
X7118197Y-1536496D01*
X7129983Y-1527962D01*
X7140600Y-1518005D01*
X7149896Y-1506778D01*
X7157669Y-1494485D01*
X7163866Y-1481328D01*
X7168388Y-1467459D01*
X7171080Y-1453184D01*
X7171994Y-1438656D01*
X7171080Y-1424127D01*
X7168388Y-1409852D01*
X7163866Y-1395984D01*
X7157669Y-1382826D01*
X7149896Y-1370533D01*
X7140600Y-1359306D01*
X7129983Y-1349349D01*
X7118197Y-1340815D01*
X7105446Y-1333804D01*
X7100620Y-1331874D01*
X7097471Y-1329893D01*
X7095236Y-1326946D01*
X7094220Y-1323441D01*
X7093966Y-1320901D01*
X7091781Y-1313637D01*
X7088225Y-1306982D01*
X7083094Y-1300734D01*
X7050786Y-1268425D01*
X7044537Y-1263294D01*
X7037882Y-1259738D01*
X7030618Y-1257554D01*
X7022592Y-1256741D01*
X5169408Y-1256741D01*
X5161381Y-1257554D01*
X5154117Y-1259738D01*
X5147462Y-1263294D01*
X5141214Y-1268425D01*
X2780944Y-3628644D01*
X2777642Y-3630879D01*
X2773781Y-3631641D01*
X2661970Y-3631641D01*
X2658008Y-3630828D01*
X2646019Y-3621887D01*
X2637383Y-3617518D01*
X2628188Y-3614724D01*
X2618638Y-3613454D01*
X2608986Y-3613912D01*
X2599537Y-3615944D01*
X2590596Y-3619500D01*
X2582367Y-3624579D01*
X2575153Y-3630929D01*
X2569057Y-3638448D01*
X2564282Y-3647033D01*
X2561894Y-3649878D01*
X2558643Y-3651707D01*
X2554935Y-3652215D01*
X2551328Y-3651351D01*
X2548229Y-3649268D01*
X2543556Y-3644544D01*
X2541320Y-3641242D01*
X2540558Y-3637381D01*
X2540558Y-3550818D01*
X2541320Y-3546957D01*
X2543556Y-3543655D01*
X2986074Y-3101086D01*
X2991205Y-3094837D01*
X2994761Y-3088182D01*
X2996946Y-3080918D01*
X2997758Y-3072892D01*
X2997758Y-2865069D01*
X2998470Y-2861259D01*
X3000603Y-2858008D01*
X3003346Y-2855112D01*
X3008731Y-2847136D01*
X3012744Y-2838348D01*
X3015132Y-2829001D01*
X3015996Y-2819400D01*
X3015132Y-2809798D01*
X3012744Y-2800451D01*
X3008731Y-2791663D01*
X3003346Y-2783687D01*
X2996692Y-2776728D01*
X2988919Y-2770987D01*
X2980283Y-2766618D01*
X2971088Y-2763824D01*
X2960725Y-2762504D01*
X2956509Y-2760929D01*
X2953410Y-2757728D01*
X2951937Y-2753461D01*
X2952445Y-2749042D01*
X2954832Y-2745232D01*
X5195874Y-504190D01*
X5201005Y-497941D01*
X5204561Y-491286D01*
X5206746Y-484022D01*
X5207558Y-475996D01*
X5207558Y-439318D01*
X5208320Y-435457D01*
X5210556Y-432155D01*
X5300726Y-341934D01*
X5303824Y-339801D01*
X5307482Y-338988D01*
X5311190Y-339496D01*
X5319623Y-342341D01*
X5333034Y-345033D01*
X5346700Y-345948D01*
X5360365Y-345033D01*
X5373776Y-342341D01*
X5386730Y-337972D01*
X5399024Y-331927D01*
X5410403Y-324307D01*
X5420664Y-315264D01*
X5429707Y-305003D01*
X5437327Y-293624D01*
X5443372Y-281330D01*
X5447741Y-268376D01*
X5450433Y-254965D01*
X5451348Y-241300D01*
X5450433Y-227634D01*
X5447741Y-214223D01*
X5443372Y-201269D01*
X5437327Y-188976D01*
X5429707Y-177596D01*
X5420664Y-167335D01*
X5410403Y-158292D01*
X5399024Y-150672D01*
X5386730Y-144627D01*
X5373776Y-140258D01*
X5360365Y-137566D01*
X5346700Y-136652D01*
X5333034Y-137566D01*
X5319623Y-140258D01*
X5306669Y-144627D01*
X5294376Y-150672D01*
X5282996Y-158292D01*
X5272735Y-167335D01*
X5263692Y-177596D01*
X5256072Y-188976D01*
X5250027Y-201269D01*
X5245658Y-214223D01*
X5242966Y-227634D01*
X5242052Y-241300D01*
X5242966Y-254965D01*
X5245658Y-268376D01*
X5248503Y-276809D01*
X5249011Y-280517D01*
X5248198Y-284175D01*
X5246065Y-287274D01*
X5141925Y-391414D01*
X5136794Y-397662D01*
X5133238Y-404317D01*
X5131054Y-411581D01*
X5130241Y-419608D01*
X5130241Y-456285D01*
X5129479Y-460146D01*
X5127244Y-463448D01*
X2894431Y-2696311D01*
X2891332Y-2698394D01*
X2887675Y-2699258D01*
X2882188Y-2699512D01*
X2872740Y-2701544D01*
X2863799Y-2705100D01*
X2855569Y-2710180D01*
X2848356Y-2716530D01*
X2842260Y-2724048D01*
X2837586Y-2732481D01*
X2834386Y-2741574D01*
X2832760Y-2751074D01*
X2832760Y-2760726D01*
X2834386Y-2770225D01*
X2837586Y-2779318D01*
X2842260Y-2787751D01*
X2848356Y-2795270D01*
X2855569Y-2801620D01*
X2863799Y-2806700D01*
X2872740Y-2810256D01*
X2882188Y-2812288D01*
X2892704Y-2812745D01*
X2896463Y-2813659D01*
X2899613Y-2815894D01*
X2901696Y-2819095D01*
X2904083Y-2833725D01*
X2907284Y-2842818D01*
X2911957Y-2851251D01*
X2918206Y-2858922D01*
X2919882Y-2861919D01*
X2920441Y-2865323D01*
X2920441Y-3053181D01*
X2919679Y-3057042D01*
X2917444Y-3060344D01*
X2768447Y-3209391D01*
X2764688Y-3211779D01*
X2760268Y-3212338D01*
X2756052Y-3210966D01*
X2752801Y-3207918D01*
X2749346Y-3202787D01*
X2742692Y-3195828D01*
X2734919Y-3190087D01*
X2726283Y-3185718D01*
X2717088Y-3182924D01*
X2707538Y-3181654D01*
X2697886Y-3182112D01*
X2688437Y-3184144D01*
X2679496Y-3187700D01*
X2671267Y-3192780D01*
X2664053Y-3199130D01*
X2657957Y-3206648D01*
X2653284Y-3215081D01*
X2650083Y-3224174D01*
X2648458Y-3233674D01*
X2648458Y-3236264D01*
X2647645Y-3240176D01*
X2645460Y-3243478D01*
X1966925Y-3922014D01*
X1961794Y-3928262D01*
X1958238Y-3934917D01*
X1956054Y-3942181D01*
X1954885Y-3954424D01*
X1952752Y-3958031D01*
X1949348Y-3960520D01*
X1945233Y-3961384D01*
X1800047Y-3961384D01*
X1795780Y-3960469D01*
X1792325Y-3957828D01*
X1790242Y-3953967D01*
X1790039Y-3949598D01*
X1791614Y-3945534D01*
X1794764Y-3942537D01*
X1798929Y-3941114D01*
X1801875Y-3940810D01*
X1807311Y-3938879D01*
X1812239Y-3935780D01*
X1816303Y-3931716D01*
X1819402Y-3926789D01*
X1821281Y-3921353D01*
X1821992Y-3915054D01*
X1821992Y-3781145D01*
X1821281Y-3774846D01*
X1819402Y-3769410D01*
X1816303Y-3764483D01*
X1812239Y-3760419D01*
X1807311Y-3757320D01*
X1801875Y-3755390D01*
X1795525Y-3754678D01*
X1774443Y-3754678D01*
X1770532Y-3753916D01*
X1767281Y-3751732D01*
X1765046Y-3748430D01*
X1764284Y-3744518D01*
X1764284Y-3732784D01*
X1763471Y-3724757D01*
X1761286Y-3717544D01*
X1757730Y-3710838D01*
X1752600Y-3704640D01*
X1704441Y-3656431D01*
X1702257Y-3653180D01*
X1701444Y-3649370D01*
X1702155Y-3645560D01*
X1704238Y-3642258D01*
X1714906Y-3630929D01*
X1723440Y-3619195D01*
X1730451Y-3606444D01*
X1735836Y-3592931D01*
X1739442Y-3578809D01*
X1741271Y-3564382D01*
X1741271Y-3549802D01*
X1739442Y-3535375D01*
X1735836Y-3521303D01*
X1730451Y-3507740D01*
X1723440Y-3494989D01*
X1714906Y-3483203D01*
X1704949Y-3472637D01*
X1693722Y-3463340D01*
X1681429Y-3455568D01*
X1668272Y-3449370D01*
X1654403Y-3444849D01*
X1640128Y-3442106D01*
X1625600Y-3441192D01*
X1611071Y-3442106D01*
X1596796Y-3444849D01*
X1582928Y-3449370D01*
X1569770Y-3455568D01*
X1557477Y-3463340D01*
X1546250Y-3472637D01*
X1536293Y-3483203D01*
X1527759Y-3494989D01*
X1520748Y-3507740D01*
X1515364Y-3521303D01*
X1511757Y-3535375D01*
X1509928Y-3549802D01*
X1509928Y-3564382D01*
X1511757Y-3578809D01*
X1515364Y-3592931D01*
X1520748Y-3606444D01*
X1527759Y-3619195D01*
X1536293Y-3630980D01*
X1546250Y-3641598D01*
X1557477Y-3650843D01*
X1569770Y-3658666D01*
X1582928Y-3664864D01*
X1596796Y-3669334D01*
X1607769Y-3671417D01*
X1610614Y-3672433D01*
X1613052Y-3674211D01*
X1676146Y-3737356D01*
X1678330Y-3740658D01*
X1679143Y-3744518D01*
X1678330Y-3748430D01*
X1676146Y-3751732D01*
X1672843Y-3753916D01*
X1668983Y-3754678D01*
X1655673Y-3754678D01*
X1649374Y-3755390D01*
X1643888Y-3757320D01*
X1639011Y-3760419D01*
X1634896Y-3764483D01*
X1631391Y-3768547D01*
X1627632Y-3770122D01*
X1623568Y-3770122D01*
X1619808Y-3768547D01*
X1616303Y-3764483D01*
X1612188Y-3760419D01*
X1607312Y-3757320D01*
X1601825Y-3755390D01*
X1595526Y-3754678D01*
X1567180Y-3754678D01*
X1567180Y-3808018D01*
X1619046Y-3808018D01*
X1622907Y-3808780D01*
X1626209Y-3810965D01*
X1628444Y-3814267D01*
X1629206Y-3818178D01*
X1629206Y-3878021D01*
X1628444Y-3881932D01*
X1626209Y-3885234D01*
X1622907Y-3887419D01*
X1619046Y-3888181D01*
X1567180Y-3888181D01*
X1567180Y-3951224D01*
X1566418Y-3955135D01*
X1564233Y-3958386D01*
X1560931Y-3960622D01*
X1557020Y-3961384D01*
X1494180Y-3961384D01*
X1490268Y-3960622D01*
X1486966Y-3958386D01*
X1484782Y-3955135D01*
X1484020Y-3951224D01*
X1484020Y-3888181D01*
X1429207Y-3888181D01*
X1429207Y-3915054D01*
X1429918Y-3921353D01*
X1431798Y-3926789D01*
X1434896Y-3931716D01*
X1438960Y-3935780D01*
X1443888Y-3938879D01*
X1449324Y-3940810D01*
X1452270Y-3941114D01*
X1456436Y-3942537D01*
X1459585Y-3945534D01*
X1461160Y-3949598D01*
X1460957Y-3953967D01*
X1458874Y-3957828D01*
X1455420Y-3960469D01*
X1451152Y-3961384D01*
G37*

%LPC*%
G36*
X7764272Y-3937508D02*
G01*
X7782610Y-3936085D01*
X7800644Y-3932834D01*
X7818272Y-3927703D01*
X7835290Y-3920744D01*
X7851495Y-3912108D01*
X7866735Y-3901897D01*
X7880858Y-3890111D01*
X7893659Y-3876954D01*
X7905089Y-3862578D01*
X7914944Y-3847084D01*
X7923174Y-3830624D01*
X7929625Y-3813454D01*
X7934299Y-3795674D01*
X7937144Y-3777538D01*
X7938058Y-3759200D01*
X7937144Y-3740861D01*
X7934299Y-3722725D01*
X7929625Y-3704945D01*
X7923174Y-3687775D01*
X7914944Y-3671315D01*
X7905089Y-3655822D01*
X7893659Y-3641445D01*
X7880858Y-3628288D01*
X7866735Y-3616502D01*
X7851495Y-3606241D01*
X7835290Y-3597605D01*
X7818272Y-3590696D01*
X7800644Y-3585565D01*
X7782610Y-3582263D01*
X7764272Y-3580841D01*
X7745933Y-3581349D01*
X7727696Y-3583686D01*
X7709814Y-3587902D01*
X7692491Y-3593947D01*
X7675829Y-3601720D01*
X7660081Y-3611168D01*
X7645400Y-3622192D01*
X7631938Y-3634689D01*
X7619796Y-3648456D01*
X7609179Y-3663442D01*
X7600137Y-3679444D01*
X7592771Y-3696258D01*
X7587183Y-3713784D01*
X7583424Y-3731717D01*
X7581544Y-3750005D01*
X7581544Y-3768394D01*
X7583424Y-3786632D01*
X7587183Y-3804615D01*
X7592771Y-3822141D01*
X7600137Y-3838956D01*
X7609179Y-3854958D01*
X7619796Y-3869893D01*
X7631938Y-3883710D01*
X7645400Y-3896156D01*
X7660081Y-3907180D01*
X7675829Y-3916679D01*
X7692491Y-3924452D01*
X7709814Y-3930497D01*
X7727696Y-3934714D01*
X7745933Y-3937050D01*
G37*
G36*
X5649518Y-3927348D02*
G01*
X5805881Y-3927348D01*
X5812180Y-3926636D01*
X5817666Y-3924706D01*
X5822543Y-3921658D01*
X5826658Y-3917543D01*
X5829706Y-3912666D01*
X5831636Y-3907180D01*
X5832348Y-3900881D01*
X5832348Y-3744518D01*
X5831636Y-3738219D01*
X5829706Y-3732733D01*
X5826658Y-3727856D01*
X5822543Y-3723741D01*
X5817666Y-3720693D01*
X5812180Y-3718763D01*
X5805881Y-3718051D01*
X5649518Y-3718051D01*
X5643219Y-3718763D01*
X5637733Y-3720693D01*
X5632856Y-3723741D01*
X5628741Y-3727856D01*
X5625693Y-3732733D01*
X5623763Y-3738219D01*
X5623052Y-3744518D01*
X5623052Y-3900881D01*
X5623763Y-3907180D01*
X5625693Y-3912666D01*
X5628741Y-3917543D01*
X5632856Y-3921658D01*
X5637733Y-3924706D01*
X5643219Y-3926636D01*
G37*
G36*
X5103418Y-3927348D02*
G01*
X5259781Y-3927348D01*
X5266080Y-3926636D01*
X5271566Y-3924706D01*
X5276443Y-3921658D01*
X5280558Y-3917543D01*
X5283606Y-3912666D01*
X5285536Y-3907180D01*
X5286248Y-3900881D01*
X5286248Y-3744518D01*
X5285536Y-3738219D01*
X5283606Y-3732733D01*
X5280558Y-3727856D01*
X5276443Y-3723741D01*
X5271566Y-3720693D01*
X5266080Y-3718763D01*
X5259781Y-3718051D01*
X5103418Y-3718051D01*
X5097119Y-3718763D01*
X5091633Y-3720693D01*
X5086756Y-3723741D01*
X5082641Y-3727856D01*
X5079593Y-3732733D01*
X5077663Y-3738219D01*
X5076952Y-3744518D01*
X5076952Y-3900881D01*
X5077663Y-3907180D01*
X5079593Y-3912666D01*
X5082641Y-3917543D01*
X5086756Y-3921658D01*
X5091633Y-3924706D01*
X5097119Y-3926636D01*
G37*
G36*
X258571Y-3923842D02*
G01*
X276758Y-3922420D01*
X294741Y-3919169D01*
X312267Y-3914038D01*
X329184Y-3907180D01*
X345338Y-3898595D01*
X360476Y-3888384D01*
X374497Y-3876700D01*
X387248Y-3863594D01*
X398576Y-3849268D01*
X408381Y-3833876D01*
X416559Y-3817518D01*
X423011Y-3800449D01*
X427634Y-3782771D01*
X430479Y-3764737D01*
X431393Y-3746500D01*
X430479Y-3728262D01*
X427634Y-3710228D01*
X423011Y-3692550D01*
X416559Y-3675481D01*
X408381Y-3659124D01*
X398576Y-3643731D01*
X387248Y-3629406D01*
X374497Y-3616299D01*
X360476Y-3604615D01*
X345338Y-3594404D01*
X329184Y-3585819D01*
X312267Y-3578961D01*
X294741Y-3573830D01*
X276758Y-3570579D01*
X258571Y-3569157D01*
X240334Y-3569614D01*
X222199Y-3572001D01*
X204419Y-3576167D01*
X187147Y-3582162D01*
X170637Y-3589934D01*
X154990Y-3599332D01*
X140360Y-3610305D01*
X126949Y-3622700D01*
X114909Y-3636416D01*
X104343Y-3651300D01*
X95300Y-3667201D01*
X87985Y-3683914D01*
X82448Y-3701338D01*
X78740Y-3719220D01*
X76860Y-3737356D01*
X76860Y-3755644D01*
X78740Y-3773779D01*
X82448Y-3791661D01*
X87985Y-3809085D01*
X95300Y-3825798D01*
X104343Y-3841699D01*
X114909Y-3856583D01*
X126949Y-3870299D01*
X140360Y-3882694D01*
X154990Y-3893667D01*
X170637Y-3903065D01*
X187147Y-3910837D01*
X204419Y-3916832D01*
X222199Y-3920998D01*
X240334Y-3923385D01*
G37*
G36*
X1429207Y-3808018D02*
G01*
X1484020Y-3808018D01*
X1484020Y-3754678D01*
X1455674Y-3754678D01*
X1449324Y-3755390D01*
X1443888Y-3757320D01*
X1438960Y-3760419D01*
X1434896Y-3764483D01*
X1431798Y-3769410D01*
X1429918Y-3774846D01*
X1429207Y-3781145D01*
G37*
G36*
X7601813Y-3262071D02*
G01*
X7614005Y-3261207D01*
X7625994Y-3258616D01*
X7637475Y-3254298D01*
X7648244Y-3248456D01*
X7658049Y-3241090D01*
X7666685Y-3232454D01*
X7674051Y-3222650D01*
X7679944Y-3211880D01*
X7684211Y-3200400D01*
X7686802Y-3188411D01*
X7687665Y-3176219D01*
X7686802Y-3163976D01*
X7684211Y-3151987D01*
X7679944Y-3140506D01*
X7674051Y-3129788D01*
X7666685Y-3119983D01*
X7658049Y-3111296D01*
X7648244Y-3103930D01*
X7637475Y-3098088D01*
X7625994Y-3093770D01*
X7614005Y-3091180D01*
X7601813Y-3090316D01*
X7589570Y-3091180D01*
X7577581Y-3093770D01*
X7566101Y-3098088D01*
X7555382Y-3103930D01*
X7545578Y-3111296D01*
X7536891Y-3119983D01*
X7529525Y-3129788D01*
X7523683Y-3140506D01*
X7519416Y-3151987D01*
X7516774Y-3163976D01*
X7515910Y-3176219D01*
X7516774Y-3188411D01*
X7519416Y-3200400D01*
X7523683Y-3211880D01*
X7529525Y-3222650D01*
X7536891Y-3232454D01*
X7545578Y-3241090D01*
X7555382Y-3248456D01*
X7566101Y-3254298D01*
X7577581Y-3258616D01*
X7589570Y-3261207D01*
G37*
G36*
X1625600Y-3185007D02*
G01*
X1640128Y-3184093D01*
X1654403Y-3181350D01*
X1668272Y-3176828D01*
X1681429Y-3170631D01*
X1693722Y-3162858D01*
X1704949Y-3153562D01*
X1714906Y-3142945D01*
X1723440Y-3131210D01*
X1730451Y-3118459D01*
X1735836Y-3104896D01*
X1739442Y-3090824D01*
X1741271Y-3076397D01*
X1741271Y-3061817D01*
X1739442Y-3047390D01*
X1735836Y-3033268D01*
X1732635Y-3025292D01*
X1731924Y-3021482D01*
X1732737Y-3017621D01*
X1734921Y-3014370D01*
X1752549Y-2996742D01*
X1757680Y-2990545D01*
X1761236Y-2983839D01*
X1763420Y-2976626D01*
X1764233Y-2968599D01*
X1764233Y-2897581D01*
X1764995Y-2893669D01*
X1767179Y-2890367D01*
X1770481Y-2888183D01*
X1774393Y-2887421D01*
X1795525Y-2887421D01*
X1801875Y-2886710D01*
X1807311Y-2884779D01*
X1812239Y-2881680D01*
X1816303Y-2877616D01*
X1819402Y-2872689D01*
X1821281Y-2867253D01*
X1821992Y-2860954D01*
X1821992Y-2727045D01*
X1821281Y-2720746D01*
X1819402Y-2715310D01*
X1816303Y-2710383D01*
X1812239Y-2706319D01*
X1807311Y-2703220D01*
X1801875Y-2701290D01*
X1795525Y-2700578D01*
X1655673Y-2700578D01*
X1649374Y-2701290D01*
X1643888Y-2703220D01*
X1639011Y-2706319D01*
X1634896Y-2710383D01*
X1631391Y-2714447D01*
X1627632Y-2716022D01*
X1623568Y-2716022D01*
X1619808Y-2714447D01*
X1616303Y-2710383D01*
X1612188Y-2706319D01*
X1607312Y-2703220D01*
X1601825Y-2701290D01*
X1595526Y-2700578D01*
X1567180Y-2700578D01*
X1567180Y-2753918D01*
X1619046Y-2753918D01*
X1622907Y-2754680D01*
X1626209Y-2756865D01*
X1628444Y-2760167D01*
X1629206Y-2764078D01*
X1629206Y-2823921D01*
X1628444Y-2827832D01*
X1626209Y-2831134D01*
X1622907Y-2833319D01*
X1619046Y-2834081D01*
X1567180Y-2834081D01*
X1567180Y-2887421D01*
X1595526Y-2887421D01*
X1601825Y-2886710D01*
X1607312Y-2884779D01*
X1612188Y-2881680D01*
X1616303Y-2877616D01*
X1619808Y-2873552D01*
X1623568Y-2871978D01*
X1627632Y-2871978D01*
X1631391Y-2873552D01*
X1634896Y-2877616D01*
X1639011Y-2881680D01*
X1643888Y-2884779D01*
X1649374Y-2886710D01*
X1655673Y-2887421D01*
X1676857Y-2887421D01*
X1680718Y-2888183D01*
X1684020Y-2890367D01*
X1686204Y-2893669D01*
X1687017Y-2897581D01*
X1687017Y-2948889D01*
X1686204Y-2952800D01*
X1684020Y-2956102D01*
X1680464Y-2959658D01*
X1677009Y-2961944D01*
X1672945Y-2962605D01*
X1668272Y-2961335D01*
X1654403Y-2956864D01*
X1640128Y-2954121D01*
X1625600Y-2953207D01*
X1611071Y-2954121D01*
X1596796Y-2956864D01*
X1582928Y-2961335D01*
X1569770Y-2967532D01*
X1557477Y-2975356D01*
X1546250Y-2984601D01*
X1536293Y-2995218D01*
X1527759Y-3007004D01*
X1520748Y-3019755D01*
X1515364Y-3033268D01*
X1511757Y-3047390D01*
X1509928Y-3061817D01*
X1509928Y-3076397D01*
X1511757Y-3090824D01*
X1515364Y-3104896D01*
X1520748Y-3118459D01*
X1527759Y-3131210D01*
X1536293Y-3142945D01*
X1546250Y-3153562D01*
X1557477Y-3162858D01*
X1569770Y-3170631D01*
X1582928Y-3176828D01*
X1596796Y-3181350D01*
X1611071Y-3184093D01*
G37*
G36*
X304800Y-3165348D02*
G01*
X318465Y-3164433D01*
X331876Y-3161741D01*
X344830Y-3157372D01*
X357124Y-3151327D01*
X368503Y-3143707D01*
X378764Y-3134664D01*
X387807Y-3124403D01*
X395427Y-3113024D01*
X401472Y-3100730D01*
X405841Y-3087776D01*
X408533Y-3074365D01*
X409448Y-3060700D01*
X408533Y-3047034D01*
X405841Y-3033623D01*
X401472Y-3020669D01*
X395427Y-3008376D01*
X387807Y-2996996D01*
X378764Y-2986735D01*
X368503Y-2977692D01*
X357124Y-2970072D01*
X344830Y-2964027D01*
X331876Y-2959658D01*
X318465Y-2956966D01*
X304800Y-2956052D01*
X291134Y-2956966D01*
X277723Y-2959658D01*
X264769Y-2964027D01*
X252475Y-2970072D01*
X241096Y-2977692D01*
X230835Y-2986735D01*
X221792Y-2996996D01*
X214172Y-3008376D01*
X208127Y-3020669D01*
X203758Y-3033623D01*
X201066Y-3047034D01*
X200152Y-3060700D01*
X201066Y-3074365D01*
X203758Y-3087776D01*
X208127Y-3100730D01*
X214172Y-3113024D01*
X221792Y-3124403D01*
X230835Y-3134664D01*
X241096Y-3143707D01*
X252475Y-3151327D01*
X264769Y-3157372D01*
X277723Y-3161741D01*
X291134Y-3164433D01*
G37*
G36*
X2110638Y-2939745D02*
G01*
X2120188Y-2938475D01*
X2129383Y-2935681D01*
X2138019Y-2931312D01*
X2145792Y-2925572D01*
X2152446Y-2918612D01*
X2157831Y-2910636D01*
X2161844Y-2901848D01*
X2164232Y-2892501D01*
X2165096Y-2882900D01*
X2164232Y-2873298D01*
X2161844Y-2863951D01*
X2157831Y-2855163D01*
X2152904Y-2847848D01*
X2151329Y-2843885D01*
X2151481Y-2839618D01*
X2153412Y-2835757D01*
X2156764Y-2833065D01*
X2163419Y-2829712D01*
X2171192Y-2823972D01*
X2177846Y-2817012D01*
X2183231Y-2809036D01*
X2187244Y-2800248D01*
X2189632Y-2790901D01*
X2190496Y-2781300D01*
X2189683Y-2772156D01*
X2190089Y-2768396D01*
X2191816Y-2765044D01*
X2194661Y-2762554D01*
X2198166Y-2761284D01*
X2212238Y-2761945D01*
X2221788Y-2760675D01*
X2230983Y-2757881D01*
X2239619Y-2753512D01*
X2247392Y-2747772D01*
X2254046Y-2740812D01*
X2259431Y-2732836D01*
X2263444Y-2724048D01*
X2265832Y-2714701D01*
X2266696Y-2705100D01*
X2265832Y-2695498D01*
X2263952Y-2688234D01*
X2263749Y-2684322D01*
X2264968Y-2680614D01*
X2267559Y-2677668D01*
X2271064Y-2675890D01*
X2274976Y-2675585D01*
X2278684Y-2676753D01*
X2281682Y-2679293D01*
X2283053Y-2680970D01*
X2290267Y-2687320D01*
X2298496Y-2692400D01*
X2307437Y-2695956D01*
X2316886Y-2697988D01*
X2326538Y-2698445D01*
X2336088Y-2697175D01*
X2345283Y-2694381D01*
X2353919Y-2690012D01*
X2365908Y-2681071D01*
X2369870Y-2680258D01*
X2818892Y-2680258D01*
X2826918Y-2679446D01*
X2834182Y-2677261D01*
X2840837Y-2673705D01*
X2847086Y-2668574D01*
X4700574Y-815086D01*
X4705705Y-808837D01*
X4709261Y-802182D01*
X4711446Y-794918D01*
X4712258Y-786892D01*
X4712258Y-680618D01*
X4713020Y-676757D01*
X4715256Y-673455D01*
X5046726Y-341934D01*
X5049824Y-339801D01*
X5053482Y-338988D01*
X5057190Y-339496D01*
X5065623Y-342341D01*
X5079034Y-345033D01*
X5092700Y-345948D01*
X5106365Y-345033D01*
X5119776Y-342341D01*
X5132730Y-337972D01*
X5145024Y-331927D01*
X5156403Y-324307D01*
X5166664Y-315264D01*
X5175707Y-305003D01*
X5183327Y-293624D01*
X5189372Y-281330D01*
X5193741Y-268376D01*
X5196433Y-254965D01*
X5197348Y-241300D01*
X5196433Y-227634D01*
X5193741Y-214223D01*
X5189372Y-201269D01*
X5183327Y-188976D01*
X5175707Y-177596D01*
X5166664Y-167335D01*
X5156403Y-158292D01*
X5145024Y-150672D01*
X5132730Y-144627D01*
X5119776Y-140258D01*
X5106365Y-137566D01*
X5092700Y-136652D01*
X5079034Y-137566D01*
X5065623Y-140258D01*
X5052669Y-144627D01*
X5040376Y-150672D01*
X5028996Y-158292D01*
X5018735Y-167335D01*
X5009692Y-177596D01*
X5002072Y-188976D01*
X4996027Y-201269D01*
X4991658Y-214223D01*
X4988966Y-227634D01*
X4988052Y-241300D01*
X4988966Y-254965D01*
X4991658Y-268376D01*
X4994503Y-276809D01*
X4995011Y-280517D01*
X4994198Y-284175D01*
X4992065Y-287274D01*
X4646625Y-632714D01*
X4641494Y-638962D01*
X4637938Y-645617D01*
X4635754Y-652881D01*
X4634941Y-660908D01*
X4634941Y-767181D01*
X4634179Y-771042D01*
X4631944Y-774344D01*
X2806344Y-2599944D01*
X2803042Y-2602179D01*
X2799181Y-2602941D01*
X2369870Y-2602941D01*
X2365908Y-2602128D01*
X2353919Y-2593187D01*
X2345283Y-2588818D01*
X2336088Y-2586024D01*
X2326538Y-2584754D01*
X2316886Y-2585212D01*
X2307437Y-2587244D01*
X2298496Y-2590800D01*
X2290267Y-2595880D01*
X2283053Y-2602230D01*
X2276957Y-2609748D01*
X2272284Y-2618181D01*
X2269083Y-2627274D01*
X2267458Y-2636774D01*
X2267458Y-2646426D01*
X2269083Y-2655925D01*
X2269642Y-2657602D01*
X2270201Y-2661462D01*
X2269286Y-2665272D01*
X2266950Y-2668422D01*
X2263648Y-2670505D01*
X2259736Y-2671114D01*
X2255926Y-2670251D01*
X2252726Y-2668016D01*
X2247392Y-2662428D01*
X2239619Y-2656687D01*
X2230983Y-2652318D01*
X2221788Y-2649524D01*
X2208123Y-2647594D01*
X2204669Y-2645308D01*
X1784350Y-2224989D01*
X1782165Y-2221687D01*
X1781403Y-2217826D01*
X1782165Y-2213914D01*
X1784350Y-2210612D01*
X1787652Y-2208428D01*
X1791563Y-2207666D01*
X2300579Y-2207615D01*
X2309825Y-2206345D01*
X2318359Y-2203450D01*
X2326182Y-2199132D01*
X2333447Y-2193086D01*
X2596235Y-1930247D01*
X2599893Y-1927910D01*
X2604211Y-1927301D01*
X2608326Y-1928520D01*
X2617673Y-1933651D01*
X2631186Y-1939036D01*
X2645308Y-1942642D01*
X2659735Y-1944471D01*
X2674264Y-1944471D01*
X2688691Y-1942642D01*
X2702814Y-1939036D01*
X2716326Y-1933651D01*
X2729077Y-1926640D01*
X2740863Y-1918106D01*
X2751480Y-1908149D01*
X2760776Y-1896922D01*
X2768549Y-1884629D01*
X2774746Y-1871472D01*
X2779268Y-1857603D01*
X2781960Y-1843328D01*
X2782874Y-1828800D01*
X2782468Y-1822348D01*
X2783027Y-1818335D01*
X2785160Y-1814830D01*
X2788462Y-1812442D01*
X2792425Y-1811528D01*
X2796387Y-1812289D01*
X2799791Y-1814525D01*
X2802382Y-1817116D01*
X2804718Y-1820722D01*
X2805379Y-1824939D01*
X2805125Y-1828800D01*
X2806039Y-1843328D01*
X2808732Y-1857603D01*
X2813253Y-1871472D01*
X2819450Y-1884629D01*
X2827223Y-1896922D01*
X2836519Y-1908149D01*
X2847136Y-1918106D01*
X2858922Y-1926640D01*
X2871673Y-1933651D01*
X2885186Y-1939036D01*
X2899308Y-1942642D01*
X2913735Y-1944471D01*
X2928264Y-1944471D01*
X2942691Y-1942642D01*
X2956814Y-1939036D01*
X2970326Y-1933651D01*
X2983077Y-1926640D01*
X2994863Y-1918106D01*
X3005480Y-1908149D01*
X3014776Y-1896922D01*
X3022549Y-1884629D01*
X3028746Y-1871472D01*
X3033268Y-1857603D01*
X3035960Y-1843328D01*
X3036874Y-1828800D01*
X3035960Y-1814271D01*
X3033268Y-1799996D01*
X3028746Y-1786128D01*
X3022549Y-1772970D01*
X3014776Y-1760677D01*
X3005480Y-1749450D01*
X2994863Y-1739493D01*
X2983077Y-1730959D01*
X2970326Y-1723948D01*
X2956814Y-1718564D01*
X2942691Y-1714957D01*
X2928264Y-1713128D01*
X2913735Y-1713128D01*
X2899308Y-1714957D01*
X2885186Y-1718564D01*
X2871673Y-1723948D01*
X2862326Y-1729079D01*
X2858211Y-1730298D01*
X2853893Y-1729689D01*
X2850235Y-1727352D01*
X2534920Y-1412087D01*
X2527503Y-1406448D01*
X2519476Y-1402486D01*
X2510840Y-1399997D01*
X2501442Y-1399133D01*
X1514856Y-1399133D01*
X1510538Y-1398168D01*
X1504137Y-1395222D01*
X1500073Y-1394104D01*
X1496161Y-1392072D01*
X1493469Y-1388618D01*
X1492554Y-1384300D01*
X1493469Y-1379982D01*
X1496161Y-1376527D01*
X1500073Y-1374495D01*
X1504137Y-1373378D01*
X1510538Y-1370431D01*
X1514856Y-1369466D01*
X2694279Y-1369415D01*
X2703525Y-1368145D01*
X2712059Y-1365250D01*
X2719882Y-1360932D01*
X2727147Y-1354886D01*
X3312312Y-769620D01*
X3317951Y-762203D01*
X3321913Y-754176D01*
X3324402Y-745540D01*
X3325266Y-736142D01*
X3325215Y-468020D01*
X3323945Y-458774D01*
X3321050Y-450240D01*
X3316732Y-442417D01*
X3310686Y-435152D01*
X3208020Y-332587D01*
X3200603Y-326948D01*
X3192576Y-322986D01*
X3183940Y-320497D01*
X3174542Y-319633D01*
X2375154Y-319633D01*
X2370429Y-319836D01*
X2365959Y-320497D01*
X2361590Y-321513D01*
X2357323Y-322935D01*
X2353208Y-324764D01*
X2349296Y-326948D01*
X2345588Y-329488D01*
X2342134Y-332333D01*
X2338933Y-335534D01*
X2336088Y-338988D01*
X2333548Y-342696D01*
X2331364Y-346608D01*
X2329535Y-350723D01*
X2328113Y-354990D01*
X2327097Y-359359D01*
X2326436Y-363829D01*
X2326233Y-368554D01*
X2326233Y-478586D01*
X2325624Y-481990D01*
X2323896Y-485038D01*
X2319223Y-490677D01*
X2311450Y-502970D01*
X2305253Y-516128D01*
X2300732Y-529996D01*
X2298039Y-544271D01*
X2297125Y-558800D01*
X2298039Y-573328D01*
X2300732Y-587603D01*
X2305253Y-601472D01*
X2311450Y-614629D01*
X2319223Y-626922D01*
X2328519Y-638149D01*
X2339136Y-648106D01*
X2350922Y-656640D01*
X2363673Y-663651D01*
X2377186Y-669036D01*
X2391308Y-672642D01*
X2405735Y-674471D01*
X2420264Y-674471D01*
X2434691Y-672642D01*
X2448814Y-669036D01*
X2462326Y-663651D01*
X2475077Y-656640D01*
X2486863Y-648106D01*
X2497480Y-638149D01*
X2506776Y-626922D01*
X2514549Y-614629D01*
X2520746Y-601472D01*
X2525268Y-587603D01*
X2527960Y-573328D01*
X2528874Y-558800D01*
X2527960Y-544271D01*
X2525268Y-529996D01*
X2520746Y-516128D01*
X2514549Y-502970D01*
X2506776Y-490677D01*
X2497480Y-479450D01*
X2486863Y-469493D01*
X2475077Y-460959D01*
X2462326Y-453948D01*
X2448814Y-448564D01*
X2434691Y-444957D01*
X2432456Y-444703D01*
X2428951Y-443585D01*
X2426106Y-441299D01*
X2424226Y-438200D01*
X2423566Y-434593D01*
X2423566Y-427126D01*
X2424328Y-423214D01*
X2426512Y-419912D01*
X2429814Y-417728D01*
X2433726Y-416966D01*
X3150616Y-416966D01*
X3154527Y-417728D01*
X3157829Y-419912D01*
X3164890Y-426974D01*
X3167278Y-430784D01*
X3167786Y-435254D01*
X3166313Y-439521D01*
X3163163Y-442722D01*
X3158947Y-444246D01*
X3153308Y-444957D01*
X3139186Y-448564D01*
X3125673Y-453948D01*
X3112922Y-460959D01*
X3101136Y-469493D01*
X3090519Y-479450D01*
X3081223Y-490677D01*
X3073450Y-502970D01*
X3067253Y-516128D01*
X3062732Y-529996D01*
X3060039Y-544271D01*
X3059125Y-558800D01*
X3060039Y-573328D01*
X3062732Y-587603D01*
X3067253Y-601472D01*
X3073450Y-614629D01*
X3081223Y-626922D01*
X3085896Y-632561D01*
X3087624Y-635609D01*
X3088233Y-639013D01*
X3088233Y-674116D01*
X3087471Y-678027D01*
X3085287Y-681329D01*
X2980029Y-786587D01*
X2976727Y-788771D01*
X2972816Y-789533D01*
X1542084Y-789533D01*
X1538884Y-789025D01*
X1535988Y-787552D01*
X1533753Y-785215D01*
X1527860Y-776833D01*
X1520952Y-769924D01*
X1512976Y-764336D01*
X1504137Y-760222D01*
X1494739Y-757682D01*
X1484579Y-756767D01*
X1348536Y-756767D01*
X1338376Y-757682D01*
X1328978Y-760222D01*
X1320139Y-764336D01*
X1312113Y-769924D01*
X1305204Y-776833D01*
X1299616Y-784809D01*
X1295501Y-793648D01*
X1292961Y-803097D01*
X1292148Y-812800D01*
X1292961Y-822502D01*
X1295501Y-831951D01*
X1299616Y-840790D01*
X1305204Y-848766D01*
X1312113Y-855675D01*
X1320139Y-861263D01*
X1328978Y-865378D01*
X1333042Y-866495D01*
X1336954Y-868527D01*
X1339596Y-871982D01*
X1340561Y-876300D01*
X1339596Y-880618D01*
X1336954Y-884072D01*
X1333042Y-886104D01*
X1328978Y-887221D01*
X1322578Y-890168D01*
X1318260Y-891133D01*
X1157986Y-891133D01*
X1154125Y-890371D01*
X1150823Y-888187D01*
X1148588Y-884885D01*
X1147826Y-880973D01*
X1148588Y-877112D01*
X1150823Y-873810D01*
X1541170Y-483412D01*
X1544472Y-481228D01*
X1548384Y-480466D01*
X1799234Y-480466D01*
X1803450Y-481380D01*
X1806905Y-483971D01*
X1808988Y-487730D01*
X1809292Y-491998D01*
X1807819Y-496062D01*
X1803450Y-502970D01*
X1797253Y-516128D01*
X1792732Y-529996D01*
X1790039Y-544271D01*
X1789125Y-558800D01*
X1790039Y-573328D01*
X1792732Y-587603D01*
X1797253Y-601472D01*
X1803450Y-614629D01*
X1811223Y-626922D01*
X1820519Y-638149D01*
X1831136Y-648106D01*
X1842922Y-656640D01*
X1855673Y-663651D01*
X1869186Y-669036D01*
X1883308Y-672642D01*
X1897735Y-674471D01*
X1912264Y-674471D01*
X1926691Y-672642D01*
X1940814Y-669036D01*
X1954326Y-663651D01*
X1967077Y-656640D01*
X1978863Y-648106D01*
X1989480Y-638149D01*
X1998776Y-626922D01*
X2006549Y-614629D01*
X2012746Y-601472D01*
X2017268Y-587603D01*
X2019960Y-573328D01*
X2020874Y-558800D01*
X2019960Y-544271D01*
X2017268Y-529996D01*
X2012746Y-516128D01*
X2006549Y-502970D01*
X2002180Y-496062D01*
X2000707Y-491998D01*
X2001012Y-487730D01*
X2003094Y-483971D01*
X2006549Y-481380D01*
X2010765Y-480466D01*
X2033016Y-480466D01*
X2036927Y-481228D01*
X2040229Y-483412D01*
X2053132Y-496366D01*
X2055418Y-499770D01*
X2056130Y-503834D01*
X2055164Y-507847D01*
X2051253Y-516128D01*
X2046732Y-529996D01*
X2044039Y-544271D01*
X2043125Y-558800D01*
X2044039Y-573328D01*
X2046732Y-587603D01*
X2051253Y-601472D01*
X2057450Y-614629D01*
X2065223Y-626922D01*
X2074519Y-638149D01*
X2085136Y-648106D01*
X2096922Y-656640D01*
X2109673Y-663651D01*
X2123186Y-669036D01*
X2137308Y-672642D01*
X2151735Y-674471D01*
X2166264Y-674471D01*
X2180691Y-672642D01*
X2194814Y-669036D01*
X2208326Y-663651D01*
X2221077Y-656640D01*
X2232863Y-648106D01*
X2243480Y-638149D01*
X2252776Y-626922D01*
X2260549Y-614629D01*
X2266746Y-601472D01*
X2271268Y-587603D01*
X2273960Y-573328D01*
X2274874Y-558800D01*
X2273960Y-544271D01*
X2271268Y-529996D01*
X2266746Y-516128D01*
X2260549Y-502970D01*
X2252776Y-490677D01*
X2243480Y-479450D01*
X2232863Y-469493D01*
X2221077Y-460959D01*
X2208326Y-453948D01*
X2194814Y-448564D01*
X2180691Y-444957D01*
X2166264Y-443128D01*
X2151735Y-443128D01*
X2144064Y-444093D01*
X2141016Y-444042D01*
X2138121Y-443026D01*
X2135632Y-441198D01*
X2090420Y-396087D01*
X2083003Y-390448D01*
X2074976Y-386486D01*
X2066340Y-383997D01*
X2056942Y-383133D01*
X1522120Y-383184D01*
X1512874Y-384454D01*
X1504340Y-387350D01*
X1496517Y-391668D01*
X1489252Y-397713D01*
X998829Y-888187D01*
X995527Y-890371D01*
X991616Y-891133D01*
X967740Y-891133D01*
X963421Y-890168D01*
X957021Y-887221D01*
X952957Y-886104D01*
X949045Y-884072D01*
X946403Y-880618D01*
X945438Y-876300D01*
X946403Y-871982D01*
X949045Y-868527D01*
X952957Y-866495D01*
X957021Y-865378D01*
X965860Y-861263D01*
X973886Y-855675D01*
X980795Y-848766D01*
X986383Y-840790D01*
X990498Y-831951D01*
X993038Y-822502D01*
X993851Y-812800D01*
X993038Y-803097D01*
X990498Y-793648D01*
X986383Y-784809D01*
X980795Y-776833D01*
X973886Y-769924D01*
X965860Y-764336D01*
X957021Y-760222D01*
X947623Y-757682D01*
X937463Y-756767D01*
X801420Y-756767D01*
X791260Y-757682D01*
X781862Y-760222D01*
X773023Y-764336D01*
X765048Y-769924D01*
X763168Y-771753D01*
X760374Y-773734D01*
X757021Y-774700D01*
X754481Y-774954D01*
X747217Y-777138D01*
X740562Y-780694D01*
X734314Y-785825D01*
X671525Y-848614D01*
X666394Y-854862D01*
X662838Y-861517D01*
X660654Y-868781D01*
X659841Y-876808D01*
X659841Y-1000760D01*
X660654Y-1008786D01*
X662533Y-1015034D01*
X662940Y-1018794D01*
X661924Y-1022400D01*
X659688Y-1025448D01*
X656488Y-1027430D01*
X652780Y-1028141D01*
X635508Y-1028141D01*
X627481Y-1028953D01*
X620217Y-1031138D01*
X613562Y-1034694D01*
X607720Y-1039520D01*
X602894Y-1045362D01*
X599338Y-1052017D01*
X597154Y-1059281D01*
X596341Y-1067308D01*
X596341Y-2399792D01*
X597154Y-2407818D01*
X599338Y-2415082D01*
X602894Y-2421737D01*
X608025Y-2427986D01*
X620014Y-2439974D01*
X626262Y-2445105D01*
X632917Y-2448661D01*
X640181Y-2450846D01*
X648208Y-2451658D01*
X1618081Y-2451658D01*
X1621942Y-2452420D01*
X1625244Y-2454656D01*
X2048560Y-2877921D01*
X2050745Y-2881223D01*
X2051557Y-2885135D01*
X2051557Y-2887726D01*
X2053183Y-2897225D01*
X2056384Y-2906318D01*
X2061057Y-2914751D01*
X2067153Y-2922270D01*
X2074367Y-2928620D01*
X2082596Y-2933700D01*
X2091537Y-2937256D01*
X2100986Y-2939288D01*
G37*
G36*
X259079Y-2900578D02*
G01*
X259079Y-2852420D01*
X210921Y-2852420D01*
X214172Y-2859024D01*
X221792Y-2870403D01*
X230835Y-2880664D01*
X241096Y-2889707D01*
X252475Y-2897327D01*
G37*
G36*
X350520Y-2900578D02*
G01*
X357124Y-2897327D01*
X368503Y-2889707D01*
X378764Y-2880664D01*
X387807Y-2870403D01*
X395427Y-2859024D01*
X398678Y-2852420D01*
X350520Y-2852420D01*
G37*
G36*
X1455674Y-2887421D02*
G01*
X1484020Y-2887421D01*
X1484020Y-2834081D01*
X1429207Y-2834081D01*
X1429207Y-2860954D01*
X1429918Y-2867253D01*
X1431798Y-2872689D01*
X1434896Y-2877616D01*
X1438960Y-2881680D01*
X1443888Y-2884779D01*
X1449324Y-2886710D01*
G37*
G36*
X7601813Y-2777083D02*
G01*
X7614005Y-2776220D01*
X7625994Y-2773629D01*
X7637475Y-2769311D01*
X7648244Y-2763469D01*
X7658049Y-2756103D01*
X7666685Y-2747467D01*
X7674051Y-2737612D01*
X7679944Y-2726893D01*
X7684211Y-2715412D01*
X7686802Y-2703423D01*
X7687665Y-2691180D01*
X7686802Y-2678988D01*
X7684211Y-2667000D01*
X7679944Y-2655519D01*
X7674051Y-2644749D01*
X7666685Y-2634945D01*
X7658049Y-2626309D01*
X7648244Y-2618943D01*
X7637475Y-2613101D01*
X7625994Y-2608783D01*
X7614005Y-2606192D01*
X7601813Y-2605328D01*
X7589570Y-2606192D01*
X7577581Y-2608783D01*
X7566101Y-2613101D01*
X7555382Y-2618943D01*
X7545578Y-2626309D01*
X7536891Y-2634945D01*
X7529525Y-2644749D01*
X7523683Y-2655519D01*
X7519416Y-2667000D01*
X7516774Y-2678988D01*
X7515910Y-2691180D01*
X7516774Y-2703423D01*
X7519416Y-2715412D01*
X7523683Y-2726893D01*
X7529525Y-2737612D01*
X7536891Y-2747467D01*
X7545578Y-2756103D01*
X7555382Y-2763469D01*
X7566101Y-2769311D01*
X7577581Y-2773629D01*
X7589570Y-2776220D01*
G37*
G36*
X350520Y-2760980D02*
G01*
X398678Y-2760980D01*
X395427Y-2754376D01*
X387807Y-2742996D01*
X378764Y-2732735D01*
X368503Y-2723692D01*
X357124Y-2716072D01*
X350520Y-2712821D01*
G37*
G36*
X210921Y-2760980D02*
G01*
X259079Y-2760980D01*
X259079Y-2712821D01*
X252475Y-2716072D01*
X241096Y-2723692D01*
X230835Y-2732735D01*
X221792Y-2742996D01*
X214172Y-2754376D01*
G37*
G36*
X1429207Y-2753918D02*
G01*
X1484020Y-2753918D01*
X1484020Y-2700578D01*
X1455674Y-2700578D01*
X1449324Y-2701290D01*
X1443888Y-2703220D01*
X1438960Y-2706319D01*
X1434896Y-2710383D01*
X1431798Y-2715310D01*
X1429918Y-2720746D01*
X1429207Y-2727045D01*
G37*
G36*
X226618Y-2657348D02*
G01*
X382981Y-2657348D01*
X389280Y-2656636D01*
X394766Y-2654706D01*
X399643Y-2651658D01*
X403758Y-2647543D01*
X406806Y-2642666D01*
X408736Y-2637180D01*
X409448Y-2630881D01*
X409448Y-2474518D01*
X408736Y-2468219D01*
X406806Y-2462733D01*
X403758Y-2457856D01*
X399643Y-2453741D01*
X394766Y-2450693D01*
X389280Y-2448763D01*
X382981Y-2448052D01*
X226618Y-2448052D01*
X220319Y-2448763D01*
X214833Y-2450693D01*
X209956Y-2453741D01*
X205841Y-2457856D01*
X202793Y-2462733D01*
X200863Y-2468219D01*
X200152Y-2474518D01*
X200152Y-2630881D01*
X200863Y-2637180D01*
X202793Y-2642666D01*
X205841Y-2647543D01*
X209956Y-2651658D01*
X214833Y-2654706D01*
X220319Y-2656636D01*
G37*
G36*
X7594600Y-2188006D02*
G01*
X7608214Y-2187092D01*
X7621574Y-2184349D01*
X7634478Y-2179878D01*
X7646619Y-2173732D01*
X7657846Y-2166010D01*
X7668006Y-2156866D01*
X7676794Y-2146452D01*
X7684109Y-2134971D01*
X7689850Y-2122576D01*
X7693914Y-2109571D01*
X7696149Y-2096109D01*
X7696606Y-2082495D01*
X7695285Y-2068931D01*
X7692085Y-2055672D01*
X7687208Y-2042922D01*
X7680655Y-2030984D01*
X7672578Y-2020011D01*
X7663078Y-2010206D01*
X7652359Y-2001723D01*
X7640624Y-1994763D01*
X7628077Y-1989480D01*
X7614920Y-1985873D01*
X7601407Y-1984044D01*
X7587792Y-1984044D01*
X7574280Y-1985873D01*
X7561122Y-1989480D01*
X7548575Y-1994763D01*
X7536840Y-2001723D01*
X7526121Y-2010206D01*
X7516622Y-2020011D01*
X7508544Y-2030984D01*
X7501991Y-2042922D01*
X7497114Y-2055672D01*
X7493914Y-2068931D01*
X7492593Y-2082495D01*
X7493050Y-2096109D01*
X7495286Y-2109571D01*
X7499350Y-2122576D01*
X7505090Y-2134971D01*
X7512405Y-2146452D01*
X7521194Y-2156866D01*
X7531353Y-2166010D01*
X7542580Y-2173732D01*
X7554722Y-2179878D01*
X7567625Y-2184349D01*
X7580985Y-2187092D01*
G37*
G36*
X5268315Y-2004415D02*
G01*
X5282844Y-2004415D01*
X5297271Y-2002586D01*
X5311394Y-1998980D01*
X5324906Y-1993595D01*
X5337657Y-1986584D01*
X5349443Y-1978050D01*
X5360060Y-1968093D01*
X5369356Y-1956866D01*
X5377129Y-1944573D01*
X5383326Y-1931416D01*
X5387848Y-1917547D01*
X5390540Y-1903272D01*
X5391454Y-1888743D01*
X5390540Y-1874215D01*
X5387848Y-1859940D01*
X5383326Y-1846072D01*
X5377129Y-1832914D01*
X5369356Y-1820621D01*
X5360060Y-1809394D01*
X5349443Y-1799437D01*
X5337657Y-1790903D01*
X5324906Y-1783892D01*
X5311394Y-1778507D01*
X5297271Y-1774901D01*
X5282844Y-1773072D01*
X5268315Y-1773072D01*
X5253888Y-1774901D01*
X5239766Y-1778507D01*
X5226253Y-1783892D01*
X5213502Y-1790903D01*
X5201716Y-1799437D01*
X5191099Y-1809394D01*
X5181803Y-1820621D01*
X5174030Y-1832914D01*
X5167833Y-1846072D01*
X5163312Y-1859940D01*
X5160619Y-1874215D01*
X5159705Y-1888743D01*
X5160619Y-1903272D01*
X5163312Y-1917547D01*
X5167833Y-1931416D01*
X5174030Y-1944573D01*
X5181803Y-1956866D01*
X5191099Y-1968093D01*
X5201716Y-1978050D01*
X5213502Y-1986584D01*
X5226253Y-1993595D01*
X5239766Y-1998980D01*
X5253888Y-2002586D01*
G37*
G36*
X5918555Y-2004415D02*
G01*
X5933084Y-2004415D01*
X5947511Y-2002586D01*
X5961634Y-1998980D01*
X5975146Y-1993595D01*
X5987897Y-1986584D01*
X5999683Y-1978050D01*
X6010300Y-1968093D01*
X6019596Y-1956866D01*
X6027369Y-1944573D01*
X6033566Y-1931416D01*
X6038088Y-1917547D01*
X6040780Y-1903272D01*
X6041694Y-1888743D01*
X6040780Y-1874215D01*
X6038088Y-1859940D01*
X6033566Y-1846072D01*
X6027369Y-1832914D01*
X6019596Y-1820621D01*
X6010300Y-1809394D01*
X5999683Y-1799437D01*
X5987897Y-1790903D01*
X5975146Y-1783892D01*
X5961634Y-1778507D01*
X5947511Y-1774901D01*
X5933084Y-1773072D01*
X5918555Y-1773072D01*
X5904128Y-1774901D01*
X5890006Y-1778507D01*
X5876493Y-1783892D01*
X5863742Y-1790903D01*
X5851956Y-1799437D01*
X5841339Y-1809394D01*
X5832043Y-1820621D01*
X5824270Y-1832914D01*
X5818073Y-1846072D01*
X5813552Y-1859940D01*
X5810859Y-1874215D01*
X5809945Y-1888743D01*
X5810859Y-1903272D01*
X5813552Y-1917547D01*
X5818073Y-1931416D01*
X5824270Y-1944573D01*
X5832043Y-1956866D01*
X5841339Y-1968093D01*
X5851956Y-1978050D01*
X5863742Y-1986584D01*
X5876493Y-1993595D01*
X5890006Y-1998980D01*
X5904128Y-2002586D01*
G37*
G36*
X3167735Y-1944471D02*
G01*
X3182264Y-1944471D01*
X3196691Y-1942642D01*
X3210814Y-1939036D01*
X3224326Y-1933651D01*
X3237077Y-1926640D01*
X3248863Y-1918106D01*
X3259480Y-1908149D01*
X3268776Y-1896922D01*
X3276549Y-1884629D01*
X3282746Y-1871472D01*
X3287268Y-1857603D01*
X3289960Y-1843328D01*
X3290874Y-1828800D01*
X3289960Y-1814271D01*
X3287268Y-1799996D01*
X3282746Y-1786128D01*
X3276549Y-1772970D01*
X3268776Y-1760677D01*
X3259480Y-1749450D01*
X3248863Y-1739493D01*
X3237077Y-1730959D01*
X3224326Y-1723948D01*
X3210814Y-1718564D01*
X3196691Y-1714957D01*
X3182264Y-1713128D01*
X3167735Y-1713128D01*
X3153308Y-1714957D01*
X3139186Y-1718564D01*
X3125673Y-1723948D01*
X3112922Y-1730959D01*
X3101136Y-1739493D01*
X3090519Y-1749450D01*
X3081223Y-1760677D01*
X3073450Y-1772970D01*
X3067253Y-1786128D01*
X3062732Y-1799996D01*
X3060039Y-1814271D01*
X3059125Y-1828800D01*
X3060039Y-1843328D01*
X3062732Y-1857603D01*
X3067253Y-1871472D01*
X3073450Y-1884629D01*
X3081223Y-1896922D01*
X3090519Y-1908149D01*
X3101136Y-1918106D01*
X3112922Y-1926640D01*
X3125673Y-1933651D01*
X3139186Y-1939036D01*
X3153308Y-1942642D01*
G37*
G36*
X7594600Y-1887982D02*
G01*
X7608214Y-1887067D01*
X7621574Y-1884375D01*
X7634478Y-1879904D01*
X7646619Y-1873757D01*
X7657846Y-1866036D01*
X7668006Y-1856892D01*
X7676794Y-1846478D01*
X7684109Y-1834946D01*
X7689850Y-1822602D01*
X7693914Y-1809546D01*
X7696149Y-1796135D01*
X7696606Y-1782470D01*
X7695285Y-1768906D01*
X7692085Y-1755648D01*
X7687208Y-1742948D01*
X7680655Y-1730959D01*
X7672578Y-1719986D01*
X7663078Y-1710182D01*
X7652359Y-1701749D01*
X7640624Y-1694789D01*
X7628077Y-1689455D01*
X7614920Y-1685848D01*
X7601407Y-1684020D01*
X7587792Y-1684020D01*
X7574280Y-1685848D01*
X7561122Y-1689455D01*
X7548575Y-1694789D01*
X7536840Y-1701749D01*
X7526121Y-1710182D01*
X7516622Y-1719986D01*
X7508544Y-1730959D01*
X7501991Y-1742948D01*
X7497114Y-1755648D01*
X7493914Y-1768906D01*
X7492593Y-1782470D01*
X7493050Y-1796135D01*
X7495286Y-1809546D01*
X7499350Y-1822602D01*
X7505090Y-1834946D01*
X7512405Y-1846478D01*
X7521194Y-1856892D01*
X7531353Y-1866036D01*
X7542580Y-1873757D01*
X7554722Y-1879904D01*
X7567625Y-1884375D01*
X7580985Y-1887067D01*
G37*
G36*
X7594600Y-1588008D02*
G01*
X7608214Y-1587093D01*
X7621574Y-1584350D01*
X7634478Y-1579880D01*
X7646619Y-1573733D01*
X7657846Y-1566011D01*
X7668006Y-1556867D01*
X7676794Y-1546453D01*
X7684109Y-1534972D01*
X7689850Y-1522577D01*
X7693914Y-1509572D01*
X7696149Y-1496110D01*
X7696606Y-1482496D01*
X7695285Y-1468932D01*
X7692085Y-1455674D01*
X7687208Y-1442923D01*
X7680655Y-1430985D01*
X7672578Y-1420012D01*
X7663078Y-1410208D01*
X7652359Y-1401724D01*
X7640624Y-1394764D01*
X7628077Y-1389481D01*
X7614920Y-1385874D01*
X7601407Y-1384046D01*
X7587792Y-1384046D01*
X7574280Y-1385874D01*
X7561122Y-1389481D01*
X7548575Y-1394764D01*
X7536840Y-1401724D01*
X7526121Y-1410208D01*
X7516622Y-1420012D01*
X7508544Y-1430985D01*
X7501991Y-1442923D01*
X7497114Y-1455674D01*
X7493914Y-1468932D01*
X7492593Y-1482496D01*
X7493050Y-1496110D01*
X7495286Y-1509572D01*
X7499350Y-1522577D01*
X7505090Y-1534972D01*
X7512405Y-1546453D01*
X7521194Y-1556867D01*
X7531353Y-1566011D01*
X7542580Y-1573733D01*
X7554722Y-1579880D01*
X7567625Y-1584350D01*
X7580985Y-1587093D01*
G37*
G36*
X6834479Y-1223721D02*
G01*
X6862825Y-1223721D01*
X6869175Y-1223010D01*
X6874611Y-1221079D01*
X6879539Y-1217980D01*
X6883603Y-1213916D01*
X6886702Y-1208989D01*
X6888581Y-1203553D01*
X6889292Y-1197254D01*
X6889292Y-1170381D01*
X6834479Y-1170381D01*
G37*
G36*
X6834479Y-1090218D02*
G01*
X6889292Y-1090218D01*
X6889292Y-1063345D01*
X6888581Y-1057046D01*
X6886702Y-1051610D01*
X6883603Y-1046683D01*
X6879539Y-1042619D01*
X6874611Y-1039520D01*
X6869175Y-1037590D01*
X6862825Y-1036878D01*
X6834479Y-1036878D01*
G37*
G36*
X2913735Y-674471D02*
G01*
X2928264Y-674471D01*
X2942691Y-672642D01*
X2956814Y-669036D01*
X2970326Y-663651D01*
X2983077Y-656640D01*
X2994863Y-648106D01*
X3005480Y-638149D01*
X3014776Y-626922D01*
X3022549Y-614629D01*
X3028746Y-601472D01*
X3033268Y-587603D01*
X3035960Y-573328D01*
X3036874Y-558800D01*
X3035960Y-544271D01*
X3033268Y-529996D01*
X3028746Y-516128D01*
X3022549Y-502970D01*
X3014776Y-490677D01*
X3005480Y-479450D01*
X2994863Y-469493D01*
X2983077Y-460959D01*
X2970326Y-453948D01*
X2956814Y-448564D01*
X2942691Y-444957D01*
X2928264Y-443128D01*
X2913735Y-443128D01*
X2899308Y-444957D01*
X2885186Y-448564D01*
X2871673Y-453948D01*
X2858922Y-460959D01*
X2847136Y-469493D01*
X2836519Y-479450D01*
X2827223Y-490677D01*
X2819450Y-502970D01*
X2813253Y-516128D01*
X2808732Y-529996D01*
X2806039Y-544271D01*
X2805125Y-558800D01*
X2806039Y-573328D01*
X2808732Y-587603D01*
X2813253Y-601472D01*
X2819450Y-614629D01*
X2827223Y-626922D01*
X2836519Y-638149D01*
X2847136Y-648106D01*
X2858922Y-656640D01*
X2871673Y-663651D01*
X2885186Y-669036D01*
X2899308Y-672642D01*
G37*
G36*
X2659735Y-674471D02*
G01*
X2674264Y-674471D01*
X2688691Y-672642D01*
X2702814Y-669036D01*
X2716326Y-663651D01*
X2729077Y-656640D01*
X2740863Y-648106D01*
X2751480Y-638149D01*
X2760776Y-626922D01*
X2768549Y-614629D01*
X2774746Y-601472D01*
X2779268Y-587603D01*
X2781960Y-573328D01*
X2782874Y-558800D01*
X2781960Y-544271D01*
X2779268Y-529996D01*
X2774746Y-516128D01*
X2768549Y-502970D01*
X2760776Y-490677D01*
X2751480Y-479450D01*
X2740863Y-469493D01*
X2729077Y-460959D01*
X2716326Y-453948D01*
X2702814Y-448564D01*
X2688691Y-444957D01*
X2674264Y-443128D01*
X2659735Y-443128D01*
X2645308Y-444957D01*
X2631186Y-448564D01*
X2617673Y-453948D01*
X2604922Y-460959D01*
X2593136Y-469493D01*
X2582519Y-479450D01*
X2573223Y-490677D01*
X2565450Y-502970D01*
X2559253Y-516128D01*
X2554732Y-529996D01*
X2552039Y-544271D01*
X2551125Y-558800D01*
X2552039Y-573328D01*
X2554732Y-587603D01*
X2559253Y-601472D01*
X2565450Y-614629D01*
X2573223Y-626922D01*
X2582519Y-638149D01*
X2593136Y-648106D01*
X2604922Y-656640D01*
X2617673Y-663651D01*
X2631186Y-669036D01*
X2645308Y-672642D01*
G37*
G36*
X7751572Y-432358D02*
G01*
X7769910Y-430936D01*
X7787944Y-427634D01*
X7805572Y-422503D01*
X7822590Y-415594D01*
X7838795Y-406958D01*
X7854035Y-396697D01*
X7868158Y-384911D01*
X7880959Y-371754D01*
X7892389Y-357378D01*
X7902244Y-341884D01*
X7910474Y-325424D01*
X7916925Y-308254D01*
X7921599Y-290474D01*
X7924444Y-272338D01*
X7925358Y-254000D01*
X7924444Y-235661D01*
X7921599Y-217525D01*
X7916925Y-199745D01*
X7910474Y-182575D01*
X7902244Y-166116D01*
X7892389Y-150622D01*
X7880959Y-136245D01*
X7868158Y-123088D01*
X7854035Y-111302D01*
X7838795Y-101041D01*
X7822590Y-92405D01*
X7805572Y-85496D01*
X7787944Y-80365D01*
X7769910Y-77063D01*
X7751572Y-75641D01*
X7733233Y-76149D01*
X7714996Y-78486D01*
X7697114Y-82702D01*
X7679791Y-88747D01*
X7663129Y-96520D01*
X7647381Y-105968D01*
X7632700Y-116992D01*
X7619238Y-129489D01*
X7607096Y-143306D01*
X7596479Y-158242D01*
X7587437Y-174244D01*
X7580071Y-191058D01*
X7574483Y-208584D01*
X7570724Y-226567D01*
X7568844Y-244805D01*
X7568844Y-263194D01*
X7570724Y-281432D01*
X7574483Y-299415D01*
X7580071Y-316941D01*
X7587437Y-333756D01*
X7596479Y-349758D01*
X7607096Y-364693D01*
X7619238Y-378510D01*
X7632700Y-391007D01*
X7647381Y-402031D01*
X7663129Y-411480D01*
X7679791Y-419252D01*
X7697114Y-425297D01*
X7714996Y-429514D01*
X7733233Y-431850D01*
G37*
G36*
X258571Y-431342D02*
G01*
X276758Y-429920D01*
X294741Y-426669D01*
X312267Y-421538D01*
X329184Y-414680D01*
X345338Y-406095D01*
X360476Y-395884D01*
X374497Y-384200D01*
X387248Y-371094D01*
X398576Y-356768D01*
X408381Y-341376D01*
X416559Y-325018D01*
X423011Y-307949D01*
X427634Y-290271D01*
X430479Y-272237D01*
X431393Y-254000D01*
X430479Y-235762D01*
X427634Y-217728D01*
X423011Y-200050D01*
X416559Y-182981D01*
X408381Y-166624D01*
X398576Y-151231D01*
X387248Y-136906D01*
X374497Y-123799D01*
X360476Y-112115D01*
X345338Y-101904D01*
X329184Y-93319D01*
X312267Y-86461D01*
X294741Y-81330D01*
X276758Y-78079D01*
X258571Y-76657D01*
X240334Y-77114D01*
X222199Y-79502D01*
X204419Y-83667D01*
X187147Y-89662D01*
X170637Y-97434D01*
X154990Y-106832D01*
X140360Y-117805D01*
X126949Y-130200D01*
X114909Y-143916D01*
X104343Y-158800D01*
X95300Y-174701D01*
X87985Y-191414D01*
X82448Y-208838D01*
X78740Y-226720D01*
X76860Y-244856D01*
X76860Y-263144D01*
X78740Y-281279D01*
X82448Y-299161D01*
X87985Y-316585D01*
X95300Y-333298D01*
X104343Y-349199D01*
X114909Y-364083D01*
X126949Y-377799D01*
X140360Y-390194D01*
X154990Y-401167D01*
X170637Y-410565D01*
X187147Y-418338D01*
X204419Y-424332D01*
X222199Y-428498D01*
X240334Y-430885D01*
G37*
G36*
X4884420Y-335178D02*
G01*
X4891024Y-331927D01*
X4902403Y-324307D01*
X4912664Y-315264D01*
X4921707Y-305003D01*
X4929327Y-293624D01*
X4932578Y-287020D01*
X4884420Y-287020D01*
G37*
G36*
X4792980Y-335178D02*
G01*
X4792980Y-287020D01*
X4744821Y-287020D01*
X4748072Y-293624D01*
X4755692Y-305003D01*
X4764735Y-315264D01*
X4774996Y-324307D01*
X4786376Y-331927D01*
G37*
G36*
X4744821Y-195580D02*
G01*
X4792980Y-195580D01*
X4792980Y-147421D01*
X4786376Y-150672D01*
X4774996Y-158292D01*
X4764735Y-167335D01*
X4755692Y-177596D01*
X4748072Y-188976D01*
G37*
G36*
X4884420Y-195580D02*
G01*
X4932578Y-195580D01*
X4929327Y-188976D01*
X4921707Y-177596D01*
X4912664Y-167335D01*
X4902403Y-158292D01*
X4891024Y-150672D01*
X4884420Y-147421D01*
G37*

%LPD*%
G36*
X683006Y-1221130D02*
G01*
X679399Y-1220114D01*
X676351Y-1217879D01*
X674370Y-1214678D01*
X673658Y-1210970D01*
X673658Y-1115618D01*
X674420Y-1111707D01*
X676656Y-1108456D01*
X679907Y-1106220D01*
X683818Y-1105458D01*
X756615Y-1105458D01*
X760476Y-1106220D01*
X763778Y-1108456D01*
X765048Y-1109675D01*
X773023Y-1115263D01*
X781862Y-1119378D01*
X785926Y-1120495D01*
X789838Y-1122527D01*
X792530Y-1125982D01*
X793445Y-1130300D01*
X792530Y-1134618D01*
X789838Y-1138072D01*
X785926Y-1140104D01*
X781862Y-1141222D01*
X773023Y-1145336D01*
X765048Y-1150924D01*
X758139Y-1157833D01*
X752551Y-1165809D01*
X749452Y-1172413D01*
X813816Y-1172413D01*
X813816Y-1132992D01*
X814578Y-1129080D01*
X816813Y-1125778D01*
X820115Y-1123594D01*
X823976Y-1122832D01*
X914908Y-1122832D01*
X918819Y-1123594D01*
X922121Y-1125778D01*
X924306Y-1129080D01*
X925068Y-1132992D01*
X925068Y-1172413D01*
X992581Y-1172413D01*
X996492Y-1173175D01*
X999744Y-1175359D01*
X1001979Y-1178661D01*
X1002741Y-1182573D01*
X1002741Y-1205026D01*
X1001979Y-1208938D01*
X999744Y-1212240D01*
X996492Y-1214424D01*
X992581Y-1215186D01*
X922528Y-1215186D01*
X919073Y-1217726D01*
X914908Y-1218641D01*
X823976Y-1218641D01*
X819810Y-1217726D01*
X816356Y-1215186D01*
X744321Y-1215186D01*
X740867Y-1217726D01*
X736701Y-1218641D01*
X699008Y-1218641D01*
X690981Y-1219454D01*
X686765Y-1220724D01*
G37*

%LPD*%
G36*
X2030425Y-1846072D02*
G01*
X2026462Y-1845157D01*
X2023160Y-1842770D01*
X2021027Y-1839264D01*
X2020468Y-1835251D01*
X2020874Y-1828800D01*
X2019960Y-1814271D01*
X2017268Y-1799996D01*
X2012746Y-1786128D01*
X2006549Y-1772970D01*
X1998776Y-1760677D01*
X1989480Y-1749450D01*
X1978863Y-1739493D01*
X1967077Y-1730959D01*
X1954326Y-1723948D01*
X1940814Y-1718564D01*
X1926691Y-1714957D01*
X1912264Y-1713128D01*
X1897735Y-1713128D01*
X1883308Y-1714957D01*
X1869186Y-1718564D01*
X1855673Y-1723948D01*
X1842922Y-1730959D01*
X1831136Y-1739493D01*
X1820519Y-1749450D01*
X1811223Y-1760677D01*
X1800555Y-1777390D01*
X1797354Y-1779422D01*
X1793646Y-1780133D01*
X1290726Y-1780133D01*
X1286814Y-1779371D01*
X1283512Y-1777187D01*
X1281328Y-1773885D01*
X1280566Y-1769973D01*
X1280566Y-1734718D01*
X1281430Y-1730552D01*
X1283970Y-1727098D01*
X1287678Y-1725015D01*
X1291894Y-1724609D01*
X1295958Y-1725980D01*
X1299057Y-1728927D01*
X1305255Y-1737766D01*
X1312113Y-1744675D01*
X1320139Y-1750263D01*
X1328978Y-1754378D01*
X1338376Y-1756918D01*
X1348536Y-1757832D01*
X1360932Y-1757832D01*
X1360932Y-1723186D01*
X1290726Y-1723186D01*
X1286814Y-1722424D01*
X1283512Y-1720240D01*
X1281328Y-1716938D01*
X1280566Y-1713026D01*
X1280566Y-1690573D01*
X1281328Y-1686661D01*
X1283512Y-1683359D01*
X1286814Y-1681175D01*
X1290726Y-1680413D01*
X1360932Y-1680413D01*
X1360932Y-1640992D01*
X1361694Y-1637080D01*
X1363878Y-1633778D01*
X1367180Y-1631594D01*
X1371092Y-1630832D01*
X1462024Y-1630832D01*
X1465884Y-1631594D01*
X1469186Y-1633778D01*
X1471422Y-1637080D01*
X1472184Y-1640992D01*
X1472184Y-1680413D01*
X1536547Y-1680413D01*
X1533448Y-1673809D01*
X1527860Y-1665833D01*
X1520952Y-1658924D01*
X1512976Y-1653336D01*
X1504137Y-1649222D01*
X1500073Y-1648104D01*
X1496161Y-1646072D01*
X1493469Y-1642618D01*
X1492554Y-1638300D01*
X1493469Y-1633982D01*
X1496161Y-1630527D01*
X1500073Y-1628495D01*
X1504137Y-1627378D01*
X1510538Y-1624431D01*
X1514856Y-1623466D01*
X2096516Y-1623466D01*
X2100427Y-1624228D01*
X2103729Y-1626412D01*
X2173071Y-1695805D01*
X2175306Y-1699107D01*
X2176068Y-1702968D01*
X2175306Y-1706880D01*
X2173071Y-1710182D01*
X2169769Y-1712366D01*
X2165908Y-1713128D01*
X2151735Y-1713128D01*
X2137308Y-1714957D01*
X2123186Y-1718564D01*
X2109673Y-1723948D01*
X2096922Y-1730959D01*
X2085136Y-1739493D01*
X2074519Y-1749450D01*
X2065223Y-1760677D01*
X2057450Y-1772970D01*
X2051253Y-1786128D01*
X2046732Y-1799996D01*
X2044039Y-1814271D01*
X2043125Y-1828800D01*
X2043379Y-1832660D01*
X2042718Y-1836877D01*
X2040382Y-1840484D01*
X2037791Y-1843074D01*
X2034387Y-1845310D01*
G37*

%LPC*%
G36*
X1472184Y-1757832D02*
G01*
X1484579Y-1757832D01*
X1494739Y-1756918D01*
X1504137Y-1754378D01*
X1512976Y-1750263D01*
X1520952Y-1744675D01*
X1527860Y-1737766D01*
X1533448Y-1729790D01*
X1536547Y-1723186D01*
X1472184Y-1723186D01*
G37*

%LPD*%
G36*
X747318Y-2298141D02*
G01*
X743407Y-2297379D01*
X740156Y-2295144D01*
X737920Y-2291892D01*
X737158Y-2287981D01*
X737158Y-1740052D01*
X738073Y-1735886D01*
X740562Y-1732483D01*
X744270Y-1730349D01*
X748487Y-1729943D01*
X752500Y-1731314D01*
X755650Y-1734210D01*
X758139Y-1737766D01*
X765048Y-1744675D01*
X773023Y-1750263D01*
X781862Y-1754378D01*
X791260Y-1756918D01*
X801420Y-1757832D01*
X937463Y-1757832D01*
X947623Y-1756918D01*
X957021Y-1754378D01*
X965860Y-1750263D01*
X973886Y-1744675D01*
X980795Y-1737766D01*
X986383Y-1729790D01*
X990498Y-1720951D01*
X993038Y-1711502D01*
X993851Y-1701800D01*
X993038Y-1692097D01*
X991768Y-1687474D01*
X991514Y-1683613D01*
X992733Y-1679956D01*
X995222Y-1676958D01*
X998677Y-1675130D01*
X1002334Y-1674012D01*
X1006094Y-1673606D01*
X1009700Y-1674622D01*
X1012748Y-1676857D01*
X1014730Y-1680057D01*
X1015441Y-1683766D01*
X1015441Y-1884730D01*
X1014679Y-1888591D01*
X1012444Y-1891893D01*
X988517Y-1915718D01*
X985266Y-1917903D01*
X979881Y-1918665D01*
X975969Y-1917903D01*
X972667Y-1915668D01*
X970483Y-1912416D01*
X969721Y-1908505D01*
X969721Y-1887474D01*
X969010Y-1881124D01*
X967079Y-1875688D01*
X963980Y-1870760D01*
X959916Y-1866696D01*
X954989Y-1863598D01*
X949553Y-1861718D01*
X943254Y-1861007D01*
X809345Y-1861007D01*
X803046Y-1861718D01*
X797610Y-1863598D01*
X792683Y-1866696D01*
X788619Y-1870760D01*
X785520Y-1875688D01*
X783590Y-1881124D01*
X782878Y-1887474D01*
X782878Y-2027326D01*
X783590Y-2033625D01*
X785520Y-2039112D01*
X788619Y-2043988D01*
X792683Y-2048103D01*
X796747Y-2051608D01*
X798322Y-2055368D01*
X798322Y-2059432D01*
X796747Y-2063191D01*
X792683Y-2066696D01*
X788619Y-2070811D01*
X785520Y-2075688D01*
X783590Y-2081174D01*
X782878Y-2087473D01*
X782878Y-2115820D01*
X836218Y-2115820D01*
X836218Y-2063953D01*
X836980Y-2060092D01*
X839165Y-2056790D01*
X842467Y-2054555D01*
X846378Y-2053793D01*
X906221Y-2053793D01*
X910132Y-2054555D01*
X913434Y-2056790D01*
X915619Y-2060092D01*
X916381Y-2063953D01*
X916381Y-2115820D01*
X969721Y-2115820D01*
X969721Y-2087473D01*
X969010Y-2081174D01*
X967079Y-2075688D01*
X963980Y-2070811D01*
X959916Y-2066696D01*
X955852Y-2063191D01*
X954278Y-2059432D01*
X954278Y-2055368D01*
X955852Y-2051608D01*
X959916Y-2048103D01*
X963980Y-2043988D01*
X967079Y-2039112D01*
X969010Y-2033625D01*
X969721Y-2027326D01*
X969721Y-2006142D01*
X970483Y-2002231D01*
X972718Y-1998929D01*
X976020Y-1996744D01*
X979881Y-1995982D01*
X983792Y-1996744D01*
X987044Y-1998980D01*
X989279Y-2002231D01*
X990041Y-2006142D01*
X990041Y-2171192D01*
X990853Y-2179218D01*
X993038Y-2186482D01*
X996594Y-2193137D01*
X1001725Y-2199386D01*
X1077214Y-2274874D01*
X1083614Y-2280107D01*
X1086205Y-2283358D01*
X1087323Y-2287320D01*
X1086713Y-2291384D01*
X1084580Y-2294940D01*
X1081176Y-2297328D01*
X1077163Y-2298141D01*
G37*

%LPC*%
G36*
X916381Y-2253792D02*
G01*
X943254Y-2253792D01*
X949553Y-2253081D01*
X954989Y-2251202D01*
X959916Y-2248103D01*
X963980Y-2244039D01*
X967079Y-2239111D01*
X969010Y-2233676D01*
X969721Y-2227326D01*
X969721Y-2198979D01*
X916381Y-2198979D01*
G37*
G36*
X809345Y-2253792D02*
G01*
X836218Y-2253792D01*
X836218Y-2198979D01*
X782878Y-2198979D01*
X782878Y-2227326D01*
X783590Y-2233676D01*
X785520Y-2239111D01*
X788619Y-2244039D01*
X792683Y-2248103D01*
X797610Y-2251202D01*
X803046Y-2253081D01*
G37*

%LPD*%
D10*
X1416557Y-939800D02*
G01*
X1143000Y-939800D01*
X1104900Y-977900D01*
X1104900Y-2095500D01*
X1168400Y-2159000D01*
X2298700Y-2159000D01*
X2628900Y-1828800D01*
D11*
X2889504Y-2755900D02*
G01*
X5168900Y-476504D01*
X5168900Y-419100D01*
X5346700Y-241300D01*
X7467600Y-2984500D02*
G01*
X4064000Y-2984500D01*
X3098800Y-3949700D01*
X2921000Y-3949700D01*
X2921000Y-3924300D01*
X7480300Y-2870200D02*
G01*
X7416800Y-2870200D01*
X7366000Y-2921000D01*
X7035800Y-2921000D01*
X7035800Y-2995676D01*
X5600689Y-241300D02*
G01*
X6489654Y-1130292D01*
X6294455Y-935055D02*
G01*
X6311900Y-952500D01*
X7124700Y-952500D01*
X7239000Y-1066800D01*
X7239000Y-1638300D01*
X7137400Y-1739900D01*
X6654800Y-1739900D01*
X6505956Y-1888744D01*
X6405879Y-1888744D01*
X3810000Y-2984500D02*
G01*
X2933700Y-3860800D01*
X2705100Y-3860800D01*
X2501900Y-3657600D01*
X2501900Y-3517900D01*
X2514600Y-3517900D01*
X2959100Y-3073400D01*
X2959100Y-2819400D01*
X2616200Y-3670300D02*
G01*
X2794000Y-3670300D01*
X5168900Y-1295400D01*
X7023100Y-1295400D01*
X7056114Y-1328420D01*
X7056114Y-1438653D01*
D12*
X1625600Y-3069102D02*
G01*
X1725599Y-2969102D01*
X1725599Y-2794000D01*
X1725676Y-3848100D02*
G01*
X1725676Y-3732276D01*
X1625600Y-3632200D01*
X1625600Y-3557015D01*
D10*
X1416557Y-812800D02*
G01*
X1441957Y-838200D01*
X2997200Y-838200D01*
X3136900Y-698500D01*
X3136900Y-558800D01*
X1416557Y-1447800D02*
G01*
X2501900Y-1447800D01*
X2882900Y-1828800D01*
X1416557Y-1574800D02*
G01*
X2120900Y-1574800D01*
X2374900Y-1828800D01*
X1416557Y-1193800D02*
G01*
X1231900Y-1193800D01*
X1231900Y-1828800D01*
X1866900Y-1828800D01*
X869442Y-939800D02*
G01*
X1016000Y-939800D01*
X1524000Y-431800D01*
X2057400Y-431800D01*
X2120900Y-495300D01*
X2120900Y-558800D01*
X1416557Y-1320800D02*
G01*
X2692400Y-1320800D01*
X3276600Y-736600D01*
X3276600Y-469900D01*
X3175000Y-368300D01*
X2374900Y-368300D01*
X2374900Y-558800D01*
X1416557Y-1066800D02*
G01*
X1168400Y-1066800D01*
X1168400Y-2006600D01*
X1193800Y-2032000D01*
X1917700Y-2032000D01*
X2120900Y-1828800D01*
D11*
X5092700Y-241300D02*
G01*
X4673600Y-660400D01*
X4673600Y-787400D01*
X2819400Y-2641600D01*
X2324100Y-2641600D01*
X2209800Y-2705100D02*
G01*
X1752600Y-2247900D01*
X1104900Y-2247900D01*
X1028700Y-2171700D01*
X1028700Y-1930400D01*
X2133600Y-2781300D02*
G01*
X1689100Y-2336800D01*
X698500Y-2336800D01*
X698500Y-1651000D01*
X711200Y-1638300D01*
X987755Y-1638300D01*
X869442Y-812800D02*
G01*
X762000Y-812800D01*
X698500Y-876300D01*
X698500Y-1001268D01*
X1001268Y-1001268D01*
X1041400Y-1041400D01*
X1041400Y-1257300D01*
X698500Y-1257300D01*
X698500Y-1536700D01*
X736600Y-1574800D01*
X869442Y-1574800D01*
X869442Y-1320800D02*
G01*
X1054100Y-1320800D01*
X1054100Y-1905000D01*
X1001521Y-1957323D01*
X876300Y-1957323D01*
X987755Y-1638300D02*
G01*
X1003300Y-1622755D01*
X1003300Y-1447800D01*
X869442Y-1447800D01*
X2108200Y-2882900D02*
G01*
X1638300Y-2413000D01*
X647700Y-2413000D01*
X635000Y-2400300D01*
X635000Y-1066800D01*
X869442Y-1066800D01*
X2901101Y-3771900D02*
G01*
X5181600Y-1562100D01*
X5715000Y-1562100D01*
X5838441Y-1437639D01*
X5925814Y-1437639D01*
X7035800Y-2795600D02*
G01*
X6405879Y-2165680D01*
X6405879Y-1888744D01*
X7035800Y-2995599D02*
G01*
X7024700Y-2984500D01*
X3810000Y-2984500D01*
X2921000Y-3924300D02*
G01*
X2921000Y-3949700D01*
X1993900Y-3949700D01*
X2705100Y-3238500D01*
D13*
G01*
X7035800Y-2995599D03*
D14*
G01*
X7035800Y-2795595D03*
D15*
G01*
X876300Y-1957400D03*
D16*
G01*
X876300Y-2157402D03*
D17*
G01*
X1725602Y-2794000D03*
G01*
X1525597Y-2794000D03*
G01*
X1725602Y-3848100D03*
G01*
X1525597Y-3848100D03*
D18*
G01*
X6592897Y-1130300D03*
G01*
X6792902Y-1130300D03*
D19*
G01*
X1416557Y-812800D03*
G01*
X1416557Y-939800D03*
G01*
X1416557Y-1066800D03*
G01*
X1416557Y-1193800D03*
G01*
X1416557Y-1320800D03*
G01*
X1416557Y-1447800D03*
G01*
X1416557Y-1574800D03*
G01*
X1416557Y-1701800D03*
G01*
X869442Y-812800D03*
G01*
X869442Y-939800D03*
G01*
X869442Y-1066800D03*
G01*
X869442Y-1193800D03*
G01*
X869442Y-1320800D03*
G01*
X869442Y-1447800D03*
G01*
X869442Y-1574800D03*
G01*
X869442Y-1701800D03*
D20*
G01*
X5181600Y-3822700D03*
G01*
X5727700Y-3822700D03*
G01*
X5600700Y-241300D03*
D21*
G01*
X5346700Y-241300D03*
G01*
X5092700Y-241300D03*
G01*
X4838700Y-241300D03*
D20*
G01*
X304800Y-2552700D03*
D21*
G01*
X304800Y-2806700D03*
G01*
X304800Y-3060700D03*
D22*
G01*
X5275579Y-1438655D03*
G01*
X5275579Y-1888744D03*
G01*
X5925820Y-1438655D03*
G01*
X5925820Y-1888744D03*
G01*
X6405879Y-1438655D03*
G01*
X6405879Y-1888744D03*
G01*
X7056120Y-1438655D03*
G01*
X7056120Y-1888744D03*
G01*
X1905000Y-1828800D03*
G01*
X2159000Y-1828800D03*
G01*
X2413000Y-1828800D03*
G01*
X2667000Y-1828800D03*
G01*
X2921000Y-1828800D03*
G01*
X3175000Y-1828800D03*
G01*
X3175000Y-558800D03*
G01*
X2921000Y-558800D03*
G01*
X2667000Y-558800D03*
G01*
X2413000Y-558800D03*
G01*
X2159000Y-558800D03*
G01*
X1905000Y-558800D03*
D23*
G01*
X7594600Y-1485900D03*
G01*
X7594600Y-1785899D03*
G01*
X7594600Y-2085898D03*
D24*
G01*
X7866786Y-2573705D03*
G01*
X7866786Y-3293694D03*
D25*
G01*
X7601788Y-3176193D03*
G01*
X7601788Y-2691206D03*
D22*
G01*
X1625600Y-3557092D03*
G01*
X1625600Y-3069107D03*
D26*
G01*
X2616200Y-3670300D03*
G01*
X2889402Y-2755900D03*
G01*
X2324100Y-2641600D03*
G01*
X2209800Y-2705100D03*
G01*
X2133600Y-2781300D03*
G01*
X2108200Y-2882900D03*
G01*
X7467600Y-2984500D03*
G01*
X7480300Y-2870200D03*
G01*
X2901111Y-3771900D03*
G01*
X2705100Y-3238500D03*
G01*
X2959100Y-2819400D03*
M02*
