G04 Layer: TopSilkscreenLayer*
G04 EasyEDA v6.5.47, 2024-09-12 04:01:22*
G04 8c6c83d31be245b591d831e4eff4e06b,65b0a26063cb4300b6f9becee83ce362,10*
G04 Gerber Generator version 0.2*
G04 Scale: 100 percent, Rotated: No, Reflected: No *
G04 Dimensions in millimeters *
G04 leading zeros omitted , absolute positions ,4 integer and 5 decimal *
%FSLAX45Y45*%
%MOMM*%

%ADD10C,0.1524*%
%ADD11C,0.2032*%
%ADD12C,0.2030*%
%ADD13C,0.2540*%
%ADD14C,0.1500*%
%ADD15C,0.2000*%
%ADD16C,0.2581*%
%ADD17C,0.3000*%
%ADD18C,0.4000*%
%ADD19C,0.0116*%

%LPD*%
D10*
X5181600Y-3565144D02*
G01*
X5181600Y-3674110D01*
X5181600Y-3565144D02*
G01*
X5228336Y-3565144D01*
X5243829Y-3570223D01*
X5249163Y-3575557D01*
X5254243Y-3585971D01*
X5254243Y-3596386D01*
X5249163Y-3606800D01*
X5243829Y-3611879D01*
X5228336Y-3616960D01*
X5181600Y-3616960D02*
G01*
X5228336Y-3616960D01*
X5243829Y-3622294D01*
X5249163Y-3627373D01*
X5254243Y-3637787D01*
X5254243Y-3653536D01*
X5249163Y-3663950D01*
X5243829Y-3669029D01*
X5228336Y-3674110D01*
X5181600Y-3674110D01*
X5335270Y-3580637D02*
G01*
X5335270Y-3674110D01*
X5288534Y-3627373D02*
G01*
X5382259Y-3627373D01*
X5727700Y-3565144D02*
G01*
X5727700Y-3674110D01*
X5727700Y-3565144D02*
G01*
X5774436Y-3565144D01*
X5789929Y-3570223D01*
X5795263Y-3575557D01*
X5800343Y-3585971D01*
X5800343Y-3596386D01*
X5795263Y-3606800D01*
X5789929Y-3611879D01*
X5774436Y-3616960D01*
X5727700Y-3616960D02*
G01*
X5774436Y-3616960D01*
X5789929Y-3622294D01*
X5795263Y-3627373D01*
X5800343Y-3637787D01*
X5800343Y-3653536D01*
X5795263Y-3663950D01*
X5789929Y-3669029D01*
X5774436Y-3674110D01*
X5727700Y-3674110D01*
X5834634Y-3627373D02*
G01*
X5928359Y-3627373D01*
X5410200Y-496315D02*
G01*
X5410200Y-387350D01*
X5337556Y-496315D02*
G01*
X5337556Y-387350D01*
X5410200Y-444500D02*
G01*
X5337556Y-444500D01*
X5303265Y-475487D02*
G01*
X5292852Y-480821D01*
X5277104Y-496315D01*
X5277104Y-387350D01*
X572515Y-2781300D02*
G01*
X463550Y-2781300D01*
X572515Y-2853944D02*
G01*
X463550Y-2853944D01*
X520700Y-2781300D02*
G01*
X520700Y-2853944D01*
X546607Y-2893568D02*
G01*
X551687Y-2893568D01*
X562102Y-2898647D01*
X567436Y-2903981D01*
X572515Y-2914395D01*
X572515Y-2934970D01*
X567436Y-2945384D01*
X562102Y-2950718D01*
X551687Y-2955797D01*
X541273Y-2955797D01*
X530860Y-2950718D01*
X515365Y-2940304D01*
X463550Y-2888234D01*
X463550Y-2961131D01*
X5575300Y-1192784D02*
G01*
X5575300Y-1301750D01*
X5647943Y-1192784D02*
G01*
X5575300Y-1265428D01*
X5601208Y-1239520D02*
G01*
X5647943Y-1301750D01*
X5682234Y-1192784D02*
G01*
X5682234Y-1301750D01*
X5682234Y-1192784D02*
G01*
X5749797Y-1192784D01*
X5682234Y-1244600D02*
G01*
X5723890Y-1244600D01*
X5682234Y-1301750D02*
G01*
X5749797Y-1301750D01*
X5784088Y-1192784D02*
G01*
X5825743Y-1244600D01*
X5825743Y-1301750D01*
X5867400Y-1192784D02*
G01*
X5825743Y-1244600D01*
X5901690Y-1213612D02*
G01*
X5911850Y-1208278D01*
X5927597Y-1192784D01*
X5927597Y-1301750D01*
X6705600Y-1192784D02*
G01*
X6705600Y-1301750D01*
X6778243Y-1192784D02*
G01*
X6705600Y-1265428D01*
X6731508Y-1239520D02*
G01*
X6778243Y-1301750D01*
X6812534Y-1192784D02*
G01*
X6812534Y-1301750D01*
X6812534Y-1192784D02*
G01*
X6880097Y-1192784D01*
X6812534Y-1244600D02*
G01*
X6854190Y-1244600D01*
X6812534Y-1301750D02*
G01*
X6880097Y-1301750D01*
X6914388Y-1192784D02*
G01*
X6956043Y-1244600D01*
X6956043Y-1301750D01*
X6997700Y-1192784D02*
G01*
X6956043Y-1244600D01*
X7037070Y-1218692D02*
G01*
X7037070Y-1213612D01*
X7042150Y-1203197D01*
X7047484Y-1197863D01*
X7057897Y-1192784D01*
X7078725Y-1192784D01*
X7089140Y-1197863D01*
X7094220Y-1203197D01*
X7099300Y-1213612D01*
X7099300Y-1224026D01*
X7094220Y-1234439D01*
X7083806Y-1249934D01*
X7031990Y-1301750D01*
X7104634Y-1301750D01*
X6273805Y-3440673D02*
G01*
X6273805Y-3549639D01*
X6273805Y-3549639D02*
G01*
X6336035Y-3549639D01*
X6370325Y-3440673D02*
G01*
X6370325Y-3549639D01*
X6370325Y-3440673D02*
G01*
X6437889Y-3440673D01*
X6370325Y-3492489D02*
G01*
X6411981Y-3492489D01*
X6370325Y-3549639D02*
G01*
X6437889Y-3549639D01*
X6472179Y-3440673D02*
G01*
X6472179Y-3549639D01*
X6472179Y-3440673D02*
G01*
X6508755Y-3440673D01*
X6524249Y-3445753D01*
X6534663Y-3456167D01*
X6539743Y-3466581D01*
X6545077Y-3482329D01*
X6545077Y-3508237D01*
X6539743Y-3523731D01*
X6534663Y-3534145D01*
X6524249Y-3544559D01*
X6508755Y-3549639D01*
X6472179Y-3549639D01*
X6579367Y-3461501D02*
G01*
X6589781Y-3456167D01*
X6605275Y-3440673D01*
X6605275Y-3549639D01*
X6717543Y-3466581D02*
G01*
X6712209Y-3456167D01*
X6701795Y-3445753D01*
X6691635Y-3440673D01*
X6670807Y-3440673D01*
X6660393Y-3445753D01*
X6649979Y-3456167D01*
X6644645Y-3466581D01*
X6639565Y-3482329D01*
X6639565Y-3508237D01*
X6644645Y-3523731D01*
X6649979Y-3534145D01*
X6660393Y-3544559D01*
X6670807Y-3549639D01*
X6691635Y-3549639D01*
X6701795Y-3544559D01*
X6712209Y-3534145D01*
X6717543Y-3523731D01*
X6717543Y-3508237D01*
X6691635Y-3508237D02*
G01*
X6717543Y-3508237D01*
X6870705Y-3453373D02*
G01*
X6870705Y-3562339D01*
X6870705Y-3562339D02*
G01*
X6932935Y-3562339D01*
X6967225Y-3453373D02*
G01*
X6967225Y-3562339D01*
X6967225Y-3453373D02*
G01*
X7034789Y-3453373D01*
X6967225Y-3505189D02*
G01*
X7008881Y-3505189D01*
X6967225Y-3562339D02*
G01*
X7034789Y-3562339D01*
X7069079Y-3453373D02*
G01*
X7069079Y-3562339D01*
X7069079Y-3453373D02*
G01*
X7105655Y-3453373D01*
X7121149Y-3458453D01*
X7131563Y-3468867D01*
X7136643Y-3479281D01*
X7141977Y-3495029D01*
X7141977Y-3520937D01*
X7136643Y-3536431D01*
X7131563Y-3546845D01*
X7121149Y-3557259D01*
X7105655Y-3562339D01*
X7069079Y-3562339D01*
X7181347Y-3479281D02*
G01*
X7181347Y-3474201D01*
X7186681Y-3463787D01*
X7191761Y-3458453D01*
X7202175Y-3453373D01*
X7223003Y-3453373D01*
X7233417Y-3458453D01*
X7238497Y-3463787D01*
X7243831Y-3474201D01*
X7243831Y-3484615D01*
X7238497Y-3495029D01*
X7228083Y-3510523D01*
X7176267Y-3562339D01*
X7248911Y-3562339D01*
X7283201Y-3453373D02*
G01*
X7283201Y-3562339D01*
X7283201Y-3453373D02*
G01*
X7329937Y-3453373D01*
X7345685Y-3458453D01*
X7350765Y-3463787D01*
X7355845Y-3474201D01*
X7355845Y-3484615D01*
X7350765Y-3495029D01*
X7345685Y-3500109D01*
X7329937Y-3505189D01*
X7283201Y-3505189D01*
X7319523Y-3505189D02*
G01*
X7355845Y-3562339D01*
X5358384Y-2724657D02*
G01*
X5363463Y-2735071D01*
X5373877Y-2745486D01*
X5384291Y-2750820D01*
X5400040Y-2755900D01*
X5425947Y-2755900D01*
X5441441Y-2750820D01*
X5451856Y-2745486D01*
X5462270Y-2735071D01*
X5467350Y-2724657D01*
X5467350Y-2703829D01*
X5462270Y-2693670D01*
X5451856Y-2683255D01*
X5441441Y-2677921D01*
X5425947Y-2672842D01*
X5400040Y-2672842D01*
X5384291Y-2677921D01*
X5373877Y-2683255D01*
X5363463Y-2693670D01*
X5358384Y-2703829D01*
X5358384Y-2724657D01*
X5446775Y-2709163D02*
G01*
X5477763Y-2677921D01*
X5384291Y-2633218D02*
G01*
X5379211Y-2633218D01*
X5368797Y-2628137D01*
X5363463Y-2622804D01*
X5358384Y-2612389D01*
X5358384Y-2591815D01*
X5363463Y-2581402D01*
X5368797Y-2576068D01*
X5379211Y-2570987D01*
X5389625Y-2570987D01*
X5400040Y-2576068D01*
X5415534Y-2586481D01*
X5467350Y-2638552D01*
X5467350Y-2565654D01*
X2612643Y-255778D02*
G01*
X2602229Y-245363D01*
X2586736Y-240284D01*
X2565908Y-240284D01*
X2550413Y-245363D01*
X2540000Y-255778D01*
X2540000Y-266192D01*
X2545079Y-276605D01*
X2550413Y-281939D01*
X2560827Y-287020D01*
X2592070Y-297434D01*
X2602229Y-302513D01*
X2607563Y-307847D01*
X2612643Y-318262D01*
X2612643Y-333755D01*
X2602229Y-344170D01*
X2586736Y-349250D01*
X2565908Y-349250D01*
X2550413Y-344170D01*
X2540000Y-333755D01*
X2646934Y-240284D02*
G01*
X2646934Y-349250D01*
X2646934Y-240284D02*
G01*
X2714497Y-240284D01*
X2646934Y-292100D02*
G01*
X2688590Y-292100D01*
X2646934Y-349250D02*
G01*
X2714497Y-349250D01*
X2826765Y-266192D02*
G01*
X2821686Y-255778D01*
X2811272Y-245363D01*
X2800858Y-240284D01*
X2780029Y-240284D01*
X2769615Y-245363D01*
X2759202Y-255778D01*
X2754122Y-266192D01*
X2748788Y-281939D01*
X2748788Y-307847D01*
X2754122Y-323342D01*
X2759202Y-333755D01*
X2769615Y-344170D01*
X2780029Y-349250D01*
X2800858Y-349250D01*
X2811272Y-344170D01*
X2821686Y-333755D01*
X2826765Y-323342D01*
X2826765Y-307847D01*
X2800858Y-307847D02*
G01*
X2826765Y-307847D01*
X2861056Y-261112D02*
G01*
X2871470Y-255778D01*
X2886963Y-240284D01*
X2886963Y-349250D01*
D11*
X1536700Y-1818894D02*
G01*
X1550415Y-1812289D01*
X1570736Y-1791715D01*
X1570736Y-1934971D01*
X3510788Y-1812289D02*
G01*
X3503929Y-1798573D01*
X3483609Y-1791715D01*
X3469893Y-1791715D01*
X3449574Y-1798573D01*
X3435858Y-1818894D01*
X3429000Y-1853184D01*
X3429000Y-1887220D01*
X3435858Y-1914397D01*
X3449574Y-1928113D01*
X3469893Y-1934971D01*
X3476752Y-1934971D01*
X3497072Y-1928113D01*
X3510788Y-1914397D01*
X3517645Y-1894078D01*
X3517645Y-1887220D01*
X3510788Y-1866645D01*
X3497072Y-1853184D01*
X3476752Y-1846326D01*
X3469893Y-1846326D01*
X3449574Y-1853184D01*
X3435858Y-1866645D01*
X3429000Y-1887220D01*
X3511804Y-509015D02*
G01*
X3443477Y-652271D01*
X3416300Y-509015D02*
G01*
X3511804Y-509015D01*
X1536700Y-536194D02*
G01*
X1550415Y-529589D01*
X1570736Y-509015D01*
X1570736Y-652271D01*
X1622552Y-543052D02*
G01*
X1622552Y-536194D01*
X1629410Y-522731D01*
X1636268Y-515873D01*
X1649984Y-509015D01*
X1677162Y-509015D01*
X1690878Y-515873D01*
X1697736Y-522731D01*
X1704339Y-536194D01*
X1704339Y-549910D01*
X1697736Y-563626D01*
X1684020Y-583945D01*
X1615694Y-652271D01*
X1711197Y-652271D01*
D10*
X3113758Y-2858076D02*
G01*
X3035780Y-2858076D01*
X3020286Y-2863156D01*
X3009872Y-2873570D01*
X3004792Y-2889318D01*
X3004792Y-2899732D01*
X3009872Y-2915226D01*
X3020286Y-2925640D01*
X3035780Y-2930720D01*
X3113758Y-2930720D01*
X3092930Y-2965010D02*
G01*
X3098264Y-2975424D01*
X3113758Y-2991172D01*
X3004792Y-2991172D01*
X6667500Y-2526284D02*
G01*
X6667500Y-2604262D01*
X6672579Y-2619755D01*
X6682993Y-2630170D01*
X6698741Y-2635250D01*
X6709156Y-2635250D01*
X6724650Y-2630170D01*
X6735063Y-2619755D01*
X6740143Y-2604262D01*
X6740143Y-2526284D01*
X6826504Y-2526284D02*
G01*
X6774434Y-2598928D01*
X6852411Y-2598928D01*
X6826504Y-2526284D02*
G01*
X6826504Y-2635250D01*
X4913884Y-3441700D02*
G01*
X4991861Y-3441700D01*
X5007356Y-3436620D01*
X5017770Y-3426205D01*
X5022850Y-3410457D01*
X5022850Y-3400044D01*
X5017770Y-3384550D01*
X5007356Y-3374136D01*
X4991861Y-3369055D01*
X4913884Y-3369055D01*
X4913884Y-3272281D02*
G01*
X4913884Y-3324352D01*
X4960620Y-3329431D01*
X4955540Y-3324352D01*
X4950206Y-3308604D01*
X4950206Y-3293110D01*
X4955540Y-3277615D01*
X4965700Y-3267202D01*
X4981447Y-3261868D01*
X4991861Y-3261868D01*
X5007356Y-3267202D01*
X5017770Y-3277615D01*
X5022850Y-3293110D01*
X5022850Y-3308604D01*
X5017770Y-3324352D01*
X5012690Y-3329431D01*
X5002275Y-3334765D01*
X4405884Y-2997200D02*
G01*
X4483861Y-2997200D01*
X4499356Y-2992120D01*
X4509770Y-2981705D01*
X4514850Y-2965957D01*
X4514850Y-2955544D01*
X4509770Y-2940050D01*
X4499356Y-2929636D01*
X4483861Y-2924555D01*
X4405884Y-2924555D01*
X4421377Y-2827781D02*
G01*
X4410963Y-2833115D01*
X4405884Y-2848610D01*
X4405884Y-2859023D01*
X4410963Y-2874518D01*
X4426711Y-2884931D01*
X4452620Y-2890265D01*
X4478527Y-2890265D01*
X4499356Y-2884931D01*
X4509770Y-2874518D01*
X4514850Y-2859023D01*
X4514850Y-2853689D01*
X4509770Y-2838195D01*
X4499356Y-2827781D01*
X4483861Y-2822702D01*
X4478527Y-2822702D01*
X4463034Y-2827781D01*
X4452620Y-2838195D01*
X4447540Y-2853689D01*
X4447540Y-2859023D01*
X4452620Y-2874518D01*
X4463034Y-2884931D01*
X4478527Y-2890265D01*
X8395715Y-1765300D02*
G01*
X8317738Y-1765300D01*
X8302243Y-1770379D01*
X8291829Y-1780794D01*
X8286750Y-1796542D01*
X8286750Y-1806955D01*
X8291829Y-1822450D01*
X8302243Y-1832863D01*
X8317738Y-1837944D01*
X8395715Y-1837944D01*
X8395715Y-1898395D02*
G01*
X8390636Y-1882647D01*
X8380222Y-1877568D01*
X8369808Y-1877568D01*
X8359393Y-1882647D01*
X8354059Y-1893062D01*
X8348979Y-1913889D01*
X8343900Y-1929384D01*
X8333486Y-1939797D01*
X8323072Y-1945131D01*
X8307324Y-1945131D01*
X8296909Y-1939797D01*
X8291829Y-1934718D01*
X8286750Y-1918970D01*
X8286750Y-1898395D01*
X8291829Y-1882647D01*
X8296909Y-1877568D01*
X8307324Y-1872234D01*
X8323072Y-1872234D01*
X8333486Y-1877568D01*
X8343900Y-1887981D01*
X8348979Y-1903476D01*
X8354059Y-1924304D01*
X8359393Y-1934718D01*
X8369808Y-1939797D01*
X8380222Y-1939797D01*
X8390636Y-1934718D01*
X8395715Y-1918970D01*
X8395715Y-1898395D01*
X7543800Y-2348494D02*
G01*
X7543800Y-2426472D01*
X7548879Y-2441966D01*
X7559293Y-2452380D01*
X7575041Y-2457460D01*
X7585456Y-2457460D01*
X7600950Y-2452380D01*
X7611363Y-2441966D01*
X7616443Y-2426472D01*
X7616443Y-2348494D01*
X7723631Y-2363988D02*
G01*
X7713218Y-2353574D01*
X7697470Y-2348494D01*
X7676895Y-2348494D01*
X7661147Y-2353574D01*
X7650734Y-2363988D01*
X7650734Y-2374402D01*
X7656068Y-2384816D01*
X7661147Y-2390150D01*
X7671561Y-2395230D01*
X7702804Y-2405644D01*
X7713218Y-2410724D01*
X7718297Y-2416058D01*
X7723631Y-2426472D01*
X7723631Y-2441966D01*
X7713218Y-2452380D01*
X7697470Y-2457460D01*
X7676895Y-2457460D01*
X7661147Y-2452380D01*
X7650734Y-2441966D01*
X7757922Y-2348494D02*
G01*
X7757922Y-2457460D01*
X7757922Y-2348494D02*
G01*
X7804658Y-2348494D01*
X7820152Y-2353574D01*
X7825486Y-2358908D01*
X7830565Y-2369322D01*
X7830565Y-2379736D01*
X7825486Y-2390150D01*
X7820152Y-2395230D01*
X7804658Y-2400310D01*
X7757922Y-2400310D02*
G01*
X7804658Y-2400310D01*
X7820152Y-2405644D01*
X7825486Y-2410724D01*
X7830565Y-2421138D01*
X7830565Y-2436886D01*
X7825486Y-2447300D01*
X7820152Y-2452380D01*
X7804658Y-2457460D01*
X7757922Y-2457460D01*
X7870190Y-2374402D02*
G01*
X7870190Y-2369322D01*
X7875270Y-2358908D01*
X7880350Y-2353574D01*
X7890763Y-2348494D01*
X7911591Y-2348494D01*
X7922006Y-2353574D01*
X7927340Y-2358908D01*
X7932420Y-2369322D01*
X7932420Y-2379736D01*
X7927340Y-2390150D01*
X7916925Y-2405644D01*
X7864856Y-2457460D01*
X7937500Y-2457460D01*
X1230764Y-3323892D02*
G01*
X1308742Y-3323892D01*
X1324490Y-3318812D01*
X1334650Y-3308398D01*
X1339984Y-3292650D01*
X1339984Y-3282236D01*
X1334650Y-3266742D01*
X1324490Y-3256328D01*
X1308742Y-3251248D01*
X1230764Y-3251248D01*
X1256926Y-3211624D02*
G01*
X1251592Y-3211624D01*
X1241178Y-3206544D01*
X1236098Y-3201210D01*
X1230764Y-3190796D01*
X1230764Y-3170222D01*
X1236098Y-3159808D01*
X1241178Y-3154474D01*
X1251592Y-3149394D01*
X1262006Y-3149394D01*
X1272420Y-3154474D01*
X1287914Y-3164888D01*
X1339984Y-3216958D01*
X1339984Y-3144060D01*
X7405115Y-3200400D02*
G01*
X7296150Y-3200400D01*
X7405115Y-3200400D02*
G01*
X7405115Y-3247136D01*
X7400036Y-3262629D01*
X7394702Y-3267963D01*
X7384288Y-3273044D01*
X7373874Y-3273044D01*
X7363459Y-3267963D01*
X7358379Y-3262629D01*
X7353300Y-3247136D01*
X7353300Y-3200400D01*
X7353300Y-3236721D02*
G01*
X7296150Y-3273044D01*
X7384288Y-3307334D02*
G01*
X7389622Y-3317747D01*
X7405115Y-3333495D01*
X7296150Y-3333495D01*
X6082284Y-2641600D02*
G01*
X6191250Y-2641600D01*
X6082284Y-2641600D02*
G01*
X6082284Y-2594863D01*
X6087363Y-2579370D01*
X6092697Y-2574036D01*
X6103111Y-2568955D01*
X6113525Y-2568955D01*
X6123940Y-2574036D01*
X6129020Y-2579370D01*
X6134100Y-2594863D01*
X6134100Y-2641600D01*
X6134100Y-2605278D02*
G01*
X6191250Y-2568955D01*
X6082284Y-2524252D02*
G01*
X6082284Y-2467102D01*
X6123940Y-2498089D01*
X6123940Y-2482595D01*
X6129020Y-2472181D01*
X6134100Y-2467102D01*
X6149847Y-2461768D01*
X6160261Y-2461768D01*
X6175756Y-2467102D01*
X6186170Y-2477515D01*
X6191250Y-2493010D01*
X6191250Y-2508504D01*
X6186170Y-2524252D01*
X6181090Y-2529331D01*
X6170675Y-2534665D01*
X5866384Y-3517823D02*
G01*
X5975350Y-3517823D01*
X5866384Y-3517823D02*
G01*
X5866384Y-3471087D01*
X5871463Y-3455593D01*
X5876797Y-3450259D01*
X5887211Y-3445179D01*
X5897625Y-3445179D01*
X5908040Y-3450259D01*
X5913120Y-3455593D01*
X5918200Y-3471087D01*
X5918200Y-3517823D01*
X5918200Y-3481501D02*
G01*
X5975350Y-3445179D01*
X5866384Y-3358819D02*
G01*
X5939027Y-3410889D01*
X5939027Y-3332911D01*
X5866384Y-3358819D02*
G01*
X5975350Y-3358819D01*
X5917184Y-3162300D02*
G01*
X6026150Y-3162300D01*
X5917184Y-3162300D02*
G01*
X5917184Y-3115563D01*
X5922263Y-3100070D01*
X5927597Y-3094736D01*
X5938011Y-3089655D01*
X5948425Y-3089655D01*
X5958840Y-3094736D01*
X5963920Y-3100070D01*
X5969000Y-3115563D01*
X5969000Y-3162300D01*
X5969000Y-3125978D02*
G01*
X6026150Y-3089655D01*
X5917184Y-2992881D02*
G01*
X5917184Y-3044952D01*
X5963920Y-3050031D01*
X5958840Y-3044952D01*
X5953506Y-3029204D01*
X5953506Y-3013710D01*
X5958840Y-2998215D01*
X5969000Y-2987802D01*
X5984747Y-2982468D01*
X5995161Y-2982468D01*
X6010656Y-2987802D01*
X6021070Y-2998215D01*
X6026150Y-3013710D01*
X6026150Y-3029204D01*
X6021070Y-3044952D01*
X6015990Y-3050031D01*
X6005575Y-3055365D01*
X3023615Y-2311400D02*
G01*
X2914650Y-2311400D01*
X3023615Y-2311400D02*
G01*
X3023615Y-2358136D01*
X3018536Y-2373629D01*
X3013202Y-2378963D01*
X3002788Y-2384044D01*
X2992374Y-2384044D01*
X2981959Y-2378963D01*
X2976879Y-2373629D01*
X2971800Y-2358136D01*
X2971800Y-2311400D01*
X2971800Y-2347721D02*
G01*
X2914650Y-2384044D01*
X3008122Y-2480818D02*
G01*
X3018536Y-2475484D01*
X3023615Y-2459989D01*
X3023615Y-2449576D01*
X3018536Y-2434081D01*
X3002788Y-2423668D01*
X2976879Y-2418334D01*
X2950972Y-2418334D01*
X2930143Y-2423668D01*
X2919729Y-2434081D01*
X2914650Y-2449576D01*
X2914650Y-2454910D01*
X2919729Y-2470404D01*
X2930143Y-2480818D01*
X2945638Y-2485897D01*
X2950972Y-2485897D01*
X2966465Y-2480818D01*
X2976879Y-2470404D01*
X2981959Y-2454910D01*
X2981959Y-2449576D01*
X2976879Y-2434081D01*
X2966465Y-2423668D01*
X2950972Y-2418334D01*
X3391915Y-2324176D02*
G01*
X3282950Y-2324176D01*
X3391915Y-2324176D02*
G01*
X3391915Y-2370912D01*
X3386836Y-2386406D01*
X3381502Y-2391740D01*
X3371088Y-2396820D01*
X3360674Y-2396820D01*
X3350259Y-2391740D01*
X3345179Y-2386406D01*
X3340100Y-2370912D01*
X3340100Y-2324176D01*
X3340100Y-2360498D02*
G01*
X3282950Y-2396820D01*
X3391915Y-2503754D02*
G01*
X3282950Y-2451938D01*
X3391915Y-2431110D02*
G01*
X3391915Y-2503754D01*
X3696715Y-2324176D02*
G01*
X3587750Y-2324176D01*
X3696715Y-2324176D02*
G01*
X3696715Y-2370912D01*
X3691636Y-2386406D01*
X3686302Y-2391740D01*
X3675888Y-2396820D01*
X3665474Y-2396820D01*
X3655059Y-2391740D01*
X3649979Y-2386406D01*
X3644900Y-2370912D01*
X3644900Y-2324176D01*
X3644900Y-2360498D02*
G01*
X3587750Y-2396820D01*
X3696715Y-2457018D02*
G01*
X3691636Y-2441524D01*
X3681222Y-2436444D01*
X3670808Y-2436444D01*
X3660393Y-2441524D01*
X3655059Y-2451938D01*
X3649979Y-2472766D01*
X3644900Y-2488260D01*
X3634486Y-2498674D01*
X3624072Y-2503754D01*
X3608324Y-2503754D01*
X3597909Y-2498674D01*
X3592829Y-2493594D01*
X3587750Y-2477846D01*
X3587750Y-2457018D01*
X3592829Y-2441524D01*
X3597909Y-2436444D01*
X3608324Y-2431110D01*
X3624072Y-2431110D01*
X3634486Y-2436444D01*
X3644900Y-2446604D01*
X3649979Y-2462352D01*
X3655059Y-2483180D01*
X3660393Y-2493594D01*
X3670808Y-2498674D01*
X3681222Y-2498674D01*
X3691636Y-2493594D01*
X3696715Y-2477846D01*
X3696715Y-2457018D01*
X4014215Y-2324176D02*
G01*
X3905250Y-2324176D01*
X4014215Y-2324176D02*
G01*
X4014215Y-2370912D01*
X4009136Y-2386406D01*
X4003802Y-2391740D01*
X3993388Y-2396820D01*
X3982974Y-2396820D01*
X3972559Y-2391740D01*
X3967479Y-2386406D01*
X3962400Y-2370912D01*
X3962400Y-2324176D01*
X3962400Y-2360498D02*
G01*
X3905250Y-2396820D01*
X3977893Y-2498674D02*
G01*
X3962400Y-2493594D01*
X3951986Y-2483180D01*
X3946652Y-2467432D01*
X3946652Y-2462352D01*
X3951986Y-2446604D01*
X3962400Y-2436444D01*
X3977893Y-2431110D01*
X3982974Y-2431110D01*
X3998722Y-2436444D01*
X4009136Y-2446604D01*
X4014215Y-2462352D01*
X4014215Y-2467432D01*
X4009136Y-2483180D01*
X3998722Y-2493594D01*
X3977893Y-2498674D01*
X3951986Y-2498674D01*
X3925824Y-2493594D01*
X3910329Y-2483180D01*
X3905250Y-2467432D01*
X3905250Y-2457018D01*
X3910329Y-2441524D01*
X3920743Y-2436444D01*
X6076149Y-824484D02*
G01*
X6076149Y-933450D01*
X6076149Y-824484D02*
G01*
X6122885Y-824484D01*
X6138379Y-829563D01*
X6143713Y-834897D01*
X6148793Y-845312D01*
X6148793Y-855726D01*
X6143713Y-866139D01*
X6138379Y-871220D01*
X6122885Y-876300D01*
X6076149Y-876300D01*
X6112471Y-876300D02*
G01*
X6148793Y-933450D01*
X6183083Y-845312D02*
G01*
X6193497Y-839978D01*
X6209245Y-824484D01*
X6209245Y-933450D01*
X6274523Y-824484D02*
G01*
X6259029Y-829563D01*
X6248615Y-845312D01*
X6243535Y-871220D01*
X6243535Y-886713D01*
X6248615Y-912876D01*
X6259029Y-928370D01*
X6274523Y-933450D01*
X6284937Y-933450D01*
X6300685Y-928370D01*
X6311099Y-912876D01*
X6316179Y-886713D01*
X6316179Y-871220D01*
X6311099Y-845312D01*
X6300685Y-829563D01*
X6284937Y-824484D01*
X6274523Y-824484D01*
X6507949Y-824484D02*
G01*
X6507949Y-933450D01*
X6507949Y-824484D02*
G01*
X6554685Y-824484D01*
X6570179Y-829563D01*
X6575513Y-834897D01*
X6580593Y-845312D01*
X6580593Y-855726D01*
X6575513Y-866139D01*
X6570179Y-871220D01*
X6554685Y-876300D01*
X6507949Y-876300D01*
X6544271Y-876300D02*
G01*
X6580593Y-933450D01*
X6614883Y-845312D02*
G01*
X6625297Y-839978D01*
X6641045Y-824484D01*
X6641045Y-933450D01*
X6675335Y-845312D02*
G01*
X6685749Y-839978D01*
X6701243Y-824484D01*
X6701243Y-933450D01*
X3710152Y-3644392D02*
G01*
X3704818Y-3633978D01*
X3694658Y-3623563D01*
X3684244Y-3618484D01*
X3663416Y-3618484D01*
X3653002Y-3623563D01*
X3642588Y-3633978D01*
X3637508Y-3644392D01*
X3632174Y-3660139D01*
X3632174Y-3686047D01*
X3637508Y-3701542D01*
X3642588Y-3711955D01*
X3653002Y-3722370D01*
X3663416Y-3727450D01*
X3684244Y-3727450D01*
X3694658Y-3722370D01*
X3704818Y-3711955D01*
X3710152Y-3701542D01*
X3754856Y-3618484D02*
G01*
X3812006Y-3618484D01*
X3780764Y-3660139D01*
X3796258Y-3660139D01*
X3806672Y-3665220D01*
X3812006Y-3670300D01*
X3817086Y-3686047D01*
X3817086Y-3696462D01*
X3812006Y-3711955D01*
X3801592Y-3722370D01*
X3786098Y-3727450D01*
X3770350Y-3727450D01*
X3754856Y-3722370D01*
X3749522Y-3717289D01*
X3744442Y-3706876D01*
X3722852Y-3339592D02*
G01*
X3717518Y-3329178D01*
X3707358Y-3318763D01*
X3696944Y-3313684D01*
X3676116Y-3313684D01*
X3665702Y-3318763D01*
X3655288Y-3329178D01*
X3650208Y-3339592D01*
X3644874Y-3355339D01*
X3644874Y-3381247D01*
X3650208Y-3396742D01*
X3655288Y-3407155D01*
X3665702Y-3417570D01*
X3676116Y-3422650D01*
X3696944Y-3422650D01*
X3707358Y-3417570D01*
X3717518Y-3407155D01*
X3722852Y-3396742D01*
X3808958Y-3313684D02*
G01*
X3757142Y-3386328D01*
X3835120Y-3386328D01*
X3808958Y-3313684D02*
G01*
X3808958Y-3422650D01*
X3722852Y-3047492D02*
G01*
X3717518Y-3037078D01*
X3707358Y-3026663D01*
X3696944Y-3021584D01*
X3676116Y-3021584D01*
X3665702Y-3026663D01*
X3655288Y-3037078D01*
X3650208Y-3047492D01*
X3644874Y-3063239D01*
X3644874Y-3089147D01*
X3650208Y-3104642D01*
X3655288Y-3115055D01*
X3665702Y-3125470D01*
X3676116Y-3130550D01*
X3696944Y-3130550D01*
X3707358Y-3125470D01*
X3717518Y-3115055D01*
X3722852Y-3104642D01*
X3819372Y-3021584D02*
G01*
X3767556Y-3021584D01*
X3762222Y-3068320D01*
X3767556Y-3063239D01*
X3783050Y-3057905D01*
X3798798Y-3057905D01*
X3814292Y-3063239D01*
X3824706Y-3073400D01*
X3829786Y-3089147D01*
X3829786Y-3099562D01*
X3824706Y-3115055D01*
X3814292Y-3125470D01*
X3798798Y-3130550D01*
X3783050Y-3130550D01*
X3767556Y-3125470D01*
X3762222Y-3120389D01*
X3757142Y-3109976D01*
X3199891Y-3744747D02*
G01*
X3189477Y-3750081D01*
X3179063Y-3760241D01*
X3173984Y-3770655D01*
X3173984Y-3791483D01*
X3179063Y-3801897D01*
X3189477Y-3812311D01*
X3199891Y-3817391D01*
X3215640Y-3822725D01*
X3241547Y-3822725D01*
X3257041Y-3817391D01*
X3267456Y-3812311D01*
X3277870Y-3801897D01*
X3282950Y-3791483D01*
X3282950Y-3770655D01*
X3277870Y-3760241D01*
X3267456Y-3750081D01*
X3257041Y-3744747D01*
X3189477Y-3648227D02*
G01*
X3179063Y-3653307D01*
X3173984Y-3668801D01*
X3173984Y-3679215D01*
X3179063Y-3694963D01*
X3194811Y-3705377D01*
X3220720Y-3710457D01*
X3246627Y-3710457D01*
X3267456Y-3705377D01*
X3277870Y-3694963D01*
X3282950Y-3679215D01*
X3282950Y-3674135D01*
X3277870Y-3658641D01*
X3267456Y-3648227D01*
X3251961Y-3642893D01*
X3246627Y-3642893D01*
X3231134Y-3648227D01*
X3220720Y-3658641D01*
X3215640Y-3674135D01*
X3215640Y-3679215D01*
X3220720Y-3694963D01*
X3231134Y-3705377D01*
X3246627Y-3710457D01*
X3199891Y-3300247D02*
G01*
X3189477Y-3305581D01*
X3179063Y-3315741D01*
X3173984Y-3326155D01*
X3173984Y-3346983D01*
X3179063Y-3357397D01*
X3189477Y-3367811D01*
X3199891Y-3372891D01*
X3215640Y-3378225D01*
X3241547Y-3378225D01*
X3257041Y-3372891D01*
X3267456Y-3367811D01*
X3277870Y-3357397D01*
X3282950Y-3346983D01*
X3282950Y-3326155D01*
X3277870Y-3315741D01*
X3267456Y-3305581D01*
X3257041Y-3300247D01*
X3173984Y-3193313D02*
G01*
X3282950Y-3245129D01*
X3173984Y-3265957D02*
G01*
X3173984Y-3193313D01*
X1386052Y-2082292D02*
G01*
X1380718Y-2071878D01*
X1370558Y-2061463D01*
X1360144Y-2056384D01*
X1339316Y-2056384D01*
X1328902Y-2061463D01*
X1318488Y-2071878D01*
X1313408Y-2082292D01*
X1308074Y-2098039D01*
X1308074Y-2123947D01*
X1313408Y-2139442D01*
X1318488Y-2149855D01*
X1328902Y-2160270D01*
X1339316Y-2165350D01*
X1360144Y-2165350D01*
X1370558Y-2160270D01*
X1380718Y-2149855D01*
X1386052Y-2139442D01*
X1446250Y-2056384D02*
G01*
X1430756Y-2061463D01*
X1425422Y-2071878D01*
X1425422Y-2082292D01*
X1430756Y-2092705D01*
X1441170Y-2098039D01*
X1461998Y-2103120D01*
X1477492Y-2108200D01*
X1487906Y-2118613D01*
X1492986Y-2129028D01*
X1492986Y-2144776D01*
X1487906Y-2155189D01*
X1482572Y-2160270D01*
X1467078Y-2165350D01*
X1446250Y-2165350D01*
X1430756Y-2160270D01*
X1425422Y-2155189D01*
X1420342Y-2144776D01*
X1420342Y-2129028D01*
X1425422Y-2118613D01*
X1435836Y-2108200D01*
X1451584Y-2103120D01*
X1472158Y-2098039D01*
X1482572Y-2092705D01*
X1487906Y-2082292D01*
X1487906Y-2071878D01*
X1482572Y-2061463D01*
X1467078Y-2056384D01*
X1446250Y-2056384D01*
X1703552Y-2082292D02*
G01*
X1698218Y-2071878D01*
X1688058Y-2061463D01*
X1677644Y-2056384D01*
X1656816Y-2056384D01*
X1646402Y-2061463D01*
X1635988Y-2071878D01*
X1630908Y-2082292D01*
X1625574Y-2098039D01*
X1625574Y-2123947D01*
X1630908Y-2139442D01*
X1635988Y-2149855D01*
X1646402Y-2160270D01*
X1656816Y-2165350D01*
X1677644Y-2165350D01*
X1688058Y-2160270D01*
X1698218Y-2149855D01*
X1703552Y-2139442D01*
X1805406Y-2092705D02*
G01*
X1800072Y-2108200D01*
X1789658Y-2118613D01*
X1774164Y-2123947D01*
X1769084Y-2123947D01*
X1753336Y-2118613D01*
X1742922Y-2108200D01*
X1737842Y-2092705D01*
X1737842Y-2087626D01*
X1742922Y-2071878D01*
X1753336Y-2061463D01*
X1769084Y-2056384D01*
X1774164Y-2056384D01*
X1789658Y-2061463D01*
X1800072Y-2071878D01*
X1805406Y-2092705D01*
X1805406Y-2118613D01*
X1800072Y-2144776D01*
X1789658Y-2160270D01*
X1774164Y-2165350D01*
X1763750Y-2165350D01*
X1748256Y-2160270D01*
X1742922Y-2149855D01*
X1995652Y-2082292D02*
G01*
X1990318Y-2071878D01*
X1980158Y-2061463D01*
X1969744Y-2056384D01*
X1948916Y-2056384D01*
X1938502Y-2061463D01*
X1928088Y-2071878D01*
X1923008Y-2082292D01*
X1917674Y-2098039D01*
X1917674Y-2123947D01*
X1923008Y-2139442D01*
X1928088Y-2149855D01*
X1938502Y-2160270D01*
X1948916Y-2165350D01*
X1969744Y-2165350D01*
X1980158Y-2160270D01*
X1990318Y-2149855D01*
X1995652Y-2139442D01*
X2029942Y-2077212D02*
G01*
X2040356Y-2071878D01*
X2055850Y-2056384D01*
X2055850Y-2165350D01*
X2121382Y-2056384D02*
G01*
X2105888Y-2061463D01*
X2095474Y-2077212D01*
X2090140Y-2103120D01*
X2090140Y-2118613D01*
X2095474Y-2144776D01*
X2105888Y-2160270D01*
X2121382Y-2165350D01*
X2131796Y-2165350D01*
X2147290Y-2160270D01*
X2157704Y-2144776D01*
X2163038Y-2118613D01*
X2163038Y-2103120D01*
X2157704Y-2077212D01*
X2147290Y-2061463D01*
X2131796Y-2056384D01*
X2121382Y-2056384D01*
X7379208Y-2770378D02*
G01*
X7389622Y-2765044D01*
X7400036Y-2754629D01*
X7405115Y-2744470D01*
X7405115Y-2723642D01*
X7400036Y-2713228D01*
X7389622Y-2702813D01*
X7379208Y-2697479D01*
X7363459Y-2692400D01*
X7337552Y-2692400D01*
X7322058Y-2697479D01*
X7311643Y-2702813D01*
X7301229Y-2713228D01*
X7296150Y-2723642D01*
X7296150Y-2744470D01*
X7301229Y-2754629D01*
X7311643Y-2765044D01*
X7322058Y-2770378D01*
X7384288Y-2804668D02*
G01*
X7389622Y-2815081D01*
X7405115Y-2830576D01*
X7296150Y-2830576D01*
X7384288Y-2864865D02*
G01*
X7389622Y-2875279D01*
X7405115Y-2890773D01*
X7296150Y-2890773D01*
X5880608Y-3278378D02*
G01*
X5891022Y-3273044D01*
X5901436Y-3262629D01*
X5906515Y-3252470D01*
X5906515Y-3231642D01*
X5901436Y-3221228D01*
X5891022Y-3210813D01*
X5880608Y-3205479D01*
X5864859Y-3200400D01*
X5838952Y-3200400D01*
X5823458Y-3205479D01*
X5813043Y-3210813D01*
X5802629Y-3221228D01*
X5797550Y-3231642D01*
X5797550Y-3252470D01*
X5802629Y-3262629D01*
X5813043Y-3273044D01*
X5823458Y-3278378D01*
X5885688Y-3312668D02*
G01*
X5891022Y-3323081D01*
X5906515Y-3338576D01*
X5797550Y-3338576D01*
X5880608Y-3378200D02*
G01*
X5885688Y-3378200D01*
X5896102Y-3383279D01*
X5901436Y-3388360D01*
X5906515Y-3398773D01*
X5906515Y-3419602D01*
X5901436Y-3430015D01*
X5896102Y-3435350D01*
X5885688Y-3440429D01*
X5875274Y-3440429D01*
X5864859Y-3435350D01*
X5849365Y-3424936D01*
X5797550Y-3372865D01*
X5797550Y-3445510D01*
X4726177Y-3403092D02*
G01*
X4720843Y-3392678D01*
X4710429Y-3382263D01*
X4700270Y-3377184D01*
X4679441Y-3377184D01*
X4669027Y-3382263D01*
X4658613Y-3392678D01*
X4653279Y-3403092D01*
X4648200Y-3418839D01*
X4648200Y-3444747D01*
X4653279Y-3460242D01*
X4658613Y-3470655D01*
X4669027Y-3481070D01*
X4679441Y-3486150D01*
X4700270Y-3486150D01*
X4710429Y-3481070D01*
X4720843Y-3470655D01*
X4726177Y-3460242D01*
X4760468Y-3398012D02*
G01*
X4770881Y-3392678D01*
X4786375Y-3377184D01*
X4786375Y-3486150D01*
X4831079Y-3377184D02*
G01*
X4888229Y-3377184D01*
X4856988Y-3418839D01*
X4872736Y-3418839D01*
X4883150Y-3423920D01*
X4888229Y-3429000D01*
X4893309Y-3444747D01*
X4893309Y-3455162D01*
X4888229Y-3470655D01*
X4877815Y-3481070D01*
X4862322Y-3486150D01*
X4846574Y-3486150D01*
X4831079Y-3481070D01*
X4826000Y-3475989D01*
X4820665Y-3465576D01*
X4825491Y-2627147D02*
G01*
X4815077Y-2632481D01*
X4804663Y-2642641D01*
X4799584Y-2653055D01*
X4799584Y-2673883D01*
X4804663Y-2684297D01*
X4815077Y-2694711D01*
X4825491Y-2699791D01*
X4841240Y-2705125D01*
X4867147Y-2705125D01*
X4882641Y-2699791D01*
X4893056Y-2694711D01*
X4903470Y-2684297D01*
X4908550Y-2673883D01*
X4908550Y-2653055D01*
X4903470Y-2642641D01*
X4893056Y-2632481D01*
X4882641Y-2627147D01*
X4820411Y-2592857D02*
G01*
X4815077Y-2582443D01*
X4799584Y-2566949D01*
X4908550Y-2566949D01*
X4799584Y-2480589D02*
G01*
X4872227Y-2532659D01*
X4872227Y-2454681D01*
X4799584Y-2480589D02*
G01*
X4908550Y-2480589D01*
X4421352Y-3403092D02*
G01*
X4416018Y-3392678D01*
X4405858Y-3382263D01*
X4395444Y-3377184D01*
X4374616Y-3377184D01*
X4364202Y-3382263D01*
X4353788Y-3392678D01*
X4348708Y-3403092D01*
X4343374Y-3418839D01*
X4343374Y-3444747D01*
X4348708Y-3460242D01*
X4353788Y-3470655D01*
X4364202Y-3481070D01*
X4374616Y-3486150D01*
X4395444Y-3486150D01*
X4405858Y-3481070D01*
X4416018Y-3470655D01*
X4421352Y-3460242D01*
X4455642Y-3398012D02*
G01*
X4466056Y-3392678D01*
X4481550Y-3377184D01*
X4481550Y-3486150D01*
X4578324Y-3377184D02*
G01*
X4526254Y-3377184D01*
X4521174Y-3423920D01*
X4526254Y-3418839D01*
X4541748Y-3413505D01*
X4557496Y-3413505D01*
X4572990Y-3418839D01*
X4583404Y-3429000D01*
X4588738Y-3444747D01*
X4588738Y-3455162D01*
X4583404Y-3470655D01*
X4572990Y-3481070D01*
X4557496Y-3486150D01*
X4541748Y-3486150D01*
X4526254Y-3481070D01*
X4521174Y-3475989D01*
X4515840Y-3465576D01*
X4091152Y-3403092D02*
G01*
X4085818Y-3392678D01*
X4075658Y-3382263D01*
X4065244Y-3377184D01*
X4044416Y-3377184D01*
X4034002Y-3382263D01*
X4023588Y-3392678D01*
X4018508Y-3403092D01*
X4013174Y-3418839D01*
X4013174Y-3444747D01*
X4018508Y-3460242D01*
X4023588Y-3470655D01*
X4034002Y-3481070D01*
X4044416Y-3486150D01*
X4065244Y-3486150D01*
X4075658Y-3481070D01*
X4085818Y-3470655D01*
X4091152Y-3460242D01*
X4125442Y-3398012D02*
G01*
X4135856Y-3392678D01*
X4151350Y-3377184D01*
X4151350Y-3486150D01*
X4248124Y-3392678D02*
G01*
X4242790Y-3382263D01*
X4227296Y-3377184D01*
X4216882Y-3377184D01*
X4201388Y-3382263D01*
X4190974Y-3398012D01*
X4185640Y-3423920D01*
X4185640Y-3449828D01*
X4190974Y-3470655D01*
X4201388Y-3481070D01*
X4216882Y-3486150D01*
X4221962Y-3486150D01*
X4237710Y-3481070D01*
X4248124Y-3470655D01*
X4253204Y-3455162D01*
X4253204Y-3449828D01*
X4248124Y-3434334D01*
X4237710Y-3423920D01*
X4221962Y-3418839D01*
X4216882Y-3418839D01*
X4201388Y-3423920D01*
X4190974Y-3434334D01*
X4185640Y-3449828D01*
G36*
X6178397Y-3621582D02*
G01*
X6178397Y-3771798D01*
X6193637Y-3771798D01*
X6193637Y-3621582D01*
G37*
G36*
X7395362Y-3619601D02*
G01*
X7395362Y-3769817D01*
X7410602Y-3769817D01*
X7410602Y-3619601D01*
G37*
D11*
X5308600Y-3949700D02*
G01*
X5054600Y-3949700D01*
X5054600Y-3695700D01*
X5308600Y-3695700D01*
X5308600Y-3886200D01*
D12*
X5308600Y-3949700D02*
G01*
X5308600Y-3886200D01*
D11*
X5854700Y-3949700D02*
G01*
X5600700Y-3949700D01*
X5600700Y-3695700D01*
X5854700Y-3695700D01*
X5854700Y-3886200D01*
D12*
X5854700Y-3949700D02*
G01*
X5854700Y-3886200D01*
D11*
X4711700Y-368300D02*
G01*
X4711700Y-114300D01*
X5727700Y-114300D01*
X5727700Y-368300D01*
X5537200Y-368300D01*
D12*
X4711700Y-368300D02*
G01*
X5537200Y-368300D01*
D11*
X431800Y-2933700D02*
G01*
X431800Y-3187700D01*
X180339Y-3187700D01*
X180339Y-2425700D01*
X431800Y-2425700D01*
X431800Y-2933700D01*
D13*
X5930900Y-1551655D02*
G01*
X5930900Y-1775744D01*
X5355686Y-1358900D02*
G01*
X5845713Y-1358900D01*
X5270500Y-1551655D02*
G01*
X5270500Y-1775744D01*
X5355686Y-1968500D02*
G01*
X5845713Y-1968500D01*
X7061200Y-1551655D02*
G01*
X7061200Y-1775744D01*
X6485986Y-1358900D02*
G01*
X6976013Y-1358900D01*
X6400800Y-1551655D02*
G01*
X6400800Y-1775744D01*
X6485986Y-1968500D02*
G01*
X6976013Y-1968500D01*
D14*
X6218001Y-3616703D02*
G01*
X6218001Y-3608697D01*
X6238001Y-3588699D01*
X6734002Y-3588699D01*
X6734002Y-3799700D01*
X6238999Y-3799700D01*
X6218001Y-3616703D02*
G01*
X6218001Y-3778702D01*
X6238999Y-3799700D01*
X7370998Y-3774696D02*
G01*
X7370998Y-3782702D01*
X7350998Y-3802700D01*
X6854997Y-3802700D01*
X6854997Y-3591699D01*
X7350000Y-3591699D01*
X7370998Y-3774696D02*
G01*
X7370998Y-3612697D01*
X7350000Y-3591699D01*
D13*
X5501485Y-2865120D02*
G01*
X5801499Y-2865120D01*
X5801499Y-2438400D01*
X5797791Y-2438400D02*
G01*
X5501500Y-2438400D01*
X5501485Y-2578100D02*
G01*
X5501485Y-2438400D01*
X5501485Y-2865120D02*
G01*
X5501485Y-2725420D01*
X3606800Y-1638300D02*
G01*
X3657600Y-1587500D01*
X3987800Y-1587500D01*
X4038600Y-1638300D01*
X4000500Y-1676400D01*
X3644900Y-1676400D01*
X3606800Y-1638300D01*
X3568700Y-1612900D02*
G01*
X3530600Y-1574800D01*
X3568700Y-1257300D01*
X3606800Y-1219200D01*
X3657600Y-1270000D01*
X3619500Y-1562100D01*
X3568700Y-1612900D01*
X3657600Y-1206500D02*
G01*
X3695700Y-1168400D01*
X4051300Y-1168400D01*
X4076700Y-1193800D01*
X4025900Y-1244600D01*
X3695700Y-1244600D01*
X3657600Y-1206500D01*
X3695700Y-749300D02*
G01*
X3746500Y-800100D01*
X4076700Y-800100D01*
X4127500Y-749300D01*
X4089400Y-711200D01*
X3733800Y-711200D01*
X3695700Y-749300D01*
X4127500Y-1181100D02*
G01*
X4165600Y-1143000D01*
X4203700Y-825500D01*
X4165600Y-787400D01*
X4114800Y-838200D01*
X4076700Y-1130300D01*
X4127500Y-1181100D01*
X4076700Y-1612900D02*
G01*
X4114800Y-1574800D01*
X4152900Y-1257300D01*
X4114800Y-1219200D01*
X4064000Y-1270000D01*
X4025900Y-1562100D01*
X4076700Y-1612900D01*
X3619500Y-1181100D02*
G01*
X3581400Y-1143000D01*
X3619500Y-825500D01*
X3657600Y-787400D01*
X3708400Y-838200D01*
X3670300Y-1130300D01*
X3619500Y-1181100D01*
X2730500Y-1638300D02*
G01*
X2781300Y-1587500D01*
X3111500Y-1587500D01*
X3162300Y-1638300D01*
X3124200Y-1676400D01*
X2768600Y-1676400D01*
X2730500Y-1638300D01*
X2692400Y-1612900D02*
G01*
X2654300Y-1574800D01*
X2692400Y-1257300D01*
X2730500Y-1219200D01*
X2781300Y-1270000D01*
X2743200Y-1562100D01*
X2692400Y-1612900D01*
X2781300Y-1206500D02*
G01*
X2819400Y-1168400D01*
X3175000Y-1168400D01*
X3200400Y-1193800D01*
X3149600Y-1244600D01*
X2819400Y-1244600D01*
X2781300Y-1206500D01*
X2819400Y-749300D02*
G01*
X2870200Y-800100D01*
X3200400Y-800100D01*
X3251200Y-749300D01*
X3213100Y-711200D01*
X2857500Y-711200D01*
X2819400Y-749300D01*
X3251200Y-1181100D02*
G01*
X3289300Y-1143000D01*
X3327400Y-825500D01*
X3289300Y-787400D01*
X3238500Y-838200D01*
X3200400Y-1130300D01*
X3251200Y-1181100D01*
X3200400Y-1612900D02*
G01*
X3238500Y-1574800D01*
X3276600Y-1257300D01*
X3238500Y-1219200D01*
X3187700Y-1270000D01*
X3149600Y-1562100D01*
X3200400Y-1612900D01*
X2743200Y-1181100D02*
G01*
X2705100Y-1143000D01*
X2743200Y-825500D01*
X2781300Y-787400D01*
X2832100Y-838200D01*
X2794000Y-1130300D01*
X2743200Y-1181100D01*
X1828800Y-1638300D02*
G01*
X1879600Y-1587500D01*
X2209800Y-1587500D01*
X2260600Y-1638300D01*
X2222500Y-1676400D01*
X1866900Y-1676400D01*
X1828800Y-1638300D01*
X1790700Y-1612900D02*
G01*
X1752600Y-1574800D01*
X1790700Y-1257300D01*
X1828800Y-1219200D01*
X1879600Y-1270000D01*
X1841500Y-1562100D01*
X1790700Y-1612900D01*
X1879600Y-1206500D02*
G01*
X1917700Y-1168400D01*
X2273300Y-1168400D01*
X2298700Y-1193800D01*
X2247900Y-1244600D01*
X1917700Y-1244600D01*
X1879600Y-1206500D01*
X1917700Y-749300D02*
G01*
X1968500Y-800100D01*
X2298700Y-800100D01*
X2349500Y-749300D01*
X2311400Y-711200D01*
X1955800Y-711200D01*
X1917700Y-749300D01*
X2349500Y-1181100D02*
G01*
X2387600Y-1143000D01*
X2425700Y-825500D01*
X2387600Y-787400D01*
X2336800Y-838200D01*
X2298700Y-1130300D01*
X2349500Y-1181100D01*
X2298700Y-1612900D02*
G01*
X2336800Y-1574800D01*
X2374900Y-1257300D01*
X2336800Y-1219200D01*
X2286000Y-1270000D01*
X2247900Y-1562100D01*
X2298700Y-1612900D01*
X1841500Y-1181100D02*
G01*
X1803400Y-1143000D01*
X1841500Y-825500D01*
X1879600Y-787400D01*
X1930400Y-838200D01*
X1892300Y-1130300D01*
X1841500Y-1181100D01*
X952500Y-1638300D02*
G01*
X1003300Y-1587500D01*
X1333500Y-1587500D01*
X1384300Y-1638300D01*
X1346200Y-1676400D01*
X990600Y-1676400D01*
X952500Y-1638300D01*
X914400Y-1612900D02*
G01*
X876300Y-1574800D01*
X914400Y-1257300D01*
X952500Y-1219200D01*
X1003300Y-1270000D01*
X965200Y-1562100D01*
X914400Y-1612900D01*
X1003300Y-1206500D02*
G01*
X1041400Y-1168400D01*
X1397000Y-1168400D01*
X1422400Y-1193800D01*
X1371600Y-1244600D01*
X1041400Y-1244600D01*
X1003300Y-1206500D01*
X1041400Y-749300D02*
G01*
X1092200Y-800100D01*
X1422400Y-800100D01*
X1473200Y-749300D01*
X1435100Y-711200D01*
X1079500Y-711200D01*
X1041400Y-749300D01*
X1473200Y-1181100D02*
G01*
X1511300Y-1143000D01*
X1549400Y-825500D01*
X1511300Y-787400D01*
X1460500Y-838200D01*
X1422400Y-1130300D01*
X1473200Y-1181100D01*
X1422400Y-1612900D02*
G01*
X1460500Y-1574800D01*
X1498600Y-1257300D01*
X1460500Y-1219200D01*
X1409700Y-1270000D01*
X1371600Y-1562100D01*
X1422400Y-1612900D01*
X965200Y-1181100D02*
G01*
X927100Y-1143000D01*
X965200Y-825500D01*
X1003300Y-787400D01*
X1054100Y-838200D01*
X1016000Y-1130300D01*
X965200Y-1181100D01*
X1828800Y-1981200D02*
G01*
X1905000Y-2057400D01*
X1981200Y-1981200D01*
X508000Y-393700D02*
G01*
X4572000Y-393700D01*
X4572000Y-1983689D01*
X508000Y-1983689D01*
X508000Y-393700D01*
D15*
X2622229Y-2861068D02*
G01*
X3060466Y-3299305D01*
X2589900Y-3769870D01*
X2121133Y-3301100D01*
X2591699Y-2830535D01*
X2645580Y-2884418D01*
D13*
X6909790Y-3227603D02*
G01*
X6399784Y-3227603D01*
X6399809Y-3227603D02*
G01*
X6399809Y-2817596D01*
X6399809Y-2817596D02*
G01*
X6909815Y-2817596D01*
X6909790Y-3102610D02*
G01*
X6909790Y-3227603D01*
X6909790Y-2942589D02*
G01*
X6909790Y-2817596D01*
D10*
X5078481Y-3263879D02*
G01*
X5078481Y-3441720D01*
X5386318Y-3263879D02*
G01*
X5386318Y-3441720D01*
X4809520Y-3124420D02*
G01*
X4639279Y-3124420D01*
X4809520Y-2819179D02*
G01*
X4639279Y-2819179D01*
X4639279Y-2924159D02*
G01*
X4639279Y-3019440D01*
D13*
X8244611Y-1260906D02*
G01*
X8244611Y-2310917D01*
X7744612Y-2310917D01*
X7744612Y-1260906D01*
X8244611Y-1260906D01*
X8151764Y-2533774D02*
G01*
X8151797Y-3333772D01*
X7993164Y-3333772D02*
G01*
X8149790Y-3333772D01*
X7993164Y-2533774D02*
G01*
X8151797Y-2533774D01*
X7575801Y-3333772D02*
G01*
X7753164Y-3333772D01*
X7575763Y-2533700D02*
G01*
X7753164Y-2533675D01*
X7575763Y-2605199D02*
G01*
X7575801Y-2533799D01*
X7575801Y-3333772D02*
G01*
X7575801Y-3262200D01*
X8149790Y-3330775D02*
G01*
X8139808Y-3330775D01*
X8080804Y-3271771D01*
X8151797Y-2535781D02*
G01*
X8139808Y-2535781D01*
X8080804Y-2594785D01*
X8080804Y-2594785D02*
G01*
X8080804Y-3271771D01*
D16*
X1785599Y-3633096D02*
G01*
X1785599Y-2993100D01*
X1465595Y-2993100D02*
G01*
X1465595Y-3633096D01*
X1845597Y-2983097D02*
G01*
X1845597Y-3643094D01*
X1405597Y-3643094D02*
G01*
X1405597Y-2983097D01*
D10*
X7267209Y-3228980D02*
G01*
X7267209Y-3100486D01*
X7083790Y-3100486D01*
X7083790Y-3228980D01*
X7267209Y-3324219D02*
G01*
X7267209Y-3452713D01*
X7083790Y-3452713D01*
X7083790Y-3324219D01*
X6378209Y-2505080D02*
G01*
X6378209Y-2376586D01*
X6194790Y-2376586D01*
X6194790Y-2505080D01*
X6378209Y-2600319D02*
G01*
X6378209Y-2728813D01*
X6194790Y-2728813D01*
X6194790Y-2600319D01*
X6232519Y-3533409D02*
G01*
X6361013Y-3533409D01*
X6361013Y-3349990D01*
X6232519Y-3349990D01*
X6137280Y-3533409D02*
G01*
X6008786Y-3533409D01*
X6008786Y-3349990D01*
X6137280Y-3349990D01*
X6055090Y-3133719D02*
G01*
X6055090Y-3262213D01*
X6238509Y-3262213D01*
X6238509Y-3133719D01*
X6055090Y-3038480D02*
G01*
X6055090Y-2909986D01*
X6238509Y-2909986D01*
X6238509Y-3038480D01*
X2727690Y-2435219D02*
G01*
X2727690Y-2563713D01*
X2911109Y-2563713D01*
X2911109Y-2435219D01*
X2727690Y-2339980D02*
G01*
X2727690Y-2211486D01*
X2911109Y-2211486D01*
X2911109Y-2339980D01*
X3083290Y-2435219D02*
G01*
X3083290Y-2563713D01*
X3266709Y-2563713D01*
X3266709Y-2435219D01*
X3083290Y-2339980D02*
G01*
X3083290Y-2211486D01*
X3266709Y-2211486D01*
X3266709Y-2339980D01*
X3400790Y-2435219D02*
G01*
X3400790Y-2563713D01*
X3584209Y-2563713D01*
X3584209Y-2435219D01*
X3400790Y-2339980D02*
G01*
X3400790Y-2211486D01*
X3584209Y-2211486D01*
X3584209Y-2339980D01*
X3718290Y-2435219D02*
G01*
X3718290Y-2563713D01*
X3901709Y-2563713D01*
X3901709Y-2435219D01*
X3718290Y-2339980D02*
G01*
X3718290Y-2211486D01*
X3901709Y-2211486D01*
X3901709Y-2339980D01*
X6137280Y-962390D02*
G01*
X6008786Y-962390D01*
X6008786Y-1145809D01*
X6137280Y-1145809D01*
X6232519Y-962390D02*
G01*
X6361013Y-962390D01*
X6361013Y-1145809D01*
X6232519Y-1145809D01*
X6638919Y-1145809D02*
G01*
X6767413Y-1145809D01*
X6767413Y-962390D01*
X6638919Y-962390D01*
X6543680Y-1145809D02*
G01*
X6415186Y-1145809D01*
X6415186Y-962390D01*
X6543680Y-962390D01*
X3914919Y-3732339D02*
G01*
X3773919Y-3732339D01*
X3773919Y-3913060D02*
G01*
X3914919Y-3913060D01*
X3930159Y-3897820D02*
G01*
X3930159Y-3747579D01*
X3552680Y-3732339D02*
G01*
X3693680Y-3732339D01*
X3693680Y-3913060D02*
G01*
X3552680Y-3913060D01*
X3537440Y-3897820D02*
G01*
X3537440Y-3747579D01*
X3914919Y-3440239D02*
G01*
X3773919Y-3440239D01*
X3773919Y-3620960D02*
G01*
X3914919Y-3620960D01*
X3930159Y-3605720D02*
G01*
X3930159Y-3455479D01*
X3552680Y-3440239D02*
G01*
X3693680Y-3440239D01*
X3693680Y-3620960D02*
G01*
X3552680Y-3620960D01*
X3537440Y-3605720D02*
G01*
X3537440Y-3455479D01*
X3914919Y-3148139D02*
G01*
X3773919Y-3148139D01*
X3773919Y-3328860D02*
G01*
X3914919Y-3328860D01*
X3930159Y-3313620D02*
G01*
X3930159Y-3163379D01*
X3552680Y-3148139D02*
G01*
X3693680Y-3148139D01*
X3693680Y-3328860D02*
G01*
X3552680Y-3328860D01*
X3537440Y-3313620D02*
G01*
X3537440Y-3163379D01*
X3481260Y-3914919D02*
G01*
X3481260Y-3773919D01*
X3300539Y-3773919D02*
G01*
X3300539Y-3914919D01*
X3315779Y-3930159D02*
G01*
X3466020Y-3930159D01*
X3481260Y-3552680D02*
G01*
X3481260Y-3693680D01*
X3300539Y-3693680D02*
G01*
X3300539Y-3552680D01*
X3315779Y-3537440D02*
G01*
X3466020Y-3537440D01*
X3300539Y-3108180D02*
G01*
X3300539Y-3249180D01*
X3481260Y-3249180D02*
G01*
X3481260Y-3108180D01*
X3466020Y-3092940D02*
G01*
X3315779Y-3092940D01*
X3300539Y-3470419D02*
G01*
X3300539Y-3329419D01*
X3481260Y-3329419D02*
G01*
X3481260Y-3470419D01*
X3466020Y-3485659D02*
G01*
X3315779Y-3485659D01*
X1500060Y-2594119D02*
G01*
X1500060Y-2453119D01*
X1319339Y-2453119D02*
G01*
X1319339Y-2594119D01*
X1334579Y-2609359D02*
G01*
X1484820Y-2609359D01*
X1500060Y-2231880D02*
G01*
X1500060Y-2372880D01*
X1319339Y-2372880D02*
G01*
X1319339Y-2231880D01*
X1334579Y-2216640D02*
G01*
X1484820Y-2216640D01*
X1804860Y-2594119D02*
G01*
X1804860Y-2453119D01*
X1624139Y-2453119D02*
G01*
X1624139Y-2594119D01*
X1639379Y-2609359D02*
G01*
X1789620Y-2609359D01*
X1804860Y-2231880D02*
G01*
X1804860Y-2372880D01*
X1624139Y-2372880D02*
G01*
X1624139Y-2231880D01*
X1639379Y-2216640D02*
G01*
X1789620Y-2216640D01*
X2109660Y-2594119D02*
G01*
X2109660Y-2453119D01*
X1928939Y-2453119D02*
G01*
X1928939Y-2594119D01*
X1944179Y-2609359D02*
G01*
X2094420Y-2609359D01*
X2109660Y-2231880D02*
G01*
X2109660Y-2372880D01*
X1928939Y-2372880D02*
G01*
X1928939Y-2231880D01*
X1944179Y-2216640D02*
G01*
X2094420Y-2216640D01*
X7278560Y-2987819D02*
G01*
X7278560Y-2846819D01*
X7097839Y-2846819D02*
G01*
X7097839Y-2987819D01*
X7113079Y-3003059D02*
G01*
X7263320Y-3003059D01*
X7278560Y-2625580D02*
G01*
X7278560Y-2766580D01*
X7097839Y-2766580D02*
G01*
X7097839Y-2625580D01*
X7113079Y-2610340D02*
G01*
X7263320Y-2610340D01*
X5586539Y-3146280D02*
G01*
X5586539Y-3287280D01*
X5767260Y-3287280D02*
G01*
X5767260Y-3146280D01*
X5752020Y-3131040D02*
G01*
X5601779Y-3131040D01*
X5586539Y-3508519D02*
G01*
X5586539Y-3367519D01*
X5767260Y-3367519D02*
G01*
X5767260Y-3508519D01*
X5752020Y-3523759D02*
G01*
X5601779Y-3523759D01*
X4852860Y-3902219D02*
G01*
X4852860Y-3761219D01*
X4672139Y-3761219D02*
G01*
X4672139Y-3902219D01*
X4687379Y-3917459D02*
G01*
X4837620Y-3917459D01*
X4852860Y-3539980D02*
G01*
X4852860Y-3680980D01*
X4672139Y-3680980D02*
G01*
X4672139Y-3539980D01*
X4687379Y-3524740D02*
G01*
X4837620Y-3524740D01*
X5144960Y-2873519D02*
G01*
X5144960Y-2732519D01*
X4964239Y-2732519D02*
G01*
X4964239Y-2873519D01*
X4979479Y-2888759D02*
G01*
X5129720Y-2888759D01*
X5144960Y-2511280D02*
G01*
X5144960Y-2652280D01*
X4964239Y-2652280D02*
G01*
X4964239Y-2511280D01*
X4979479Y-2496040D02*
G01*
X5129720Y-2496040D01*
X4354639Y-3539980D02*
G01*
X4354639Y-3680980D01*
X4535360Y-3680980D02*
G01*
X4535360Y-3539980D01*
X4520120Y-3524740D02*
G01*
X4369879Y-3524740D01*
X4354639Y-3902219D02*
G01*
X4354639Y-3761219D01*
X4535360Y-3761219D02*
G01*
X4535360Y-3902219D01*
X4520120Y-3917459D02*
G01*
X4369879Y-3917459D01*
X4037139Y-3539980D02*
G01*
X4037139Y-3680980D01*
X4217860Y-3680980D02*
G01*
X4217860Y-3539980D01*
X4202620Y-3524740D02*
G01*
X4052379Y-3524740D01*
X4037139Y-3902219D02*
G01*
X4037139Y-3761219D01*
X4217860Y-3761219D02*
G01*
X4217860Y-3902219D01*
X4202620Y-3917459D02*
G01*
X4052379Y-3917459D01*
D17*
G75*
G01*
X5477764Y-2910840D02*
G03*
X5478018Y-2910840I127J-15001D01*
D13*
G75*
G01*
X5501485Y-2578100D02*
G02*
X5501485Y-2722880I0J-72390D01*
D18*
G75*
G01*
X2064007Y-3349376D02*
G03*
X2064187Y-3349556I-14052J-14232D01*
D13*
G75*
G01*
X6904787Y-3102610D02*
G02*
X6904787Y-2942590I37528J80010D01*
D16*
G75*
G01*
X1405598Y-2983098D02*
G02*
X1845561Y-2983151I219982J-27D01*
G75*
G01*
X1845597Y-3643094D02*
G02*
X1405633Y-3643043I-219982J25D01*
G75*
G01*
X1465595Y-2993100D02*
G02*
X1785617Y-2993057I160011J-616D01*
G75*
G01*
X1785600Y-3633097D02*
G02*
X1465577Y-3633137I-160012J617D01*
D10*
G75*
G01*
X3914920Y-3913060D02*
G03*
X3930160Y-3897820I0J15240D01*
G75*
G01*
X3930160Y-3747580D02*
G03*
X3914920Y-3732340I-15240J0D01*
G75*
G01*
X3552680Y-3913060D02*
G02*
X3537440Y-3897820I0J15240D01*
G75*
G01*
X3537440Y-3747580D02*
G02*
X3552680Y-3732340I15240J0D01*
G75*
G01*
X3914920Y-3620960D02*
G03*
X3930160Y-3605720I0J15240D01*
G75*
G01*
X3930160Y-3455480D02*
G03*
X3914920Y-3440240I-15240J0D01*
G75*
G01*
X3552680Y-3620960D02*
G02*
X3537440Y-3605720I0J15240D01*
G75*
G01*
X3537440Y-3455480D02*
G02*
X3552680Y-3440240I15240J0D01*
G75*
G01*
X3914920Y-3328860D02*
G03*
X3930160Y-3313620I0J15240D01*
G75*
G01*
X3930160Y-3163380D02*
G03*
X3914920Y-3148140I-15240J0D01*
G75*
G01*
X3552680Y-3328860D02*
G02*
X3537440Y-3313620I0J15240D01*
G75*
G01*
X3537440Y-3163380D02*
G02*
X3552680Y-3148140I15240J0D01*
G75*
G01*
X3300540Y-3914920D02*
G03*
X3315779Y-3930160I15240J0D01*
G75*
G01*
X3466021Y-3930160D02*
G03*
X3481260Y-3914920I-1J15240D01*
G75*
G01*
X3300540Y-3552680D02*
G02*
X3315779Y-3537440I15240J0D01*
G75*
G01*
X3466021Y-3537440D02*
G02*
X3481260Y-3552680I-1J-15240D01*
G75*
G01*
X3481260Y-3108180D02*
G03*
X3466021Y-3092940I-15240J0D01*
G75*
G01*
X3315779Y-3092940D02*
G03*
X3300540Y-3108180I1J-15240D01*
G75*
G01*
X3481260Y-3470420D02*
G02*
X3466021Y-3485660I-15240J0D01*
G75*
G01*
X3315779Y-3485660D02*
G02*
X3300540Y-3470420I1J15240D01*
G75*
G01*
X1319340Y-2594120D02*
G03*
X1334580Y-2609360I15240J0D01*
G75*
G01*
X1484820Y-2609360D02*
G03*
X1500060Y-2594120I0J15240D01*
G75*
G01*
X1319340Y-2231880D02*
G02*
X1334580Y-2216640I15240J0D01*
G75*
G01*
X1484820Y-2216640D02*
G02*
X1500060Y-2231880I0J-15240D01*
G75*
G01*
X1624140Y-2594120D02*
G03*
X1639380Y-2609360I15240J0D01*
G75*
G01*
X1789620Y-2609360D02*
G03*
X1804860Y-2594120I0J15240D01*
G75*
G01*
X1624140Y-2231880D02*
G02*
X1639380Y-2216640I15240J0D01*
G75*
G01*
X1789620Y-2216640D02*
G02*
X1804860Y-2231880I0J-15240D01*
G75*
G01*
X1928940Y-2594120D02*
G03*
X1944179Y-2609360I15240J0D01*
G75*
G01*
X2094421Y-2609360D02*
G03*
X2109660Y-2594120I-1J15240D01*
G75*
G01*
X1928940Y-2231880D02*
G02*
X1944179Y-2216640I15240J0D01*
G75*
G01*
X2094421Y-2216640D02*
G02*
X2109660Y-2231880I-1J-15240D01*
G75*
G01*
X7097840Y-2987820D02*
G03*
X7113079Y-3003060I15240J0D01*
G75*
G01*
X7263321Y-3003060D02*
G03*
X7278560Y-2987820I-1J15240D01*
G75*
G01*
X7097840Y-2625580D02*
G02*
X7113079Y-2610340I15240J0D01*
G75*
G01*
X7263321Y-2610340D02*
G02*
X7278560Y-2625580I-1J-15240D01*
G75*
G01*
X5767260Y-3146280D02*
G03*
X5752021Y-3131040I-15240J0D01*
G75*
G01*
X5601779Y-3131040D02*
G03*
X5586540Y-3146280I1J-15240D01*
G75*
G01*
X5767260Y-3508520D02*
G02*
X5752021Y-3523760I-15240J0D01*
G75*
G01*
X5601779Y-3523760D02*
G02*
X5586540Y-3508520I1J15240D01*
G75*
G01*
X4672140Y-3902220D02*
G03*
X4687379Y-3917460I15240J0D01*
G75*
G01*
X4837621Y-3917460D02*
G03*
X4852860Y-3902220I-1J15240D01*
G75*
G01*
X4672140Y-3539980D02*
G02*
X4687379Y-3524740I15240J0D01*
G75*
G01*
X4837621Y-3524740D02*
G02*
X4852860Y-3539980I-1J-15240D01*
G75*
G01*
X4964240Y-2873520D02*
G03*
X4979479Y-2888760I15240J0D01*
G75*
G01*
X5129721Y-2888760D02*
G03*
X5144960Y-2873520I-1J15240D01*
G75*
G01*
X4964240Y-2511280D02*
G02*
X4979479Y-2496040I15240J0D01*
G75*
G01*
X5129721Y-2496040D02*
G02*
X5144960Y-2511280I-1J-15240D01*
G75*
G01*
X4535360Y-3539980D02*
G03*
X4520121Y-3524740I-15240J0D01*
G75*
G01*
X4369879Y-3524740D02*
G03*
X4354640Y-3539980I1J-15240D01*
G75*
G01*
X4535360Y-3902220D02*
G02*
X4520121Y-3917460I-15240J0D01*
G75*
G01*
X4369879Y-3917460D02*
G02*
X4354640Y-3902220I1J15240D01*
G75*
G01*
X4217860Y-3539980D02*
G03*
X4202621Y-3524740I-15240J0D01*
G75*
G01*
X4052379Y-3524740D02*
G03*
X4037140Y-3539980I1J-15240D01*
G75*
G01*
X4217860Y-3902220D02*
G02*
X4202621Y-3917460I-15240J0D01*
G75*
G01*
X4052379Y-3917460D02*
G02*
X4037140Y-3902220I1J15240D01*
D13*
G75*
G01
X5461000Y-1485900D02*
G03X5461000Y-1485900I-50800J0D01*
G75*
G01
X5448300Y-1841500D02*
G03X5448300Y-1841500I-50800J0D01*
G75*
G01
X5842000Y-1485900D02*
G03X5842000Y-1485900I-50800J0D01*
G75*
G01
X5829300Y-1841500D02*
G03X5829300Y-1841500I-50800J0D01*
G75*
G01
X5715000Y-1663700D02*
G03X5715000Y-1663700I-114300J0D01*
G75*
G01
X5750814Y-1663700D02*
G03X5750814Y-1663700I-150114J0D01*
G75*
G01
X6591300Y-1485900D02*
G03X6591300Y-1485900I-50800J0D01*
G75*
G01
X6578600Y-1841500D02*
G03X6578600Y-1841500I-50800J0D01*
G75*
G01
X6972300Y-1485900D02*
G03X6972300Y-1485900I-50800J0D01*
G75*
G01
X6959600Y-1841500D02*
G03X6959600Y-1841500I-50800J0D01*
G75*
G01
X6845300Y-1663700D02*
G03X6845300Y-1663700I-114300J0D01*
G75*
G01
X6881114Y-1663700D02*
G03X6881114Y-1663700I-150114J0D01*
G75*
G01
X1600200Y-1638300D02*
G03X1600200Y-1638300I-38100J0D01*
G75*
G01
X2476500Y-1638300D02*
G03X2476500Y-1638300I-38100J0D01*
G75*
G01
X3378200Y-1638300D02*
G03X3378200Y-1638300I-38100J0D01*
G75*
G01
X4254500Y-1638300D02*
G03X4254500Y-1638300I-38100J0D01*
G75*
G01
X2222475Y-3316859D02*
G03X2222475Y-3316859I-17043J0D01*
G75*
G01
X6974815Y-2772588D02*
G03X6974815Y-2772588I-17018J0D01*
D17*
G75*
G01
X5414239Y-3222650D02*
G03X5414239Y-3222650I-15011J0D01*
G75*
G01
X4853711Y-3136900D02*
G03X4853711Y-3136900I-15011J0D01*
M02*
