G04 Layer: BottomSolderMaskLayer*
G04 EasyEDA v6.5.47, 2024-09-12 04:01:22*
G04 8c6c83d31be245b591d831e4eff4e06b,65b0a26063cb4300b6f9becee83ce362,10*
G04 Gerber Generator version 0.2*
G04 Scale: 100 percent, Rotated: No, Reflected: No *
G04 Dimensions in millimeters *
G04 leading zeros omitted , absolute positions ,4 integer and 5 decimal *
%FSLAX45Y45*%
%MOMM*%

%AMMACRO1*4,1,8,-0.8085,-0.8382,-0.8382,-0.8084,-0.8382,0.8085,-0.8085,0.8382,0.8084,0.8382,0.8382,0.8085,0.8382,-0.8084,0.8084,-0.8382,-0.8085,-0.8382,0*%
%AMMACRO2*4,1,8,-0.7095,-0.6171,-0.7393,-0.5873,-0.7393,0.5873,-0.7095,0.6171,0.7095,0.6171,0.7393,0.5873,0.7393,-0.5873,0.7095,-0.6171,-0.7095,-0.6171,0*%
%AMMACRO3*4,1,8,-0.6961,-0.7558,-0.7258,-0.726,-0.7258,0.7261,-0.6961,0.7558,0.696,0.7558,0.7258,0.7261,0.7258,-0.726,0.696,-0.7558,-0.6961,-0.7558,0*%
%AMMACRO4*4,1,8,-0.7261,-0.7258,-0.7558,-0.696,-0.7558,0.6961,-0.7261,0.7258,0.726,0.7258,0.7558,0.6961,0.7558,-0.696,0.726,-0.7258,-0.7261,-0.7258,0*%
%ADD10MACRO1*%
%ADD11C,1.6764*%
%ADD12C,1.9016*%
%ADD13C,1.6256*%
%ADD14O,2.3015956X1.4015974000000002*%
%ADD15C,1.3016*%
%ADD16MACRO2*%
%ADD17MACRO3*%
%ADD18MACRO4*%
%ADD19O,2.0725892000000004X0.7036053999999999*%

%LPD*%
D10*
G01*
X5181600Y-3822700D03*
G01*
X5727700Y-3822700D03*
G01*
X5600700Y-241300D03*
D11*
G01*
X5346700Y-241300D03*
G01*
X5092700Y-241300D03*
G01*
X4838700Y-241300D03*
D10*
G01*
X304800Y-2552700D03*
D11*
G01*
X304800Y-2806700D03*
G01*
X304800Y-3060700D03*
D12*
G01*
X5275579Y-1438655D03*
G01*
X5275579Y-1888744D03*
G01*
X5925820Y-1438655D03*
G01*
X5925820Y-1888744D03*
G01*
X6405879Y-1438655D03*
G01*
X6405879Y-1888744D03*
G01*
X7056120Y-1438655D03*
G01*
X7056120Y-1888744D03*
G01*
X1905000Y-1828800D03*
G01*
X2159000Y-1828800D03*
G01*
X2413000Y-1828800D03*
G01*
X2667000Y-1828800D03*
G01*
X2921000Y-1828800D03*
G01*
X3175000Y-1828800D03*
G01*
X3175000Y-558800D03*
G01*
X2921000Y-558800D03*
G01*
X2667000Y-558800D03*
G01*
X2413000Y-558800D03*
G01*
X2159000Y-558800D03*
G01*
X1905000Y-558800D03*
D13*
G01*
X7594600Y-1485900D03*
G01*
X7594600Y-1785899D03*
G01*
X7594600Y-2085898D03*
D14*
G01*
X7866786Y-2573705D03*
G01*
X7866786Y-3293694D03*
D15*
G01*
X7601788Y-3176193D03*
G01*
X7601788Y-2691206D03*
D12*
G01*
X1625600Y-3557092D03*
G01*
X1625600Y-3069107D03*
D16*
G01*
X7035800Y-2995604D03*
G01*
X7035800Y-2795595D03*
D17*
G01*
X876300Y-1957397D03*
G01*
X876300Y-2157402D03*
D18*
G01*
X1725602Y-2794000D03*
G01*
X1525597Y-2794000D03*
G01*
X1725602Y-3848100D03*
G01*
X1525597Y-3848100D03*
G01*
X6592897Y-1130300D03*
G01*
X6792902Y-1130300D03*
D19*
G01*
X1416557Y-812800D03*
G01*
X1416557Y-939800D03*
G01*
X1416557Y-1066800D03*
G01*
X1416557Y-1193800D03*
G01*
X1416557Y-1320800D03*
G01*
X1416557Y-1447800D03*
G01*
X1416557Y-1574800D03*
G01*
X1416557Y-1701800D03*
G01*
X869442Y-812800D03*
G01*
X869442Y-939800D03*
G01*
X869442Y-1066800D03*
G01*
X869442Y-1193800D03*
G01*
X869442Y-1320800D03*
G01*
X869442Y-1447800D03*
G01*
X869442Y-1574800D03*
G01*
X869442Y-1701800D03*
M02*
